G04 #@! TF.GenerationSoftware,KiCad,Pcbnew,(5.1.2)-2*
G04 #@! TF.CreationDate,2020-08-07T23:42:31+09:00*
G04 #@! TF.ProjectId,IRRemo,49525265-6d6f-42e6-9b69-6361645f7063,rev?*
G04 #@! TF.SameCoordinates,Original*
G04 #@! TF.FileFunction,Legend,Bot*
G04 #@! TF.FilePolarity,Positive*
%FSLAX46Y46*%
G04 Gerber Fmt 4.6, Leading zero omitted, Abs format (unit mm)*
G04 Created by KiCad (PCBNEW (5.1.2)-2) date 2020-08-07 23:42:32*
%MOMM*%
%LPD*%
G04 APERTURE LIST*
%ADD10C,0.120000*%
%ADD11C,0.010000*%
%ADD12C,0.150000*%
G04 APERTURE END LIST*
D10*
X106474000Y-102980000D02*
X106474000Y-123080000D01*
X150574000Y-102980000D02*
X106474000Y-102980000D01*
X150574000Y-123080000D02*
X150574000Y-102980000D01*
X106474000Y-123080000D02*
X150574000Y-123080000D01*
D11*
G36*
X129919184Y-108939846D02*
G01*
X129903245Y-108941095D01*
X129890606Y-108944730D01*
X129881466Y-108950297D01*
X129875888Y-108960355D01*
X129873934Y-108977463D01*
X129875666Y-109004179D01*
X129881145Y-109043061D01*
X129890434Y-109096669D01*
X129903594Y-109167560D01*
X129909486Y-109198834D01*
X129917128Y-109240812D01*
X129927315Y-109298883D01*
X129939229Y-109368239D01*
X129952053Y-109444074D01*
X129964969Y-109521582D01*
X129977159Y-109595957D01*
X129979247Y-109608850D01*
X129989519Y-109666014D01*
X130003860Y-109737018D01*
X130021107Y-109816829D01*
X130040091Y-109900415D01*
X130059648Y-109982745D01*
X130078612Y-110058785D01*
X130095817Y-110123504D01*
X130108607Y-110167193D01*
X130125859Y-110213535D01*
X130151867Y-110272831D01*
X130184139Y-110340289D01*
X130220181Y-110411116D01*
X130257501Y-110480516D01*
X130293606Y-110543698D01*
X130326005Y-110595868D01*
X130347068Y-110625791D01*
X130416203Y-110698359D01*
X130503492Y-110760393D01*
X130608630Y-110811715D01*
X130731311Y-110852147D01*
X130739483Y-110854290D01*
X130786690Y-110865994D01*
X130832585Y-110876097D01*
X130879149Y-110884730D01*
X130928361Y-110892024D01*
X130982202Y-110898109D01*
X131042652Y-110903116D01*
X131111691Y-110907174D01*
X131191300Y-110910415D01*
X131283458Y-110912969D01*
X131390147Y-110914967D01*
X131513345Y-110916538D01*
X131655034Y-110917814D01*
X131709583Y-110918217D01*
X131838973Y-110919259D01*
X131984927Y-110920660D01*
X132142847Y-110922363D01*
X132308136Y-110924310D01*
X132476196Y-110926444D01*
X132642428Y-110928708D01*
X132802235Y-110931046D01*
X132951018Y-110933399D01*
X133006042Y-110934325D01*
X133140904Y-110936579D01*
X133282047Y-110938824D01*
X133425904Y-110941010D01*
X133568910Y-110943088D01*
X133707498Y-110945007D01*
X133838101Y-110946719D01*
X133957155Y-110948173D01*
X134061092Y-110949320D01*
X134122583Y-110949909D01*
X134213901Y-110950834D01*
X134322815Y-110952141D01*
X134445759Y-110953776D01*
X134579167Y-110955686D01*
X134719474Y-110957817D01*
X134863113Y-110960115D01*
X135006519Y-110962527D01*
X135146126Y-110964999D01*
X135239125Y-110966726D01*
X135372399Y-110969168D01*
X135510703Y-110971548D01*
X135650660Y-110973815D01*
X135788892Y-110975922D01*
X135922023Y-110977820D01*
X136046676Y-110979460D01*
X136159474Y-110980793D01*
X136257040Y-110981772D01*
X136318625Y-110982248D01*
X136456431Y-110983210D01*
X136595696Y-110984355D01*
X136734655Y-110985655D01*
X136871545Y-110987087D01*
X137004602Y-110988623D01*
X137132062Y-110990239D01*
X137252162Y-110991910D01*
X137363138Y-110993609D01*
X137463226Y-110995311D01*
X137550663Y-110996991D01*
X137623684Y-110998623D01*
X137680526Y-111000182D01*
X137719426Y-111001642D01*
X137736792Y-111002757D01*
X137756710Y-111003828D01*
X137795787Y-111005011D01*
X137852015Y-111006274D01*
X137923385Y-111007586D01*
X138007891Y-111008916D01*
X138103524Y-111010232D01*
X138208276Y-111011503D01*
X138320140Y-111012696D01*
X138437109Y-111013781D01*
X138440583Y-111013810D01*
X138575642Y-111015076D01*
X138719898Y-111016629D01*
X138869205Y-111018414D01*
X139019414Y-111020373D01*
X139166377Y-111022449D01*
X139305947Y-111024585D01*
X139433974Y-111026723D01*
X139546312Y-111028808D01*
X139578292Y-111029455D01*
X139684016Y-111031545D01*
X139788365Y-111033422D01*
X139888349Y-111035043D01*
X139980980Y-111036369D01*
X140063270Y-111037358D01*
X140132229Y-111037970D01*
X140184868Y-111038163D01*
X140208000Y-111038056D01*
X140258849Y-111037857D01*
X140328003Y-111038089D01*
X140413275Y-111038714D01*
X140512476Y-111039695D01*
X140623420Y-111040994D01*
X140743917Y-111042574D01*
X140871779Y-111044397D01*
X141004820Y-111046427D01*
X141140850Y-111048626D01*
X141277682Y-111050957D01*
X141413127Y-111053382D01*
X141544999Y-111055864D01*
X141671108Y-111058367D01*
X141789267Y-111060851D01*
X141897287Y-111063281D01*
X141992981Y-111065619D01*
X142074161Y-111067828D01*
X142138639Y-111069870D01*
X142184226Y-111071707D01*
X142185618Y-111071776D01*
X142251276Y-111074726D01*
X142309826Y-111076780D01*
X142357946Y-111077868D01*
X142392312Y-111077920D01*
X142409601Y-111076866D01*
X142410785Y-111076478D01*
X142422620Y-111075701D01*
X142454033Y-111075239D01*
X142503440Y-111075081D01*
X142569254Y-111075215D01*
X142649890Y-111075631D01*
X142743762Y-111076317D01*
X142849286Y-111077264D01*
X142964875Y-111078461D01*
X143088943Y-111079895D01*
X143219906Y-111081557D01*
X143290668Y-111082514D01*
X143524629Y-111085786D01*
X143738249Y-111088867D01*
X143932352Y-111091775D01*
X144107762Y-111094531D01*
X144265303Y-111097153D01*
X144405799Y-111099661D01*
X144530076Y-111102075D01*
X144638956Y-111104414D01*
X144733265Y-111106698D01*
X144813826Y-111108946D01*
X144881464Y-111111178D01*
X144937003Y-111113413D01*
X144981267Y-111115670D01*
X145015080Y-111117969D01*
X145039267Y-111120330D01*
X145054652Y-111122772D01*
X145060164Y-111124349D01*
X145083403Y-111137817D01*
X145114885Y-111161463D01*
X145148051Y-111190335D01*
X145150123Y-111192288D01*
X145203918Y-111239600D01*
X145263297Y-111285771D01*
X145322478Y-111326671D01*
X145375682Y-111358173D01*
X145396887Y-111368517D01*
X145436165Y-111381166D01*
X145487111Y-111391020D01*
X145527764Y-111395437D01*
X145571246Y-111398594D01*
X145609497Y-111401622D01*
X145635093Y-111403931D01*
X145637250Y-111404164D01*
X145662814Y-111404504D01*
X145699165Y-111402114D01*
X145721917Y-111399599D01*
X145760145Y-111393333D01*
X145793699Y-111385626D01*
X145807073Y-111381321D01*
X145838847Y-111366246D01*
X145880151Y-111343358D01*
X145925709Y-111315970D01*
X145970250Y-111287396D01*
X146008499Y-111260949D01*
X146035183Y-111239941D01*
X146040846Y-111234453D01*
X146063739Y-111205014D01*
X146092049Y-111161620D01*
X146122670Y-111109690D01*
X146152496Y-111054642D01*
X146178420Y-111001898D01*
X146192000Y-110970697D01*
X146203806Y-110939931D01*
X146210784Y-110914620D01*
X146213532Y-110888364D01*
X146212647Y-110854760D01*
X146212207Y-110849442D01*
X145769628Y-110849442D01*
X145751062Y-110889391D01*
X145717601Y-110922181D01*
X145674281Y-110946145D01*
X145626141Y-110959616D01*
X145578216Y-110960929D01*
X145535546Y-110948415D01*
X145514764Y-110933769D01*
X145486468Y-110893690D01*
X145472670Y-110844341D01*
X145473385Y-110791884D01*
X145488627Y-110742485D01*
X145514231Y-110706278D01*
X145552094Y-110680024D01*
X145597383Y-110665236D01*
X145641849Y-110664028D01*
X145660346Y-110668841D01*
X145695673Y-110691212D01*
X145727960Y-110726582D01*
X145753509Y-110768838D01*
X145768622Y-110811869D01*
X145769628Y-110849442D01*
X146212207Y-110849442D01*
X146208726Y-110807406D01*
X146207980Y-110799433D01*
X146192197Y-110689547D01*
X146166927Y-110597029D01*
X146131649Y-110520075D01*
X146123402Y-110506479D01*
X146087673Y-110457855D01*
X146042236Y-110407121D01*
X145992448Y-110359451D01*
X145943663Y-110320014D01*
X145905432Y-110296032D01*
X145868495Y-110281129D01*
X145817258Y-110265383D01*
X145758451Y-110250368D01*
X145698800Y-110237653D01*
X145645036Y-110228813D01*
X145603886Y-110225418D01*
X145603207Y-110225417D01*
X145566844Y-110229008D01*
X145517656Y-110238579D01*
X145462500Y-110252323D01*
X145408235Y-110268433D01*
X145361717Y-110285103D01*
X145340290Y-110294667D01*
X145292316Y-110322711D01*
X145244045Y-110357478D01*
X145201074Y-110394388D01*
X145168999Y-110428859D01*
X145159376Y-110442751D01*
X145127391Y-110477264D01*
X145090813Y-110496387D01*
X145078310Y-110500619D01*
X145063751Y-110504079D01*
X145045187Y-110506805D01*
X145020670Y-110508837D01*
X144988250Y-110510213D01*
X144945980Y-110510971D01*
X144891911Y-110511151D01*
X144824093Y-110510791D01*
X144740579Y-110509929D01*
X144639420Y-110508604D01*
X144543808Y-110507227D01*
X144437409Y-110505667D01*
X144313830Y-110503869D01*
X144177058Y-110501890D01*
X144031079Y-110499788D01*
X143879877Y-110497620D01*
X143727438Y-110495443D01*
X143577748Y-110493314D01*
X143434793Y-110491290D01*
X143361833Y-110490261D01*
X143220281Y-110488209D01*
X143066743Y-110485873D01*
X142905698Y-110483330D01*
X142741627Y-110480654D01*
X142579008Y-110477918D01*
X142422319Y-110475199D01*
X142276040Y-110472570D01*
X142144650Y-110470107D01*
X142097125Y-110469182D01*
X141979389Y-110466921D01*
X141844450Y-110464432D01*
X141696268Y-110461783D01*
X141538806Y-110459041D01*
X141376024Y-110456275D01*
X141211883Y-110453550D01*
X141050345Y-110450935D01*
X140895371Y-110448497D01*
X140763625Y-110446493D01*
X140656755Y-110444900D01*
X140554072Y-110443377D01*
X140454240Y-110441903D01*
X140355922Y-110440461D01*
X140257782Y-110439031D01*
X140158485Y-110437595D01*
X140056692Y-110436135D01*
X139951069Y-110434631D01*
X139840278Y-110433064D01*
X139722984Y-110431417D01*
X139597849Y-110429670D01*
X139463538Y-110427804D01*
X139318714Y-110425802D01*
X139162041Y-110423644D01*
X138992182Y-110421311D01*
X138807802Y-110418785D01*
X138607562Y-110416047D01*
X138390128Y-110413078D01*
X138154163Y-110409860D01*
X137906125Y-110406480D01*
X137661569Y-110403009D01*
X137432666Y-110399477D01*
X137219897Y-110395894D01*
X137023746Y-110392273D01*
X136844693Y-110388627D01*
X136683222Y-110384966D01*
X136539814Y-110381303D01*
X136414951Y-110377649D01*
X136309116Y-110374016D01*
X136222790Y-110370417D01*
X136156455Y-110366864D01*
X136110595Y-110363367D01*
X136097093Y-110361858D01*
X136034848Y-110350887D01*
X135983785Y-110334208D01*
X135940557Y-110309121D01*
X135901818Y-110272926D01*
X135864222Y-110222925D01*
X135824423Y-110156417D01*
X135810276Y-110130463D01*
X135769840Y-110047710D01*
X135740727Y-109969653D01*
X135725275Y-109913650D01*
X135714439Y-109867169D01*
X135705850Y-109826984D01*
X135700607Y-109798436D01*
X135699514Y-109788522D01*
X135705529Y-109769229D01*
X135724048Y-109765123D01*
X135755720Y-109776294D01*
X135801197Y-109802836D01*
X135801284Y-109802893D01*
X135853426Y-109832039D01*
X135921120Y-109862396D01*
X135999057Y-109891599D01*
X136004906Y-109893589D01*
X136061663Y-109912355D01*
X136104974Y-109925090D01*
X136141291Y-109932970D01*
X136177071Y-109937172D01*
X136218767Y-109938872D01*
X136255125Y-109939205D01*
X136329295Y-109938218D01*
X136409272Y-109935021D01*
X136490119Y-109930000D01*
X136566898Y-109923540D01*
X136634670Y-109916026D01*
X136688497Y-109907844D01*
X136707301Y-109903941D01*
X136772664Y-109881612D01*
X136840578Y-109844236D01*
X136913444Y-109790319D01*
X136970637Y-109740126D01*
X137018494Y-109693663D01*
X137054603Y-109652278D01*
X137082575Y-109610144D01*
X137106020Y-109561437D01*
X137128551Y-109500332D01*
X137138884Y-109468709D01*
X137155688Y-109411204D01*
X137167353Y-109357629D01*
X137175322Y-109299724D01*
X137181036Y-109229231D01*
X137181224Y-109226257D01*
X137184784Y-109164657D01*
X137186266Y-109120844D01*
X137185352Y-109091511D01*
X137181722Y-109073351D01*
X137175058Y-109063059D01*
X137165041Y-109057327D01*
X137164925Y-109057282D01*
X137150957Y-109055612D01*
X137118610Y-109053629D01*
X137070664Y-109051445D01*
X137009903Y-109049172D01*
X136939109Y-109046920D01*
X136861063Y-109044801D01*
X136839944Y-109044286D01*
X136739299Y-109042193D01*
X136658483Y-109041215D01*
X136596189Y-109041367D01*
X136551108Y-109042668D01*
X136521932Y-109045135D01*
X136507461Y-109048725D01*
X136488887Y-109069064D01*
X136474210Y-109105984D01*
X136472865Y-109111174D01*
X136459795Y-109163445D01*
X136449387Y-109199760D01*
X136439116Y-109224685D01*
X136426459Y-109242787D01*
X136408890Y-109258630D01*
X136383886Y-109276781D01*
X136379668Y-109279752D01*
X136345454Y-109302599D01*
X136314952Y-109320780D01*
X136295178Y-109330191D01*
X136271996Y-109331870D01*
X136234284Y-109328768D01*
X136187855Y-109321953D01*
X136138521Y-109312491D01*
X136092096Y-109301447D01*
X136054394Y-109289890D01*
X136038167Y-109283045D01*
X136004522Y-109261546D01*
X135970097Y-109229912D01*
X135932264Y-109185312D01*
X135888393Y-109124916D01*
X135880182Y-109112927D01*
X135854001Y-109075019D01*
X135835106Y-109051037D01*
X135818941Y-109037362D01*
X135800951Y-109030376D01*
X135776578Y-109026461D01*
X135770360Y-109025706D01*
X135744016Y-109023814D01*
X135701217Y-109022261D01*
X135644759Y-109021040D01*
X135577438Y-109020142D01*
X135502049Y-109019559D01*
X135421389Y-109019284D01*
X135338253Y-109019309D01*
X135255438Y-109019624D01*
X135175740Y-109020224D01*
X135101954Y-109021098D01*
X135036876Y-109022241D01*
X134983303Y-109023643D01*
X134944030Y-109025296D01*
X134921853Y-109027194D01*
X134918178Y-109028136D01*
X134912474Y-109036144D01*
X134911925Y-109052348D01*
X134916976Y-109080481D01*
X134928076Y-109124278D01*
X134930942Y-109134812D01*
X134942140Y-109180652D01*
X134949739Y-109221706D01*
X134952695Y-109251780D01*
X134952121Y-109260692D01*
X134951324Y-109289105D01*
X134956189Y-109337118D01*
X134966590Y-109403974D01*
X134982400Y-109488913D01*
X135003495Y-109591175D01*
X135017263Y-109654339D01*
X135032766Y-109726009D01*
X135049260Y-109805084D01*
X135064936Y-109882731D01*
X135077986Y-109950116D01*
X135079848Y-109960104D01*
X135093724Y-110026541D01*
X135111393Y-110098849D01*
X135130439Y-110167661D01*
X135146103Y-110216976D01*
X135163135Y-110266569D01*
X135173711Y-110300047D01*
X135178406Y-110321257D01*
X135177797Y-110334048D01*
X135172458Y-110342268D01*
X135165665Y-110347773D01*
X135157105Y-110351968D01*
X135142794Y-110355448D01*
X135121345Y-110358219D01*
X135091372Y-110360290D01*
X135051488Y-110361667D01*
X135000306Y-110362357D01*
X134936440Y-110362370D01*
X134858503Y-110361711D01*
X134765109Y-110360388D01*
X134654870Y-110358410D01*
X134526401Y-110355782D01*
X134378314Y-110352514D01*
X134360708Y-110352114D01*
X134257608Y-110349931D01*
X134134017Y-110347604D01*
X133990612Y-110345140D01*
X133828069Y-110342551D01*
X133647063Y-110339844D01*
X133448271Y-110337029D01*
X133232368Y-110334115D01*
X133000030Y-110331111D01*
X132751933Y-110328027D01*
X132488753Y-110324871D01*
X132211166Y-110321652D01*
X131919848Y-110318380D01*
X131615475Y-110315063D01*
X131609042Y-110314994D01*
X131506278Y-110313691D01*
X131408279Y-110312065D01*
X131317434Y-110310183D01*
X131236133Y-110308111D01*
X131166764Y-110305917D01*
X131111717Y-110303667D01*
X131073380Y-110301427D01*
X131055535Y-110299549D01*
X130976259Y-110277744D01*
X130907439Y-110243796D01*
X130876791Y-110221401D01*
X130858315Y-110199991D01*
X130834012Y-110163698D01*
X130806404Y-110117091D01*
X130778010Y-110064741D01*
X130751351Y-110011215D01*
X130728946Y-109961084D01*
X130718643Y-109934670D01*
X130711027Y-109908447D01*
X130702425Y-109870943D01*
X130693714Y-109827212D01*
X130685770Y-109782307D01*
X130679471Y-109741285D01*
X130675691Y-109709198D01*
X130675309Y-109691102D01*
X130676053Y-109689087D01*
X130686779Y-109691629D01*
X130712750Y-109701898D01*
X130750201Y-109718302D01*
X130795372Y-109739250D01*
X130800897Y-109741881D01*
X130898663Y-109786314D01*
X130984648Y-109819741D01*
X131064303Y-109843447D01*
X131143076Y-109858721D01*
X131226418Y-109866849D01*
X131319779Y-109869119D01*
X131339167Y-109868993D01*
X131479994Y-109860927D01*
X131605374Y-109839584D01*
X131716650Y-109804571D01*
X131815168Y-109755496D01*
X131878265Y-109711778D01*
X131946727Y-109651142D01*
X132002097Y-109585670D01*
X132046863Y-109511279D01*
X132083509Y-109423884D01*
X132112631Y-109326786D01*
X132122146Y-109279857D01*
X132128973Y-109225727D01*
X132133093Y-109168535D01*
X132134482Y-109112418D01*
X132133121Y-109061515D01*
X132128988Y-109019963D01*
X132122062Y-108991900D01*
X132114396Y-108981901D01*
X132099419Y-108979805D01*
X132066089Y-108977547D01*
X132017215Y-108975238D01*
X131955610Y-108972990D01*
X131884084Y-108970916D01*
X131805449Y-108969126D01*
X131782196Y-108968685D01*
X131689980Y-108966922D01*
X131616674Y-108965703D01*
X131560020Y-108965566D01*
X131517761Y-108967046D01*
X131487639Y-108970681D01*
X131467399Y-108977008D01*
X131454782Y-108986564D01*
X131447532Y-108999885D01*
X131443390Y-109017509D01*
X131440101Y-109039972D01*
X131438519Y-109050431D01*
X131420719Y-109104527D01*
X131387099Y-109157922D01*
X131342231Y-109204237D01*
X131313439Y-109224983D01*
X131284485Y-109241411D01*
X131259074Y-109250992D01*
X131229593Y-109255472D01*
X131188433Y-109256601D01*
X131175856Y-109256566D01*
X131124456Y-109254660D01*
X131084866Y-109248425D01*
X131047881Y-109236081D01*
X131030397Y-109228410D01*
X130953454Y-109181932D01*
X130889900Y-109120505D01*
X130842419Y-109046746D01*
X130841079Y-109043970D01*
X130822177Y-109008644D01*
X130803468Y-108980662D01*
X130789042Y-108966112D01*
X130772103Y-108962656D01*
X130736886Y-108959694D01*
X130686275Y-108957356D01*
X130623155Y-108955771D01*
X130550411Y-108955070D01*
X130543467Y-108955055D01*
X130459085Y-108954407D01*
X130365675Y-108952838D01*
X130271144Y-108950534D01*
X130183396Y-108947682D01*
X130122083Y-108945069D01*
X130058402Y-108942295D01*
X130000810Y-108940453D01*
X129953130Y-108939614D01*
X129919184Y-108939846D01*
X129919184Y-108939846D01*
G37*
X129919184Y-108939846D02*
X129903245Y-108941095D01*
X129890606Y-108944730D01*
X129881466Y-108950297D01*
X129875888Y-108960355D01*
X129873934Y-108977463D01*
X129875666Y-109004179D01*
X129881145Y-109043061D01*
X129890434Y-109096669D01*
X129903594Y-109167560D01*
X129909486Y-109198834D01*
X129917128Y-109240812D01*
X129927315Y-109298883D01*
X129939229Y-109368239D01*
X129952053Y-109444074D01*
X129964969Y-109521582D01*
X129977159Y-109595957D01*
X129979247Y-109608850D01*
X129989519Y-109666014D01*
X130003860Y-109737018D01*
X130021107Y-109816829D01*
X130040091Y-109900415D01*
X130059648Y-109982745D01*
X130078612Y-110058785D01*
X130095817Y-110123504D01*
X130108607Y-110167193D01*
X130125859Y-110213535D01*
X130151867Y-110272831D01*
X130184139Y-110340289D01*
X130220181Y-110411116D01*
X130257501Y-110480516D01*
X130293606Y-110543698D01*
X130326005Y-110595868D01*
X130347068Y-110625791D01*
X130416203Y-110698359D01*
X130503492Y-110760393D01*
X130608630Y-110811715D01*
X130731311Y-110852147D01*
X130739483Y-110854290D01*
X130786690Y-110865994D01*
X130832585Y-110876097D01*
X130879149Y-110884730D01*
X130928361Y-110892024D01*
X130982202Y-110898109D01*
X131042652Y-110903116D01*
X131111691Y-110907174D01*
X131191300Y-110910415D01*
X131283458Y-110912969D01*
X131390147Y-110914967D01*
X131513345Y-110916538D01*
X131655034Y-110917814D01*
X131709583Y-110918217D01*
X131838973Y-110919259D01*
X131984927Y-110920660D01*
X132142847Y-110922363D01*
X132308136Y-110924310D01*
X132476196Y-110926444D01*
X132642428Y-110928708D01*
X132802235Y-110931046D01*
X132951018Y-110933399D01*
X133006042Y-110934325D01*
X133140904Y-110936579D01*
X133282047Y-110938824D01*
X133425904Y-110941010D01*
X133568910Y-110943088D01*
X133707498Y-110945007D01*
X133838101Y-110946719D01*
X133957155Y-110948173D01*
X134061092Y-110949320D01*
X134122583Y-110949909D01*
X134213901Y-110950834D01*
X134322815Y-110952141D01*
X134445759Y-110953776D01*
X134579167Y-110955686D01*
X134719474Y-110957817D01*
X134863113Y-110960115D01*
X135006519Y-110962527D01*
X135146126Y-110964999D01*
X135239125Y-110966726D01*
X135372399Y-110969168D01*
X135510703Y-110971548D01*
X135650660Y-110973815D01*
X135788892Y-110975922D01*
X135922023Y-110977820D01*
X136046676Y-110979460D01*
X136159474Y-110980793D01*
X136257040Y-110981772D01*
X136318625Y-110982248D01*
X136456431Y-110983210D01*
X136595696Y-110984355D01*
X136734655Y-110985655D01*
X136871545Y-110987087D01*
X137004602Y-110988623D01*
X137132062Y-110990239D01*
X137252162Y-110991910D01*
X137363138Y-110993609D01*
X137463226Y-110995311D01*
X137550663Y-110996991D01*
X137623684Y-110998623D01*
X137680526Y-111000182D01*
X137719426Y-111001642D01*
X137736792Y-111002757D01*
X137756710Y-111003828D01*
X137795787Y-111005011D01*
X137852015Y-111006274D01*
X137923385Y-111007586D01*
X138007891Y-111008916D01*
X138103524Y-111010232D01*
X138208276Y-111011503D01*
X138320140Y-111012696D01*
X138437109Y-111013781D01*
X138440583Y-111013810D01*
X138575642Y-111015076D01*
X138719898Y-111016629D01*
X138869205Y-111018414D01*
X139019414Y-111020373D01*
X139166377Y-111022449D01*
X139305947Y-111024585D01*
X139433974Y-111026723D01*
X139546312Y-111028808D01*
X139578292Y-111029455D01*
X139684016Y-111031545D01*
X139788365Y-111033422D01*
X139888349Y-111035043D01*
X139980980Y-111036369D01*
X140063270Y-111037358D01*
X140132229Y-111037970D01*
X140184868Y-111038163D01*
X140208000Y-111038056D01*
X140258849Y-111037857D01*
X140328003Y-111038089D01*
X140413275Y-111038714D01*
X140512476Y-111039695D01*
X140623420Y-111040994D01*
X140743917Y-111042574D01*
X140871779Y-111044397D01*
X141004820Y-111046427D01*
X141140850Y-111048626D01*
X141277682Y-111050957D01*
X141413127Y-111053382D01*
X141544999Y-111055864D01*
X141671108Y-111058367D01*
X141789267Y-111060851D01*
X141897287Y-111063281D01*
X141992981Y-111065619D01*
X142074161Y-111067828D01*
X142138639Y-111069870D01*
X142184226Y-111071707D01*
X142185618Y-111071776D01*
X142251276Y-111074726D01*
X142309826Y-111076780D01*
X142357946Y-111077868D01*
X142392312Y-111077920D01*
X142409601Y-111076866D01*
X142410785Y-111076478D01*
X142422620Y-111075701D01*
X142454033Y-111075239D01*
X142503440Y-111075081D01*
X142569254Y-111075215D01*
X142649890Y-111075631D01*
X142743762Y-111076317D01*
X142849286Y-111077264D01*
X142964875Y-111078461D01*
X143088943Y-111079895D01*
X143219906Y-111081557D01*
X143290668Y-111082514D01*
X143524629Y-111085786D01*
X143738249Y-111088867D01*
X143932352Y-111091775D01*
X144107762Y-111094531D01*
X144265303Y-111097153D01*
X144405799Y-111099661D01*
X144530076Y-111102075D01*
X144638956Y-111104414D01*
X144733265Y-111106698D01*
X144813826Y-111108946D01*
X144881464Y-111111178D01*
X144937003Y-111113413D01*
X144981267Y-111115670D01*
X145015080Y-111117969D01*
X145039267Y-111120330D01*
X145054652Y-111122772D01*
X145060164Y-111124349D01*
X145083403Y-111137817D01*
X145114885Y-111161463D01*
X145148051Y-111190335D01*
X145150123Y-111192288D01*
X145203918Y-111239600D01*
X145263297Y-111285771D01*
X145322478Y-111326671D01*
X145375682Y-111358173D01*
X145396887Y-111368517D01*
X145436165Y-111381166D01*
X145487111Y-111391020D01*
X145527764Y-111395437D01*
X145571246Y-111398594D01*
X145609497Y-111401622D01*
X145635093Y-111403931D01*
X145637250Y-111404164D01*
X145662814Y-111404504D01*
X145699165Y-111402114D01*
X145721917Y-111399599D01*
X145760145Y-111393333D01*
X145793699Y-111385626D01*
X145807073Y-111381321D01*
X145838847Y-111366246D01*
X145880151Y-111343358D01*
X145925709Y-111315970D01*
X145970250Y-111287396D01*
X146008499Y-111260949D01*
X146035183Y-111239941D01*
X146040846Y-111234453D01*
X146063739Y-111205014D01*
X146092049Y-111161620D01*
X146122670Y-111109690D01*
X146152496Y-111054642D01*
X146178420Y-111001898D01*
X146192000Y-110970697D01*
X146203806Y-110939931D01*
X146210784Y-110914620D01*
X146213532Y-110888364D01*
X146212647Y-110854760D01*
X146212207Y-110849442D01*
X145769628Y-110849442D01*
X145751062Y-110889391D01*
X145717601Y-110922181D01*
X145674281Y-110946145D01*
X145626141Y-110959616D01*
X145578216Y-110960929D01*
X145535546Y-110948415D01*
X145514764Y-110933769D01*
X145486468Y-110893690D01*
X145472670Y-110844341D01*
X145473385Y-110791884D01*
X145488627Y-110742485D01*
X145514231Y-110706278D01*
X145552094Y-110680024D01*
X145597383Y-110665236D01*
X145641849Y-110664028D01*
X145660346Y-110668841D01*
X145695673Y-110691212D01*
X145727960Y-110726582D01*
X145753509Y-110768838D01*
X145768622Y-110811869D01*
X145769628Y-110849442D01*
X146212207Y-110849442D01*
X146208726Y-110807406D01*
X146207980Y-110799433D01*
X146192197Y-110689547D01*
X146166927Y-110597029D01*
X146131649Y-110520075D01*
X146123402Y-110506479D01*
X146087673Y-110457855D01*
X146042236Y-110407121D01*
X145992448Y-110359451D01*
X145943663Y-110320014D01*
X145905432Y-110296032D01*
X145868495Y-110281129D01*
X145817258Y-110265383D01*
X145758451Y-110250368D01*
X145698800Y-110237653D01*
X145645036Y-110228813D01*
X145603886Y-110225418D01*
X145603207Y-110225417D01*
X145566844Y-110229008D01*
X145517656Y-110238579D01*
X145462500Y-110252323D01*
X145408235Y-110268433D01*
X145361717Y-110285103D01*
X145340290Y-110294667D01*
X145292316Y-110322711D01*
X145244045Y-110357478D01*
X145201074Y-110394388D01*
X145168999Y-110428859D01*
X145159376Y-110442751D01*
X145127391Y-110477264D01*
X145090813Y-110496387D01*
X145078310Y-110500619D01*
X145063751Y-110504079D01*
X145045187Y-110506805D01*
X145020670Y-110508837D01*
X144988250Y-110510213D01*
X144945980Y-110510971D01*
X144891911Y-110511151D01*
X144824093Y-110510791D01*
X144740579Y-110509929D01*
X144639420Y-110508604D01*
X144543808Y-110507227D01*
X144437409Y-110505667D01*
X144313830Y-110503869D01*
X144177058Y-110501890D01*
X144031079Y-110499788D01*
X143879877Y-110497620D01*
X143727438Y-110495443D01*
X143577748Y-110493314D01*
X143434793Y-110491290D01*
X143361833Y-110490261D01*
X143220281Y-110488209D01*
X143066743Y-110485873D01*
X142905698Y-110483330D01*
X142741627Y-110480654D01*
X142579008Y-110477918D01*
X142422319Y-110475199D01*
X142276040Y-110472570D01*
X142144650Y-110470107D01*
X142097125Y-110469182D01*
X141979389Y-110466921D01*
X141844450Y-110464432D01*
X141696268Y-110461783D01*
X141538806Y-110459041D01*
X141376024Y-110456275D01*
X141211883Y-110453550D01*
X141050345Y-110450935D01*
X140895371Y-110448497D01*
X140763625Y-110446493D01*
X140656755Y-110444900D01*
X140554072Y-110443377D01*
X140454240Y-110441903D01*
X140355922Y-110440461D01*
X140257782Y-110439031D01*
X140158485Y-110437595D01*
X140056692Y-110436135D01*
X139951069Y-110434631D01*
X139840278Y-110433064D01*
X139722984Y-110431417D01*
X139597849Y-110429670D01*
X139463538Y-110427804D01*
X139318714Y-110425802D01*
X139162041Y-110423644D01*
X138992182Y-110421311D01*
X138807802Y-110418785D01*
X138607562Y-110416047D01*
X138390128Y-110413078D01*
X138154163Y-110409860D01*
X137906125Y-110406480D01*
X137661569Y-110403009D01*
X137432666Y-110399477D01*
X137219897Y-110395894D01*
X137023746Y-110392273D01*
X136844693Y-110388627D01*
X136683222Y-110384966D01*
X136539814Y-110381303D01*
X136414951Y-110377649D01*
X136309116Y-110374016D01*
X136222790Y-110370417D01*
X136156455Y-110366864D01*
X136110595Y-110363367D01*
X136097093Y-110361858D01*
X136034848Y-110350887D01*
X135983785Y-110334208D01*
X135940557Y-110309121D01*
X135901818Y-110272926D01*
X135864222Y-110222925D01*
X135824423Y-110156417D01*
X135810276Y-110130463D01*
X135769840Y-110047710D01*
X135740727Y-109969653D01*
X135725275Y-109913650D01*
X135714439Y-109867169D01*
X135705850Y-109826984D01*
X135700607Y-109798436D01*
X135699514Y-109788522D01*
X135705529Y-109769229D01*
X135724048Y-109765123D01*
X135755720Y-109776294D01*
X135801197Y-109802836D01*
X135801284Y-109802893D01*
X135853426Y-109832039D01*
X135921120Y-109862396D01*
X135999057Y-109891599D01*
X136004906Y-109893589D01*
X136061663Y-109912355D01*
X136104974Y-109925090D01*
X136141291Y-109932970D01*
X136177071Y-109937172D01*
X136218767Y-109938872D01*
X136255125Y-109939205D01*
X136329295Y-109938218D01*
X136409272Y-109935021D01*
X136490119Y-109930000D01*
X136566898Y-109923540D01*
X136634670Y-109916026D01*
X136688497Y-109907844D01*
X136707301Y-109903941D01*
X136772664Y-109881612D01*
X136840578Y-109844236D01*
X136913444Y-109790319D01*
X136970637Y-109740126D01*
X137018494Y-109693663D01*
X137054603Y-109652278D01*
X137082575Y-109610144D01*
X137106020Y-109561437D01*
X137128551Y-109500332D01*
X137138884Y-109468709D01*
X137155688Y-109411204D01*
X137167353Y-109357629D01*
X137175322Y-109299724D01*
X137181036Y-109229231D01*
X137181224Y-109226257D01*
X137184784Y-109164657D01*
X137186266Y-109120844D01*
X137185352Y-109091511D01*
X137181722Y-109073351D01*
X137175058Y-109063059D01*
X137165041Y-109057327D01*
X137164925Y-109057282D01*
X137150957Y-109055612D01*
X137118610Y-109053629D01*
X137070664Y-109051445D01*
X137009903Y-109049172D01*
X136939109Y-109046920D01*
X136861063Y-109044801D01*
X136839944Y-109044286D01*
X136739299Y-109042193D01*
X136658483Y-109041215D01*
X136596189Y-109041367D01*
X136551108Y-109042668D01*
X136521932Y-109045135D01*
X136507461Y-109048725D01*
X136488887Y-109069064D01*
X136474210Y-109105984D01*
X136472865Y-109111174D01*
X136459795Y-109163445D01*
X136449387Y-109199760D01*
X136439116Y-109224685D01*
X136426459Y-109242787D01*
X136408890Y-109258630D01*
X136383886Y-109276781D01*
X136379668Y-109279752D01*
X136345454Y-109302599D01*
X136314952Y-109320780D01*
X136295178Y-109330191D01*
X136271996Y-109331870D01*
X136234284Y-109328768D01*
X136187855Y-109321953D01*
X136138521Y-109312491D01*
X136092096Y-109301447D01*
X136054394Y-109289890D01*
X136038167Y-109283045D01*
X136004522Y-109261546D01*
X135970097Y-109229912D01*
X135932264Y-109185312D01*
X135888393Y-109124916D01*
X135880182Y-109112927D01*
X135854001Y-109075019D01*
X135835106Y-109051037D01*
X135818941Y-109037362D01*
X135800951Y-109030376D01*
X135776578Y-109026461D01*
X135770360Y-109025706D01*
X135744016Y-109023814D01*
X135701217Y-109022261D01*
X135644759Y-109021040D01*
X135577438Y-109020142D01*
X135502049Y-109019559D01*
X135421389Y-109019284D01*
X135338253Y-109019309D01*
X135255438Y-109019624D01*
X135175740Y-109020224D01*
X135101954Y-109021098D01*
X135036876Y-109022241D01*
X134983303Y-109023643D01*
X134944030Y-109025296D01*
X134921853Y-109027194D01*
X134918178Y-109028136D01*
X134912474Y-109036144D01*
X134911925Y-109052348D01*
X134916976Y-109080481D01*
X134928076Y-109124278D01*
X134930942Y-109134812D01*
X134942140Y-109180652D01*
X134949739Y-109221706D01*
X134952695Y-109251780D01*
X134952121Y-109260692D01*
X134951324Y-109289105D01*
X134956189Y-109337118D01*
X134966590Y-109403974D01*
X134982400Y-109488913D01*
X135003495Y-109591175D01*
X135017263Y-109654339D01*
X135032766Y-109726009D01*
X135049260Y-109805084D01*
X135064936Y-109882731D01*
X135077986Y-109950116D01*
X135079848Y-109960104D01*
X135093724Y-110026541D01*
X135111393Y-110098849D01*
X135130439Y-110167661D01*
X135146103Y-110216976D01*
X135163135Y-110266569D01*
X135173711Y-110300047D01*
X135178406Y-110321257D01*
X135177797Y-110334048D01*
X135172458Y-110342268D01*
X135165665Y-110347773D01*
X135157105Y-110351968D01*
X135142794Y-110355448D01*
X135121345Y-110358219D01*
X135091372Y-110360290D01*
X135051488Y-110361667D01*
X135000306Y-110362357D01*
X134936440Y-110362370D01*
X134858503Y-110361711D01*
X134765109Y-110360388D01*
X134654870Y-110358410D01*
X134526401Y-110355782D01*
X134378314Y-110352514D01*
X134360708Y-110352114D01*
X134257608Y-110349931D01*
X134134017Y-110347604D01*
X133990612Y-110345140D01*
X133828069Y-110342551D01*
X133647063Y-110339844D01*
X133448271Y-110337029D01*
X133232368Y-110334115D01*
X133000030Y-110331111D01*
X132751933Y-110328027D01*
X132488753Y-110324871D01*
X132211166Y-110321652D01*
X131919848Y-110318380D01*
X131615475Y-110315063D01*
X131609042Y-110314994D01*
X131506278Y-110313691D01*
X131408279Y-110312065D01*
X131317434Y-110310183D01*
X131236133Y-110308111D01*
X131166764Y-110305917D01*
X131111717Y-110303667D01*
X131073380Y-110301427D01*
X131055535Y-110299549D01*
X130976259Y-110277744D01*
X130907439Y-110243796D01*
X130876791Y-110221401D01*
X130858315Y-110199991D01*
X130834012Y-110163698D01*
X130806404Y-110117091D01*
X130778010Y-110064741D01*
X130751351Y-110011215D01*
X130728946Y-109961084D01*
X130718643Y-109934670D01*
X130711027Y-109908447D01*
X130702425Y-109870943D01*
X130693714Y-109827212D01*
X130685770Y-109782307D01*
X130679471Y-109741285D01*
X130675691Y-109709198D01*
X130675309Y-109691102D01*
X130676053Y-109689087D01*
X130686779Y-109691629D01*
X130712750Y-109701898D01*
X130750201Y-109718302D01*
X130795372Y-109739250D01*
X130800897Y-109741881D01*
X130898663Y-109786314D01*
X130984648Y-109819741D01*
X131064303Y-109843447D01*
X131143076Y-109858721D01*
X131226418Y-109866849D01*
X131319779Y-109869119D01*
X131339167Y-109868993D01*
X131479994Y-109860927D01*
X131605374Y-109839584D01*
X131716650Y-109804571D01*
X131815168Y-109755496D01*
X131878265Y-109711778D01*
X131946727Y-109651142D01*
X132002097Y-109585670D01*
X132046863Y-109511279D01*
X132083509Y-109423884D01*
X132112631Y-109326786D01*
X132122146Y-109279857D01*
X132128973Y-109225727D01*
X132133093Y-109168535D01*
X132134482Y-109112418D01*
X132133121Y-109061515D01*
X132128988Y-109019963D01*
X132122062Y-108991900D01*
X132114396Y-108981901D01*
X132099419Y-108979805D01*
X132066089Y-108977547D01*
X132017215Y-108975238D01*
X131955610Y-108972990D01*
X131884084Y-108970916D01*
X131805449Y-108969126D01*
X131782196Y-108968685D01*
X131689980Y-108966922D01*
X131616674Y-108965703D01*
X131560020Y-108965566D01*
X131517761Y-108967046D01*
X131487639Y-108970681D01*
X131467399Y-108977008D01*
X131454782Y-108986564D01*
X131447532Y-108999885D01*
X131443390Y-109017509D01*
X131440101Y-109039972D01*
X131438519Y-109050431D01*
X131420719Y-109104527D01*
X131387099Y-109157922D01*
X131342231Y-109204237D01*
X131313439Y-109224983D01*
X131284485Y-109241411D01*
X131259074Y-109250992D01*
X131229593Y-109255472D01*
X131188433Y-109256601D01*
X131175856Y-109256566D01*
X131124456Y-109254660D01*
X131084866Y-109248425D01*
X131047881Y-109236081D01*
X131030397Y-109228410D01*
X130953454Y-109181932D01*
X130889900Y-109120505D01*
X130842419Y-109046746D01*
X130841079Y-109043970D01*
X130822177Y-109008644D01*
X130803468Y-108980662D01*
X130789042Y-108966112D01*
X130772103Y-108962656D01*
X130736886Y-108959694D01*
X130686275Y-108957356D01*
X130623155Y-108955771D01*
X130550411Y-108955070D01*
X130543467Y-108955055D01*
X130459085Y-108954407D01*
X130365675Y-108952838D01*
X130271144Y-108950534D01*
X130183396Y-108947682D01*
X130122083Y-108945069D01*
X130058402Y-108942295D01*
X130000810Y-108940453D01*
X129953130Y-108939614D01*
X129919184Y-108939846D01*
G36*
X140889965Y-107139777D02*
G01*
X140804740Y-107141586D01*
X140726413Y-107144868D01*
X140658943Y-107149623D01*
X140606288Y-107155849D01*
X140583708Y-107160227D01*
X140535882Y-107174112D01*
X140483755Y-107192997D01*
X140429706Y-107215547D01*
X140376114Y-107240430D01*
X140325356Y-107266313D01*
X140279810Y-107291861D01*
X140241855Y-107315741D01*
X140213869Y-107336620D01*
X140198230Y-107353164D01*
X140197316Y-107364041D01*
X140213292Y-107367917D01*
X140227384Y-107373030D01*
X140229167Y-107377368D01*
X140219493Y-107389593D01*
X140193811Y-107397554D01*
X140165898Y-107399667D01*
X140143435Y-107405108D01*
X140118338Y-107422629D01*
X140088885Y-107454029D01*
X140053354Y-107501105D01*
X140016558Y-107555599D01*
X139975469Y-107629197D01*
X139950968Y-107699940D01*
X139949963Y-107704242D01*
X139939017Y-107758808D01*
X139928447Y-107822928D01*
X139918904Y-107891234D01*
X139911038Y-107958360D01*
X139905499Y-108018938D01*
X139902938Y-108067602D01*
X139903180Y-108090326D01*
X139906375Y-108145792D01*
X140012208Y-108152486D01*
X140063464Y-108155071D01*
X140125175Y-108157133D01*
X140194274Y-108158676D01*
X140267697Y-108159702D01*
X140342376Y-108160216D01*
X140415247Y-108160220D01*
X140483244Y-108159718D01*
X140543301Y-108158712D01*
X140592352Y-108157206D01*
X140627331Y-108155203D01*
X140645173Y-108152707D01*
X140646750Y-108151826D01*
X140650941Y-108137156D01*
X140656422Y-108107453D01*
X140662106Y-108068716D01*
X140662913Y-108062467D01*
X140679379Y-107981404D01*
X140708153Y-107912513D01*
X140752319Y-107848916D01*
X140765442Y-107833799D01*
X140820074Y-107783867D01*
X140882566Y-107748633D01*
X140957020Y-107726194D01*
X141016905Y-107717241D01*
X141143893Y-107712945D01*
X141262812Y-107727515D01*
X141375044Y-107761439D01*
X141481969Y-107815209D01*
X141584967Y-107889313D01*
X141639696Y-107938203D01*
X141731706Y-108036083D01*
X141805494Y-108137719D01*
X141863991Y-108247627D01*
X141899961Y-108339281D01*
X141917912Y-108395992D01*
X141937625Y-108465260D01*
X141957601Y-108541095D01*
X141976343Y-108617508D01*
X141992352Y-108688510D01*
X142004130Y-108748110D01*
X142007738Y-108770209D01*
X142017469Y-108868780D01*
X142018554Y-108968052D01*
X142011437Y-109063367D01*
X141996564Y-109150067D01*
X141974380Y-109223493D01*
X141961730Y-109251750D01*
X141932525Y-109292842D01*
X141888302Y-109335399D01*
X141834435Y-109375204D01*
X141776297Y-109408041D01*
X141746015Y-109421019D01*
X141689789Y-109436041D01*
X141617962Y-109445937D01*
X141535446Y-109450801D01*
X141447154Y-109450728D01*
X141357997Y-109445814D01*
X141272887Y-109436155D01*
X141196735Y-109421845D01*
X141152548Y-109409497D01*
X141082329Y-109378089D01*
X141013665Y-109332843D01*
X140954098Y-109279222D01*
X140925864Y-109245304D01*
X140904115Y-109212384D01*
X140877530Y-109167874D01*
X140850489Y-109119237D01*
X140838947Y-109097229D01*
X140807867Y-109041169D01*
X140782242Y-109005004D01*
X140762873Y-108988750D01*
X140744605Y-108985228D01*
X140708737Y-108982276D01*
X140658621Y-108979902D01*
X140597607Y-108978110D01*
X140529047Y-108976907D01*
X140456291Y-108976299D01*
X140382692Y-108976294D01*
X140311599Y-108976896D01*
X140246365Y-108978112D01*
X140190340Y-108979948D01*
X140146875Y-108982411D01*
X140119322Y-108985507D01*
X140112054Y-108987539D01*
X140097469Y-109000394D01*
X140091391Y-109020366D01*
X140094326Y-109049537D01*
X140106777Y-109089994D01*
X140129252Y-109143819D01*
X140162254Y-109213099D01*
X140170958Y-109230583D01*
X140197398Y-109284228D01*
X140220105Y-109331929D01*
X140237491Y-109370215D01*
X140247965Y-109395612D01*
X140250333Y-109403944D01*
X140246506Y-109416036D01*
X140232967Y-109424171D01*
X140206629Y-109429025D01*
X140164408Y-109431277D01*
X140124020Y-109431667D01*
X140043869Y-109430544D01*
X139982510Y-109426931D01*
X139937679Y-109420462D01*
X139907107Y-109410770D01*
X139888529Y-109397490D01*
X139885160Y-109393065D01*
X139878795Y-109376348D01*
X139869110Y-109341805D01*
X139856809Y-109292393D01*
X139842600Y-109231067D01*
X139827187Y-109160781D01*
X139811278Y-109084492D01*
X139810304Y-109079693D01*
X139795013Y-109004210D01*
X139776384Y-108912170D01*
X139755263Y-108807763D01*
X139732498Y-108695182D01*
X139708937Y-108578616D01*
X139685427Y-108462258D01*
X139662815Y-108350298D01*
X139657850Y-108325709D01*
X139638160Y-108228364D01*
X138947008Y-108228364D01*
X138945780Y-108241946D01*
X138941353Y-108248845D01*
X138933614Y-108252638D01*
X138928129Y-108254612D01*
X138910622Y-108257017D01*
X138875324Y-108258697D01*
X138825594Y-108259695D01*
X138764794Y-108260054D01*
X138696285Y-108259816D01*
X138623427Y-108259025D01*
X138549580Y-108257722D01*
X138478107Y-108255951D01*
X138412367Y-108253755D01*
X138355721Y-108251176D01*
X138311531Y-108248258D01*
X138293894Y-108246539D01*
X138197870Y-108227733D01*
X138117855Y-108195273D01*
X138053290Y-108148679D01*
X138003615Y-108087468D01*
X137968270Y-108011159D01*
X137952636Y-107952850D01*
X137946084Y-107886361D01*
X137956896Y-107829365D01*
X137985873Y-107778179D01*
X137992334Y-107770180D01*
X138008091Y-107751998D01*
X138023162Y-107737354D01*
X138039960Y-107725835D01*
X138060902Y-107717028D01*
X138088400Y-107710518D01*
X138124871Y-107705892D01*
X138172728Y-107702735D01*
X138234386Y-107700635D01*
X138312259Y-107699176D01*
X138408763Y-107697946D01*
X138414138Y-107697882D01*
X138497157Y-107697219D01*
X138574818Y-107697189D01*
X138644190Y-107697747D01*
X138702339Y-107698848D01*
X138746333Y-107700449D01*
X138773241Y-107702505D01*
X138778469Y-107703420D01*
X138809420Y-107717482D01*
X138833785Y-107738372D01*
X138834170Y-107738881D01*
X138847319Y-107764276D01*
X138862677Y-107806394D01*
X138879138Y-107861050D01*
X138895598Y-107924061D01*
X138910953Y-107991243D01*
X138924098Y-108058413D01*
X138932623Y-108111760D01*
X138940317Y-108166847D01*
X138945150Y-108204523D01*
X138947008Y-108228364D01*
X139638160Y-108228364D01*
X139636480Y-108220061D01*
X139614758Y-108113055D01*
X139593392Y-108008147D01*
X139573089Y-107908790D01*
X139554553Y-107818437D01*
X139538492Y-107740544D01*
X139525612Y-107678563D01*
X139521500Y-107658959D01*
X139506901Y-107586449D01*
X139492989Y-107511583D01*
X139480812Y-107440435D01*
X139471421Y-107379079D01*
X139466673Y-107341636D01*
X139459342Y-107279061D01*
X139452303Y-107234233D01*
X139444591Y-107203765D01*
X139435240Y-107184276D01*
X139423285Y-107172381D01*
X139417403Y-107168912D01*
X139403565Y-107167004D01*
X139370431Y-107164985D01*
X139319872Y-107162905D01*
X139253758Y-107160810D01*
X139173959Y-107158751D01*
X139082346Y-107156776D01*
X138980789Y-107154935D01*
X138871158Y-107153275D01*
X138770211Y-107152011D01*
X138636032Y-107150513D01*
X138521468Y-107149347D01*
X138424969Y-107148598D01*
X138344986Y-107148353D01*
X138279968Y-107148699D01*
X138228365Y-107149723D01*
X138188627Y-107151509D01*
X138159205Y-107154146D01*
X138138548Y-107157719D01*
X138125106Y-107162314D01*
X138117329Y-107168019D01*
X138113668Y-107174919D01*
X138112571Y-107183101D01*
X138112500Y-107188671D01*
X138108282Y-107209584D01*
X138097207Y-107212074D01*
X138081646Y-107196770D01*
X138070197Y-107177475D01*
X138054812Y-107151164D01*
X138042489Y-107141488D01*
X138030800Y-107144217D01*
X138012254Y-107148221D01*
X137979255Y-107149844D01*
X137938415Y-107148809D01*
X137931691Y-107148384D01*
X137860799Y-107148472D01*
X137779014Y-107156481D01*
X137694508Y-107171132D01*
X137615451Y-107191148D01*
X137577903Y-107203737D01*
X137487672Y-107241487D01*
X137414853Y-107281946D01*
X137355695Y-107328148D01*
X137306446Y-107383128D01*
X137263355Y-107449918D01*
X137255339Y-107464596D01*
X137235760Y-107504734D01*
X137224010Y-107540182D01*
X137217616Y-107580365D01*
X137214877Y-107618719D01*
X137217360Y-107737687D01*
X137235947Y-107858411D01*
X137266273Y-107963510D01*
X137297394Y-108034044D01*
X137339477Y-108108749D01*
X137388003Y-108180664D01*
X137438455Y-108242827D01*
X137465414Y-108270362D01*
X137513302Y-108310703D01*
X137571879Y-108353451D01*
X137633742Y-108393647D01*
X137691486Y-108426333D01*
X137715589Y-108437908D01*
X137747396Y-108453367D01*
X137765813Y-108467269D01*
X137769838Y-108481558D01*
X137758471Y-108498174D01*
X137730711Y-108519059D01*
X137685558Y-108546153D01*
X137649348Y-108566393D01*
X137585322Y-108603322D01*
X137536879Y-108636086D01*
X137500076Y-108668694D01*
X137470970Y-108705150D01*
X137445619Y-108749462D01*
X137424855Y-108794496D01*
X137402919Y-108846701D01*
X137389601Y-108883989D01*
X137384321Y-108910506D01*
X137386498Y-108930397D01*
X137395550Y-108947807D01*
X137402149Y-108956479D01*
X137422048Y-108981053D01*
X137763698Y-108981464D01*
X138105349Y-108981875D01*
X138115567Y-108950125D01*
X138143623Y-108895279D01*
X138187215Y-108849687D01*
X138227769Y-108824767D01*
X138241890Y-108818773D01*
X138256911Y-108813917D01*
X138275205Y-108810048D01*
X138299145Y-108807016D01*
X138331104Y-108804672D01*
X138373455Y-108802865D01*
X138428572Y-108801445D01*
X138498827Y-108800262D01*
X138586594Y-108799166D01*
X138642104Y-108798558D01*
X139007667Y-108794650D01*
X139053210Y-108832700D01*
X139090410Y-108858910D01*
X139122970Y-108869934D01*
X139135319Y-108870750D01*
X139183050Y-108878345D01*
X139221628Y-108899063D01*
X139247083Y-108929804D01*
X139255500Y-108964591D01*
X139252915Y-108978168D01*
X139242369Y-108987620D01*
X139219677Y-108994926D01*
X139180656Y-109002065D01*
X139174089Y-109003096D01*
X139135140Y-109013492D01*
X139114632Y-109031094D01*
X139110390Y-109058311D01*
X139112502Y-109071271D01*
X139130700Y-109109456D01*
X139164672Y-109134590D01*
X139212689Y-109145529D01*
X139225177Y-109145917D01*
X139271407Y-109152587D01*
X139302970Y-109171694D01*
X139317992Y-109201880D01*
X139319000Y-109213940D01*
X139309534Y-109241224D01*
X139285447Y-109265148D01*
X139253206Y-109280528D01*
X139232210Y-109283500D01*
X139193128Y-109288334D01*
X139170360Y-109304698D01*
X139160944Y-109335388D01*
X139160250Y-109351368D01*
X139156340Y-109386823D01*
X139145831Y-109409158D01*
X139144416Y-109410466D01*
X139135114Y-109414233D01*
X139116281Y-109416973D01*
X139086027Y-109418718D01*
X139042460Y-109419497D01*
X138983687Y-109419341D01*
X138907817Y-109418280D01*
X138812958Y-109416344D01*
X138797812Y-109415999D01*
X138692641Y-109413388D01*
X138606180Y-109410692D01*
X138535974Y-109407655D01*
X138479568Y-109404024D01*
X138434506Y-109399543D01*
X138398333Y-109393958D01*
X138368594Y-109387014D01*
X138342832Y-109378456D01*
X138318593Y-109368031D01*
X138313953Y-109365816D01*
X138267085Y-109336431D01*
X138219880Y-109295586D01*
X138178523Y-109249501D01*
X138149199Y-109204399D01*
X138145416Y-109196262D01*
X138130585Y-109166332D01*
X138116047Y-109144176D01*
X138111300Y-109139272D01*
X138095790Y-109135413D01*
X138059604Y-109131799D01*
X138003233Y-109128454D01*
X137927167Y-109125403D01*
X137831896Y-109122671D01*
X137750021Y-109120884D01*
X137403417Y-109114132D01*
X137403417Y-109178429D01*
X137411157Y-109250203D01*
X137432816Y-109330878D01*
X137466052Y-109415807D01*
X137508523Y-109500341D01*
X137557887Y-109579831D01*
X137611803Y-109649630D01*
X137667927Y-109705088D01*
X137669344Y-109706255D01*
X137773164Y-109779609D01*
X137891031Y-109842447D01*
X138017475Y-109892440D01*
X138147023Y-109927261D01*
X138216099Y-109938903D01*
X138257834Y-109943024D01*
X138320063Y-109947161D01*
X138402115Y-109951296D01*
X138503318Y-109955410D01*
X138623000Y-109959484D01*
X138760489Y-109963497D01*
X138915114Y-109967431D01*
X139086202Y-109971266D01*
X139273081Y-109974984D01*
X139475080Y-109978564D01*
X139691526Y-109981988D01*
X139742333Y-109982737D01*
X139889614Y-109984892D01*
X140049517Y-109987252D01*
X140217655Y-109989749D01*
X140389640Y-109992319D01*
X140561083Y-109994894D01*
X140727596Y-109997411D01*
X140884791Y-109999801D01*
X141028280Y-110002001D01*
X141118167Y-110003390D01*
X141380110Y-110007453D01*
X141622382Y-110011199D01*
X141846474Y-110014651D01*
X142053880Y-110017830D01*
X142246091Y-110020758D01*
X142424599Y-110023456D01*
X142590899Y-110025947D01*
X142746480Y-110028252D01*
X142892837Y-110030392D01*
X143031461Y-110032390D01*
X143163845Y-110034267D01*
X143291481Y-110036045D01*
X143415861Y-110037745D01*
X143538479Y-110039390D01*
X143660825Y-110041000D01*
X143784393Y-110042598D01*
X143910675Y-110044205D01*
X144018000Y-110045554D01*
X144164393Y-110047446D01*
X144315629Y-110049512D01*
X144468723Y-110051706D01*
X144620687Y-110053981D01*
X144768537Y-110056290D01*
X144909286Y-110058584D01*
X145039947Y-110060817D01*
X145157536Y-110062941D01*
X145259064Y-110064908D01*
X145319750Y-110066185D01*
X145439376Y-110068564D01*
X145571925Y-110070771D01*
X145711551Y-110072736D01*
X145852408Y-110074390D01*
X145988650Y-110075662D01*
X146114432Y-110076483D01*
X146206709Y-110076772D01*
X146336744Y-110077236D01*
X146445911Y-110078320D01*
X146534502Y-110080029D01*
X146602807Y-110082374D01*
X146651118Y-110085360D01*
X146679726Y-110088997D01*
X146682195Y-110089564D01*
X146707966Y-110098317D01*
X146733520Y-110112874D01*
X146763047Y-110136282D01*
X146800736Y-110171589D01*
X146816770Y-110187459D01*
X146906870Y-110265322D01*
X147001338Y-110322694D01*
X147101480Y-110360031D01*
X147208604Y-110377787D01*
X147324016Y-110376417D01*
X147351750Y-110373459D01*
X147456951Y-110350462D01*
X147553038Y-110309678D01*
X147638536Y-110253061D01*
X147711969Y-110182563D01*
X147771859Y-110100138D01*
X147816732Y-110007741D01*
X147845109Y-109907325D01*
X147855516Y-109800842D01*
X147854969Y-109792073D01*
X147411780Y-109792073D01*
X147410943Y-109841935D01*
X147394454Y-109884720D01*
X147360124Y-109921587D01*
X147314732Y-109945778D01*
X147264095Y-109956059D01*
X147214032Y-109951195D01*
X147172750Y-109931752D01*
X147137845Y-109894404D01*
X147116266Y-109846744D01*
X147109327Y-109794976D01*
X147118341Y-109745308D01*
X147128769Y-109723958D01*
X147164843Y-109684274D01*
X147211529Y-109659848D01*
X147263509Y-109652165D01*
X147315464Y-109662708D01*
X147327911Y-109668410D01*
X147368596Y-109699890D01*
X147397109Y-109742918D01*
X147411780Y-109792073D01*
X147854969Y-109792073D01*
X147850098Y-109714003D01*
X147833279Y-109631440D01*
X147804744Y-109558346D01*
X147761828Y-109489610D01*
X147701868Y-109420123D01*
X147691328Y-109409408D01*
X147608308Y-109337473D01*
X147520927Y-109284607D01*
X147427318Y-109250274D01*
X147325611Y-109233939D01*
X147213938Y-109235066D01*
X147123713Y-109246841D01*
X147069939Y-109257676D01*
X147023381Y-109271177D01*
X146980939Y-109289399D01*
X146939509Y-109314398D01*
X146895992Y-109348229D01*
X146847284Y-109392948D01*
X146790285Y-109450611D01*
X146746668Y-109496701D01*
X146718378Y-109526917D01*
X146577335Y-109526155D01*
X146491924Y-109525527D01*
X146398109Y-109524543D01*
X146298066Y-109523250D01*
X146193967Y-109521694D01*
X146087988Y-109519922D01*
X145982302Y-109517980D01*
X145879083Y-109515915D01*
X145780505Y-109513772D01*
X145688742Y-109511599D01*
X145605968Y-109509442D01*
X145534357Y-109507348D01*
X145476084Y-109505362D01*
X145433321Y-109503532D01*
X145408244Y-109501904D01*
X145402589Y-109501043D01*
X145383457Y-109485154D01*
X145378076Y-109475828D01*
X145374543Y-109461857D01*
X145367333Y-109429448D01*
X145356929Y-109380913D01*
X145343818Y-109318568D01*
X145328485Y-109244725D01*
X145311415Y-109161699D01*
X145293094Y-109071803D01*
X145286666Y-109040084D01*
X145266865Y-108943008D01*
X145247081Y-108847438D01*
X145227986Y-108756516D01*
X145210250Y-108673386D01*
X145194545Y-108601189D01*
X145181542Y-108543068D01*
X145171912Y-108502165D01*
X145170964Y-108498360D01*
X145162946Y-108463657D01*
X144469670Y-108463657D01*
X144469164Y-108500091D01*
X144461010Y-108523916D01*
X144445978Y-108537134D01*
X144428658Y-108540345D01*
X144393632Y-108542735D01*
X144344346Y-108544336D01*
X144284244Y-108545178D01*
X144216769Y-108545294D01*
X144145367Y-108544715D01*
X144073481Y-108543473D01*
X144004556Y-108541598D01*
X143942037Y-108539123D01*
X143889367Y-108536078D01*
X143849992Y-108532496D01*
X143843375Y-108531628D01*
X143751740Y-108509029D01*
X143670367Y-108469596D01*
X143601385Y-108414844D01*
X143546921Y-108346289D01*
X143524379Y-108304247D01*
X143511127Y-108268959D01*
X143496718Y-108220426D01*
X143483303Y-108166308D01*
X143476661Y-108134512D01*
X143467001Y-108081139D01*
X143461920Y-108042916D01*
X143461117Y-108014395D01*
X143464290Y-107990131D01*
X143467877Y-107975708D01*
X143494018Y-107919008D01*
X143536873Y-107868703D01*
X143592048Y-107829628D01*
X143607436Y-107822098D01*
X143624417Y-107814794D01*
X143640730Y-107809063D01*
X143659106Y-107804713D01*
X143682276Y-107801550D01*
X143712972Y-107799382D01*
X143753924Y-107798015D01*
X143807865Y-107797255D01*
X143877525Y-107796909D01*
X143965083Y-107796785D01*
X144044318Y-107796999D01*
X144117817Y-107797727D01*
X144182574Y-107798896D01*
X144235587Y-107800435D01*
X144273851Y-107802272D01*
X144294363Y-107804337D01*
X144295620Y-107804633D01*
X144312697Y-107811948D01*
X144327025Y-107825121D01*
X144339583Y-107846762D01*
X144351351Y-107879477D01*
X144363308Y-107925873D01*
X144376432Y-107988559D01*
X144388311Y-108051539D01*
X144401522Y-108121500D01*
X144415959Y-108194490D01*
X144430218Y-108263611D01*
X144442891Y-108321970D01*
X144447830Y-108343424D01*
X144462551Y-108412230D01*
X144469670Y-108463657D01*
X145162946Y-108463657D01*
X145156569Y-108436063D01*
X145141574Y-108362740D01*
X145127934Y-108288378D01*
X145119155Y-108233777D01*
X145111307Y-108185907D01*
X145099572Y-108121659D01*
X145084791Y-108045286D01*
X145067807Y-107961041D01*
X145049463Y-107873177D01*
X145030601Y-107785949D01*
X145029170Y-107779463D01*
X145009287Y-107687156D01*
X144991457Y-107599764D01*
X144976283Y-107520536D01*
X144964368Y-107452722D01*
X144956315Y-107399571D01*
X144953016Y-107369199D01*
X144948670Y-107324364D01*
X144942866Y-107286426D01*
X144936584Y-107261204D01*
X144933873Y-107255568D01*
X144929925Y-107252391D01*
X144922109Y-107249628D01*
X144909015Y-107247246D01*
X144889236Y-107245213D01*
X144861363Y-107243498D01*
X144823987Y-107242066D01*
X144775702Y-107240887D01*
X144715097Y-107239928D01*
X144640765Y-107239156D01*
X144551298Y-107238540D01*
X144445288Y-107238046D01*
X144321325Y-107237643D01*
X144178002Y-107237299D01*
X144133781Y-107237208D01*
X143984885Y-107236935D01*
X143855580Y-107236780D01*
X143744292Y-107236774D01*
X143649446Y-107236951D01*
X143569467Y-107237343D01*
X143502780Y-107237983D01*
X143447811Y-107238904D01*
X143402984Y-107240140D01*
X143366725Y-107241722D01*
X143337459Y-107243683D01*
X143313611Y-107246057D01*
X143293606Y-107248877D01*
X143275869Y-107252174D01*
X143261292Y-107255403D01*
X143190829Y-107273664D01*
X143132206Y-107293836D01*
X143078334Y-107319178D01*
X143022126Y-107352954D01*
X142967213Y-107390733D01*
X142902951Y-107440119D01*
X142853836Y-107487258D01*
X142815346Y-107537717D01*
X142782957Y-107597065D01*
X142763836Y-107641061D01*
X142736217Y-107734401D01*
X142723119Y-107839647D01*
X142723989Y-107953848D01*
X142738271Y-108074053D01*
X142765412Y-108197311D01*
X142804857Y-108320670D01*
X142856051Y-108441180D01*
X142918441Y-108555889D01*
X142942936Y-108594296D01*
X143023232Y-108697575D01*
X143121040Y-108793786D01*
X143233256Y-108880653D01*
X143356775Y-108955903D01*
X143488491Y-109017261D01*
X143552058Y-109040557D01*
X143603145Y-109056366D01*
X143655467Y-109069567D01*
X143711930Y-109080522D01*
X143775438Y-109089589D01*
X143848894Y-109097130D01*
X143935204Y-109103505D01*
X144037272Y-109109073D01*
X144140134Y-109113503D01*
X144221058Y-109116697D01*
X144298485Y-109119777D01*
X144368878Y-109122600D01*
X144428699Y-109125024D01*
X144474412Y-109126907D01*
X144502320Y-109128098D01*
X144545335Y-109132549D01*
X144575089Y-109140849D01*
X144583749Y-109146427D01*
X144591003Y-109161966D01*
X144600622Y-109194208D01*
X144611530Y-109238968D01*
X144622651Y-109292064D01*
X144626663Y-109313306D01*
X144637638Y-109375494D01*
X144644357Y-109420136D01*
X144647096Y-109450364D01*
X144646131Y-109469307D01*
X144641738Y-109480096D01*
X144641383Y-109480538D01*
X144636361Y-109483985D01*
X144626428Y-109486845D01*
X144609949Y-109489146D01*
X144585285Y-109490919D01*
X144550799Y-109492191D01*
X144504854Y-109492994D01*
X144445812Y-109493357D01*
X144372036Y-109493308D01*
X144281887Y-109492878D01*
X144173730Y-109492096D01*
X144055940Y-109491083D01*
X143931953Y-109489872D01*
X143801506Y-109488436D01*
X143668597Y-109486827D01*
X143537227Y-109485101D01*
X143411393Y-109483312D01*
X143295095Y-109481514D01*
X143192331Y-109479762D01*
X143114072Y-109478256D01*
X143014400Y-109476092D01*
X142933786Y-109474062D01*
X142870125Y-109472029D01*
X142821308Y-109469856D01*
X142785231Y-109467408D01*
X142759786Y-109464547D01*
X142742867Y-109461136D01*
X142732367Y-109457038D01*
X142727134Y-109453134D01*
X142720856Y-109445306D01*
X142717045Y-109434588D01*
X142715809Y-109417709D01*
X142717256Y-109391394D01*
X142721497Y-109352369D01*
X142728638Y-109297362D01*
X142733489Y-109261687D01*
X142749417Y-109123191D01*
X142756792Y-108997128D01*
X142755259Y-108877570D01*
X142744464Y-108758590D01*
X142724053Y-108634258D01*
X142693672Y-108498646D01*
X142686096Y-108468584D01*
X142655931Y-108359835D01*
X142624103Y-108265270D01*
X142587812Y-108177938D01*
X142544261Y-108090886D01*
X142508649Y-108027575D01*
X142426660Y-107895913D01*
X142343156Y-107780467D01*
X142254401Y-107676403D01*
X142175347Y-107596426D01*
X142117995Y-107543606D01*
X142064491Y-107498672D01*
X142010332Y-107458550D01*
X141951012Y-107420166D01*
X141882029Y-107380444D01*
X141798880Y-107336312D01*
X141780417Y-107326820D01*
X141597474Y-107244246D01*
X141409126Y-107181446D01*
X141324542Y-107159954D01*
X141281042Y-107152890D01*
X141220693Y-107147308D01*
X141147453Y-107143207D01*
X141065279Y-107140586D01*
X140978131Y-107139443D01*
X140889965Y-107139777D01*
X140889965Y-107139777D01*
G37*
X140889965Y-107139777D02*
X140804740Y-107141586D01*
X140726413Y-107144868D01*
X140658943Y-107149623D01*
X140606288Y-107155849D01*
X140583708Y-107160227D01*
X140535882Y-107174112D01*
X140483755Y-107192997D01*
X140429706Y-107215547D01*
X140376114Y-107240430D01*
X140325356Y-107266313D01*
X140279810Y-107291861D01*
X140241855Y-107315741D01*
X140213869Y-107336620D01*
X140198230Y-107353164D01*
X140197316Y-107364041D01*
X140213292Y-107367917D01*
X140227384Y-107373030D01*
X140229167Y-107377368D01*
X140219493Y-107389593D01*
X140193811Y-107397554D01*
X140165898Y-107399667D01*
X140143435Y-107405108D01*
X140118338Y-107422629D01*
X140088885Y-107454029D01*
X140053354Y-107501105D01*
X140016558Y-107555599D01*
X139975469Y-107629197D01*
X139950968Y-107699940D01*
X139949963Y-107704242D01*
X139939017Y-107758808D01*
X139928447Y-107822928D01*
X139918904Y-107891234D01*
X139911038Y-107958360D01*
X139905499Y-108018938D01*
X139902938Y-108067602D01*
X139903180Y-108090326D01*
X139906375Y-108145792D01*
X140012208Y-108152486D01*
X140063464Y-108155071D01*
X140125175Y-108157133D01*
X140194274Y-108158676D01*
X140267697Y-108159702D01*
X140342376Y-108160216D01*
X140415247Y-108160220D01*
X140483244Y-108159718D01*
X140543301Y-108158712D01*
X140592352Y-108157206D01*
X140627331Y-108155203D01*
X140645173Y-108152707D01*
X140646750Y-108151826D01*
X140650941Y-108137156D01*
X140656422Y-108107453D01*
X140662106Y-108068716D01*
X140662913Y-108062467D01*
X140679379Y-107981404D01*
X140708153Y-107912513D01*
X140752319Y-107848916D01*
X140765442Y-107833799D01*
X140820074Y-107783867D01*
X140882566Y-107748633D01*
X140957020Y-107726194D01*
X141016905Y-107717241D01*
X141143893Y-107712945D01*
X141262812Y-107727515D01*
X141375044Y-107761439D01*
X141481969Y-107815209D01*
X141584967Y-107889313D01*
X141639696Y-107938203D01*
X141731706Y-108036083D01*
X141805494Y-108137719D01*
X141863991Y-108247627D01*
X141899961Y-108339281D01*
X141917912Y-108395992D01*
X141937625Y-108465260D01*
X141957601Y-108541095D01*
X141976343Y-108617508D01*
X141992352Y-108688510D01*
X142004130Y-108748110D01*
X142007738Y-108770209D01*
X142017469Y-108868780D01*
X142018554Y-108968052D01*
X142011437Y-109063367D01*
X141996564Y-109150067D01*
X141974380Y-109223493D01*
X141961730Y-109251750D01*
X141932525Y-109292842D01*
X141888302Y-109335399D01*
X141834435Y-109375204D01*
X141776297Y-109408041D01*
X141746015Y-109421019D01*
X141689789Y-109436041D01*
X141617962Y-109445937D01*
X141535446Y-109450801D01*
X141447154Y-109450728D01*
X141357997Y-109445814D01*
X141272887Y-109436155D01*
X141196735Y-109421845D01*
X141152548Y-109409497D01*
X141082329Y-109378089D01*
X141013665Y-109332843D01*
X140954098Y-109279222D01*
X140925864Y-109245304D01*
X140904115Y-109212384D01*
X140877530Y-109167874D01*
X140850489Y-109119237D01*
X140838947Y-109097229D01*
X140807867Y-109041169D01*
X140782242Y-109005004D01*
X140762873Y-108988750D01*
X140744605Y-108985228D01*
X140708737Y-108982276D01*
X140658621Y-108979902D01*
X140597607Y-108978110D01*
X140529047Y-108976907D01*
X140456291Y-108976299D01*
X140382692Y-108976294D01*
X140311599Y-108976896D01*
X140246365Y-108978112D01*
X140190340Y-108979948D01*
X140146875Y-108982411D01*
X140119322Y-108985507D01*
X140112054Y-108987539D01*
X140097469Y-109000394D01*
X140091391Y-109020366D01*
X140094326Y-109049537D01*
X140106777Y-109089994D01*
X140129252Y-109143819D01*
X140162254Y-109213099D01*
X140170958Y-109230583D01*
X140197398Y-109284228D01*
X140220105Y-109331929D01*
X140237491Y-109370215D01*
X140247965Y-109395612D01*
X140250333Y-109403944D01*
X140246506Y-109416036D01*
X140232967Y-109424171D01*
X140206629Y-109429025D01*
X140164408Y-109431277D01*
X140124020Y-109431667D01*
X140043869Y-109430544D01*
X139982510Y-109426931D01*
X139937679Y-109420462D01*
X139907107Y-109410770D01*
X139888529Y-109397490D01*
X139885160Y-109393065D01*
X139878795Y-109376348D01*
X139869110Y-109341805D01*
X139856809Y-109292393D01*
X139842600Y-109231067D01*
X139827187Y-109160781D01*
X139811278Y-109084492D01*
X139810304Y-109079693D01*
X139795013Y-109004210D01*
X139776384Y-108912170D01*
X139755263Y-108807763D01*
X139732498Y-108695182D01*
X139708937Y-108578616D01*
X139685427Y-108462258D01*
X139662815Y-108350298D01*
X139657850Y-108325709D01*
X139638160Y-108228364D01*
X138947008Y-108228364D01*
X138945780Y-108241946D01*
X138941353Y-108248845D01*
X138933614Y-108252638D01*
X138928129Y-108254612D01*
X138910622Y-108257017D01*
X138875324Y-108258697D01*
X138825594Y-108259695D01*
X138764794Y-108260054D01*
X138696285Y-108259816D01*
X138623427Y-108259025D01*
X138549580Y-108257722D01*
X138478107Y-108255951D01*
X138412367Y-108253755D01*
X138355721Y-108251176D01*
X138311531Y-108248258D01*
X138293894Y-108246539D01*
X138197870Y-108227733D01*
X138117855Y-108195273D01*
X138053290Y-108148679D01*
X138003615Y-108087468D01*
X137968270Y-108011159D01*
X137952636Y-107952850D01*
X137946084Y-107886361D01*
X137956896Y-107829365D01*
X137985873Y-107778179D01*
X137992334Y-107770180D01*
X138008091Y-107751998D01*
X138023162Y-107737354D01*
X138039960Y-107725835D01*
X138060902Y-107717028D01*
X138088400Y-107710518D01*
X138124871Y-107705892D01*
X138172728Y-107702735D01*
X138234386Y-107700635D01*
X138312259Y-107699176D01*
X138408763Y-107697946D01*
X138414138Y-107697882D01*
X138497157Y-107697219D01*
X138574818Y-107697189D01*
X138644190Y-107697747D01*
X138702339Y-107698848D01*
X138746333Y-107700449D01*
X138773241Y-107702505D01*
X138778469Y-107703420D01*
X138809420Y-107717482D01*
X138833785Y-107738372D01*
X138834170Y-107738881D01*
X138847319Y-107764276D01*
X138862677Y-107806394D01*
X138879138Y-107861050D01*
X138895598Y-107924061D01*
X138910953Y-107991243D01*
X138924098Y-108058413D01*
X138932623Y-108111760D01*
X138940317Y-108166847D01*
X138945150Y-108204523D01*
X138947008Y-108228364D01*
X139638160Y-108228364D01*
X139636480Y-108220061D01*
X139614758Y-108113055D01*
X139593392Y-108008147D01*
X139573089Y-107908790D01*
X139554553Y-107818437D01*
X139538492Y-107740544D01*
X139525612Y-107678563D01*
X139521500Y-107658959D01*
X139506901Y-107586449D01*
X139492989Y-107511583D01*
X139480812Y-107440435D01*
X139471421Y-107379079D01*
X139466673Y-107341636D01*
X139459342Y-107279061D01*
X139452303Y-107234233D01*
X139444591Y-107203765D01*
X139435240Y-107184276D01*
X139423285Y-107172381D01*
X139417403Y-107168912D01*
X139403565Y-107167004D01*
X139370431Y-107164985D01*
X139319872Y-107162905D01*
X139253758Y-107160810D01*
X139173959Y-107158751D01*
X139082346Y-107156776D01*
X138980789Y-107154935D01*
X138871158Y-107153275D01*
X138770211Y-107152011D01*
X138636032Y-107150513D01*
X138521468Y-107149347D01*
X138424969Y-107148598D01*
X138344986Y-107148353D01*
X138279968Y-107148699D01*
X138228365Y-107149723D01*
X138188627Y-107151509D01*
X138159205Y-107154146D01*
X138138548Y-107157719D01*
X138125106Y-107162314D01*
X138117329Y-107168019D01*
X138113668Y-107174919D01*
X138112571Y-107183101D01*
X138112500Y-107188671D01*
X138108282Y-107209584D01*
X138097207Y-107212074D01*
X138081646Y-107196770D01*
X138070197Y-107177475D01*
X138054812Y-107151164D01*
X138042489Y-107141488D01*
X138030800Y-107144217D01*
X138012254Y-107148221D01*
X137979255Y-107149844D01*
X137938415Y-107148809D01*
X137931691Y-107148384D01*
X137860799Y-107148472D01*
X137779014Y-107156481D01*
X137694508Y-107171132D01*
X137615451Y-107191148D01*
X137577903Y-107203737D01*
X137487672Y-107241487D01*
X137414853Y-107281946D01*
X137355695Y-107328148D01*
X137306446Y-107383128D01*
X137263355Y-107449918D01*
X137255339Y-107464596D01*
X137235760Y-107504734D01*
X137224010Y-107540182D01*
X137217616Y-107580365D01*
X137214877Y-107618719D01*
X137217360Y-107737687D01*
X137235947Y-107858411D01*
X137266273Y-107963510D01*
X137297394Y-108034044D01*
X137339477Y-108108749D01*
X137388003Y-108180664D01*
X137438455Y-108242827D01*
X137465414Y-108270362D01*
X137513302Y-108310703D01*
X137571879Y-108353451D01*
X137633742Y-108393647D01*
X137691486Y-108426333D01*
X137715589Y-108437908D01*
X137747396Y-108453367D01*
X137765813Y-108467269D01*
X137769838Y-108481558D01*
X137758471Y-108498174D01*
X137730711Y-108519059D01*
X137685558Y-108546153D01*
X137649348Y-108566393D01*
X137585322Y-108603322D01*
X137536879Y-108636086D01*
X137500076Y-108668694D01*
X137470970Y-108705150D01*
X137445619Y-108749462D01*
X137424855Y-108794496D01*
X137402919Y-108846701D01*
X137389601Y-108883989D01*
X137384321Y-108910506D01*
X137386498Y-108930397D01*
X137395550Y-108947807D01*
X137402149Y-108956479D01*
X137422048Y-108981053D01*
X137763698Y-108981464D01*
X138105349Y-108981875D01*
X138115567Y-108950125D01*
X138143623Y-108895279D01*
X138187215Y-108849687D01*
X138227769Y-108824767D01*
X138241890Y-108818773D01*
X138256911Y-108813917D01*
X138275205Y-108810048D01*
X138299145Y-108807016D01*
X138331104Y-108804672D01*
X138373455Y-108802865D01*
X138428572Y-108801445D01*
X138498827Y-108800262D01*
X138586594Y-108799166D01*
X138642104Y-108798558D01*
X139007667Y-108794650D01*
X139053210Y-108832700D01*
X139090410Y-108858910D01*
X139122970Y-108869934D01*
X139135319Y-108870750D01*
X139183050Y-108878345D01*
X139221628Y-108899063D01*
X139247083Y-108929804D01*
X139255500Y-108964591D01*
X139252915Y-108978168D01*
X139242369Y-108987620D01*
X139219677Y-108994926D01*
X139180656Y-109002065D01*
X139174089Y-109003096D01*
X139135140Y-109013492D01*
X139114632Y-109031094D01*
X139110390Y-109058311D01*
X139112502Y-109071271D01*
X139130700Y-109109456D01*
X139164672Y-109134590D01*
X139212689Y-109145529D01*
X139225177Y-109145917D01*
X139271407Y-109152587D01*
X139302970Y-109171694D01*
X139317992Y-109201880D01*
X139319000Y-109213940D01*
X139309534Y-109241224D01*
X139285447Y-109265148D01*
X139253206Y-109280528D01*
X139232210Y-109283500D01*
X139193128Y-109288334D01*
X139170360Y-109304698D01*
X139160944Y-109335388D01*
X139160250Y-109351368D01*
X139156340Y-109386823D01*
X139145831Y-109409158D01*
X139144416Y-109410466D01*
X139135114Y-109414233D01*
X139116281Y-109416973D01*
X139086027Y-109418718D01*
X139042460Y-109419497D01*
X138983687Y-109419341D01*
X138907817Y-109418280D01*
X138812958Y-109416344D01*
X138797812Y-109415999D01*
X138692641Y-109413388D01*
X138606180Y-109410692D01*
X138535974Y-109407655D01*
X138479568Y-109404024D01*
X138434506Y-109399543D01*
X138398333Y-109393958D01*
X138368594Y-109387014D01*
X138342832Y-109378456D01*
X138318593Y-109368031D01*
X138313953Y-109365816D01*
X138267085Y-109336431D01*
X138219880Y-109295586D01*
X138178523Y-109249501D01*
X138149199Y-109204399D01*
X138145416Y-109196262D01*
X138130585Y-109166332D01*
X138116047Y-109144176D01*
X138111300Y-109139272D01*
X138095790Y-109135413D01*
X138059604Y-109131799D01*
X138003233Y-109128454D01*
X137927167Y-109125403D01*
X137831896Y-109122671D01*
X137750021Y-109120884D01*
X137403417Y-109114132D01*
X137403417Y-109178429D01*
X137411157Y-109250203D01*
X137432816Y-109330878D01*
X137466052Y-109415807D01*
X137508523Y-109500341D01*
X137557887Y-109579831D01*
X137611803Y-109649630D01*
X137667927Y-109705088D01*
X137669344Y-109706255D01*
X137773164Y-109779609D01*
X137891031Y-109842447D01*
X138017475Y-109892440D01*
X138147023Y-109927261D01*
X138216099Y-109938903D01*
X138257834Y-109943024D01*
X138320063Y-109947161D01*
X138402115Y-109951296D01*
X138503318Y-109955410D01*
X138623000Y-109959484D01*
X138760489Y-109963497D01*
X138915114Y-109967431D01*
X139086202Y-109971266D01*
X139273081Y-109974984D01*
X139475080Y-109978564D01*
X139691526Y-109981988D01*
X139742333Y-109982737D01*
X139889614Y-109984892D01*
X140049517Y-109987252D01*
X140217655Y-109989749D01*
X140389640Y-109992319D01*
X140561083Y-109994894D01*
X140727596Y-109997411D01*
X140884791Y-109999801D01*
X141028280Y-110002001D01*
X141118167Y-110003390D01*
X141380110Y-110007453D01*
X141622382Y-110011199D01*
X141846474Y-110014651D01*
X142053880Y-110017830D01*
X142246091Y-110020758D01*
X142424599Y-110023456D01*
X142590899Y-110025947D01*
X142746480Y-110028252D01*
X142892837Y-110030392D01*
X143031461Y-110032390D01*
X143163845Y-110034267D01*
X143291481Y-110036045D01*
X143415861Y-110037745D01*
X143538479Y-110039390D01*
X143660825Y-110041000D01*
X143784393Y-110042598D01*
X143910675Y-110044205D01*
X144018000Y-110045554D01*
X144164393Y-110047446D01*
X144315629Y-110049512D01*
X144468723Y-110051706D01*
X144620687Y-110053981D01*
X144768537Y-110056290D01*
X144909286Y-110058584D01*
X145039947Y-110060817D01*
X145157536Y-110062941D01*
X145259064Y-110064908D01*
X145319750Y-110066185D01*
X145439376Y-110068564D01*
X145571925Y-110070771D01*
X145711551Y-110072736D01*
X145852408Y-110074390D01*
X145988650Y-110075662D01*
X146114432Y-110076483D01*
X146206709Y-110076772D01*
X146336744Y-110077236D01*
X146445911Y-110078320D01*
X146534502Y-110080029D01*
X146602807Y-110082374D01*
X146651118Y-110085360D01*
X146679726Y-110088997D01*
X146682195Y-110089564D01*
X146707966Y-110098317D01*
X146733520Y-110112874D01*
X146763047Y-110136282D01*
X146800736Y-110171589D01*
X146816770Y-110187459D01*
X146906870Y-110265322D01*
X147001338Y-110322694D01*
X147101480Y-110360031D01*
X147208604Y-110377787D01*
X147324016Y-110376417D01*
X147351750Y-110373459D01*
X147456951Y-110350462D01*
X147553038Y-110309678D01*
X147638536Y-110253061D01*
X147711969Y-110182563D01*
X147771859Y-110100138D01*
X147816732Y-110007741D01*
X147845109Y-109907325D01*
X147855516Y-109800842D01*
X147854969Y-109792073D01*
X147411780Y-109792073D01*
X147410943Y-109841935D01*
X147394454Y-109884720D01*
X147360124Y-109921587D01*
X147314732Y-109945778D01*
X147264095Y-109956059D01*
X147214032Y-109951195D01*
X147172750Y-109931752D01*
X147137845Y-109894404D01*
X147116266Y-109846744D01*
X147109327Y-109794976D01*
X147118341Y-109745308D01*
X147128769Y-109723958D01*
X147164843Y-109684274D01*
X147211529Y-109659848D01*
X147263509Y-109652165D01*
X147315464Y-109662708D01*
X147327911Y-109668410D01*
X147368596Y-109699890D01*
X147397109Y-109742918D01*
X147411780Y-109792073D01*
X147854969Y-109792073D01*
X147850098Y-109714003D01*
X147833279Y-109631440D01*
X147804744Y-109558346D01*
X147761828Y-109489610D01*
X147701868Y-109420123D01*
X147691328Y-109409408D01*
X147608308Y-109337473D01*
X147520927Y-109284607D01*
X147427318Y-109250274D01*
X147325611Y-109233939D01*
X147213938Y-109235066D01*
X147123713Y-109246841D01*
X147069939Y-109257676D01*
X147023381Y-109271177D01*
X146980939Y-109289399D01*
X146939509Y-109314398D01*
X146895992Y-109348229D01*
X146847284Y-109392948D01*
X146790285Y-109450611D01*
X146746668Y-109496701D01*
X146718378Y-109526917D01*
X146577335Y-109526155D01*
X146491924Y-109525527D01*
X146398109Y-109524543D01*
X146298066Y-109523250D01*
X146193967Y-109521694D01*
X146087988Y-109519922D01*
X145982302Y-109517980D01*
X145879083Y-109515915D01*
X145780505Y-109513772D01*
X145688742Y-109511599D01*
X145605968Y-109509442D01*
X145534357Y-109507348D01*
X145476084Y-109505362D01*
X145433321Y-109503532D01*
X145408244Y-109501904D01*
X145402589Y-109501043D01*
X145383457Y-109485154D01*
X145378076Y-109475828D01*
X145374543Y-109461857D01*
X145367333Y-109429448D01*
X145356929Y-109380913D01*
X145343818Y-109318568D01*
X145328485Y-109244725D01*
X145311415Y-109161699D01*
X145293094Y-109071803D01*
X145286666Y-109040084D01*
X145266865Y-108943008D01*
X145247081Y-108847438D01*
X145227986Y-108756516D01*
X145210250Y-108673386D01*
X145194545Y-108601189D01*
X145181542Y-108543068D01*
X145171912Y-108502165D01*
X145170964Y-108498360D01*
X145162946Y-108463657D01*
X144469670Y-108463657D01*
X144469164Y-108500091D01*
X144461010Y-108523916D01*
X144445978Y-108537134D01*
X144428658Y-108540345D01*
X144393632Y-108542735D01*
X144344346Y-108544336D01*
X144284244Y-108545178D01*
X144216769Y-108545294D01*
X144145367Y-108544715D01*
X144073481Y-108543473D01*
X144004556Y-108541598D01*
X143942037Y-108539123D01*
X143889367Y-108536078D01*
X143849992Y-108532496D01*
X143843375Y-108531628D01*
X143751740Y-108509029D01*
X143670367Y-108469596D01*
X143601385Y-108414844D01*
X143546921Y-108346289D01*
X143524379Y-108304247D01*
X143511127Y-108268959D01*
X143496718Y-108220426D01*
X143483303Y-108166308D01*
X143476661Y-108134512D01*
X143467001Y-108081139D01*
X143461920Y-108042916D01*
X143461117Y-108014395D01*
X143464290Y-107990131D01*
X143467877Y-107975708D01*
X143494018Y-107919008D01*
X143536873Y-107868703D01*
X143592048Y-107829628D01*
X143607436Y-107822098D01*
X143624417Y-107814794D01*
X143640730Y-107809063D01*
X143659106Y-107804713D01*
X143682276Y-107801550D01*
X143712972Y-107799382D01*
X143753924Y-107798015D01*
X143807865Y-107797255D01*
X143877525Y-107796909D01*
X143965083Y-107796785D01*
X144044318Y-107796999D01*
X144117817Y-107797727D01*
X144182574Y-107798896D01*
X144235587Y-107800435D01*
X144273851Y-107802272D01*
X144294363Y-107804337D01*
X144295620Y-107804633D01*
X144312697Y-107811948D01*
X144327025Y-107825121D01*
X144339583Y-107846762D01*
X144351351Y-107879477D01*
X144363308Y-107925873D01*
X144376432Y-107988559D01*
X144388311Y-108051539D01*
X144401522Y-108121500D01*
X144415959Y-108194490D01*
X144430218Y-108263611D01*
X144442891Y-108321970D01*
X144447830Y-108343424D01*
X144462551Y-108412230D01*
X144469670Y-108463657D01*
X145162946Y-108463657D01*
X145156569Y-108436063D01*
X145141574Y-108362740D01*
X145127934Y-108288378D01*
X145119155Y-108233777D01*
X145111307Y-108185907D01*
X145099572Y-108121659D01*
X145084791Y-108045286D01*
X145067807Y-107961041D01*
X145049463Y-107873177D01*
X145030601Y-107785949D01*
X145029170Y-107779463D01*
X145009287Y-107687156D01*
X144991457Y-107599764D01*
X144976283Y-107520536D01*
X144964368Y-107452722D01*
X144956315Y-107399571D01*
X144953016Y-107369199D01*
X144948670Y-107324364D01*
X144942866Y-107286426D01*
X144936584Y-107261204D01*
X144933873Y-107255568D01*
X144929925Y-107252391D01*
X144922109Y-107249628D01*
X144909015Y-107247246D01*
X144889236Y-107245213D01*
X144861363Y-107243498D01*
X144823987Y-107242066D01*
X144775702Y-107240887D01*
X144715097Y-107239928D01*
X144640765Y-107239156D01*
X144551298Y-107238540D01*
X144445288Y-107238046D01*
X144321325Y-107237643D01*
X144178002Y-107237299D01*
X144133781Y-107237208D01*
X143984885Y-107236935D01*
X143855580Y-107236780D01*
X143744292Y-107236774D01*
X143649446Y-107236951D01*
X143569467Y-107237343D01*
X143502780Y-107237983D01*
X143447811Y-107238904D01*
X143402984Y-107240140D01*
X143366725Y-107241722D01*
X143337459Y-107243683D01*
X143313611Y-107246057D01*
X143293606Y-107248877D01*
X143275869Y-107252174D01*
X143261292Y-107255403D01*
X143190829Y-107273664D01*
X143132206Y-107293836D01*
X143078334Y-107319178D01*
X143022126Y-107352954D01*
X142967213Y-107390733D01*
X142902951Y-107440119D01*
X142853836Y-107487258D01*
X142815346Y-107537717D01*
X142782957Y-107597065D01*
X142763836Y-107641061D01*
X142736217Y-107734401D01*
X142723119Y-107839647D01*
X142723989Y-107953848D01*
X142738271Y-108074053D01*
X142765412Y-108197311D01*
X142804857Y-108320670D01*
X142856051Y-108441180D01*
X142918441Y-108555889D01*
X142942936Y-108594296D01*
X143023232Y-108697575D01*
X143121040Y-108793786D01*
X143233256Y-108880653D01*
X143356775Y-108955903D01*
X143488491Y-109017261D01*
X143552058Y-109040557D01*
X143603145Y-109056366D01*
X143655467Y-109069567D01*
X143711930Y-109080522D01*
X143775438Y-109089589D01*
X143848894Y-109097130D01*
X143935204Y-109103505D01*
X144037272Y-109109073D01*
X144140134Y-109113503D01*
X144221058Y-109116697D01*
X144298485Y-109119777D01*
X144368878Y-109122600D01*
X144428699Y-109125024D01*
X144474412Y-109126907D01*
X144502320Y-109128098D01*
X144545335Y-109132549D01*
X144575089Y-109140849D01*
X144583749Y-109146427D01*
X144591003Y-109161966D01*
X144600622Y-109194208D01*
X144611530Y-109238968D01*
X144622651Y-109292064D01*
X144626663Y-109313306D01*
X144637638Y-109375494D01*
X144644357Y-109420136D01*
X144647096Y-109450364D01*
X144646131Y-109469307D01*
X144641738Y-109480096D01*
X144641383Y-109480538D01*
X144636361Y-109483985D01*
X144626428Y-109486845D01*
X144609949Y-109489146D01*
X144585285Y-109490919D01*
X144550799Y-109492191D01*
X144504854Y-109492994D01*
X144445812Y-109493357D01*
X144372036Y-109493308D01*
X144281887Y-109492878D01*
X144173730Y-109492096D01*
X144055940Y-109491083D01*
X143931953Y-109489872D01*
X143801506Y-109488436D01*
X143668597Y-109486827D01*
X143537227Y-109485101D01*
X143411393Y-109483312D01*
X143295095Y-109481514D01*
X143192331Y-109479762D01*
X143114072Y-109478256D01*
X143014400Y-109476092D01*
X142933786Y-109474062D01*
X142870125Y-109472029D01*
X142821308Y-109469856D01*
X142785231Y-109467408D01*
X142759786Y-109464547D01*
X142742867Y-109461136D01*
X142732367Y-109457038D01*
X142727134Y-109453134D01*
X142720856Y-109445306D01*
X142717045Y-109434588D01*
X142715809Y-109417709D01*
X142717256Y-109391394D01*
X142721497Y-109352369D01*
X142728638Y-109297362D01*
X142733489Y-109261687D01*
X142749417Y-109123191D01*
X142756792Y-108997128D01*
X142755259Y-108877570D01*
X142744464Y-108758590D01*
X142724053Y-108634258D01*
X142693672Y-108498646D01*
X142686096Y-108468584D01*
X142655931Y-108359835D01*
X142624103Y-108265270D01*
X142587812Y-108177938D01*
X142544261Y-108090886D01*
X142508649Y-108027575D01*
X142426660Y-107895913D01*
X142343156Y-107780467D01*
X142254401Y-107676403D01*
X142175347Y-107596426D01*
X142117995Y-107543606D01*
X142064491Y-107498672D01*
X142010332Y-107458550D01*
X141951012Y-107420166D01*
X141882029Y-107380444D01*
X141798880Y-107336312D01*
X141780417Y-107326820D01*
X141597474Y-107244246D01*
X141409126Y-107181446D01*
X141324542Y-107159954D01*
X141281042Y-107152890D01*
X141220693Y-107147308D01*
X141147453Y-107143207D01*
X141065279Y-107140586D01*
X140978131Y-107139443D01*
X140889965Y-107139777D01*
G36*
X132473306Y-108977579D02*
G01*
X132448089Y-108978901D01*
X132432022Y-108981043D01*
X132423102Y-108984061D01*
X132419327Y-108988008D01*
X132418667Y-108991855D01*
X132422516Y-109022849D01*
X132432827Y-109067244D01*
X132447744Y-109118977D01*
X132465410Y-109171984D01*
X132483970Y-109220202D01*
X132497853Y-109250548D01*
X132516915Y-109285894D01*
X132544015Y-109333429D01*
X132575845Y-109387473D01*
X132609099Y-109442344D01*
X132616322Y-109454035D01*
X132654046Y-109513230D01*
X132686166Y-109559051D01*
X132717003Y-109596819D01*
X132750877Y-109631856D01*
X132789083Y-109666822D01*
X132867324Y-109731283D01*
X132953957Y-109794913D01*
X133044321Y-109854772D01*
X133133754Y-109907918D01*
X133217594Y-109951411D01*
X133286500Y-109980632D01*
X133337245Y-109998064D01*
X133384216Y-110011496D01*
X133433909Y-110022386D01*
X133492818Y-110032193D01*
X133553431Y-110040564D01*
X133605513Y-110047472D01*
X133653506Y-110054039D01*
X133691329Y-110059421D01*
X133709863Y-110062255D01*
X133736285Y-110064608D01*
X133752629Y-110062384D01*
X133753664Y-110061641D01*
X133765998Y-110058022D01*
X133795537Y-110052501D01*
X133838470Y-110045703D01*
X133890988Y-110038250D01*
X133920360Y-110034381D01*
X133983731Y-110025932D01*
X134032144Y-110018179D01*
X134071675Y-110009454D01*
X134108403Y-109998088D01*
X134148402Y-109982413D01*
X134197749Y-109960759D01*
X134212193Y-109954246D01*
X134268277Y-109928294D01*
X134310310Y-109906721D01*
X134343824Y-109885873D01*
X134374351Y-109862095D01*
X134407424Y-109831733D01*
X134427708Y-109811888D01*
X134500803Y-109733166D01*
X134557153Y-109658523D01*
X134596020Y-109589185D01*
X134616666Y-109526376D01*
X134620000Y-109492954D01*
X134622631Y-109468053D01*
X134629611Y-109430010D01*
X134639568Y-109386060D01*
X134642304Y-109375222D01*
X134652783Y-109329846D01*
X134658850Y-109288577D01*
X134661135Y-109243799D01*
X134660271Y-109187896D01*
X134659487Y-109167711D01*
X134656790Y-109114100D01*
X134653544Y-109077539D01*
X134648957Y-109053912D01*
X134642237Y-109039105D01*
X134632850Y-109029207D01*
X134624538Y-109024336D01*
X134611330Y-109020302D01*
X134591044Y-109016961D01*
X134561496Y-109014168D01*
X134520505Y-109011780D01*
X134465888Y-109009654D01*
X134395463Y-109007644D01*
X134307046Y-109005607D01*
X134260332Y-109004633D01*
X134176067Y-109003081D01*
X134098536Y-109001970D01*
X134030282Y-109001310D01*
X133973848Y-109001115D01*
X133931776Y-109001395D01*
X133906610Y-109002163D01*
X133900465Y-109002961D01*
X133893490Y-109014902D01*
X133882357Y-109042188D01*
X133869000Y-109079894D01*
X133862889Y-109098606D01*
X133842986Y-109155786D01*
X133823452Y-109197003D01*
X133800759Y-109227099D01*
X133771379Y-109250915D01*
X133737894Y-109270160D01*
X133673530Y-109293301D01*
X133604270Y-109297775D01*
X133528162Y-109283563D01*
X133482292Y-109267622D01*
X133423277Y-109237598D01*
X133367343Y-109197347D01*
X133319882Y-109151524D01*
X133286285Y-109104785D01*
X133280722Y-109093588D01*
X133262047Y-109052870D01*
X133248500Y-109027216D01*
X133237090Y-109012142D01*
X133224828Y-109003163D01*
X133218281Y-108999936D01*
X133202134Y-108997130D01*
X133167074Y-108994189D01*
X133115351Y-108991215D01*
X133049216Y-108988310D01*
X132970922Y-108985575D01*
X132882717Y-108983111D01*
X132806693Y-108981406D01*
X132705702Y-108979429D01*
X132623869Y-108978004D01*
X132559194Y-108977185D01*
X132509673Y-108977025D01*
X132473306Y-108977579D01*
X132473306Y-108977579D01*
G37*
X132473306Y-108977579D02*
X132448089Y-108978901D01*
X132432022Y-108981043D01*
X132423102Y-108984061D01*
X132419327Y-108988008D01*
X132418667Y-108991855D01*
X132422516Y-109022849D01*
X132432827Y-109067244D01*
X132447744Y-109118977D01*
X132465410Y-109171984D01*
X132483970Y-109220202D01*
X132497853Y-109250548D01*
X132516915Y-109285894D01*
X132544015Y-109333429D01*
X132575845Y-109387473D01*
X132609099Y-109442344D01*
X132616322Y-109454035D01*
X132654046Y-109513230D01*
X132686166Y-109559051D01*
X132717003Y-109596819D01*
X132750877Y-109631856D01*
X132789083Y-109666822D01*
X132867324Y-109731283D01*
X132953957Y-109794913D01*
X133044321Y-109854772D01*
X133133754Y-109907918D01*
X133217594Y-109951411D01*
X133286500Y-109980632D01*
X133337245Y-109998064D01*
X133384216Y-110011496D01*
X133433909Y-110022386D01*
X133492818Y-110032193D01*
X133553431Y-110040564D01*
X133605513Y-110047472D01*
X133653506Y-110054039D01*
X133691329Y-110059421D01*
X133709863Y-110062255D01*
X133736285Y-110064608D01*
X133752629Y-110062384D01*
X133753664Y-110061641D01*
X133765998Y-110058022D01*
X133795537Y-110052501D01*
X133838470Y-110045703D01*
X133890988Y-110038250D01*
X133920360Y-110034381D01*
X133983731Y-110025932D01*
X134032144Y-110018179D01*
X134071675Y-110009454D01*
X134108403Y-109998088D01*
X134148402Y-109982413D01*
X134197749Y-109960759D01*
X134212193Y-109954246D01*
X134268277Y-109928294D01*
X134310310Y-109906721D01*
X134343824Y-109885873D01*
X134374351Y-109862095D01*
X134407424Y-109831733D01*
X134427708Y-109811888D01*
X134500803Y-109733166D01*
X134557153Y-109658523D01*
X134596020Y-109589185D01*
X134616666Y-109526376D01*
X134620000Y-109492954D01*
X134622631Y-109468053D01*
X134629611Y-109430010D01*
X134639568Y-109386060D01*
X134642304Y-109375222D01*
X134652783Y-109329846D01*
X134658850Y-109288577D01*
X134661135Y-109243799D01*
X134660271Y-109187896D01*
X134659487Y-109167711D01*
X134656790Y-109114100D01*
X134653544Y-109077539D01*
X134648957Y-109053912D01*
X134642237Y-109039105D01*
X134632850Y-109029207D01*
X134624538Y-109024336D01*
X134611330Y-109020302D01*
X134591044Y-109016961D01*
X134561496Y-109014168D01*
X134520505Y-109011780D01*
X134465888Y-109009654D01*
X134395463Y-109007644D01*
X134307046Y-109005607D01*
X134260332Y-109004633D01*
X134176067Y-109003081D01*
X134098536Y-109001970D01*
X134030282Y-109001310D01*
X133973848Y-109001115D01*
X133931776Y-109001395D01*
X133906610Y-109002163D01*
X133900465Y-109002961D01*
X133893490Y-109014902D01*
X133882357Y-109042188D01*
X133869000Y-109079894D01*
X133862889Y-109098606D01*
X133842986Y-109155786D01*
X133823452Y-109197003D01*
X133800759Y-109227099D01*
X133771379Y-109250915D01*
X133737894Y-109270160D01*
X133673530Y-109293301D01*
X133604270Y-109297775D01*
X133528162Y-109283563D01*
X133482292Y-109267622D01*
X133423277Y-109237598D01*
X133367343Y-109197347D01*
X133319882Y-109151524D01*
X133286285Y-109104785D01*
X133280722Y-109093588D01*
X133262047Y-109052870D01*
X133248500Y-109027216D01*
X133237090Y-109012142D01*
X133224828Y-109003163D01*
X133218281Y-108999936D01*
X133202134Y-108997130D01*
X133167074Y-108994189D01*
X133115351Y-108991215D01*
X133049216Y-108988310D01*
X132970922Y-108985575D01*
X132882717Y-108983111D01*
X132806693Y-108981406D01*
X132705702Y-108979429D01*
X132623869Y-108978004D01*
X132559194Y-108977185D01*
X132509673Y-108977025D01*
X132473306Y-108977579D01*
G36*
X127427459Y-108908674D02*
G01*
X127413868Y-108909725D01*
X127392934Y-108922616D01*
X127385807Y-108947963D01*
X127392076Y-108987718D01*
X127395160Y-108998424D01*
X127408560Y-109038275D01*
X127425245Y-109082120D01*
X127443257Y-109125497D01*
X127460635Y-109163944D01*
X127475421Y-109192998D01*
X127485654Y-109208196D01*
X127487821Y-109209417D01*
X127496561Y-109217895D01*
X127497417Y-109223826D01*
X127503813Y-109248176D01*
X127521568Y-109285479D01*
X127548536Y-109332393D01*
X127582568Y-109385575D01*
X127621517Y-109441681D01*
X127663235Y-109497370D01*
X127705573Y-109549298D01*
X127709331Y-109553661D01*
X127760772Y-109606598D01*
X127824463Y-109662088D01*
X127895875Y-109716994D01*
X127970481Y-109768179D01*
X128043751Y-109812504D01*
X128111156Y-109846833D01*
X128159418Y-109865490D01*
X128202292Y-109879285D01*
X128242531Y-109893158D01*
X128270000Y-109903545D01*
X128299137Y-109913226D01*
X128340394Y-109924044D01*
X128385007Y-109933709D01*
X128386417Y-109933979D01*
X128438012Y-109944266D01*
X128493236Y-109956010D01*
X128534583Y-109965379D01*
X128572223Y-109973537D01*
X128602987Y-109978834D01*
X128619250Y-109980114D01*
X128635012Y-109979066D01*
X128667762Y-109977236D01*
X128713344Y-109974844D01*
X128767604Y-109972112D01*
X128793875Y-109970825D01*
X128908870Y-109961882D01*
X129008136Y-109946146D01*
X129096444Y-109922108D01*
X129178560Y-109888259D01*
X129259253Y-109843090D01*
X129314269Y-109806189D01*
X129356641Y-109770497D01*
X129403824Y-109721671D01*
X129451040Y-109665447D01*
X129493510Y-109607561D01*
X129526457Y-109553747D01*
X129529604Y-109547716D01*
X129562722Y-109466515D01*
X129588076Y-109369593D01*
X129604706Y-109261270D01*
X129610558Y-109182959D01*
X129612682Y-109109370D01*
X129611359Y-109053623D01*
X129606054Y-109012593D01*
X129596232Y-108983157D01*
X129581358Y-108962191D01*
X129571273Y-108953466D01*
X129561991Y-108947817D01*
X129549278Y-108943243D01*
X129530723Y-108939558D01*
X129503916Y-108936576D01*
X129466443Y-108934110D01*
X129415895Y-108931974D01*
X129349860Y-108929981D01*
X129265928Y-108927944D01*
X129231394Y-108927176D01*
X129133418Y-108925123D01*
X129054376Y-108923964D01*
X128992042Y-108924088D01*
X128944187Y-108925882D01*
X128908586Y-108929735D01*
X128883011Y-108936034D01*
X128865236Y-108945169D01*
X128853034Y-108957527D01*
X128844178Y-108973497D01*
X128836441Y-108993466D01*
X128835464Y-108996199D01*
X128807531Y-109067353D01*
X128779533Y-109125202D01*
X128752794Y-109167376D01*
X128728637Y-109191504D01*
X128725389Y-109193384D01*
X128699482Y-109202969D01*
X128661130Y-109212838D01*
X128621226Y-109220413D01*
X128555303Y-109225844D01*
X128496851Y-109218604D01*
X128436914Y-109197201D01*
X128413407Y-109185822D01*
X128368610Y-109156618D01*
X128320310Y-109114971D01*
X128274601Y-109067050D01*
X128237572Y-109019028D01*
X128221300Y-108991208D01*
X128203382Y-108959784D01*
X128185613Y-108936903D01*
X128175075Y-108929062D01*
X128159379Y-108927140D01*
X128125561Y-108924993D01*
X128076661Y-108922700D01*
X128015723Y-108920337D01*
X127945789Y-108917981D01*
X127869899Y-108915710D01*
X127791097Y-108913600D01*
X127712423Y-108911730D01*
X127636921Y-108910177D01*
X127567631Y-108909017D01*
X127507596Y-108908329D01*
X127459859Y-108908188D01*
X127427459Y-108908674D01*
X127427459Y-108908674D01*
G37*
X127427459Y-108908674D02*
X127413868Y-108909725D01*
X127392934Y-108922616D01*
X127385807Y-108947963D01*
X127392076Y-108987718D01*
X127395160Y-108998424D01*
X127408560Y-109038275D01*
X127425245Y-109082120D01*
X127443257Y-109125497D01*
X127460635Y-109163944D01*
X127475421Y-109192998D01*
X127485654Y-109208196D01*
X127487821Y-109209417D01*
X127496561Y-109217895D01*
X127497417Y-109223826D01*
X127503813Y-109248176D01*
X127521568Y-109285479D01*
X127548536Y-109332393D01*
X127582568Y-109385575D01*
X127621517Y-109441681D01*
X127663235Y-109497370D01*
X127705573Y-109549298D01*
X127709331Y-109553661D01*
X127760772Y-109606598D01*
X127824463Y-109662088D01*
X127895875Y-109716994D01*
X127970481Y-109768179D01*
X128043751Y-109812504D01*
X128111156Y-109846833D01*
X128159418Y-109865490D01*
X128202292Y-109879285D01*
X128242531Y-109893158D01*
X128270000Y-109903545D01*
X128299137Y-109913226D01*
X128340394Y-109924044D01*
X128385007Y-109933709D01*
X128386417Y-109933979D01*
X128438012Y-109944266D01*
X128493236Y-109956010D01*
X128534583Y-109965379D01*
X128572223Y-109973537D01*
X128602987Y-109978834D01*
X128619250Y-109980114D01*
X128635012Y-109979066D01*
X128667762Y-109977236D01*
X128713344Y-109974844D01*
X128767604Y-109972112D01*
X128793875Y-109970825D01*
X128908870Y-109961882D01*
X129008136Y-109946146D01*
X129096444Y-109922108D01*
X129178560Y-109888259D01*
X129259253Y-109843090D01*
X129314269Y-109806189D01*
X129356641Y-109770497D01*
X129403824Y-109721671D01*
X129451040Y-109665447D01*
X129493510Y-109607561D01*
X129526457Y-109553747D01*
X129529604Y-109547716D01*
X129562722Y-109466515D01*
X129588076Y-109369593D01*
X129604706Y-109261270D01*
X129610558Y-109182959D01*
X129612682Y-109109370D01*
X129611359Y-109053623D01*
X129606054Y-109012593D01*
X129596232Y-108983157D01*
X129581358Y-108962191D01*
X129571273Y-108953466D01*
X129561991Y-108947817D01*
X129549278Y-108943243D01*
X129530723Y-108939558D01*
X129503916Y-108936576D01*
X129466443Y-108934110D01*
X129415895Y-108931974D01*
X129349860Y-108929981D01*
X129265928Y-108927944D01*
X129231394Y-108927176D01*
X129133418Y-108925123D01*
X129054376Y-108923964D01*
X128992042Y-108924088D01*
X128944187Y-108925882D01*
X128908586Y-108929735D01*
X128883011Y-108936034D01*
X128865236Y-108945169D01*
X128853034Y-108957527D01*
X128844178Y-108973497D01*
X128836441Y-108993466D01*
X128835464Y-108996199D01*
X128807531Y-109067353D01*
X128779533Y-109125202D01*
X128752794Y-109167376D01*
X128728637Y-109191504D01*
X128725389Y-109193384D01*
X128699482Y-109202969D01*
X128661130Y-109212838D01*
X128621226Y-109220413D01*
X128555303Y-109225844D01*
X128496851Y-109218604D01*
X128436914Y-109197201D01*
X128413407Y-109185822D01*
X128368610Y-109156618D01*
X128320310Y-109114971D01*
X128274601Y-109067050D01*
X128237572Y-109019028D01*
X128221300Y-108991208D01*
X128203382Y-108959784D01*
X128185613Y-108936903D01*
X128175075Y-108929062D01*
X128159379Y-108927140D01*
X128125561Y-108924993D01*
X128076661Y-108922700D01*
X128015723Y-108920337D01*
X127945789Y-108917981D01*
X127869899Y-108915710D01*
X127791097Y-108913600D01*
X127712423Y-108911730D01*
X127636921Y-108910177D01*
X127567631Y-108909017D01*
X127507596Y-108908329D01*
X127459859Y-108908188D01*
X127427459Y-108908674D01*
G36*
X135890647Y-107878903D02*
G01*
X135831323Y-107885381D01*
X135761029Y-107899635D01*
X135686868Y-107918816D01*
X135614330Y-107941161D01*
X135548909Y-107964904D01*
X135496097Y-107988282D01*
X135475504Y-107999671D01*
X135442169Y-108018106D01*
X135413897Y-108030075D01*
X135397764Y-108032970D01*
X135383413Y-108020745D01*
X135368460Y-107992638D01*
X135362469Y-107976459D01*
X135344958Y-107923542D01*
X135020002Y-107920744D01*
X134695045Y-107917946D01*
X134700732Y-107973660D01*
X134706259Y-108008493D01*
X134716380Y-108055842D01*
X134729375Y-108108022D01*
X134736897Y-108135209D01*
X134751917Y-108193656D01*
X134765651Y-108258124D01*
X134775836Y-108317607D01*
X134778267Y-108336292D01*
X134786061Y-108391618D01*
X134797342Y-108456092D01*
X134810079Y-108518430D01*
X134814438Y-108537375D01*
X134827600Y-108597906D01*
X134840400Y-108665931D01*
X134850611Y-108729359D01*
X134852904Y-108746210D01*
X134861782Y-108802906D01*
X134871511Y-108842125D01*
X134881640Y-108862077D01*
X134882256Y-108862627D01*
X134891065Y-108866045D01*
X134909549Y-108868871D01*
X134939271Y-108871149D01*
X134981793Y-108872923D01*
X135038679Y-108874237D01*
X135111490Y-108875134D01*
X135201791Y-108875658D01*
X135311142Y-108875853D01*
X135354523Y-108875851D01*
X135810625Y-108875661D01*
X135819663Y-108833518D01*
X135835765Y-108770814D01*
X135854452Y-108724832D01*
X135877968Y-108691132D01*
X135902523Y-108669479D01*
X135974041Y-108629519D01*
X136050510Y-108608216D01*
X136128343Y-108605992D01*
X136203954Y-108623269D01*
X136224199Y-108631641D01*
X136291687Y-108668337D01*
X136345368Y-108712173D01*
X136391594Y-108768853D01*
X136411521Y-108799846D01*
X136436067Y-108836936D01*
X136460195Y-108867678D01*
X136479578Y-108886700D01*
X136483409Y-108889115D01*
X136498231Y-108893184D01*
X136526012Y-108896427D01*
X136568285Y-108898902D01*
X136626583Y-108900666D01*
X136702440Y-108901777D01*
X136797389Y-108902294D01*
X136835276Y-108902344D01*
X137161427Y-108902500D01*
X137154013Y-108879142D01*
X137148376Y-108859647D01*
X137138850Y-108824943D01*
X137126871Y-108780308D01*
X137116430Y-108740793D01*
X137087397Y-108644081D01*
X137055915Y-108566702D01*
X137021215Y-108506889D01*
X137006232Y-108487452D01*
X136989248Y-108464597D01*
X136980431Y-108447516D01*
X136980083Y-108445303D01*
X136973691Y-108429800D01*
X136956424Y-108402105D01*
X136931150Y-108366124D01*
X136900736Y-108325764D01*
X136868050Y-108284932D01*
X136835958Y-108247535D01*
X136830606Y-108241622D01*
X136792149Y-108203254D01*
X136747151Y-108163671D01*
X136711206Y-108135765D01*
X136656029Y-108100154D01*
X136587586Y-108061414D01*
X136511177Y-108022073D01*
X136432106Y-107984656D01*
X136355673Y-107951690D01*
X136287181Y-107925700D01*
X136239717Y-107911122D01*
X136156581Y-107894037D01*
X136065926Y-107882671D01*
X135974899Y-107877477D01*
X135890647Y-107878903D01*
X135890647Y-107878903D01*
G37*
X135890647Y-107878903D02*
X135831323Y-107885381D01*
X135761029Y-107899635D01*
X135686868Y-107918816D01*
X135614330Y-107941161D01*
X135548909Y-107964904D01*
X135496097Y-107988282D01*
X135475504Y-107999671D01*
X135442169Y-108018106D01*
X135413897Y-108030075D01*
X135397764Y-108032970D01*
X135383413Y-108020745D01*
X135368460Y-107992638D01*
X135362469Y-107976459D01*
X135344958Y-107923542D01*
X135020002Y-107920744D01*
X134695045Y-107917946D01*
X134700732Y-107973660D01*
X134706259Y-108008493D01*
X134716380Y-108055842D01*
X134729375Y-108108022D01*
X134736897Y-108135209D01*
X134751917Y-108193656D01*
X134765651Y-108258124D01*
X134775836Y-108317607D01*
X134778267Y-108336292D01*
X134786061Y-108391618D01*
X134797342Y-108456092D01*
X134810079Y-108518430D01*
X134814438Y-108537375D01*
X134827600Y-108597906D01*
X134840400Y-108665931D01*
X134850611Y-108729359D01*
X134852904Y-108746210D01*
X134861782Y-108802906D01*
X134871511Y-108842125D01*
X134881640Y-108862077D01*
X134882256Y-108862627D01*
X134891065Y-108866045D01*
X134909549Y-108868871D01*
X134939271Y-108871149D01*
X134981793Y-108872923D01*
X135038679Y-108874237D01*
X135111490Y-108875134D01*
X135201791Y-108875658D01*
X135311142Y-108875853D01*
X135354523Y-108875851D01*
X135810625Y-108875661D01*
X135819663Y-108833518D01*
X135835765Y-108770814D01*
X135854452Y-108724832D01*
X135877968Y-108691132D01*
X135902523Y-108669479D01*
X135974041Y-108629519D01*
X136050510Y-108608216D01*
X136128343Y-108605992D01*
X136203954Y-108623269D01*
X136224199Y-108631641D01*
X136291687Y-108668337D01*
X136345368Y-108712173D01*
X136391594Y-108768853D01*
X136411521Y-108799846D01*
X136436067Y-108836936D01*
X136460195Y-108867678D01*
X136479578Y-108886700D01*
X136483409Y-108889115D01*
X136498231Y-108893184D01*
X136526012Y-108896427D01*
X136568285Y-108898902D01*
X136626583Y-108900666D01*
X136702440Y-108901777D01*
X136797389Y-108902294D01*
X136835276Y-108902344D01*
X137161427Y-108902500D01*
X137154013Y-108879142D01*
X137148376Y-108859647D01*
X137138850Y-108824943D01*
X137126871Y-108780308D01*
X137116430Y-108740793D01*
X137087397Y-108644081D01*
X137055915Y-108566702D01*
X137021215Y-108506889D01*
X137006232Y-108487452D01*
X136989248Y-108464597D01*
X136980431Y-108447516D01*
X136980083Y-108445303D01*
X136973691Y-108429800D01*
X136956424Y-108402105D01*
X136931150Y-108366124D01*
X136900736Y-108325764D01*
X136868050Y-108284932D01*
X136835958Y-108247535D01*
X136830606Y-108241622D01*
X136792149Y-108203254D01*
X136747151Y-108163671D01*
X136711206Y-108135765D01*
X136656029Y-108100154D01*
X136587586Y-108061414D01*
X136511177Y-108022073D01*
X136432106Y-107984656D01*
X136355673Y-107951690D01*
X136287181Y-107925700D01*
X136239717Y-107911122D01*
X136156581Y-107894037D01*
X136065926Y-107882671D01*
X135974899Y-107877477D01*
X135890647Y-107878903D01*
G36*
X133308528Y-107820567D02*
G01*
X133242762Y-107823208D01*
X133223000Y-107824225D01*
X133104791Y-107832675D01*
X133006045Y-107844583D01*
X132925305Y-107860189D01*
X132861114Y-107879733D01*
X132844705Y-107886471D01*
X132815152Y-107901617D01*
X132774202Y-107925408D01*
X132727767Y-107954304D01*
X132690874Y-107978562D01*
X132615327Y-108035142D01*
X132554522Y-108094517D01*
X132503161Y-108162739D01*
X132455951Y-108245860D01*
X132454576Y-108248583D01*
X132430948Y-108304513D01*
X132409392Y-108372037D01*
X132391201Y-108445120D01*
X132377666Y-108517726D01*
X132370079Y-108583820D01*
X132369731Y-108637367D01*
X132370234Y-108642634D01*
X132374093Y-108689545D01*
X132376167Y-108738607D01*
X132376262Y-108762325D01*
X132376792Y-108795690D01*
X132381487Y-108814219D01*
X132392642Y-108824162D01*
X132400186Y-108827426D01*
X132416396Y-108829823D01*
X132451141Y-108832334D01*
X132501789Y-108834856D01*
X132565709Y-108837285D01*
X132640270Y-108839520D01*
X132722841Y-108841457D01*
X132791579Y-108842704D01*
X132895006Y-108844395D01*
X132979381Y-108845526D01*
X133046818Y-108845575D01*
X133099432Y-108844020D01*
X133139338Y-108840338D01*
X133168650Y-108834007D01*
X133189482Y-108824505D01*
X133203949Y-108811310D01*
X133214165Y-108793899D01*
X133222246Y-108771750D01*
X133230305Y-108744340D01*
X133233466Y-108733563D01*
X133256356Y-108673186D01*
X133285411Y-108630119D01*
X133323976Y-108600697D01*
X133371414Y-108582334D01*
X133426728Y-108567953D01*
X133468542Y-108560180D01*
X133503261Y-108558419D01*
X133537289Y-108562073D01*
X133554098Y-108565328D01*
X133612370Y-108581941D01*
X133662653Y-108606808D01*
X133708649Y-108642849D01*
X133754063Y-108692979D01*
X133802596Y-108760117D01*
X133803967Y-108762166D01*
X133831193Y-108800465D01*
X133856379Y-108827545D01*
X133883947Y-108845214D01*
X133918320Y-108855283D01*
X133963921Y-108859562D01*
X134025173Y-108859859D01*
X134041984Y-108859554D01*
X134096372Y-108859169D01*
X134165256Y-108859775D01*
X134241993Y-108861253D01*
X134319940Y-108863485D01*
X134372318Y-108865459D01*
X134442370Y-108868350D01*
X134494399Y-108870119D01*
X134531529Y-108870556D01*
X134556884Y-108869453D01*
X134573587Y-108866598D01*
X134584762Y-108861783D01*
X134593533Y-108854796D01*
X134598131Y-108850286D01*
X134615476Y-108824098D01*
X134615530Y-108801465D01*
X134605435Y-108770112D01*
X134587947Y-108724593D01*
X134565179Y-108669655D01*
X134539243Y-108610043D01*
X134512251Y-108550505D01*
X134486317Y-108495787D01*
X134463552Y-108450635D01*
X134446070Y-108419796D01*
X134444766Y-108417791D01*
X134390902Y-108344845D01*
X134324337Y-108267867D01*
X134249490Y-108191082D01*
X134170778Y-108118715D01*
X134092619Y-108054990D01*
X134019430Y-108004131D01*
X134000113Y-107992591D01*
X133942972Y-107964296D01*
X133869950Y-107934849D01*
X133786147Y-107905873D01*
X133696665Y-107878991D01*
X133606605Y-107855827D01*
X133521071Y-107838004D01*
X133506300Y-107835447D01*
X133453760Y-107827399D01*
X133407581Y-107822407D01*
X133361319Y-107820214D01*
X133308528Y-107820567D01*
X133308528Y-107820567D01*
G37*
X133308528Y-107820567D02*
X133242762Y-107823208D01*
X133223000Y-107824225D01*
X133104791Y-107832675D01*
X133006045Y-107844583D01*
X132925305Y-107860189D01*
X132861114Y-107879733D01*
X132844705Y-107886471D01*
X132815152Y-107901617D01*
X132774202Y-107925408D01*
X132727767Y-107954304D01*
X132690874Y-107978562D01*
X132615327Y-108035142D01*
X132554522Y-108094517D01*
X132503161Y-108162739D01*
X132455951Y-108245860D01*
X132454576Y-108248583D01*
X132430948Y-108304513D01*
X132409392Y-108372037D01*
X132391201Y-108445120D01*
X132377666Y-108517726D01*
X132370079Y-108583820D01*
X132369731Y-108637367D01*
X132370234Y-108642634D01*
X132374093Y-108689545D01*
X132376167Y-108738607D01*
X132376262Y-108762325D01*
X132376792Y-108795690D01*
X132381487Y-108814219D01*
X132392642Y-108824162D01*
X132400186Y-108827426D01*
X132416396Y-108829823D01*
X132451141Y-108832334D01*
X132501789Y-108834856D01*
X132565709Y-108837285D01*
X132640270Y-108839520D01*
X132722841Y-108841457D01*
X132791579Y-108842704D01*
X132895006Y-108844395D01*
X132979381Y-108845526D01*
X133046818Y-108845575D01*
X133099432Y-108844020D01*
X133139338Y-108840338D01*
X133168650Y-108834007D01*
X133189482Y-108824505D01*
X133203949Y-108811310D01*
X133214165Y-108793899D01*
X133222246Y-108771750D01*
X133230305Y-108744340D01*
X133233466Y-108733563D01*
X133256356Y-108673186D01*
X133285411Y-108630119D01*
X133323976Y-108600697D01*
X133371414Y-108582334D01*
X133426728Y-108567953D01*
X133468542Y-108560180D01*
X133503261Y-108558419D01*
X133537289Y-108562073D01*
X133554098Y-108565328D01*
X133612370Y-108581941D01*
X133662653Y-108606808D01*
X133708649Y-108642849D01*
X133754063Y-108692979D01*
X133802596Y-108760117D01*
X133803967Y-108762166D01*
X133831193Y-108800465D01*
X133856379Y-108827545D01*
X133883947Y-108845214D01*
X133918320Y-108855283D01*
X133963921Y-108859562D01*
X134025173Y-108859859D01*
X134041984Y-108859554D01*
X134096372Y-108859169D01*
X134165256Y-108859775D01*
X134241993Y-108861253D01*
X134319940Y-108863485D01*
X134372318Y-108865459D01*
X134442370Y-108868350D01*
X134494399Y-108870119D01*
X134531529Y-108870556D01*
X134556884Y-108869453D01*
X134573587Y-108866598D01*
X134584762Y-108861783D01*
X134593533Y-108854796D01*
X134598131Y-108850286D01*
X134615476Y-108824098D01*
X134615530Y-108801465D01*
X134605435Y-108770112D01*
X134587947Y-108724593D01*
X134565179Y-108669655D01*
X134539243Y-108610043D01*
X134512251Y-108550505D01*
X134486317Y-108495787D01*
X134463552Y-108450635D01*
X134446070Y-108419796D01*
X134444766Y-108417791D01*
X134390902Y-108344845D01*
X134324337Y-108267867D01*
X134249490Y-108191082D01*
X134170778Y-108118715D01*
X134092619Y-108054990D01*
X134019430Y-108004131D01*
X134000113Y-107992591D01*
X133942972Y-107964296D01*
X133869950Y-107934849D01*
X133786147Y-107905873D01*
X133696665Y-107878991D01*
X133606605Y-107855827D01*
X133521071Y-107838004D01*
X133506300Y-107835447D01*
X133453760Y-107827399D01*
X133407581Y-107822407D01*
X133361319Y-107820214D01*
X133308528Y-107820567D01*
G36*
X130771269Y-107812468D02*
G01*
X130650479Y-107837440D01*
X130540249Y-107880647D01*
X130497860Y-107903799D01*
X130443738Y-107932124D01*
X130400586Y-107946437D01*
X130369890Y-107946377D01*
X130356867Y-107937915D01*
X130343086Y-107921219D01*
X130322288Y-107896399D01*
X130313933Y-107886500D01*
X130282603Y-107849459D01*
X130003906Y-107846137D01*
X129927321Y-107845480D01*
X129856119Y-107845352D01*
X129793534Y-107845720D01*
X129742799Y-107846553D01*
X129707147Y-107847817D01*
X129690813Y-107849262D01*
X129667112Y-107856299D01*
X129657820Y-107870263D01*
X129656417Y-107891157D01*
X129659543Y-107920244D01*
X129667661Y-107959835D01*
X129676838Y-107993865D01*
X129699431Y-108075552D01*
X129721337Y-108167818D01*
X129740775Y-108262252D01*
X129755966Y-108350444D01*
X129762528Y-108398790D01*
X129771190Y-108458933D01*
X129783299Y-108525420D01*
X129796595Y-108586149D01*
X129800066Y-108599874D01*
X129811440Y-108647201D01*
X129820211Y-108691355D01*
X129825030Y-108725218D01*
X129825552Y-108734517D01*
X129829406Y-108763329D01*
X129838580Y-108783342D01*
X129840100Y-108784818D01*
X129853352Y-108788305D01*
X129884653Y-108791463D01*
X129934549Y-108794313D01*
X130003586Y-108796877D01*
X130092311Y-108799175D01*
X130201269Y-108801230D01*
X130290895Y-108802549D01*
X130401213Y-108803922D01*
X130492266Y-108804799D01*
X130565949Y-108805142D01*
X130624158Y-108804913D01*
X130668791Y-108804072D01*
X130701742Y-108802583D01*
X130724908Y-108800406D01*
X130740186Y-108797503D01*
X130749471Y-108793837D01*
X130750394Y-108793264D01*
X130768297Y-108772086D01*
X130785863Y-108734105D01*
X130793589Y-108710920D01*
X130816939Y-108650254D01*
X130847756Y-108605509D01*
X130889930Y-108573108D01*
X130947352Y-108549476D01*
X130978549Y-108540909D01*
X131025727Y-108530148D01*
X131059970Y-108525137D01*
X131088573Y-108525389D01*
X131118827Y-108530416D01*
X131122718Y-108531272D01*
X131188204Y-108554076D01*
X131252158Y-108590894D01*
X131309483Y-108637673D01*
X131355082Y-108690362D01*
X131380611Y-108736268D01*
X131396553Y-108769367D01*
X131413385Y-108794957D01*
X131422861Y-108804187D01*
X131441092Y-108809043D01*
X131478577Y-108813558D01*
X131533404Y-108817580D01*
X131603661Y-108820955D01*
X131652787Y-108822616D01*
X131725737Y-108824856D01*
X131799188Y-108827303D01*
X131867583Y-108829758D01*
X131925362Y-108832023D01*
X131963583Y-108833729D01*
X132014565Y-108834964D01*
X132054626Y-108833388D01*
X132079290Y-108829227D01*
X132082646Y-108827740D01*
X132094629Y-108815681D01*
X132099644Y-108796030D01*
X132097314Y-108766343D01*
X132087262Y-108724176D01*
X132069110Y-108667087D01*
X132049181Y-108610883D01*
X132022586Y-108539882D01*
X131999073Y-108483135D01*
X131975422Y-108434734D01*
X131948413Y-108388770D01*
X131914825Y-108339337D01*
X131871439Y-108280524D01*
X131863123Y-108269520D01*
X131801365Y-108191744D01*
X131744128Y-108128626D01*
X131686775Y-108075741D01*
X131624667Y-108028666D01*
X131579813Y-107999251D01*
X131491694Y-107948237D01*
X131404873Y-107907123D01*
X131314347Y-107874211D01*
X131215110Y-107847801D01*
X131102156Y-107826196D01*
X131043813Y-107817346D01*
X130902440Y-107805761D01*
X130771269Y-107812468D01*
X130771269Y-107812468D01*
G37*
X130771269Y-107812468D02*
X130650479Y-107837440D01*
X130540249Y-107880647D01*
X130497860Y-107903799D01*
X130443738Y-107932124D01*
X130400586Y-107946437D01*
X130369890Y-107946377D01*
X130356867Y-107937915D01*
X130343086Y-107921219D01*
X130322288Y-107896399D01*
X130313933Y-107886500D01*
X130282603Y-107849459D01*
X130003906Y-107846137D01*
X129927321Y-107845480D01*
X129856119Y-107845352D01*
X129793534Y-107845720D01*
X129742799Y-107846553D01*
X129707147Y-107847817D01*
X129690813Y-107849262D01*
X129667112Y-107856299D01*
X129657820Y-107870263D01*
X129656417Y-107891157D01*
X129659543Y-107920244D01*
X129667661Y-107959835D01*
X129676838Y-107993865D01*
X129699431Y-108075552D01*
X129721337Y-108167818D01*
X129740775Y-108262252D01*
X129755966Y-108350444D01*
X129762528Y-108398790D01*
X129771190Y-108458933D01*
X129783299Y-108525420D01*
X129796595Y-108586149D01*
X129800066Y-108599874D01*
X129811440Y-108647201D01*
X129820211Y-108691355D01*
X129825030Y-108725218D01*
X129825552Y-108734517D01*
X129829406Y-108763329D01*
X129838580Y-108783342D01*
X129840100Y-108784818D01*
X129853352Y-108788305D01*
X129884653Y-108791463D01*
X129934549Y-108794313D01*
X130003586Y-108796877D01*
X130092311Y-108799175D01*
X130201269Y-108801230D01*
X130290895Y-108802549D01*
X130401213Y-108803922D01*
X130492266Y-108804799D01*
X130565949Y-108805142D01*
X130624158Y-108804913D01*
X130668791Y-108804072D01*
X130701742Y-108802583D01*
X130724908Y-108800406D01*
X130740186Y-108797503D01*
X130749471Y-108793837D01*
X130750394Y-108793264D01*
X130768297Y-108772086D01*
X130785863Y-108734105D01*
X130793589Y-108710920D01*
X130816939Y-108650254D01*
X130847756Y-108605509D01*
X130889930Y-108573108D01*
X130947352Y-108549476D01*
X130978549Y-108540909D01*
X131025727Y-108530148D01*
X131059970Y-108525137D01*
X131088573Y-108525389D01*
X131118827Y-108530416D01*
X131122718Y-108531272D01*
X131188204Y-108554076D01*
X131252158Y-108590894D01*
X131309483Y-108637673D01*
X131355082Y-108690362D01*
X131380611Y-108736268D01*
X131396553Y-108769367D01*
X131413385Y-108794957D01*
X131422861Y-108804187D01*
X131441092Y-108809043D01*
X131478577Y-108813558D01*
X131533404Y-108817580D01*
X131603661Y-108820955D01*
X131652787Y-108822616D01*
X131725737Y-108824856D01*
X131799188Y-108827303D01*
X131867583Y-108829758D01*
X131925362Y-108832023D01*
X131963583Y-108833729D01*
X132014565Y-108834964D01*
X132054626Y-108833388D01*
X132079290Y-108829227D01*
X132082646Y-108827740D01*
X132094629Y-108815681D01*
X132099644Y-108796030D01*
X132097314Y-108766343D01*
X132087262Y-108724176D01*
X132069110Y-108667087D01*
X132049181Y-108610883D01*
X132022586Y-108539882D01*
X131999073Y-108483135D01*
X131975422Y-108434734D01*
X131948413Y-108388770D01*
X131914825Y-108339337D01*
X131871439Y-108280524D01*
X131863123Y-108269520D01*
X131801365Y-108191744D01*
X131744128Y-108128626D01*
X131686775Y-108075741D01*
X131624667Y-108028666D01*
X131579813Y-107999251D01*
X131491694Y-107948237D01*
X131404873Y-107907123D01*
X131314347Y-107874211D01*
X131215110Y-107847801D01*
X131102156Y-107826196D01*
X131043813Y-107817346D01*
X130902440Y-107805761D01*
X130771269Y-107812468D01*
G36*
X128099630Y-107757864D02*
G01*
X128026335Y-107762837D01*
X127963107Y-107771487D01*
X127906260Y-107784602D01*
X127852108Y-107802974D01*
X127796963Y-107827392D01*
X127737140Y-107858646D01*
X127691858Y-107884236D01*
X127635271Y-107918020D01*
X127591284Y-107948071D01*
X127555122Y-107978931D01*
X127522010Y-108015144D01*
X127487171Y-108061251D01*
X127452351Y-108112035D01*
X127417195Y-108177785D01*
X127387452Y-108260250D01*
X127364026Y-108355466D01*
X127347822Y-108459467D01*
X127339746Y-108568288D01*
X127338999Y-108608813D01*
X127338730Y-108656011D01*
X127339843Y-108692434D01*
X127344759Y-108719513D01*
X127355897Y-108738681D01*
X127375675Y-108751369D01*
X127406512Y-108759007D01*
X127450829Y-108763028D01*
X127511043Y-108764862D01*
X127589574Y-108765942D01*
X127604901Y-108766153D01*
X127685344Y-108767205D01*
X127771063Y-108768160D01*
X127855335Y-108768953D01*
X127931437Y-108769522D01*
X127989119Y-108769794D01*
X128147446Y-108770209D01*
X128160272Y-108743750D01*
X128171120Y-108720986D01*
X128187410Y-108686371D01*
X128205681Y-108647260D01*
X128206298Y-108645933D01*
X128246625Y-108581139D01*
X128298362Y-108533445D01*
X128359791Y-108503353D01*
X128429190Y-108491362D01*
X128504840Y-108497972D01*
X128585019Y-108523685D01*
X128601290Y-108531088D01*
X128669809Y-108574083D01*
X128727907Y-108633343D01*
X128777305Y-108710664D01*
X128781983Y-108719758D01*
X128806028Y-108758929D01*
X128828558Y-108778709D01*
X128833650Y-108780436D01*
X128849367Y-108781743D01*
X128882872Y-108783051D01*
X128931113Y-108784330D01*
X128991037Y-108785548D01*
X129059592Y-108786674D01*
X129133728Y-108787678D01*
X129210392Y-108788527D01*
X129286533Y-108789192D01*
X129359098Y-108789640D01*
X129425037Y-108789841D01*
X129481296Y-108789764D01*
X129524824Y-108789378D01*
X129552570Y-108788650D01*
X129561235Y-108787847D01*
X129570955Y-108774041D01*
X129569912Y-108744041D01*
X129558493Y-108699647D01*
X129537082Y-108642657D01*
X129523416Y-108611459D01*
X129500973Y-108561388D01*
X129479489Y-108512026D01*
X129461992Y-108470396D01*
X129454362Y-108451259D01*
X129435504Y-108410964D01*
X129409985Y-108367223D01*
X129394167Y-108344224D01*
X129368558Y-108309959D01*
X129336449Y-108266983D01*
X129304003Y-108223544D01*
X129298023Y-108215537D01*
X129257031Y-108167433D01*
X129201934Y-108112692D01*
X129137046Y-108055103D01*
X129066681Y-107998457D01*
X128995156Y-107946543D01*
X128980640Y-107936762D01*
X128934973Y-107910556D01*
X128873311Y-107881205D01*
X128800222Y-107850586D01*
X128720277Y-107820573D01*
X128638041Y-107793043D01*
X128608819Y-107784120D01*
X128577120Y-107775130D01*
X128548271Y-107768366D01*
X128518431Y-107763485D01*
X128483757Y-107760144D01*
X128440407Y-107758002D01*
X128384540Y-107756714D01*
X128312313Y-107755939D01*
X128291167Y-107755784D01*
X128186678Y-107755776D01*
X128099630Y-107757864D01*
X128099630Y-107757864D01*
G37*
X128099630Y-107757864D02*
X128026335Y-107762837D01*
X127963107Y-107771487D01*
X127906260Y-107784602D01*
X127852108Y-107802974D01*
X127796963Y-107827392D01*
X127737140Y-107858646D01*
X127691858Y-107884236D01*
X127635271Y-107918020D01*
X127591284Y-107948071D01*
X127555122Y-107978931D01*
X127522010Y-108015144D01*
X127487171Y-108061251D01*
X127452351Y-108112035D01*
X127417195Y-108177785D01*
X127387452Y-108260250D01*
X127364026Y-108355466D01*
X127347822Y-108459467D01*
X127339746Y-108568288D01*
X127338999Y-108608813D01*
X127338730Y-108656011D01*
X127339843Y-108692434D01*
X127344759Y-108719513D01*
X127355897Y-108738681D01*
X127375675Y-108751369D01*
X127406512Y-108759007D01*
X127450829Y-108763028D01*
X127511043Y-108764862D01*
X127589574Y-108765942D01*
X127604901Y-108766153D01*
X127685344Y-108767205D01*
X127771063Y-108768160D01*
X127855335Y-108768953D01*
X127931437Y-108769522D01*
X127989119Y-108769794D01*
X128147446Y-108770209D01*
X128160272Y-108743750D01*
X128171120Y-108720986D01*
X128187410Y-108686371D01*
X128205681Y-108647260D01*
X128206298Y-108645933D01*
X128246625Y-108581139D01*
X128298362Y-108533445D01*
X128359791Y-108503353D01*
X128429190Y-108491362D01*
X128504840Y-108497972D01*
X128585019Y-108523685D01*
X128601290Y-108531088D01*
X128669809Y-108574083D01*
X128727907Y-108633343D01*
X128777305Y-108710664D01*
X128781983Y-108719758D01*
X128806028Y-108758929D01*
X128828558Y-108778709D01*
X128833650Y-108780436D01*
X128849367Y-108781743D01*
X128882872Y-108783051D01*
X128931113Y-108784330D01*
X128991037Y-108785548D01*
X129059592Y-108786674D01*
X129133728Y-108787678D01*
X129210392Y-108788527D01*
X129286533Y-108789192D01*
X129359098Y-108789640D01*
X129425037Y-108789841D01*
X129481296Y-108789764D01*
X129524824Y-108789378D01*
X129552570Y-108788650D01*
X129561235Y-108787847D01*
X129570955Y-108774041D01*
X129569912Y-108744041D01*
X129558493Y-108699647D01*
X129537082Y-108642657D01*
X129523416Y-108611459D01*
X129500973Y-108561388D01*
X129479489Y-108512026D01*
X129461992Y-108470396D01*
X129454362Y-108451259D01*
X129435504Y-108410964D01*
X129409985Y-108367223D01*
X129394167Y-108344224D01*
X129368558Y-108309959D01*
X129336449Y-108266983D01*
X129304003Y-108223544D01*
X129298023Y-108215537D01*
X129257031Y-108167433D01*
X129201934Y-108112692D01*
X129137046Y-108055103D01*
X129066681Y-107998457D01*
X128995156Y-107946543D01*
X128980640Y-107936762D01*
X128934973Y-107910556D01*
X128873311Y-107881205D01*
X128800222Y-107850586D01*
X128720277Y-107820573D01*
X128638041Y-107793043D01*
X128608819Y-107784120D01*
X128577120Y-107775130D01*
X128548271Y-107768366D01*
X128518431Y-107763485D01*
X128483757Y-107760144D01*
X128440407Y-107758002D01*
X128384540Y-107756714D01*
X128312313Y-107755939D01*
X128291167Y-107755784D01*
X128186678Y-107755776D01*
X128099630Y-107757864D01*
G36*
X127146176Y-106599883D02*
G01*
X127108327Y-106603734D01*
X127076892Y-106609169D01*
X127047086Y-106617968D01*
X127014127Y-106631910D01*
X126973230Y-106652775D01*
X126919612Y-106682341D01*
X126910042Y-106687712D01*
X126857618Y-106717422D01*
X126819449Y-106740479D01*
X126791302Y-106760536D01*
X126768946Y-106781249D01*
X126748147Y-106806271D01*
X126724674Y-106839256D01*
X126710584Y-106859917D01*
X126670034Y-106924646D01*
X126642946Y-106981997D01*
X126627067Y-107038771D01*
X126620145Y-107101771D01*
X126619346Y-107135506D01*
X126628741Y-107248083D01*
X126657255Y-107352402D01*
X126704046Y-107447249D01*
X126768270Y-107531408D01*
X126849086Y-107603664D01*
X126945652Y-107662800D01*
X127002382Y-107688191D01*
X127049059Y-107703578D01*
X127101346Y-107713855D01*
X127166325Y-107720339D01*
X127179917Y-107721205D01*
X127232122Y-107723802D01*
X127270684Y-107723695D01*
X127303045Y-107720020D01*
X127336648Y-107711911D01*
X127378938Y-107698501D01*
X127381000Y-107697814D01*
X127455273Y-107671205D01*
X127513092Y-107645852D01*
X127558866Y-107619448D01*
X127597006Y-107589689D01*
X127608542Y-107578863D01*
X127654361Y-107535651D01*
X127698640Y-107496688D01*
X127737294Y-107465404D01*
X127766238Y-107445227D01*
X127770743Y-107442699D01*
X127779679Y-107440299D01*
X127797255Y-107438347D01*
X127824658Y-107436840D01*
X127863070Y-107435779D01*
X127913678Y-107435161D01*
X127977665Y-107434988D01*
X128056218Y-107435257D01*
X128150520Y-107435968D01*
X128261756Y-107437120D01*
X128391112Y-107438712D01*
X128539772Y-107440743D01*
X128633285Y-107442093D01*
X128828807Y-107444888D01*
X129011323Y-107447352D01*
X129180024Y-107449480D01*
X129334102Y-107451263D01*
X129472747Y-107452695D01*
X129595153Y-107453769D01*
X129700509Y-107454478D01*
X129788009Y-107454814D01*
X129856844Y-107454771D01*
X129906205Y-107454342D01*
X129935285Y-107453519D01*
X129936875Y-107453426D01*
X129955412Y-107453702D01*
X129990018Y-107455448D01*
X130035670Y-107458375D01*
X130085042Y-107462010D01*
X130114635Y-107463566D01*
X130163624Y-107465201D01*
X130230235Y-107466885D01*
X130312698Y-107468593D01*
X130409242Y-107470296D01*
X130518093Y-107471968D01*
X130637482Y-107473580D01*
X130765636Y-107475106D01*
X130900784Y-107476517D01*
X131041154Y-107477787D01*
X131163889Y-107478739D01*
X131304085Y-107479807D01*
X131438274Y-107480959D01*
X131564939Y-107482172D01*
X131682566Y-107483427D01*
X131789641Y-107484704D01*
X131884647Y-107485982D01*
X131966071Y-107487240D01*
X132032398Y-107488459D01*
X132082113Y-107489617D01*
X132113700Y-107490695D01*
X132125645Y-107491672D01*
X132125655Y-107491678D01*
X132137785Y-107492974D01*
X132169164Y-107494522D01*
X132217876Y-107496272D01*
X132282006Y-107498173D01*
X132359638Y-107500175D01*
X132448856Y-107502228D01*
X132547745Y-107504282D01*
X132654389Y-107506287D01*
X132740141Y-107507758D01*
X132852843Y-107509614D01*
X132960378Y-107511387D01*
X133060671Y-107513043D01*
X133151645Y-107514548D01*
X133231224Y-107515866D01*
X133297332Y-107516965D01*
X133347893Y-107517808D01*
X133380830Y-107518363D01*
X133392333Y-107518561D01*
X133430910Y-107518553D01*
X133477345Y-107517595D01*
X133503458Y-107516659D01*
X133529196Y-107516188D01*
X133573092Y-107516116D01*
X133632144Y-107516418D01*
X133703348Y-107517068D01*
X133783701Y-107518040D01*
X133870199Y-107519308D01*
X133932083Y-107520346D01*
X134038970Y-107522175D01*
X134160399Y-107524156D01*
X134289748Y-107526188D01*
X134420394Y-107528168D01*
X134545714Y-107529995D01*
X134659085Y-107531566D01*
X134678208Y-107531821D01*
X134788236Y-107533297D01*
X134911072Y-107534984D01*
X135040180Y-107536790D01*
X135169023Y-107538622D01*
X135291063Y-107540387D01*
X135399763Y-107541995D01*
X135419042Y-107542285D01*
X135521223Y-107543754D01*
X135638497Y-107545316D01*
X135764791Y-107546899D01*
X135894033Y-107548430D01*
X136020149Y-107549835D01*
X136137068Y-107551041D01*
X136181042Y-107551461D01*
X136272634Y-107552501D01*
X136358669Y-107553835D01*
X136436588Y-107555395D01*
X136503829Y-107557116D01*
X136557831Y-107558932D01*
X136596034Y-107560776D01*
X136615876Y-107562582D01*
X136616720Y-107562750D01*
X136650231Y-107570293D01*
X136662345Y-107508793D01*
X136688154Y-107404554D01*
X136723236Y-107302629D01*
X136765074Y-107209477D01*
X136793136Y-107161332D01*
X127369085Y-107161332D01*
X127363679Y-107201403D01*
X127338569Y-107242644D01*
X127330507Y-107252025D01*
X127284766Y-107288089D01*
X127230915Y-107306583D01*
X127173623Y-107306809D01*
X127117563Y-107288070D01*
X127111516Y-107284732D01*
X127088364Y-107266362D01*
X127074032Y-107240526D01*
X127066653Y-107202363D01*
X127064555Y-107162549D01*
X127065479Y-107130572D01*
X127072515Y-107108120D01*
X127089642Y-107086301D01*
X127105761Y-107070438D01*
X127154706Y-107034486D01*
X127203402Y-107019619D01*
X127251279Y-107025827D01*
X127297767Y-107053098D01*
X127320189Y-107074496D01*
X127354637Y-107119880D01*
X127369085Y-107161332D01*
X136793136Y-107161332D01*
X136806644Y-107138158D01*
X136835847Y-107092738D01*
X136852447Y-107061755D01*
X136857343Y-107043344D01*
X136855148Y-107037665D01*
X136839772Y-107032718D01*
X136804741Y-107028013D01*
X136751568Y-107023617D01*
X136681764Y-107019598D01*
X136596842Y-107016023D01*
X136498313Y-107012959D01*
X136387688Y-107010475D01*
X136266480Y-107008637D01*
X136186333Y-107007848D01*
X136119977Y-107007221D01*
X136035590Y-107006255D01*
X135936307Y-107004996D01*
X135825260Y-107003488D01*
X135705583Y-107001775D01*
X135580409Y-106999901D01*
X135452871Y-106997911D01*
X135326103Y-106995849D01*
X135260292Y-106994742D01*
X135113960Y-106992385D01*
X134987763Y-106990654D01*
X134880679Y-106989551D01*
X134791685Y-106989075D01*
X134719759Y-106989229D01*
X134663878Y-106990013D01*
X134623021Y-106991430D01*
X134596164Y-106993480D01*
X134584094Y-106995570D01*
X134548594Y-107001908D01*
X134523134Y-106996584D01*
X134521085Y-106995539D01*
X134504010Y-106992085D01*
X134466414Y-106989058D01*
X134408179Y-106986455D01*
X134329186Y-106984271D01*
X134229315Y-106982503D01*
X134108448Y-106981147D01*
X134054283Y-106980720D01*
X133939581Y-106979699D01*
X133809422Y-106978183D01*
X133669509Y-106976259D01*
X133525545Y-106974016D01*
X133383232Y-106971543D01*
X133248272Y-106968930D01*
X133127750Y-106966296D01*
X133027898Y-106964160D01*
X132910530Y-106961993D01*
X132779298Y-106959844D01*
X132637854Y-106957763D01*
X132489848Y-106955798D01*
X132338931Y-106953997D01*
X132188756Y-106952411D01*
X132042972Y-106951088D01*
X131926542Y-106950215D01*
X131665688Y-106948350D01*
X131425695Y-106946376D01*
X131206257Y-106944289D01*
X131007068Y-106942083D01*
X130827822Y-106939754D01*
X130668214Y-106937297D01*
X130527938Y-106934708D01*
X130406687Y-106931982D01*
X130304157Y-106929114D01*
X130220041Y-106926099D01*
X130159125Y-106923219D01*
X130118835Y-106921525D01*
X130059526Y-106919778D01*
X129983344Y-106918012D01*
X129892436Y-106916259D01*
X129788950Y-106914552D01*
X129675031Y-106912925D01*
X129552827Y-106911411D01*
X129424485Y-106910043D01*
X129292152Y-106908855D01*
X129174875Y-106907989D01*
X128967049Y-106906545D01*
X128779413Y-106905084D01*
X128610995Y-106903582D01*
X128460817Y-106902015D01*
X128327905Y-106900359D01*
X128211284Y-106898591D01*
X128109979Y-106896687D01*
X128023014Y-106894622D01*
X127949414Y-106892373D01*
X127888204Y-106889916D01*
X127838410Y-106887228D01*
X127799054Y-106884284D01*
X127769164Y-106881060D01*
X127747762Y-106877534D01*
X127733875Y-106873680D01*
X127731555Y-106872705D01*
X127704785Y-106854462D01*
X127675645Y-106825944D01*
X127660729Y-106807391D01*
X127607610Y-106749624D01*
X127538202Y-106698734D01*
X127456745Y-106656431D01*
X127367476Y-106624423D01*
X127274633Y-106604420D01*
X127182455Y-106598130D01*
X127146176Y-106599883D01*
X127146176Y-106599883D01*
G37*
X127146176Y-106599883D02*
X127108327Y-106603734D01*
X127076892Y-106609169D01*
X127047086Y-106617968D01*
X127014127Y-106631910D01*
X126973230Y-106652775D01*
X126919612Y-106682341D01*
X126910042Y-106687712D01*
X126857618Y-106717422D01*
X126819449Y-106740479D01*
X126791302Y-106760536D01*
X126768946Y-106781249D01*
X126748147Y-106806271D01*
X126724674Y-106839256D01*
X126710584Y-106859917D01*
X126670034Y-106924646D01*
X126642946Y-106981997D01*
X126627067Y-107038771D01*
X126620145Y-107101771D01*
X126619346Y-107135506D01*
X126628741Y-107248083D01*
X126657255Y-107352402D01*
X126704046Y-107447249D01*
X126768270Y-107531408D01*
X126849086Y-107603664D01*
X126945652Y-107662800D01*
X127002382Y-107688191D01*
X127049059Y-107703578D01*
X127101346Y-107713855D01*
X127166325Y-107720339D01*
X127179917Y-107721205D01*
X127232122Y-107723802D01*
X127270684Y-107723695D01*
X127303045Y-107720020D01*
X127336648Y-107711911D01*
X127378938Y-107698501D01*
X127381000Y-107697814D01*
X127455273Y-107671205D01*
X127513092Y-107645852D01*
X127558866Y-107619448D01*
X127597006Y-107589689D01*
X127608542Y-107578863D01*
X127654361Y-107535651D01*
X127698640Y-107496688D01*
X127737294Y-107465404D01*
X127766238Y-107445227D01*
X127770743Y-107442699D01*
X127779679Y-107440299D01*
X127797255Y-107438347D01*
X127824658Y-107436840D01*
X127863070Y-107435779D01*
X127913678Y-107435161D01*
X127977665Y-107434988D01*
X128056218Y-107435257D01*
X128150520Y-107435968D01*
X128261756Y-107437120D01*
X128391112Y-107438712D01*
X128539772Y-107440743D01*
X128633285Y-107442093D01*
X128828807Y-107444888D01*
X129011323Y-107447352D01*
X129180024Y-107449480D01*
X129334102Y-107451263D01*
X129472747Y-107452695D01*
X129595153Y-107453769D01*
X129700509Y-107454478D01*
X129788009Y-107454814D01*
X129856844Y-107454771D01*
X129906205Y-107454342D01*
X129935285Y-107453519D01*
X129936875Y-107453426D01*
X129955412Y-107453702D01*
X129990018Y-107455448D01*
X130035670Y-107458375D01*
X130085042Y-107462010D01*
X130114635Y-107463566D01*
X130163624Y-107465201D01*
X130230235Y-107466885D01*
X130312698Y-107468593D01*
X130409242Y-107470296D01*
X130518093Y-107471968D01*
X130637482Y-107473580D01*
X130765636Y-107475106D01*
X130900784Y-107476517D01*
X131041154Y-107477787D01*
X131163889Y-107478739D01*
X131304085Y-107479807D01*
X131438274Y-107480959D01*
X131564939Y-107482172D01*
X131682566Y-107483427D01*
X131789641Y-107484704D01*
X131884647Y-107485982D01*
X131966071Y-107487240D01*
X132032398Y-107488459D01*
X132082113Y-107489617D01*
X132113700Y-107490695D01*
X132125645Y-107491672D01*
X132125655Y-107491678D01*
X132137785Y-107492974D01*
X132169164Y-107494522D01*
X132217876Y-107496272D01*
X132282006Y-107498173D01*
X132359638Y-107500175D01*
X132448856Y-107502228D01*
X132547745Y-107504282D01*
X132654389Y-107506287D01*
X132740141Y-107507758D01*
X132852843Y-107509614D01*
X132960378Y-107511387D01*
X133060671Y-107513043D01*
X133151645Y-107514548D01*
X133231224Y-107515866D01*
X133297332Y-107516965D01*
X133347893Y-107517808D01*
X133380830Y-107518363D01*
X133392333Y-107518561D01*
X133430910Y-107518553D01*
X133477345Y-107517595D01*
X133503458Y-107516659D01*
X133529196Y-107516188D01*
X133573092Y-107516116D01*
X133632144Y-107516418D01*
X133703348Y-107517068D01*
X133783701Y-107518040D01*
X133870199Y-107519308D01*
X133932083Y-107520346D01*
X134038970Y-107522175D01*
X134160399Y-107524156D01*
X134289748Y-107526188D01*
X134420394Y-107528168D01*
X134545714Y-107529995D01*
X134659085Y-107531566D01*
X134678208Y-107531821D01*
X134788236Y-107533297D01*
X134911072Y-107534984D01*
X135040180Y-107536790D01*
X135169023Y-107538622D01*
X135291063Y-107540387D01*
X135399763Y-107541995D01*
X135419042Y-107542285D01*
X135521223Y-107543754D01*
X135638497Y-107545316D01*
X135764791Y-107546899D01*
X135894033Y-107548430D01*
X136020149Y-107549835D01*
X136137068Y-107551041D01*
X136181042Y-107551461D01*
X136272634Y-107552501D01*
X136358669Y-107553835D01*
X136436588Y-107555395D01*
X136503829Y-107557116D01*
X136557831Y-107558932D01*
X136596034Y-107560776D01*
X136615876Y-107562582D01*
X136616720Y-107562750D01*
X136650231Y-107570293D01*
X136662345Y-107508793D01*
X136688154Y-107404554D01*
X136723236Y-107302629D01*
X136765074Y-107209477D01*
X136793136Y-107161332D01*
X127369085Y-107161332D01*
X127363679Y-107201403D01*
X127338569Y-107242644D01*
X127330507Y-107252025D01*
X127284766Y-107288089D01*
X127230915Y-107306583D01*
X127173623Y-107306809D01*
X127117563Y-107288070D01*
X127111516Y-107284732D01*
X127088364Y-107266362D01*
X127074032Y-107240526D01*
X127066653Y-107202363D01*
X127064555Y-107162549D01*
X127065479Y-107130572D01*
X127072515Y-107108120D01*
X127089642Y-107086301D01*
X127105761Y-107070438D01*
X127154706Y-107034486D01*
X127203402Y-107019619D01*
X127251279Y-107025827D01*
X127297767Y-107053098D01*
X127320189Y-107074496D01*
X127354637Y-107119880D01*
X127369085Y-107161332D01*
X136793136Y-107161332D01*
X136806644Y-107138158D01*
X136835847Y-107092738D01*
X136852447Y-107061755D01*
X136857343Y-107043344D01*
X136855148Y-107037665D01*
X136839772Y-107032718D01*
X136804741Y-107028013D01*
X136751568Y-107023617D01*
X136681764Y-107019598D01*
X136596842Y-107016023D01*
X136498313Y-107012959D01*
X136387688Y-107010475D01*
X136266480Y-107008637D01*
X136186333Y-107007848D01*
X136119977Y-107007221D01*
X136035590Y-107006255D01*
X135936307Y-107004996D01*
X135825260Y-107003488D01*
X135705583Y-107001775D01*
X135580409Y-106999901D01*
X135452871Y-106997911D01*
X135326103Y-106995849D01*
X135260292Y-106994742D01*
X135113960Y-106992385D01*
X134987763Y-106990654D01*
X134880679Y-106989551D01*
X134791685Y-106989075D01*
X134719759Y-106989229D01*
X134663878Y-106990013D01*
X134623021Y-106991430D01*
X134596164Y-106993480D01*
X134584094Y-106995570D01*
X134548594Y-107001908D01*
X134523134Y-106996584D01*
X134521085Y-106995539D01*
X134504010Y-106992085D01*
X134466414Y-106989058D01*
X134408179Y-106986455D01*
X134329186Y-106984271D01*
X134229315Y-106982503D01*
X134108448Y-106981147D01*
X134054283Y-106980720D01*
X133939581Y-106979699D01*
X133809422Y-106978183D01*
X133669509Y-106976259D01*
X133525545Y-106974016D01*
X133383232Y-106971543D01*
X133248272Y-106968930D01*
X133127750Y-106966296D01*
X133027898Y-106964160D01*
X132910530Y-106961993D01*
X132779298Y-106959844D01*
X132637854Y-106957763D01*
X132489848Y-106955798D01*
X132338931Y-106953997D01*
X132188756Y-106952411D01*
X132042972Y-106951088D01*
X131926542Y-106950215D01*
X131665688Y-106948350D01*
X131425695Y-106946376D01*
X131206257Y-106944289D01*
X131007068Y-106942083D01*
X130827822Y-106939754D01*
X130668214Y-106937297D01*
X130527938Y-106934708D01*
X130406687Y-106931982D01*
X130304157Y-106929114D01*
X130220041Y-106926099D01*
X130159125Y-106923219D01*
X130118835Y-106921525D01*
X130059526Y-106919778D01*
X129983344Y-106918012D01*
X129892436Y-106916259D01*
X129788950Y-106914552D01*
X129675031Y-106912925D01*
X129552827Y-106911411D01*
X129424485Y-106910043D01*
X129292152Y-106908855D01*
X129174875Y-106907989D01*
X128967049Y-106906545D01*
X128779413Y-106905084D01*
X128610995Y-106903582D01*
X128460817Y-106902015D01*
X128327905Y-106900359D01*
X128211284Y-106898591D01*
X128109979Y-106896687D01*
X128023014Y-106894622D01*
X127949414Y-106892373D01*
X127888204Y-106889916D01*
X127838410Y-106887228D01*
X127799054Y-106884284D01*
X127769164Y-106881060D01*
X127747762Y-106877534D01*
X127733875Y-106873680D01*
X127731555Y-106872705D01*
X127704785Y-106854462D01*
X127675645Y-106825944D01*
X127660729Y-106807391D01*
X127607610Y-106749624D01*
X127538202Y-106698734D01*
X127456745Y-106656431D01*
X127367476Y-106624423D01*
X127274633Y-106604420D01*
X127182455Y-106598130D01*
X127146176Y-106599883D01*
D12*
X127359714Y-110558571D02*
X127216857Y-110606190D01*
X127169238Y-110653809D01*
X127121619Y-110749047D01*
X127121619Y-110891904D01*
X127169238Y-110987142D01*
X127216857Y-111034761D01*
X127312095Y-111082380D01*
X127693047Y-111082380D01*
X127693047Y-110082380D01*
X127359714Y-110082380D01*
X127264476Y-110130000D01*
X127216857Y-110177619D01*
X127169238Y-110272857D01*
X127169238Y-110368095D01*
X127216857Y-110463333D01*
X127264476Y-110510952D01*
X127359714Y-110558571D01*
X127693047Y-110558571D01*
X126835904Y-110082380D02*
X126264476Y-110082380D01*
X126550190Y-111082380D02*
X126550190Y-110082380D01*
X125407333Y-111082380D02*
X125978761Y-111082380D01*
X125693047Y-111082380D02*
X125693047Y-110082380D01*
X125788285Y-110225238D01*
X125883523Y-110320476D01*
X125978761Y-110368095D01*
M02*
