G04 #@! TF.GenerationSoftware,KiCad,Pcbnew,(5.1.2)-2*
G04 #@! TF.CreationDate,2020-08-07T23:42:31+09:00*
G04 #@! TF.ProjectId,IRRemo,49525265-6d6f-42e6-9b69-6361645f7063,rev?*
G04 #@! TF.SameCoordinates,Original*
G04 #@! TF.FileFunction,Legend,Top*
G04 #@! TF.FilePolarity,Positive*
%FSLAX46Y46*%
G04 Gerber Fmt 4.6, Leading zero omitted, Abs format (unit mm)*
G04 Created by KiCad (PCBNEW (5.1.2)-2) date 2020-08-07 23:42:31*
%MOMM*%
%LPD*%
G04 APERTURE LIST*
%ADD10C,0.150000*%
%ADD11C,0.120000*%
%ADD12C,0.010000*%
G04 APERTURE END LIST*
D10*
X140581714Y-106370380D02*
X140581714Y-105370380D01*
X140915047Y-106084666D01*
X141248380Y-105370380D01*
X141248380Y-106370380D01*
X142153142Y-106370380D02*
X142153142Y-105846571D01*
X142105523Y-105751333D01*
X142010285Y-105703714D01*
X141819809Y-105703714D01*
X141724571Y-105751333D01*
X142153142Y-106322761D02*
X142057904Y-106370380D01*
X141819809Y-106370380D01*
X141724571Y-106322761D01*
X141676952Y-106227523D01*
X141676952Y-106132285D01*
X141724571Y-106037047D01*
X141819809Y-105989428D01*
X142057904Y-105989428D01*
X142153142Y-105941809D01*
X143057904Y-106370380D02*
X143057904Y-105370380D01*
X143057904Y-106322761D02*
X142962666Y-106370380D01*
X142772190Y-106370380D01*
X142676952Y-106322761D01*
X142629333Y-106275142D01*
X142581714Y-106179904D01*
X142581714Y-105894190D01*
X142629333Y-105798952D01*
X142676952Y-105751333D01*
X142772190Y-105703714D01*
X142962666Y-105703714D01*
X143057904Y-105751333D01*
X143915047Y-106322761D02*
X143819809Y-106370380D01*
X143629333Y-106370380D01*
X143534095Y-106322761D01*
X143486476Y-106227523D01*
X143486476Y-105846571D01*
X143534095Y-105751333D01*
X143629333Y-105703714D01*
X143819809Y-105703714D01*
X143915047Y-105751333D01*
X143962666Y-105846571D01*
X143962666Y-105941809D01*
X143486476Y-106037047D01*
X145153142Y-106370380D02*
X145153142Y-105703714D01*
X145153142Y-105370380D02*
X145105523Y-105418000D01*
X145153142Y-105465619D01*
X145200761Y-105418000D01*
X145153142Y-105370380D01*
X145153142Y-105465619D01*
X145629333Y-105703714D02*
X145629333Y-106370380D01*
X145629333Y-105798952D02*
X145676952Y-105751333D01*
X145772190Y-105703714D01*
X145915047Y-105703714D01*
X146010285Y-105751333D01*
X146057904Y-105846571D01*
X146057904Y-106370380D01*
X147867428Y-106275142D02*
X147819809Y-106322761D01*
X147676952Y-106370380D01*
X147581714Y-106370380D01*
X147438857Y-106322761D01*
X147343619Y-106227523D01*
X147296000Y-106132285D01*
X147248380Y-105941809D01*
X147248380Y-105798952D01*
X147296000Y-105608476D01*
X147343619Y-105513238D01*
X147438857Y-105418000D01*
X147581714Y-105370380D01*
X147676952Y-105370380D01*
X147819809Y-105418000D01*
X147867428Y-105465619D01*
X148296000Y-106370380D02*
X148296000Y-105370380D01*
X148724571Y-106370380D02*
X148724571Y-105846571D01*
X148676952Y-105751333D01*
X148581714Y-105703714D01*
X148438857Y-105703714D01*
X148343619Y-105751333D01*
X148296000Y-105798952D01*
X149200761Y-106370380D02*
X149200761Y-105703714D01*
X149200761Y-105370380D02*
X149153142Y-105418000D01*
X149200761Y-105465619D01*
X149248380Y-105418000D01*
X149200761Y-105370380D01*
X149200761Y-105465619D01*
X149676952Y-105703714D02*
X149676952Y-106370380D01*
X149676952Y-105798952D02*
X149724571Y-105751333D01*
X149819809Y-105703714D01*
X149962666Y-105703714D01*
X150057904Y-105751333D01*
X150105523Y-105846571D01*
X150105523Y-106370380D01*
X151010285Y-106370380D02*
X151010285Y-105846571D01*
X150962666Y-105751333D01*
X150867428Y-105703714D01*
X150676952Y-105703714D01*
X150581714Y-105751333D01*
X151010285Y-106322761D02*
X150915047Y-106370380D01*
X150676952Y-106370380D01*
X150581714Y-106322761D01*
X150534095Y-106227523D01*
X150534095Y-106132285D01*
X150581714Y-106037047D01*
X150676952Y-105989428D01*
X150915047Y-105989428D01*
X151010285Y-105941809D01*
X141978571Y-99004380D02*
X141978571Y-98004380D01*
X142359523Y-98004380D01*
X142454761Y-98052000D01*
X142502380Y-98099619D01*
X142550000Y-98194857D01*
X142550000Y-98337714D01*
X142502380Y-98432952D01*
X142454761Y-98480571D01*
X142359523Y-98528190D01*
X141978571Y-98528190D01*
X143121428Y-99004380D02*
X143026190Y-98956761D01*
X142978571Y-98909142D01*
X142930952Y-98813904D01*
X142930952Y-98528190D01*
X142978571Y-98432952D01*
X143026190Y-98385333D01*
X143121428Y-98337714D01*
X143264285Y-98337714D01*
X143359523Y-98385333D01*
X143407142Y-98432952D01*
X143454761Y-98528190D01*
X143454761Y-98813904D01*
X143407142Y-98909142D01*
X143359523Y-98956761D01*
X143264285Y-99004380D01*
X143121428Y-99004380D01*
X143788095Y-98337714D02*
X143978571Y-99004380D01*
X144169047Y-98528190D01*
X144359523Y-99004380D01*
X144550000Y-98337714D01*
X145311904Y-98956761D02*
X145216666Y-99004380D01*
X145026190Y-99004380D01*
X144930952Y-98956761D01*
X144883333Y-98861523D01*
X144883333Y-98480571D01*
X144930952Y-98385333D01*
X145026190Y-98337714D01*
X145216666Y-98337714D01*
X145311904Y-98385333D01*
X145359523Y-98480571D01*
X145359523Y-98575809D01*
X144883333Y-98671047D01*
X145788095Y-99004380D02*
X145788095Y-98337714D01*
X145788095Y-98528190D02*
X145835714Y-98432952D01*
X145883333Y-98385333D01*
X145978571Y-98337714D01*
X146073809Y-98337714D01*
X146788095Y-98956761D02*
X146692857Y-99004380D01*
X146502380Y-99004380D01*
X146407142Y-98956761D01*
X146359523Y-98861523D01*
X146359523Y-98480571D01*
X146407142Y-98385333D01*
X146502380Y-98337714D01*
X146692857Y-98337714D01*
X146788095Y-98385333D01*
X146835714Y-98480571D01*
X146835714Y-98575809D01*
X146359523Y-98671047D01*
X147692857Y-99004380D02*
X147692857Y-98004380D01*
X147692857Y-98956761D02*
X147597619Y-99004380D01*
X147407142Y-99004380D01*
X147311904Y-98956761D01*
X147264285Y-98909142D01*
X147216666Y-98813904D01*
X147216666Y-98528190D01*
X147264285Y-98432952D01*
X147311904Y-98385333D01*
X147407142Y-98337714D01*
X147597619Y-98337714D01*
X147692857Y-98385333D01*
X148930952Y-99004380D02*
X148930952Y-98004380D01*
X148930952Y-98385333D02*
X149026190Y-98337714D01*
X149216666Y-98337714D01*
X149311904Y-98385333D01*
X149359523Y-98432952D01*
X149407142Y-98528190D01*
X149407142Y-98813904D01*
X149359523Y-98909142D01*
X149311904Y-98956761D01*
X149216666Y-99004380D01*
X149026190Y-99004380D01*
X148930952Y-98956761D01*
X149740476Y-98337714D02*
X149978571Y-99004380D01*
X150216666Y-98337714D02*
X149978571Y-99004380D01*
X149883333Y-99242476D01*
X149835714Y-99290095D01*
X149740476Y-99337714D01*
X124730333Y-92241714D02*
X124730333Y-92908380D01*
X124492238Y-91860761D02*
X124254142Y-92575047D01*
X124873190Y-92575047D01*
X125397000Y-92336952D02*
X125301761Y-92289333D01*
X125254142Y-92241714D01*
X125206523Y-92146476D01*
X125206523Y-92098857D01*
X125254142Y-92003619D01*
X125301761Y-91956000D01*
X125397000Y-91908380D01*
X125587476Y-91908380D01*
X125682714Y-91956000D01*
X125730333Y-92003619D01*
X125777952Y-92098857D01*
X125777952Y-92146476D01*
X125730333Y-92241714D01*
X125682714Y-92289333D01*
X125587476Y-92336952D01*
X125397000Y-92336952D01*
X125301761Y-92384571D01*
X125254142Y-92432190D01*
X125206523Y-92527428D01*
X125206523Y-92717904D01*
X125254142Y-92813142D01*
X125301761Y-92860761D01*
X125397000Y-92908380D01*
X125587476Y-92908380D01*
X125682714Y-92860761D01*
X125730333Y-92813142D01*
X125777952Y-92717904D01*
X125777952Y-92527428D01*
X125730333Y-92432190D01*
X125682714Y-92384571D01*
X125587476Y-92336952D01*
X126206523Y-92813142D02*
X126254142Y-92860761D01*
X126206523Y-92908380D01*
X126158904Y-92860761D01*
X126206523Y-92813142D01*
X126206523Y-92908380D01*
X126873190Y-91908380D02*
X126968428Y-91908380D01*
X127063666Y-91956000D01*
X127111285Y-92003619D01*
X127158904Y-92098857D01*
X127206523Y-92289333D01*
X127206523Y-92527428D01*
X127158904Y-92717904D01*
X127111285Y-92813142D01*
X127063666Y-92860761D01*
X126968428Y-92908380D01*
X126873190Y-92908380D01*
X126777952Y-92860761D01*
X126730333Y-92813142D01*
X126682714Y-92717904D01*
X126635095Y-92527428D01*
X126635095Y-92289333D01*
X126682714Y-92098857D01*
X126730333Y-92003619D01*
X126777952Y-91956000D01*
X126873190Y-91908380D01*
X127825571Y-91908380D02*
X127920809Y-91908380D01*
X128016047Y-91956000D01*
X128063666Y-92003619D01*
X128111285Y-92098857D01*
X128158904Y-92289333D01*
X128158904Y-92527428D01*
X128111285Y-92717904D01*
X128063666Y-92813142D01*
X128016047Y-92860761D01*
X127920809Y-92908380D01*
X127825571Y-92908380D01*
X127730333Y-92860761D01*
X127682714Y-92813142D01*
X127635095Y-92717904D01*
X127587476Y-92527428D01*
X127587476Y-92289333D01*
X127635095Y-92098857D01*
X127682714Y-92003619D01*
X127730333Y-91956000D01*
X127825571Y-91908380D01*
X129016047Y-91908380D02*
X128825571Y-91908380D01*
X128730333Y-91956000D01*
X128682714Y-92003619D01*
X128587476Y-92146476D01*
X128539857Y-92336952D01*
X128539857Y-92717904D01*
X128587476Y-92813142D01*
X128635095Y-92860761D01*
X128730333Y-92908380D01*
X128920809Y-92908380D01*
X129016047Y-92860761D01*
X129063666Y-92813142D01*
X129111285Y-92717904D01*
X129111285Y-92479809D01*
X129063666Y-92384571D01*
X129016047Y-92336952D01*
X128920809Y-92289333D01*
X128730333Y-92289333D01*
X128635095Y-92336952D01*
X128587476Y-92384571D01*
X128539857Y-92479809D01*
X130301761Y-92908380D02*
X130301761Y-92241714D01*
X130301761Y-92336952D02*
X130349380Y-92289333D01*
X130444619Y-92241714D01*
X130587476Y-92241714D01*
X130682714Y-92289333D01*
X130730333Y-92384571D01*
X130730333Y-92908380D01*
X130730333Y-92384571D02*
X130777952Y-92289333D01*
X130873190Y-92241714D01*
X131016047Y-92241714D01*
X131111285Y-92289333D01*
X131158904Y-92384571D01*
X131158904Y-92908380D01*
X131635095Y-92908380D02*
X131635095Y-92241714D01*
X131635095Y-92336952D02*
X131682714Y-92289333D01*
X131777952Y-92241714D01*
X131920809Y-92241714D01*
X132016047Y-92289333D01*
X132063666Y-92384571D01*
X132063666Y-92908380D01*
X132063666Y-92384571D02*
X132111285Y-92289333D01*
X132206523Y-92241714D01*
X132349380Y-92241714D01*
X132444619Y-92289333D01*
X132492238Y-92384571D01*
X132492238Y-92908380D01*
D11*
X104394000Y-93726000D02*
X152400000Y-93726000D01*
X104394000Y-96774000D02*
X104394000Y-93139579D01*
X152400000Y-96774000D02*
X152400000Y-93139579D01*
X152400000Y-93726000D02*
X151273496Y-94312421D01*
X152400000Y-93726000D02*
X151273496Y-93139579D01*
X104394000Y-93726000D02*
X105520504Y-94312421D01*
X104394000Y-93726000D02*
X105520504Y-93139579D01*
D10*
X100369620Y-109093523D02*
X100369620Y-109712571D01*
X99988667Y-109379238D01*
X99988667Y-109522095D01*
X99941048Y-109617333D01*
X99893429Y-109664952D01*
X99798191Y-109712571D01*
X99560096Y-109712571D01*
X99464858Y-109664952D01*
X99417239Y-109617333D01*
X99369620Y-109522095D01*
X99369620Y-109236380D01*
X99417239Y-109141142D01*
X99464858Y-109093523D01*
X100369620Y-110045904D02*
X100369620Y-110664952D01*
X99988667Y-110331619D01*
X99988667Y-110474476D01*
X99941048Y-110569714D01*
X99893429Y-110617333D01*
X99798191Y-110664952D01*
X99560096Y-110664952D01*
X99464858Y-110617333D01*
X99417239Y-110569714D01*
X99369620Y-110474476D01*
X99369620Y-110188761D01*
X99417239Y-110093523D01*
X99464858Y-110045904D01*
X99464858Y-111093523D02*
X99417239Y-111141142D01*
X99369620Y-111093523D01*
X99417239Y-111045904D01*
X99464858Y-111093523D01*
X99369620Y-111093523D01*
X100369620Y-111760190D02*
X100369620Y-111855428D01*
X100322001Y-111950666D01*
X100274381Y-111998285D01*
X100179143Y-112045904D01*
X99988667Y-112093523D01*
X99750572Y-112093523D01*
X99560096Y-112045904D01*
X99464858Y-111998285D01*
X99417239Y-111950666D01*
X99369620Y-111855428D01*
X99369620Y-111760190D01*
X99417239Y-111664952D01*
X99464858Y-111617333D01*
X99560096Y-111569714D01*
X99750572Y-111522095D01*
X99988667Y-111522095D01*
X100179143Y-111569714D01*
X100274381Y-111617333D01*
X100322001Y-111664952D01*
X100369620Y-111760190D01*
X100274381Y-112474476D02*
X100322001Y-112522095D01*
X100369620Y-112617333D01*
X100369620Y-112855428D01*
X100322001Y-112950666D01*
X100274381Y-112998285D01*
X100179143Y-113045904D01*
X100083905Y-113045904D01*
X99941048Y-112998285D01*
X99369620Y-112426857D01*
X99369620Y-113045904D01*
X100369620Y-113664952D02*
X100369620Y-113760190D01*
X100322001Y-113855428D01*
X100274381Y-113903047D01*
X100179143Y-113950666D01*
X99988667Y-113998285D01*
X99750572Y-113998285D01*
X99560096Y-113950666D01*
X99464858Y-113903047D01*
X99417239Y-113855428D01*
X99369620Y-113760190D01*
X99369620Y-113664952D01*
X99417239Y-113569714D01*
X99464858Y-113522095D01*
X99560096Y-113474476D01*
X99750572Y-113426857D01*
X99988667Y-113426857D01*
X100179143Y-113474476D01*
X100274381Y-113522095D01*
X100322001Y-113569714D01*
X100369620Y-113664952D01*
X99369620Y-115188761D02*
X100036286Y-115188761D01*
X99941048Y-115188761D02*
X99988667Y-115236380D01*
X100036286Y-115331619D01*
X100036286Y-115474476D01*
X99988667Y-115569714D01*
X99893429Y-115617333D01*
X99369620Y-115617333D01*
X99893429Y-115617333D02*
X99988667Y-115664952D01*
X100036286Y-115760190D01*
X100036286Y-115903047D01*
X99988667Y-115998285D01*
X99893429Y-116045904D01*
X99369620Y-116045904D01*
X99369620Y-116522095D02*
X100036286Y-116522095D01*
X99941048Y-116522095D02*
X99988667Y-116569714D01*
X100036286Y-116664952D01*
X100036286Y-116807809D01*
X99988667Y-116903047D01*
X99893429Y-116950666D01*
X99369620Y-116950666D01*
X99893429Y-116950666D02*
X99988667Y-116998285D01*
X100036286Y-117093523D01*
X100036286Y-117236380D01*
X99988667Y-117331619D01*
X99893429Y-117379238D01*
X99369620Y-117379238D01*
D11*
X101092001Y-96774000D02*
X101092001Y-129794000D01*
X104394000Y-96774000D02*
X100505580Y-96774000D01*
X104394000Y-129794000D02*
X100505580Y-129794000D01*
X101092001Y-129794000D02*
X100505580Y-128667496D01*
X101092001Y-129794000D02*
X101678422Y-128667496D01*
X101092001Y-96774000D02*
X100505580Y-97900504D01*
X101092001Y-96774000D02*
X101678422Y-97900504D01*
D10*
X141177047Y-124008571D02*
X141177047Y-122508571D01*
X142224666Y-124008571D02*
X141891333Y-123294285D01*
X141653238Y-124008571D02*
X141653238Y-122508571D01*
X142034190Y-122508571D01*
X142129428Y-122580000D01*
X142177047Y-122651428D01*
X142224666Y-122794285D01*
X142224666Y-123008571D01*
X142177047Y-123151428D01*
X142129428Y-123222857D01*
X142034190Y-123294285D01*
X141653238Y-123294285D01*
X143986571Y-124008571D02*
X143653238Y-123294285D01*
X143415142Y-124008571D02*
X143415142Y-122508571D01*
X143796095Y-122508571D01*
X143891333Y-122580000D01*
X143938952Y-122651428D01*
X143986571Y-122794285D01*
X143986571Y-123008571D01*
X143938952Y-123151428D01*
X143891333Y-123222857D01*
X143796095Y-123294285D01*
X143415142Y-123294285D01*
X144796095Y-123937142D02*
X144700857Y-124008571D01*
X144510380Y-124008571D01*
X144415142Y-123937142D01*
X144367523Y-123794285D01*
X144367523Y-123222857D01*
X144415142Y-123080000D01*
X144510380Y-123008571D01*
X144700857Y-123008571D01*
X144796095Y-123080000D01*
X144843714Y-123222857D01*
X144843714Y-123365714D01*
X144367523Y-123508571D01*
X145272285Y-124008571D02*
X145272285Y-123008571D01*
X145272285Y-123151428D02*
X145319904Y-123080000D01*
X145415142Y-123008571D01*
X145558000Y-123008571D01*
X145653238Y-123080000D01*
X145700857Y-123222857D01*
X145700857Y-124008571D01*
X145700857Y-123222857D02*
X145748476Y-123080000D01*
X145843714Y-123008571D01*
X145986571Y-123008571D01*
X146081809Y-123080000D01*
X146129428Y-123222857D01*
X146129428Y-124008571D01*
X147034190Y-123937142D02*
X146938952Y-124008571D01*
X146748476Y-124008571D01*
X146653238Y-123937142D01*
X146605619Y-123865714D01*
X146558000Y-123722857D01*
X146558000Y-123294285D01*
X146605619Y-123151428D01*
X146653238Y-123080000D01*
X146748476Y-123008571D01*
X146938952Y-123008571D01*
X147034190Y-123080000D01*
X147605619Y-124008571D02*
X147510380Y-123937142D01*
X147462761Y-123865714D01*
X147415142Y-123722857D01*
X147415142Y-123294285D01*
X147462761Y-123151428D01*
X147510380Y-123080000D01*
X147605619Y-123008571D01*
X147748476Y-123008571D01*
X147843714Y-123080000D01*
X147891333Y-123151428D01*
X147938952Y-123294285D01*
X147938952Y-123722857D01*
X147891333Y-123865714D01*
X147843714Y-123937142D01*
X147748476Y-124008571D01*
X147605619Y-124008571D01*
X148367523Y-123008571D02*
X148367523Y-124008571D01*
X148367523Y-123151428D02*
X148415142Y-123080000D01*
X148510380Y-123008571D01*
X148653238Y-123008571D01*
X148748476Y-123080000D01*
X148796095Y-123222857D01*
X148796095Y-124008571D01*
X150558000Y-124008571D02*
X149986571Y-124008571D01*
X150272285Y-124008571D02*
X150272285Y-122508571D01*
X150177047Y-122722857D01*
X150081809Y-122865714D01*
X149986571Y-122937142D01*
X150986571Y-123865714D02*
X151034190Y-123937142D01*
X150986571Y-124008571D01*
X150938952Y-123937142D01*
X150986571Y-123865714D01*
X150986571Y-124008571D01*
X151986571Y-124008571D02*
X151415142Y-124008571D01*
X151700857Y-124008571D02*
X151700857Y-122508571D01*
X151605619Y-122722857D01*
X151510380Y-122865714D01*
X151415142Y-122937142D01*
X141938952Y-124908571D02*
X142034190Y-124908571D01*
X142129428Y-124980000D01*
X142177047Y-125051428D01*
X142224666Y-125194285D01*
X142272285Y-125480000D01*
X142272285Y-125837142D01*
X142224666Y-126122857D01*
X142177047Y-126265714D01*
X142129428Y-126337142D01*
X142034190Y-126408571D01*
X141938952Y-126408571D01*
X141843714Y-126337142D01*
X141796095Y-126265714D01*
X141748476Y-126122857D01*
X141700857Y-125837142D01*
X141700857Y-125480000D01*
X141748476Y-125194285D01*
X141796095Y-125051428D01*
X141843714Y-124980000D01*
X141938952Y-124908571D01*
X143129428Y-124908571D02*
X142938952Y-124908571D01*
X142843714Y-124980000D01*
X142796095Y-125051428D01*
X142700857Y-125265714D01*
X142653238Y-125551428D01*
X142653238Y-126122857D01*
X142700857Y-126265714D01*
X142748476Y-126337142D01*
X142843714Y-126408571D01*
X143034190Y-126408571D01*
X143129428Y-126337142D01*
X143177047Y-126265714D01*
X143224666Y-126122857D01*
X143224666Y-125765714D01*
X143177047Y-125622857D01*
X143129428Y-125551428D01*
X143034190Y-125480000D01*
X142843714Y-125480000D01*
X142748476Y-125551428D01*
X142700857Y-125622857D01*
X142653238Y-125765714D01*
X143653238Y-125837142D02*
X144415142Y-125837142D01*
X145081809Y-124908571D02*
X145177047Y-124908571D01*
X145272285Y-124980000D01*
X145319904Y-125051428D01*
X145367523Y-125194285D01*
X145415142Y-125480000D01*
X145415142Y-125837142D01*
X145367523Y-126122857D01*
X145319904Y-126265714D01*
X145272285Y-126337142D01*
X145177047Y-126408571D01*
X145081809Y-126408571D01*
X144986571Y-126337142D01*
X144938952Y-126265714D01*
X144891333Y-126122857D01*
X144843714Y-125837142D01*
X144843714Y-125480000D01*
X144891333Y-125194285D01*
X144938952Y-125051428D01*
X144986571Y-124980000D01*
X145081809Y-124908571D01*
X145986571Y-125551428D02*
X145891333Y-125480000D01*
X145843714Y-125408571D01*
X145796095Y-125265714D01*
X145796095Y-125194285D01*
X145843714Y-125051428D01*
X145891333Y-124980000D01*
X145986571Y-124908571D01*
X146177047Y-124908571D01*
X146272285Y-124980000D01*
X146319904Y-125051428D01*
X146367523Y-125194285D01*
X146367523Y-125265714D01*
X146319904Y-125408571D01*
X146272285Y-125480000D01*
X146177047Y-125551428D01*
X145986571Y-125551428D01*
X145891333Y-125622857D01*
X145843714Y-125694285D01*
X145796095Y-125837142D01*
X145796095Y-126122857D01*
X145843714Y-126265714D01*
X145891333Y-126337142D01*
X145986571Y-126408571D01*
X146177047Y-126408571D01*
X146272285Y-126337142D01*
X146319904Y-126265714D01*
X146367523Y-126122857D01*
X146367523Y-125837142D01*
X146319904Y-125694285D01*
X146272285Y-125622857D01*
X146177047Y-125551428D01*
X146796095Y-125837142D02*
X147558000Y-125837142D01*
X147986571Y-125051428D02*
X148034190Y-124980000D01*
X148129428Y-124908571D01*
X148367523Y-124908571D01*
X148462761Y-124980000D01*
X148510380Y-125051428D01*
X148558000Y-125194285D01*
X148558000Y-125337142D01*
X148510380Y-125551428D01*
X147938952Y-126408571D01*
X148558000Y-126408571D01*
X149177047Y-124908571D02*
X149272285Y-124908571D01*
X149367523Y-124980000D01*
X149415142Y-125051428D01*
X149462761Y-125194285D01*
X149510380Y-125480000D01*
X149510380Y-125837142D01*
X149462761Y-126122857D01*
X149415142Y-126265714D01*
X149367523Y-126337142D01*
X149272285Y-126408571D01*
X149177047Y-126408571D01*
X149081809Y-126337142D01*
X149034190Y-126265714D01*
X148986571Y-126122857D01*
X148938952Y-125837142D01*
X148938952Y-125480000D01*
X148986571Y-125194285D01*
X149034190Y-125051428D01*
X149081809Y-124980000D01*
X149177047Y-124908571D01*
X149891333Y-125051428D02*
X149938952Y-124980000D01*
X150034190Y-124908571D01*
X150272285Y-124908571D01*
X150367523Y-124980000D01*
X150415142Y-125051428D01*
X150462761Y-125194285D01*
X150462761Y-125337142D01*
X150415142Y-125551428D01*
X149843714Y-126408571D01*
X150462761Y-126408571D01*
X151081809Y-124908571D02*
X151177047Y-124908571D01*
X151272285Y-124980000D01*
X151319904Y-125051428D01*
X151367523Y-125194285D01*
X151415142Y-125480000D01*
X151415142Y-125837142D01*
X151367523Y-126122857D01*
X151319904Y-126265714D01*
X151272285Y-126337142D01*
X151177047Y-126408571D01*
X151081809Y-126408571D01*
X150986571Y-126337142D01*
X150938952Y-126265714D01*
X150891333Y-126122857D01*
X150843714Y-125837142D01*
X150843714Y-125480000D01*
X150891333Y-125194285D01*
X150938952Y-125051428D01*
X150986571Y-124980000D01*
X151081809Y-124908571D01*
X143200857Y-128808571D02*
X143200857Y-127308571D01*
X143200857Y-127880000D02*
X143296095Y-127808571D01*
X143486571Y-127808571D01*
X143581809Y-127880000D01*
X143629428Y-127951428D01*
X143677047Y-128094285D01*
X143677047Y-128522857D01*
X143629428Y-128665714D01*
X143581809Y-128737142D01*
X143486571Y-128808571D01*
X143296095Y-128808571D01*
X143200857Y-128737142D01*
X144010380Y-127808571D02*
X144248476Y-128808571D01*
X144486571Y-127808571D02*
X144248476Y-128808571D01*
X144153238Y-129165714D01*
X144105619Y-129237142D01*
X144010380Y-129308571D01*
X145486571Y-127808571D02*
X145867523Y-127808571D01*
X145629428Y-128808571D02*
X145629428Y-127522857D01*
X145677047Y-127380000D01*
X145772285Y-127308571D01*
X145867523Y-127308571D01*
X146629428Y-128808571D02*
X146629428Y-128022857D01*
X146581809Y-127880000D01*
X146486571Y-127808571D01*
X146296095Y-127808571D01*
X146200857Y-127880000D01*
X146629428Y-128737142D02*
X146534190Y-128808571D01*
X146296095Y-128808571D01*
X146200857Y-128737142D01*
X146153238Y-128594285D01*
X146153238Y-128451428D01*
X146200857Y-128308571D01*
X146296095Y-128237142D01*
X146534190Y-128237142D01*
X146629428Y-128165714D01*
X147105619Y-127808571D02*
X147105619Y-128808571D01*
X147105619Y-127951428D02*
X147153238Y-127880000D01*
X147248476Y-127808571D01*
X147391333Y-127808571D01*
X147486571Y-127880000D01*
X147534190Y-128022857D01*
X147534190Y-128808571D01*
X147867523Y-127808571D02*
X148248476Y-127808571D01*
X148010380Y-128808571D02*
X148010380Y-127522857D01*
X148058000Y-127380000D01*
X148153238Y-127308571D01*
X148248476Y-127308571D01*
X149010380Y-128808571D02*
X149010380Y-128022857D01*
X148962761Y-127880000D01*
X148867523Y-127808571D01*
X148677047Y-127808571D01*
X148581809Y-127880000D01*
X149010380Y-128737142D02*
X148915142Y-128808571D01*
X148677047Y-128808571D01*
X148581809Y-128737142D01*
X148534190Y-128594285D01*
X148534190Y-128451428D01*
X148581809Y-128308571D01*
X148677047Y-128237142D01*
X148915142Y-128237142D01*
X149010380Y-128165714D01*
X149486571Y-127808571D02*
X149486571Y-128808571D01*
X149486571Y-127951428D02*
X149534190Y-127880000D01*
X149629428Y-127808571D01*
X149772285Y-127808571D01*
X149867523Y-127880000D01*
X149915142Y-128022857D01*
X149915142Y-128808571D01*
D11*
X113284000Y-116078000D02*
G75*
G03X113284000Y-116078000I-254000J0D01*
G01*
X113538000Y-105410000D02*
G75*
G03X113538000Y-105410000I-254000J0D01*
G01*
X139700000Y-108458000D02*
G75*
G03X139700000Y-108458000I-254000J0D01*
G01*
X130808000Y-112893221D02*
X130808000Y-113218779D01*
X131828000Y-112893221D02*
X131828000Y-113218779D01*
X126494000Y-105826779D02*
X126494000Y-105501221D01*
X125474000Y-105826779D02*
X125474000Y-105501221D01*
X126722000Y-116494779D02*
X126722000Y-116169221D01*
X125702000Y-116494779D02*
X125702000Y-116169221D01*
X127702000Y-127568000D02*
X127702000Y-126238000D01*
X129032000Y-127568000D02*
X127702000Y-127568000D01*
X130302000Y-127568000D02*
X130302000Y-124908000D01*
X130302000Y-124908000D02*
X140522000Y-124908000D01*
X130302000Y-127568000D02*
X140522000Y-127568000D01*
X140522000Y-127568000D02*
X140522000Y-124908000D01*
X140163000Y-112649000D02*
X140163000Y-109199000D01*
X140163000Y-112649000D02*
X140163000Y-114599000D01*
X135043000Y-112649000D02*
X135043000Y-110699000D01*
X135043000Y-112649000D02*
X135043000Y-114599000D01*
D10*
X115724000Y-104765000D02*
X113974000Y-104765000D01*
X115724000Y-110520000D02*
X121224000Y-110520000D01*
X115724000Y-104110000D02*
X121224000Y-104110000D01*
X115724000Y-110520000D02*
X115724000Y-109770000D01*
X121224000Y-110520000D02*
X121224000Y-109770000D01*
X121224000Y-104110000D02*
X121224000Y-104860000D01*
X115724000Y-104110000D02*
X115724000Y-104765000D01*
X115614000Y-115560000D02*
X113864000Y-115560000D01*
X115614000Y-121315000D02*
X121114000Y-121315000D01*
X115614000Y-114905000D02*
X121114000Y-114905000D01*
X115614000Y-121315000D02*
X115614000Y-120565000D01*
X121114000Y-121315000D02*
X121114000Y-120565000D01*
X121114000Y-114905000D02*
X121114000Y-115655000D01*
X115614000Y-114905000D02*
X115614000Y-115560000D01*
D11*
X130375000Y-96298000D02*
X130375000Y-97808000D01*
X126674000Y-96298000D02*
X126674000Y-97808000D01*
X123404000Y-97808000D02*
X133644000Y-97808000D01*
X133644000Y-96298000D02*
X133644000Y-100939000D01*
X123404000Y-96298000D02*
X123404000Y-100939000D01*
X123404000Y-100939000D02*
X133644000Y-100939000D01*
X123404000Y-96298000D02*
X133644000Y-96298000D01*
X135592000Y-99314000D02*
X135592000Y-98254000D01*
X135592000Y-98254000D02*
X136652000Y-98254000D01*
X137652000Y-98254000D02*
X139712000Y-98254000D01*
X139712000Y-100374000D02*
X139712000Y-98254000D01*
X137652000Y-100374000D02*
X139712000Y-100374000D01*
X137652000Y-100374000D02*
X137652000Y-98254000D01*
X107652000Y-99568000D02*
X107652000Y-98508000D01*
X107652000Y-98508000D02*
X108712000Y-98508000D01*
X109712000Y-98508000D02*
X111772000Y-98508000D01*
X111772000Y-100628000D02*
X111772000Y-98508000D01*
X109712000Y-100628000D02*
X111772000Y-100628000D01*
X109712000Y-100628000D02*
X109712000Y-98508000D01*
X115526000Y-99568000D02*
X115526000Y-98508000D01*
X115526000Y-98508000D02*
X116586000Y-98508000D01*
X117586000Y-98508000D02*
X119646000Y-98508000D01*
X119646000Y-100628000D02*
X119646000Y-98508000D01*
X117586000Y-100628000D02*
X119646000Y-100628000D01*
X117586000Y-100628000D02*
X117586000Y-98508000D01*
X115526000Y-126238000D02*
X115526000Y-125178000D01*
X115526000Y-125178000D02*
X116586000Y-125178000D01*
X117586000Y-125178000D02*
X119646000Y-125178000D01*
X119646000Y-127298000D02*
X119646000Y-125178000D01*
X117586000Y-127298000D02*
X119646000Y-127298000D01*
X117586000Y-127298000D02*
X117586000Y-125178000D01*
X136654000Y-105826779D02*
X136654000Y-105501221D01*
X135634000Y-105826779D02*
X135634000Y-105501221D01*
D12*
G36*
X149416408Y-100824923D02*
G01*
X149424378Y-100825547D01*
X149430697Y-100827365D01*
X149435267Y-100830148D01*
X149438056Y-100835177D01*
X149439033Y-100843731D01*
X149438167Y-100857089D01*
X149435428Y-100876530D01*
X149430783Y-100903334D01*
X149424203Y-100938780D01*
X149421257Y-100954417D01*
X149417436Y-100975406D01*
X149412343Y-101004441D01*
X149406386Y-101039119D01*
X149399974Y-101077037D01*
X149393516Y-101115791D01*
X149387421Y-101152978D01*
X149386377Y-101159425D01*
X149381241Y-101188007D01*
X149374070Y-101223509D01*
X149365447Y-101263414D01*
X149355955Y-101305207D01*
X149346176Y-101346372D01*
X149336694Y-101384392D01*
X149328092Y-101416752D01*
X149321697Y-101438596D01*
X149313071Y-101461767D01*
X149300067Y-101491415D01*
X149283931Y-101525144D01*
X149265910Y-101560558D01*
X149247250Y-101595258D01*
X149229197Y-101626849D01*
X149212998Y-101652934D01*
X149202466Y-101667895D01*
X149167899Y-101704179D01*
X149124254Y-101735196D01*
X149071685Y-101760857D01*
X149010345Y-101781073D01*
X149006259Y-101782145D01*
X148982655Y-101787997D01*
X148959708Y-101793048D01*
X148936426Y-101797365D01*
X148911820Y-101801012D01*
X148884899Y-101804054D01*
X148854674Y-101806558D01*
X148820155Y-101808587D01*
X148780350Y-101810207D01*
X148734271Y-101811484D01*
X148680927Y-101812483D01*
X148619328Y-101813269D01*
X148548483Y-101813907D01*
X148521209Y-101814108D01*
X148456514Y-101814629D01*
X148383537Y-101815330D01*
X148304577Y-101816181D01*
X148221932Y-101817155D01*
X148137902Y-101818222D01*
X148054786Y-101819354D01*
X147974883Y-101820523D01*
X147900491Y-101821699D01*
X147872979Y-101822162D01*
X147805548Y-101823289D01*
X147734977Y-101824412D01*
X147663048Y-101825505D01*
X147591545Y-101826544D01*
X147522251Y-101827503D01*
X147456950Y-101828359D01*
X147397423Y-101829086D01*
X147345454Y-101829660D01*
X147314709Y-101829954D01*
X147269050Y-101830417D01*
X147214593Y-101831070D01*
X147153121Y-101831888D01*
X147086417Y-101832843D01*
X147016263Y-101833908D01*
X146944444Y-101835057D01*
X146872741Y-101836263D01*
X146802937Y-101837499D01*
X146756438Y-101838363D01*
X146689801Y-101839584D01*
X146620649Y-101840774D01*
X146550670Y-101841907D01*
X146481554Y-101842961D01*
X146414989Y-101843910D01*
X146352662Y-101844730D01*
X146296263Y-101845396D01*
X146247480Y-101845886D01*
X146216688Y-101846124D01*
X146147785Y-101846605D01*
X146078152Y-101847177D01*
X146008673Y-101847827D01*
X145940228Y-101848543D01*
X145873699Y-101849311D01*
X145809969Y-101850119D01*
X145749919Y-101850955D01*
X145694431Y-101851804D01*
X145644387Y-101852655D01*
X145600669Y-101853495D01*
X145564158Y-101854311D01*
X145535737Y-101855091D01*
X145516287Y-101855821D01*
X145507604Y-101856378D01*
X145497645Y-101856914D01*
X145478107Y-101857505D01*
X145449993Y-101858137D01*
X145414308Y-101858793D01*
X145372055Y-101859458D01*
X145324238Y-101860116D01*
X145271862Y-101860751D01*
X145215930Y-101861348D01*
X145157446Y-101861890D01*
X145155709Y-101861905D01*
X145088179Y-101862538D01*
X145016051Y-101863314D01*
X144941398Y-101864207D01*
X144866293Y-101865186D01*
X144792812Y-101866224D01*
X144723027Y-101867292D01*
X144659013Y-101868361D01*
X144602844Y-101869404D01*
X144586854Y-101869727D01*
X144533992Y-101870772D01*
X144481818Y-101871711D01*
X144431826Y-101872521D01*
X144385510Y-101873184D01*
X144344365Y-101873679D01*
X144309886Y-101873985D01*
X144283566Y-101874081D01*
X144272000Y-101874028D01*
X144246576Y-101873928D01*
X144211999Y-101874044D01*
X144169363Y-101874357D01*
X144119762Y-101874847D01*
X144064290Y-101875497D01*
X144004042Y-101876287D01*
X143940111Y-101877198D01*
X143873590Y-101878213D01*
X143805575Y-101879313D01*
X143737159Y-101880478D01*
X143669437Y-101881691D01*
X143603501Y-101882932D01*
X143540446Y-101884183D01*
X143481367Y-101885425D01*
X143427357Y-101886640D01*
X143379510Y-101887809D01*
X143338920Y-101888914D01*
X143306681Y-101889935D01*
X143283887Y-101890853D01*
X143283191Y-101890888D01*
X143250362Y-101892363D01*
X143221087Y-101893390D01*
X143197027Y-101893934D01*
X143179844Y-101893960D01*
X143171200Y-101893433D01*
X143170608Y-101893239D01*
X143164690Y-101892850D01*
X143148984Y-101892619D01*
X143124280Y-101892540D01*
X143091373Y-101892607D01*
X143051055Y-101892815D01*
X143004119Y-101893158D01*
X142951357Y-101893632D01*
X142893563Y-101894230D01*
X142831529Y-101894947D01*
X142766047Y-101895778D01*
X142730666Y-101896257D01*
X142613686Y-101897893D01*
X142506876Y-101899433D01*
X142409824Y-101900887D01*
X142322119Y-101902265D01*
X142243349Y-101903576D01*
X142173101Y-101904830D01*
X142110962Y-101906037D01*
X142056522Y-101907207D01*
X142009368Y-101908349D01*
X141969087Y-101909473D01*
X141935268Y-101910589D01*
X141907499Y-101911706D01*
X141885367Y-101912835D01*
X141868460Y-101913984D01*
X141856367Y-101915165D01*
X141848674Y-101916386D01*
X141845918Y-101917174D01*
X141834299Y-101923908D01*
X141818558Y-101935731D01*
X141801975Y-101950167D01*
X141800939Y-101951144D01*
X141774041Y-101974800D01*
X141744352Y-101997885D01*
X141714761Y-102018335D01*
X141688159Y-102034086D01*
X141677557Y-102039258D01*
X141657918Y-102045583D01*
X141632445Y-102050510D01*
X141612118Y-102052718D01*
X141590377Y-102054297D01*
X141571252Y-102055811D01*
X141558454Y-102056965D01*
X141557375Y-102057082D01*
X141544593Y-102057252D01*
X141526418Y-102056057D01*
X141515042Y-102054799D01*
X141495928Y-102051666D01*
X141479151Y-102047813D01*
X141472464Y-102045660D01*
X141456577Y-102038123D01*
X141435925Y-102026679D01*
X141413146Y-102012985D01*
X141390875Y-101998698D01*
X141371751Y-101985474D01*
X141358409Y-101974970D01*
X141355577Y-101972226D01*
X141344131Y-101957507D01*
X141329976Y-101935810D01*
X141314665Y-101909845D01*
X141299752Y-101882321D01*
X141286790Y-101855949D01*
X141280000Y-101840348D01*
X141274097Y-101824965D01*
X141270608Y-101812310D01*
X141269234Y-101799182D01*
X141269677Y-101782380D01*
X141269897Y-101779721D01*
X141491186Y-101779721D01*
X141500469Y-101799695D01*
X141517200Y-101816090D01*
X141538860Y-101828072D01*
X141562930Y-101834808D01*
X141586892Y-101835464D01*
X141608227Y-101829207D01*
X141618618Y-101821884D01*
X141632766Y-101801845D01*
X141639665Y-101777170D01*
X141639308Y-101750942D01*
X141631687Y-101726242D01*
X141618885Y-101708139D01*
X141599953Y-101695012D01*
X141577309Y-101687618D01*
X141555076Y-101687014D01*
X141545827Y-101689420D01*
X141528164Y-101700606D01*
X141512020Y-101718291D01*
X141499246Y-101739419D01*
X141491689Y-101760934D01*
X141491186Y-101779721D01*
X141269897Y-101779721D01*
X141271637Y-101758703D01*
X141272010Y-101754716D01*
X141279902Y-101699773D01*
X141292537Y-101653514D01*
X141310176Y-101615037D01*
X141314299Y-101608239D01*
X141332164Y-101583927D01*
X141354882Y-101558560D01*
X141379776Y-101534725D01*
X141404169Y-101515007D01*
X141423284Y-101503016D01*
X141441753Y-101495564D01*
X141467371Y-101487691D01*
X141496775Y-101480184D01*
X141526600Y-101473826D01*
X141553482Y-101469406D01*
X141574057Y-101467709D01*
X141574397Y-101467708D01*
X141592578Y-101469504D01*
X141617172Y-101474289D01*
X141644750Y-101481161D01*
X141671883Y-101489216D01*
X141695142Y-101497551D01*
X141705855Y-101502333D01*
X141729842Y-101516355D01*
X141753978Y-101533739D01*
X141775463Y-101552194D01*
X141791501Y-101569429D01*
X141796312Y-101576375D01*
X141812305Y-101593632D01*
X141830594Y-101603193D01*
X141836845Y-101605309D01*
X141844125Y-101607039D01*
X141853407Y-101608402D01*
X141865665Y-101609418D01*
X141881875Y-101610106D01*
X141903010Y-101610485D01*
X141930045Y-101610575D01*
X141963954Y-101610395D01*
X142005711Y-101609964D01*
X142056290Y-101609302D01*
X142104096Y-101608613D01*
X142157296Y-101607833D01*
X142219085Y-101606934D01*
X142287471Y-101605945D01*
X142360461Y-101604894D01*
X142436062Y-101603810D01*
X142512281Y-101602721D01*
X142587126Y-101601657D01*
X142658604Y-101600645D01*
X142695084Y-101600130D01*
X142765860Y-101599104D01*
X142842629Y-101597936D01*
X142923151Y-101596665D01*
X143005187Y-101595327D01*
X143086496Y-101593959D01*
X143164841Y-101592599D01*
X143237980Y-101591285D01*
X143303675Y-101590053D01*
X143327438Y-101589591D01*
X143386306Y-101588460D01*
X143453775Y-101587216D01*
X143527866Y-101585891D01*
X143606597Y-101584520D01*
X143687988Y-101583137D01*
X143770059Y-101581775D01*
X143850828Y-101580467D01*
X143928315Y-101579248D01*
X143994188Y-101578246D01*
X144047623Y-101577450D01*
X144098964Y-101576688D01*
X144148880Y-101575951D01*
X144198039Y-101575230D01*
X144247109Y-101574515D01*
X144296758Y-101573797D01*
X144347654Y-101573067D01*
X144400466Y-101572315D01*
X144455861Y-101571532D01*
X144514508Y-101570708D01*
X144577076Y-101569835D01*
X144644231Y-101568902D01*
X144716643Y-101567901D01*
X144794980Y-101566822D01*
X144879909Y-101565655D01*
X144972099Y-101564392D01*
X145072219Y-101563023D01*
X145180936Y-101561539D01*
X145298919Y-101559930D01*
X145422938Y-101558240D01*
X145545216Y-101556504D01*
X145659667Y-101554738D01*
X145766052Y-101552947D01*
X145864127Y-101551136D01*
X145953654Y-101549313D01*
X146034389Y-101547483D01*
X146106093Y-101545651D01*
X146168525Y-101543824D01*
X146221442Y-101542008D01*
X146264605Y-101540208D01*
X146297773Y-101538432D01*
X146320703Y-101536683D01*
X146327454Y-101535929D01*
X146358576Y-101530443D01*
X146384108Y-101522104D01*
X146405722Y-101509560D01*
X146425091Y-101491463D01*
X146443889Y-101466462D01*
X146463789Y-101433208D01*
X146470862Y-101420231D01*
X146491080Y-101378855D01*
X146505637Y-101339826D01*
X146513363Y-101311825D01*
X146518781Y-101288584D01*
X146523075Y-101268492D01*
X146525697Y-101254218D01*
X146526243Y-101249261D01*
X146523236Y-101239614D01*
X146513976Y-101237561D01*
X146498140Y-101243147D01*
X146475402Y-101256418D01*
X146475358Y-101256446D01*
X146449287Y-101271019D01*
X146415440Y-101286198D01*
X146376472Y-101300799D01*
X146373547Y-101301794D01*
X146345169Y-101311177D01*
X146323513Y-101317545D01*
X146305355Y-101321485D01*
X146287465Y-101323586D01*
X146266617Y-101324436D01*
X146248438Y-101324602D01*
X146211353Y-101324109D01*
X146171364Y-101322510D01*
X146130941Y-101320000D01*
X146092551Y-101316770D01*
X146058665Y-101313013D01*
X146031752Y-101308922D01*
X146022350Y-101306970D01*
X145989668Y-101295806D01*
X145955711Y-101277118D01*
X145919278Y-101250159D01*
X145890682Y-101225063D01*
X145866753Y-101201831D01*
X145848699Y-101181139D01*
X145834713Y-101160072D01*
X145822990Y-101135718D01*
X145811725Y-101105166D01*
X145806558Y-101089354D01*
X145798156Y-101060602D01*
X145792324Y-101033814D01*
X145788339Y-101004862D01*
X145785482Y-100969615D01*
X145785388Y-100968128D01*
X145783608Y-100937328D01*
X145782867Y-100915422D01*
X145783324Y-100900755D01*
X145785139Y-100891675D01*
X145788471Y-100886529D01*
X145793480Y-100883663D01*
X145793538Y-100883641D01*
X145800522Y-100882806D01*
X145816695Y-100881814D01*
X145840668Y-100880722D01*
X145871049Y-100879586D01*
X145906446Y-100878460D01*
X145945469Y-100877400D01*
X145956028Y-100877143D01*
X146006351Y-100876096D01*
X146046759Y-100875607D01*
X146077906Y-100875683D01*
X146100446Y-100876334D01*
X146115034Y-100877567D01*
X146122270Y-100879362D01*
X146131557Y-100889532D01*
X146138895Y-100907992D01*
X146139568Y-100910587D01*
X146146103Y-100936722D01*
X146151307Y-100954880D01*
X146156442Y-100967342D01*
X146162771Y-100976393D01*
X146171555Y-100984315D01*
X146184057Y-100993390D01*
X146186166Y-100994876D01*
X146203273Y-101006299D01*
X146218524Y-101015390D01*
X146228411Y-101020095D01*
X146240002Y-101020935D01*
X146258858Y-101019384D01*
X146282073Y-101015976D01*
X146306740Y-101011245D01*
X146329952Y-101005723D01*
X146348803Y-100999945D01*
X146356917Y-100996522D01*
X146373739Y-100985773D01*
X146390952Y-100969956D01*
X146409868Y-100947656D01*
X146431804Y-100917458D01*
X146435909Y-100911463D01*
X146449000Y-100892509D01*
X146458447Y-100880518D01*
X146466530Y-100873681D01*
X146475525Y-100870188D01*
X146487711Y-100868230D01*
X146490820Y-100867853D01*
X146503992Y-100866907D01*
X146525392Y-100866130D01*
X146553621Y-100865520D01*
X146587281Y-100865071D01*
X146624976Y-100864779D01*
X146665306Y-100864642D01*
X146706874Y-100864654D01*
X146748281Y-100864812D01*
X146788130Y-100865112D01*
X146825023Y-100865549D01*
X146857562Y-100866120D01*
X146884349Y-100866821D01*
X146903985Y-100867648D01*
X146915074Y-100868597D01*
X146916911Y-100869068D01*
X146919763Y-100873072D01*
X146920038Y-100881174D01*
X146917512Y-100895240D01*
X146911962Y-100917139D01*
X146910529Y-100922406D01*
X146904930Y-100945326D01*
X146901131Y-100965853D01*
X146899653Y-100980890D01*
X146899940Y-100985346D01*
X146900338Y-100999552D01*
X146897906Y-101023559D01*
X146892705Y-101056987D01*
X146884800Y-101099456D01*
X146874253Y-101150587D01*
X146867369Y-101182169D01*
X146859617Y-101218004D01*
X146851370Y-101257542D01*
X146843532Y-101296365D01*
X146837007Y-101330058D01*
X146836076Y-101335052D01*
X146829138Y-101368270D01*
X146820304Y-101404424D01*
X146810781Y-101438830D01*
X146802949Y-101463488D01*
X146794433Y-101488284D01*
X146789145Y-101505023D01*
X146786797Y-101515628D01*
X146787102Y-101522024D01*
X146789771Y-101526134D01*
X146793168Y-101528886D01*
X146797448Y-101530984D01*
X146804603Y-101532724D01*
X146815328Y-101534109D01*
X146830314Y-101535145D01*
X146850256Y-101535833D01*
X146875847Y-101536178D01*
X146907780Y-101536185D01*
X146946749Y-101535855D01*
X146993446Y-101535194D01*
X147048565Y-101534205D01*
X147112800Y-101532891D01*
X147186843Y-101531257D01*
X147195646Y-101531057D01*
X147247196Y-101529965D01*
X147308992Y-101528802D01*
X147380694Y-101527570D01*
X147461966Y-101526275D01*
X147552469Y-101524922D01*
X147651865Y-101523514D01*
X147759816Y-101522057D01*
X147875985Y-101520555D01*
X148000034Y-101519013D01*
X148131624Y-101517435D01*
X148270417Y-101515826D01*
X148416076Y-101514190D01*
X148568263Y-101512531D01*
X148571479Y-101512497D01*
X148622861Y-101511845D01*
X148671861Y-101511032D01*
X148717283Y-101510091D01*
X148757934Y-101509055D01*
X148792618Y-101507958D01*
X148820142Y-101506833D01*
X148839310Y-101505713D01*
X148848233Y-101504774D01*
X148887871Y-101493872D01*
X148922281Y-101476898D01*
X148937605Y-101465700D01*
X148946843Y-101454995D01*
X148958994Y-101436849D01*
X148972798Y-101413545D01*
X148986995Y-101387370D01*
X149000325Y-101360607D01*
X149011527Y-101335542D01*
X149016679Y-101322335D01*
X149020487Y-101309223D01*
X149024788Y-101290471D01*
X149029143Y-101268606D01*
X149033115Y-101246153D01*
X149036265Y-101225642D01*
X149038155Y-101209599D01*
X149038346Y-101200551D01*
X149037974Y-101199543D01*
X149032611Y-101200814D01*
X149019625Y-101205949D01*
X149000900Y-101214151D01*
X148978314Y-101224625D01*
X148975552Y-101225940D01*
X148926669Y-101248157D01*
X148883676Y-101264870D01*
X148843849Y-101276723D01*
X148804462Y-101284360D01*
X148762791Y-101288424D01*
X148716111Y-101289559D01*
X148706417Y-101289496D01*
X148636003Y-101285463D01*
X148573313Y-101274792D01*
X148517675Y-101257285D01*
X148468416Y-101232748D01*
X148436868Y-101210889D01*
X148402637Y-101180571D01*
X148374952Y-101147835D01*
X148352569Y-101110639D01*
X148334246Y-101066942D01*
X148319685Y-101018393D01*
X148314927Y-100994928D01*
X148311514Y-100967863D01*
X148309454Y-100939267D01*
X148308759Y-100911209D01*
X148309440Y-100885757D01*
X148311506Y-100864981D01*
X148314969Y-100850950D01*
X148318802Y-100845950D01*
X148326291Y-100844902D01*
X148342956Y-100843773D01*
X148367393Y-100842619D01*
X148398195Y-100841495D01*
X148433958Y-100840458D01*
X148473276Y-100839563D01*
X148484902Y-100839342D01*
X148531010Y-100838461D01*
X148567663Y-100837851D01*
X148595990Y-100837783D01*
X148617120Y-100838523D01*
X148632181Y-100840340D01*
X148642301Y-100843504D01*
X148648609Y-100848282D01*
X148652234Y-100854942D01*
X148654305Y-100863754D01*
X148655950Y-100874986D01*
X148656741Y-100880215D01*
X148665641Y-100907263D01*
X148682451Y-100933961D01*
X148704885Y-100957118D01*
X148719281Y-100967491D01*
X148733758Y-100975705D01*
X148746463Y-100980496D01*
X148761204Y-100982736D01*
X148781784Y-100983300D01*
X148788072Y-100983283D01*
X148813772Y-100982330D01*
X148833567Y-100979212D01*
X148852060Y-100973040D01*
X148860802Y-100969205D01*
X148899273Y-100945966D01*
X148931050Y-100915252D01*
X148954791Y-100878373D01*
X148955461Y-100876985D01*
X148964912Y-100859322D01*
X148974266Y-100845331D01*
X148981479Y-100838056D01*
X148989949Y-100836328D01*
X149007557Y-100834847D01*
X149032863Y-100833678D01*
X149064423Y-100832885D01*
X149100795Y-100832535D01*
X149104267Y-100832527D01*
X149146458Y-100832203D01*
X149193163Y-100831419D01*
X149240428Y-100830267D01*
X149284302Y-100828841D01*
X149314959Y-100827534D01*
X149346799Y-100826147D01*
X149375595Y-100825226D01*
X149399435Y-100824807D01*
X149416408Y-100824923D01*
X149416408Y-100824923D01*
G37*
X149416408Y-100824923D02*
X149424378Y-100825547D01*
X149430697Y-100827365D01*
X149435267Y-100830148D01*
X149438056Y-100835177D01*
X149439033Y-100843731D01*
X149438167Y-100857089D01*
X149435428Y-100876530D01*
X149430783Y-100903334D01*
X149424203Y-100938780D01*
X149421257Y-100954417D01*
X149417436Y-100975406D01*
X149412343Y-101004441D01*
X149406386Y-101039119D01*
X149399974Y-101077037D01*
X149393516Y-101115791D01*
X149387421Y-101152978D01*
X149386377Y-101159425D01*
X149381241Y-101188007D01*
X149374070Y-101223509D01*
X149365447Y-101263414D01*
X149355955Y-101305207D01*
X149346176Y-101346372D01*
X149336694Y-101384392D01*
X149328092Y-101416752D01*
X149321697Y-101438596D01*
X149313071Y-101461767D01*
X149300067Y-101491415D01*
X149283931Y-101525144D01*
X149265910Y-101560558D01*
X149247250Y-101595258D01*
X149229197Y-101626849D01*
X149212998Y-101652934D01*
X149202466Y-101667895D01*
X149167899Y-101704179D01*
X149124254Y-101735196D01*
X149071685Y-101760857D01*
X149010345Y-101781073D01*
X149006259Y-101782145D01*
X148982655Y-101787997D01*
X148959708Y-101793048D01*
X148936426Y-101797365D01*
X148911820Y-101801012D01*
X148884899Y-101804054D01*
X148854674Y-101806558D01*
X148820155Y-101808587D01*
X148780350Y-101810207D01*
X148734271Y-101811484D01*
X148680927Y-101812483D01*
X148619328Y-101813269D01*
X148548483Y-101813907D01*
X148521209Y-101814108D01*
X148456514Y-101814629D01*
X148383537Y-101815330D01*
X148304577Y-101816181D01*
X148221932Y-101817155D01*
X148137902Y-101818222D01*
X148054786Y-101819354D01*
X147974883Y-101820523D01*
X147900491Y-101821699D01*
X147872979Y-101822162D01*
X147805548Y-101823289D01*
X147734977Y-101824412D01*
X147663048Y-101825505D01*
X147591545Y-101826544D01*
X147522251Y-101827503D01*
X147456950Y-101828359D01*
X147397423Y-101829086D01*
X147345454Y-101829660D01*
X147314709Y-101829954D01*
X147269050Y-101830417D01*
X147214593Y-101831070D01*
X147153121Y-101831888D01*
X147086417Y-101832843D01*
X147016263Y-101833908D01*
X146944444Y-101835057D01*
X146872741Y-101836263D01*
X146802937Y-101837499D01*
X146756438Y-101838363D01*
X146689801Y-101839584D01*
X146620649Y-101840774D01*
X146550670Y-101841907D01*
X146481554Y-101842961D01*
X146414989Y-101843910D01*
X146352662Y-101844730D01*
X146296263Y-101845396D01*
X146247480Y-101845886D01*
X146216688Y-101846124D01*
X146147785Y-101846605D01*
X146078152Y-101847177D01*
X146008673Y-101847827D01*
X145940228Y-101848543D01*
X145873699Y-101849311D01*
X145809969Y-101850119D01*
X145749919Y-101850955D01*
X145694431Y-101851804D01*
X145644387Y-101852655D01*
X145600669Y-101853495D01*
X145564158Y-101854311D01*
X145535737Y-101855091D01*
X145516287Y-101855821D01*
X145507604Y-101856378D01*
X145497645Y-101856914D01*
X145478107Y-101857505D01*
X145449993Y-101858137D01*
X145414308Y-101858793D01*
X145372055Y-101859458D01*
X145324238Y-101860116D01*
X145271862Y-101860751D01*
X145215930Y-101861348D01*
X145157446Y-101861890D01*
X145155709Y-101861905D01*
X145088179Y-101862538D01*
X145016051Y-101863314D01*
X144941398Y-101864207D01*
X144866293Y-101865186D01*
X144792812Y-101866224D01*
X144723027Y-101867292D01*
X144659013Y-101868361D01*
X144602844Y-101869404D01*
X144586854Y-101869727D01*
X144533992Y-101870772D01*
X144481818Y-101871711D01*
X144431826Y-101872521D01*
X144385510Y-101873184D01*
X144344365Y-101873679D01*
X144309886Y-101873985D01*
X144283566Y-101874081D01*
X144272000Y-101874028D01*
X144246576Y-101873928D01*
X144211999Y-101874044D01*
X144169363Y-101874357D01*
X144119762Y-101874847D01*
X144064290Y-101875497D01*
X144004042Y-101876287D01*
X143940111Y-101877198D01*
X143873590Y-101878213D01*
X143805575Y-101879313D01*
X143737159Y-101880478D01*
X143669437Y-101881691D01*
X143603501Y-101882932D01*
X143540446Y-101884183D01*
X143481367Y-101885425D01*
X143427357Y-101886640D01*
X143379510Y-101887809D01*
X143338920Y-101888914D01*
X143306681Y-101889935D01*
X143283887Y-101890853D01*
X143283191Y-101890888D01*
X143250362Y-101892363D01*
X143221087Y-101893390D01*
X143197027Y-101893934D01*
X143179844Y-101893960D01*
X143171200Y-101893433D01*
X143170608Y-101893239D01*
X143164690Y-101892850D01*
X143148984Y-101892619D01*
X143124280Y-101892540D01*
X143091373Y-101892607D01*
X143051055Y-101892815D01*
X143004119Y-101893158D01*
X142951357Y-101893632D01*
X142893563Y-101894230D01*
X142831529Y-101894947D01*
X142766047Y-101895778D01*
X142730666Y-101896257D01*
X142613686Y-101897893D01*
X142506876Y-101899433D01*
X142409824Y-101900887D01*
X142322119Y-101902265D01*
X142243349Y-101903576D01*
X142173101Y-101904830D01*
X142110962Y-101906037D01*
X142056522Y-101907207D01*
X142009368Y-101908349D01*
X141969087Y-101909473D01*
X141935268Y-101910589D01*
X141907499Y-101911706D01*
X141885367Y-101912835D01*
X141868460Y-101913984D01*
X141856367Y-101915165D01*
X141848674Y-101916386D01*
X141845918Y-101917174D01*
X141834299Y-101923908D01*
X141818558Y-101935731D01*
X141801975Y-101950167D01*
X141800939Y-101951144D01*
X141774041Y-101974800D01*
X141744352Y-101997885D01*
X141714761Y-102018335D01*
X141688159Y-102034086D01*
X141677557Y-102039258D01*
X141657918Y-102045583D01*
X141632445Y-102050510D01*
X141612118Y-102052718D01*
X141590377Y-102054297D01*
X141571252Y-102055811D01*
X141558454Y-102056965D01*
X141557375Y-102057082D01*
X141544593Y-102057252D01*
X141526418Y-102056057D01*
X141515042Y-102054799D01*
X141495928Y-102051666D01*
X141479151Y-102047813D01*
X141472464Y-102045660D01*
X141456577Y-102038123D01*
X141435925Y-102026679D01*
X141413146Y-102012985D01*
X141390875Y-101998698D01*
X141371751Y-101985474D01*
X141358409Y-101974970D01*
X141355577Y-101972226D01*
X141344131Y-101957507D01*
X141329976Y-101935810D01*
X141314665Y-101909845D01*
X141299752Y-101882321D01*
X141286790Y-101855949D01*
X141280000Y-101840348D01*
X141274097Y-101824965D01*
X141270608Y-101812310D01*
X141269234Y-101799182D01*
X141269677Y-101782380D01*
X141269897Y-101779721D01*
X141491186Y-101779721D01*
X141500469Y-101799695D01*
X141517200Y-101816090D01*
X141538860Y-101828072D01*
X141562930Y-101834808D01*
X141586892Y-101835464D01*
X141608227Y-101829207D01*
X141618618Y-101821884D01*
X141632766Y-101801845D01*
X141639665Y-101777170D01*
X141639308Y-101750942D01*
X141631687Y-101726242D01*
X141618885Y-101708139D01*
X141599953Y-101695012D01*
X141577309Y-101687618D01*
X141555076Y-101687014D01*
X141545827Y-101689420D01*
X141528164Y-101700606D01*
X141512020Y-101718291D01*
X141499246Y-101739419D01*
X141491689Y-101760934D01*
X141491186Y-101779721D01*
X141269897Y-101779721D01*
X141271637Y-101758703D01*
X141272010Y-101754716D01*
X141279902Y-101699773D01*
X141292537Y-101653514D01*
X141310176Y-101615037D01*
X141314299Y-101608239D01*
X141332164Y-101583927D01*
X141354882Y-101558560D01*
X141379776Y-101534725D01*
X141404169Y-101515007D01*
X141423284Y-101503016D01*
X141441753Y-101495564D01*
X141467371Y-101487691D01*
X141496775Y-101480184D01*
X141526600Y-101473826D01*
X141553482Y-101469406D01*
X141574057Y-101467709D01*
X141574397Y-101467708D01*
X141592578Y-101469504D01*
X141617172Y-101474289D01*
X141644750Y-101481161D01*
X141671883Y-101489216D01*
X141695142Y-101497551D01*
X141705855Y-101502333D01*
X141729842Y-101516355D01*
X141753978Y-101533739D01*
X141775463Y-101552194D01*
X141791501Y-101569429D01*
X141796312Y-101576375D01*
X141812305Y-101593632D01*
X141830594Y-101603193D01*
X141836845Y-101605309D01*
X141844125Y-101607039D01*
X141853407Y-101608402D01*
X141865665Y-101609418D01*
X141881875Y-101610106D01*
X141903010Y-101610485D01*
X141930045Y-101610575D01*
X141963954Y-101610395D01*
X142005711Y-101609964D01*
X142056290Y-101609302D01*
X142104096Y-101608613D01*
X142157296Y-101607833D01*
X142219085Y-101606934D01*
X142287471Y-101605945D01*
X142360461Y-101604894D01*
X142436062Y-101603810D01*
X142512281Y-101602721D01*
X142587126Y-101601657D01*
X142658604Y-101600645D01*
X142695084Y-101600130D01*
X142765860Y-101599104D01*
X142842629Y-101597936D01*
X142923151Y-101596665D01*
X143005187Y-101595327D01*
X143086496Y-101593959D01*
X143164841Y-101592599D01*
X143237980Y-101591285D01*
X143303675Y-101590053D01*
X143327438Y-101589591D01*
X143386306Y-101588460D01*
X143453775Y-101587216D01*
X143527866Y-101585891D01*
X143606597Y-101584520D01*
X143687988Y-101583137D01*
X143770059Y-101581775D01*
X143850828Y-101580467D01*
X143928315Y-101579248D01*
X143994188Y-101578246D01*
X144047623Y-101577450D01*
X144098964Y-101576688D01*
X144148880Y-101575951D01*
X144198039Y-101575230D01*
X144247109Y-101574515D01*
X144296758Y-101573797D01*
X144347654Y-101573067D01*
X144400466Y-101572315D01*
X144455861Y-101571532D01*
X144514508Y-101570708D01*
X144577076Y-101569835D01*
X144644231Y-101568902D01*
X144716643Y-101567901D01*
X144794980Y-101566822D01*
X144879909Y-101565655D01*
X144972099Y-101564392D01*
X145072219Y-101563023D01*
X145180936Y-101561539D01*
X145298919Y-101559930D01*
X145422938Y-101558240D01*
X145545216Y-101556504D01*
X145659667Y-101554738D01*
X145766052Y-101552947D01*
X145864127Y-101551136D01*
X145953654Y-101549313D01*
X146034389Y-101547483D01*
X146106093Y-101545651D01*
X146168525Y-101543824D01*
X146221442Y-101542008D01*
X146264605Y-101540208D01*
X146297773Y-101538432D01*
X146320703Y-101536683D01*
X146327454Y-101535929D01*
X146358576Y-101530443D01*
X146384108Y-101522104D01*
X146405722Y-101509560D01*
X146425091Y-101491463D01*
X146443889Y-101466462D01*
X146463789Y-101433208D01*
X146470862Y-101420231D01*
X146491080Y-101378855D01*
X146505637Y-101339826D01*
X146513363Y-101311825D01*
X146518781Y-101288584D01*
X146523075Y-101268492D01*
X146525697Y-101254218D01*
X146526243Y-101249261D01*
X146523236Y-101239614D01*
X146513976Y-101237561D01*
X146498140Y-101243147D01*
X146475402Y-101256418D01*
X146475358Y-101256446D01*
X146449287Y-101271019D01*
X146415440Y-101286198D01*
X146376472Y-101300799D01*
X146373547Y-101301794D01*
X146345169Y-101311177D01*
X146323513Y-101317545D01*
X146305355Y-101321485D01*
X146287465Y-101323586D01*
X146266617Y-101324436D01*
X146248438Y-101324602D01*
X146211353Y-101324109D01*
X146171364Y-101322510D01*
X146130941Y-101320000D01*
X146092551Y-101316770D01*
X146058665Y-101313013D01*
X146031752Y-101308922D01*
X146022350Y-101306970D01*
X145989668Y-101295806D01*
X145955711Y-101277118D01*
X145919278Y-101250159D01*
X145890682Y-101225063D01*
X145866753Y-101201831D01*
X145848699Y-101181139D01*
X145834713Y-101160072D01*
X145822990Y-101135718D01*
X145811725Y-101105166D01*
X145806558Y-101089354D01*
X145798156Y-101060602D01*
X145792324Y-101033814D01*
X145788339Y-101004862D01*
X145785482Y-100969615D01*
X145785388Y-100968128D01*
X145783608Y-100937328D01*
X145782867Y-100915422D01*
X145783324Y-100900755D01*
X145785139Y-100891675D01*
X145788471Y-100886529D01*
X145793480Y-100883663D01*
X145793538Y-100883641D01*
X145800522Y-100882806D01*
X145816695Y-100881814D01*
X145840668Y-100880722D01*
X145871049Y-100879586D01*
X145906446Y-100878460D01*
X145945469Y-100877400D01*
X145956028Y-100877143D01*
X146006351Y-100876096D01*
X146046759Y-100875607D01*
X146077906Y-100875683D01*
X146100446Y-100876334D01*
X146115034Y-100877567D01*
X146122270Y-100879362D01*
X146131557Y-100889532D01*
X146138895Y-100907992D01*
X146139568Y-100910587D01*
X146146103Y-100936722D01*
X146151307Y-100954880D01*
X146156442Y-100967342D01*
X146162771Y-100976393D01*
X146171555Y-100984315D01*
X146184057Y-100993390D01*
X146186166Y-100994876D01*
X146203273Y-101006299D01*
X146218524Y-101015390D01*
X146228411Y-101020095D01*
X146240002Y-101020935D01*
X146258858Y-101019384D01*
X146282073Y-101015976D01*
X146306740Y-101011245D01*
X146329952Y-101005723D01*
X146348803Y-100999945D01*
X146356917Y-100996522D01*
X146373739Y-100985773D01*
X146390952Y-100969956D01*
X146409868Y-100947656D01*
X146431804Y-100917458D01*
X146435909Y-100911463D01*
X146449000Y-100892509D01*
X146458447Y-100880518D01*
X146466530Y-100873681D01*
X146475525Y-100870188D01*
X146487711Y-100868230D01*
X146490820Y-100867853D01*
X146503992Y-100866907D01*
X146525392Y-100866130D01*
X146553621Y-100865520D01*
X146587281Y-100865071D01*
X146624976Y-100864779D01*
X146665306Y-100864642D01*
X146706874Y-100864654D01*
X146748281Y-100864812D01*
X146788130Y-100865112D01*
X146825023Y-100865549D01*
X146857562Y-100866120D01*
X146884349Y-100866821D01*
X146903985Y-100867648D01*
X146915074Y-100868597D01*
X146916911Y-100869068D01*
X146919763Y-100873072D01*
X146920038Y-100881174D01*
X146917512Y-100895240D01*
X146911962Y-100917139D01*
X146910529Y-100922406D01*
X146904930Y-100945326D01*
X146901131Y-100965853D01*
X146899653Y-100980890D01*
X146899940Y-100985346D01*
X146900338Y-100999552D01*
X146897906Y-101023559D01*
X146892705Y-101056987D01*
X146884800Y-101099456D01*
X146874253Y-101150587D01*
X146867369Y-101182169D01*
X146859617Y-101218004D01*
X146851370Y-101257542D01*
X146843532Y-101296365D01*
X146837007Y-101330058D01*
X146836076Y-101335052D01*
X146829138Y-101368270D01*
X146820304Y-101404424D01*
X146810781Y-101438830D01*
X146802949Y-101463488D01*
X146794433Y-101488284D01*
X146789145Y-101505023D01*
X146786797Y-101515628D01*
X146787102Y-101522024D01*
X146789771Y-101526134D01*
X146793168Y-101528886D01*
X146797448Y-101530984D01*
X146804603Y-101532724D01*
X146815328Y-101534109D01*
X146830314Y-101535145D01*
X146850256Y-101535833D01*
X146875847Y-101536178D01*
X146907780Y-101536185D01*
X146946749Y-101535855D01*
X146993446Y-101535194D01*
X147048565Y-101534205D01*
X147112800Y-101532891D01*
X147186843Y-101531257D01*
X147195646Y-101531057D01*
X147247196Y-101529965D01*
X147308992Y-101528802D01*
X147380694Y-101527570D01*
X147461966Y-101526275D01*
X147552469Y-101524922D01*
X147651865Y-101523514D01*
X147759816Y-101522057D01*
X147875985Y-101520555D01*
X148000034Y-101519013D01*
X148131624Y-101517435D01*
X148270417Y-101515826D01*
X148416076Y-101514190D01*
X148568263Y-101512531D01*
X148571479Y-101512497D01*
X148622861Y-101511845D01*
X148671861Y-101511032D01*
X148717283Y-101510091D01*
X148757934Y-101509055D01*
X148792618Y-101507958D01*
X148820142Y-101506833D01*
X148839310Y-101505713D01*
X148848233Y-101504774D01*
X148887871Y-101493872D01*
X148922281Y-101476898D01*
X148937605Y-101465700D01*
X148946843Y-101454995D01*
X148958994Y-101436849D01*
X148972798Y-101413545D01*
X148986995Y-101387370D01*
X149000325Y-101360607D01*
X149011527Y-101335542D01*
X149016679Y-101322335D01*
X149020487Y-101309223D01*
X149024788Y-101290471D01*
X149029143Y-101268606D01*
X149033115Y-101246153D01*
X149036265Y-101225642D01*
X149038155Y-101209599D01*
X149038346Y-101200551D01*
X149037974Y-101199543D01*
X149032611Y-101200814D01*
X149019625Y-101205949D01*
X149000900Y-101214151D01*
X148978314Y-101224625D01*
X148975552Y-101225940D01*
X148926669Y-101248157D01*
X148883676Y-101264870D01*
X148843849Y-101276723D01*
X148804462Y-101284360D01*
X148762791Y-101288424D01*
X148716111Y-101289559D01*
X148706417Y-101289496D01*
X148636003Y-101285463D01*
X148573313Y-101274792D01*
X148517675Y-101257285D01*
X148468416Y-101232748D01*
X148436868Y-101210889D01*
X148402637Y-101180571D01*
X148374952Y-101147835D01*
X148352569Y-101110639D01*
X148334246Y-101066942D01*
X148319685Y-101018393D01*
X148314927Y-100994928D01*
X148311514Y-100967863D01*
X148309454Y-100939267D01*
X148308759Y-100911209D01*
X148309440Y-100885757D01*
X148311506Y-100864981D01*
X148314969Y-100850950D01*
X148318802Y-100845950D01*
X148326291Y-100844902D01*
X148342956Y-100843773D01*
X148367393Y-100842619D01*
X148398195Y-100841495D01*
X148433958Y-100840458D01*
X148473276Y-100839563D01*
X148484902Y-100839342D01*
X148531010Y-100838461D01*
X148567663Y-100837851D01*
X148595990Y-100837783D01*
X148617120Y-100838523D01*
X148632181Y-100840340D01*
X148642301Y-100843504D01*
X148648609Y-100848282D01*
X148652234Y-100854942D01*
X148654305Y-100863754D01*
X148655950Y-100874986D01*
X148656741Y-100880215D01*
X148665641Y-100907263D01*
X148682451Y-100933961D01*
X148704885Y-100957118D01*
X148719281Y-100967491D01*
X148733758Y-100975705D01*
X148746463Y-100980496D01*
X148761204Y-100982736D01*
X148781784Y-100983300D01*
X148788072Y-100983283D01*
X148813772Y-100982330D01*
X148833567Y-100979212D01*
X148852060Y-100973040D01*
X148860802Y-100969205D01*
X148899273Y-100945966D01*
X148931050Y-100915252D01*
X148954791Y-100878373D01*
X148955461Y-100876985D01*
X148964912Y-100859322D01*
X148974266Y-100845331D01*
X148981479Y-100838056D01*
X148989949Y-100836328D01*
X149007557Y-100834847D01*
X149032863Y-100833678D01*
X149064423Y-100832885D01*
X149100795Y-100832535D01*
X149104267Y-100832527D01*
X149146458Y-100832203D01*
X149193163Y-100831419D01*
X149240428Y-100830267D01*
X149284302Y-100828841D01*
X149314959Y-100827534D01*
X149346799Y-100826147D01*
X149375595Y-100825226D01*
X149399435Y-100824807D01*
X149416408Y-100824923D01*
G36*
X143931018Y-99924888D02*
G01*
X143973630Y-99925793D01*
X144012794Y-99927434D01*
X144046529Y-99929811D01*
X144072856Y-99932924D01*
X144084146Y-99935113D01*
X144108059Y-99942056D01*
X144134123Y-99951498D01*
X144161147Y-99962773D01*
X144187943Y-99975215D01*
X144213322Y-99988156D01*
X144236095Y-100000930D01*
X144255073Y-100012870D01*
X144269066Y-100023310D01*
X144276885Y-100031582D01*
X144277342Y-100037020D01*
X144269354Y-100038958D01*
X144262308Y-100041515D01*
X144261417Y-100043684D01*
X144266254Y-100049796D01*
X144279095Y-100053777D01*
X144293051Y-100054833D01*
X144304283Y-100057554D01*
X144316831Y-100066314D01*
X144331558Y-100082014D01*
X144349323Y-100105552D01*
X144367721Y-100132799D01*
X144388266Y-100169598D01*
X144400516Y-100204970D01*
X144401019Y-100207121D01*
X144406492Y-100234404D01*
X144411777Y-100266464D01*
X144416548Y-100300617D01*
X144420481Y-100334180D01*
X144423251Y-100364469D01*
X144424531Y-100388801D01*
X144424410Y-100400163D01*
X144422813Y-100427896D01*
X144369896Y-100431243D01*
X144344268Y-100432535D01*
X144313413Y-100433566D01*
X144278863Y-100434338D01*
X144242152Y-100434851D01*
X144204812Y-100435108D01*
X144168377Y-100435110D01*
X144134378Y-100434859D01*
X144104350Y-100434356D01*
X144079824Y-100433603D01*
X144062335Y-100432601D01*
X144053414Y-100431353D01*
X144052625Y-100430913D01*
X144050530Y-100423578D01*
X144047789Y-100408726D01*
X144044947Y-100389358D01*
X144044544Y-100386233D01*
X144036311Y-100345702D01*
X144021924Y-100311256D01*
X143999841Y-100279458D01*
X143993279Y-100271899D01*
X143965963Y-100246933D01*
X143934717Y-100229316D01*
X143897490Y-100218097D01*
X143867548Y-100213620D01*
X143804054Y-100211472D01*
X143744594Y-100218757D01*
X143688478Y-100235719D01*
X143635016Y-100262604D01*
X143583517Y-100299656D01*
X143556152Y-100324101D01*
X143510147Y-100373041D01*
X143473253Y-100423859D01*
X143444005Y-100478813D01*
X143426020Y-100524640D01*
X143417044Y-100552996D01*
X143407188Y-100587630D01*
X143397200Y-100625547D01*
X143387829Y-100663754D01*
X143379824Y-100699255D01*
X143373935Y-100729055D01*
X143372131Y-100740104D01*
X143367266Y-100789390D01*
X143366723Y-100839026D01*
X143370282Y-100886683D01*
X143377718Y-100930033D01*
X143388810Y-100966746D01*
X143395135Y-100980875D01*
X143409738Y-101001421D01*
X143431849Y-101022699D01*
X143458783Y-101042602D01*
X143487852Y-101059020D01*
X143502993Y-101065509D01*
X143531106Y-101073020D01*
X143567019Y-101077968D01*
X143608277Y-101080400D01*
X143652423Y-101080364D01*
X143697002Y-101077907D01*
X143739557Y-101073077D01*
X143777633Y-101065922D01*
X143799726Y-101059748D01*
X143834836Y-101044044D01*
X143869168Y-101021421D01*
X143898951Y-100994611D01*
X143913068Y-100977652D01*
X143923943Y-100961192D01*
X143937235Y-100938937D01*
X143950756Y-100914618D01*
X143956527Y-100903614D01*
X143972067Y-100875584D01*
X143984879Y-100857502D01*
X143994564Y-100849375D01*
X144003698Y-100847614D01*
X144021632Y-100846138D01*
X144046690Y-100844951D01*
X144077197Y-100844055D01*
X144111477Y-100843453D01*
X144147855Y-100843149D01*
X144184654Y-100843147D01*
X144220201Y-100843448D01*
X144252818Y-100844056D01*
X144280830Y-100844974D01*
X144302563Y-100846205D01*
X144316339Y-100847753D01*
X144319973Y-100848769D01*
X144327266Y-100855197D01*
X144330305Y-100865183D01*
X144328837Y-100879768D01*
X144322612Y-100899997D01*
X144311374Y-100926909D01*
X144294873Y-100961549D01*
X144290521Y-100970291D01*
X144277301Y-100997114D01*
X144265948Y-101020964D01*
X144257255Y-101040107D01*
X144252018Y-101052806D01*
X144250834Y-101056972D01*
X144252747Y-101063018D01*
X144259517Y-101067085D01*
X144272686Y-101069512D01*
X144293796Y-101070638D01*
X144313990Y-101070833D01*
X144354066Y-101070272D01*
X144384745Y-101068465D01*
X144407161Y-101065231D01*
X144422447Y-101060385D01*
X144431736Y-101053745D01*
X144433420Y-101051532D01*
X144436603Y-101043174D01*
X144441445Y-101025902D01*
X144447596Y-101001196D01*
X144454700Y-100970533D01*
X144462407Y-100935390D01*
X144470361Y-100897246D01*
X144470848Y-100894846D01*
X144478494Y-100857105D01*
X144487808Y-100811085D01*
X144498369Y-100758881D01*
X144509751Y-100702591D01*
X144521532Y-100644308D01*
X144533287Y-100586129D01*
X144544593Y-100530149D01*
X144547075Y-100517854D01*
X144556920Y-100469182D01*
X144902496Y-100469182D01*
X144903110Y-100475973D01*
X144905324Y-100479422D01*
X144909193Y-100481319D01*
X144911936Y-100482306D01*
X144920689Y-100483508D01*
X144938338Y-100484348D01*
X144963203Y-100484847D01*
X144993603Y-100485027D01*
X145027858Y-100484908D01*
X145064287Y-100484512D01*
X145101210Y-100483861D01*
X145136947Y-100482975D01*
X145169817Y-100481877D01*
X145198140Y-100480588D01*
X145220235Y-100479129D01*
X145229053Y-100478269D01*
X145277065Y-100468866D01*
X145317073Y-100452636D01*
X145349355Y-100429339D01*
X145374193Y-100398734D01*
X145391865Y-100360579D01*
X145399682Y-100331425D01*
X145402958Y-100298180D01*
X145397552Y-100269682D01*
X145383064Y-100244089D01*
X145379833Y-100240090D01*
X145371955Y-100230999D01*
X145364419Y-100223677D01*
X145356020Y-100217917D01*
X145345549Y-100213514D01*
X145331800Y-100210259D01*
X145313565Y-100207946D01*
X145289636Y-100206367D01*
X145258807Y-100205317D01*
X145219871Y-100204588D01*
X145171619Y-100203973D01*
X145168931Y-100203941D01*
X145127422Y-100203609D01*
X145088591Y-100203594D01*
X145053905Y-100203873D01*
X145024831Y-100204424D01*
X145002834Y-100205224D01*
X144989380Y-100206252D01*
X144986766Y-100206710D01*
X144971290Y-100213741D01*
X144959108Y-100224186D01*
X144958915Y-100224440D01*
X144952341Y-100237138D01*
X144944662Y-100258197D01*
X144936431Y-100285525D01*
X144928201Y-100317030D01*
X144920524Y-100350621D01*
X144913951Y-100384206D01*
X144909689Y-100410880D01*
X144905842Y-100438423D01*
X144903425Y-100457261D01*
X144902496Y-100469182D01*
X144556920Y-100469182D01*
X144557760Y-100465030D01*
X144568621Y-100411527D01*
X144579304Y-100359073D01*
X144589456Y-100309395D01*
X144598724Y-100264218D01*
X144606754Y-100225272D01*
X144613194Y-100194281D01*
X144615250Y-100184479D01*
X144622550Y-100148224D01*
X144629506Y-100110791D01*
X144635594Y-100075217D01*
X144640290Y-100044539D01*
X144642664Y-100025818D01*
X144646329Y-99994530D01*
X144649849Y-99972116D01*
X144653705Y-99956882D01*
X144658380Y-99947138D01*
X144664358Y-99941190D01*
X144667299Y-99939456D01*
X144674218Y-99938502D01*
X144690785Y-99937492D01*
X144716064Y-99936452D01*
X144749121Y-99935405D01*
X144789021Y-99934375D01*
X144834827Y-99933388D01*
X144885606Y-99932467D01*
X144940421Y-99931637D01*
X144990895Y-99931005D01*
X145057984Y-99930256D01*
X145115266Y-99929673D01*
X145163516Y-99929299D01*
X145203507Y-99929176D01*
X145236016Y-99929349D01*
X145261818Y-99929861D01*
X145281687Y-99930754D01*
X145296398Y-99932073D01*
X145306726Y-99933859D01*
X145313447Y-99936157D01*
X145317336Y-99939009D01*
X145319166Y-99942459D01*
X145319715Y-99946550D01*
X145319750Y-99949335D01*
X145321859Y-99959792D01*
X145327397Y-99961037D01*
X145335177Y-99953385D01*
X145340902Y-99943737D01*
X145348594Y-99930582D01*
X145354756Y-99925744D01*
X145360600Y-99927108D01*
X145369873Y-99929110D01*
X145386373Y-99929922D01*
X145406793Y-99929404D01*
X145410155Y-99929192D01*
X145445601Y-99929236D01*
X145486493Y-99933240D01*
X145528746Y-99940566D01*
X145568275Y-99950574D01*
X145587049Y-99956868D01*
X145632164Y-99975743D01*
X145668574Y-99995973D01*
X145698153Y-100019074D01*
X145722777Y-100046564D01*
X145744323Y-100079959D01*
X145748331Y-100087298D01*
X145758120Y-100107367D01*
X145763995Y-100125091D01*
X145767192Y-100145182D01*
X145768562Y-100164359D01*
X145767320Y-100223843D01*
X145758027Y-100284205D01*
X145742864Y-100336755D01*
X145727303Y-100372022D01*
X145706262Y-100409374D01*
X145681999Y-100445332D01*
X145656773Y-100476413D01*
X145643293Y-100490181D01*
X145619349Y-100510351D01*
X145590061Y-100531725D01*
X145559129Y-100551823D01*
X145530257Y-100568166D01*
X145518206Y-100573954D01*
X145502302Y-100581683D01*
X145493094Y-100588634D01*
X145491081Y-100595779D01*
X145496765Y-100604087D01*
X145510645Y-100614529D01*
X145533221Y-100628076D01*
X145551326Y-100638196D01*
X145583339Y-100656661D01*
X145607561Y-100673043D01*
X145625962Y-100689347D01*
X145640515Y-100707575D01*
X145653191Y-100729731D01*
X145663573Y-100752248D01*
X145674541Y-100778350D01*
X145681200Y-100796994D01*
X145683840Y-100810253D01*
X145682751Y-100820198D01*
X145678225Y-100828903D01*
X145674926Y-100833239D01*
X145664976Y-100845526D01*
X145494151Y-100845732D01*
X145323326Y-100845937D01*
X145318217Y-100830062D01*
X145304189Y-100802639D01*
X145282393Y-100779843D01*
X145262116Y-100767383D01*
X145255055Y-100764386D01*
X145247545Y-100761958D01*
X145238398Y-100760024D01*
X145226428Y-100758508D01*
X145210448Y-100757336D01*
X145189273Y-100756432D01*
X145161714Y-100755722D01*
X145126587Y-100755131D01*
X145082703Y-100754583D01*
X145054948Y-100754279D01*
X144872167Y-100752325D01*
X144849395Y-100771350D01*
X144830795Y-100784455D01*
X144814515Y-100789967D01*
X144808341Y-100790375D01*
X144784475Y-100794172D01*
X144765186Y-100804531D01*
X144752459Y-100819902D01*
X144748250Y-100837295D01*
X144749543Y-100844084D01*
X144754816Y-100848810D01*
X144766162Y-100852463D01*
X144785672Y-100856032D01*
X144788956Y-100856548D01*
X144808430Y-100861746D01*
X144818684Y-100870547D01*
X144820805Y-100884155D01*
X144819749Y-100890635D01*
X144810650Y-100909728D01*
X144793664Y-100922295D01*
X144769656Y-100927764D01*
X144763412Y-100927958D01*
X144740297Y-100931293D01*
X144724515Y-100940847D01*
X144717004Y-100955940D01*
X144716500Y-100961970D01*
X144721233Y-100975612D01*
X144733277Y-100987574D01*
X144749397Y-100995264D01*
X144759895Y-100996750D01*
X144779436Y-100999167D01*
X144790820Y-101007349D01*
X144795528Y-101022694D01*
X144795875Y-101030684D01*
X144797830Y-101048411D01*
X144803085Y-101059579D01*
X144803792Y-101060233D01*
X144808443Y-101062116D01*
X144817860Y-101063486D01*
X144832987Y-101064359D01*
X144854770Y-101064748D01*
X144884157Y-101064670D01*
X144922092Y-101064140D01*
X144969521Y-101063172D01*
X144977094Y-101062999D01*
X145029680Y-101061694D01*
X145072910Y-101060346D01*
X145108013Y-101058827D01*
X145136216Y-101057012D01*
X145158747Y-101054771D01*
X145176834Y-101051979D01*
X145191703Y-101048507D01*
X145204584Y-101044228D01*
X145216704Y-101039015D01*
X145219024Y-101037908D01*
X145242458Y-101023215D01*
X145266060Y-101002793D01*
X145286739Y-100979750D01*
X145301401Y-100957199D01*
X145303292Y-100953131D01*
X145310708Y-100938166D01*
X145317977Y-100927088D01*
X145320350Y-100924636D01*
X145328105Y-100922706D01*
X145346198Y-100920899D01*
X145374384Y-100919227D01*
X145412417Y-100917701D01*
X145460052Y-100916335D01*
X145500990Y-100915442D01*
X145674292Y-100912066D01*
X145674292Y-100944214D01*
X145670422Y-100980101D01*
X145659592Y-101020439D01*
X145642974Y-101062903D01*
X145621739Y-101105170D01*
X145597057Y-101144915D01*
X145570099Y-101179815D01*
X145542037Y-101207544D01*
X145541328Y-101208127D01*
X145489418Y-101244804D01*
X145430485Y-101276223D01*
X145367263Y-101301220D01*
X145302489Y-101318630D01*
X145267951Y-101324451D01*
X145247083Y-101326512D01*
X145215969Y-101328580D01*
X145174943Y-101330648D01*
X145124341Y-101332705D01*
X145064500Y-101334742D01*
X144995756Y-101336748D01*
X144918443Y-101338715D01*
X144832899Y-101340633D01*
X144739460Y-101342492D01*
X144638460Y-101344282D01*
X144530237Y-101345994D01*
X144504834Y-101346368D01*
X144431193Y-101347446D01*
X144351242Y-101348626D01*
X144267173Y-101349874D01*
X144181180Y-101351159D01*
X144095459Y-101352447D01*
X144012202Y-101353705D01*
X143933605Y-101354900D01*
X143861860Y-101356000D01*
X143816917Y-101356695D01*
X143685945Y-101358726D01*
X143564809Y-101360599D01*
X143452763Y-101362325D01*
X143349060Y-101363915D01*
X143252955Y-101365379D01*
X143163701Y-101366728D01*
X143080551Y-101367973D01*
X143002760Y-101369126D01*
X142929582Y-101370196D01*
X142860270Y-101371195D01*
X142794078Y-101372133D01*
X142730260Y-101373022D01*
X142668070Y-101373872D01*
X142606761Y-101374695D01*
X142545588Y-101375500D01*
X142483804Y-101376299D01*
X142420663Y-101377102D01*
X142367000Y-101377777D01*
X142293804Y-101378723D01*
X142218186Y-101379756D01*
X142141639Y-101380853D01*
X142065657Y-101381990D01*
X141991732Y-101383145D01*
X141921357Y-101384292D01*
X141856027Y-101385408D01*
X141797232Y-101386470D01*
X141746468Y-101387454D01*
X141716125Y-101388092D01*
X141656312Y-101389282D01*
X141590038Y-101390385D01*
X141520225Y-101391368D01*
X141449796Y-101392195D01*
X141381675Y-101392831D01*
X141318784Y-101393241D01*
X141272646Y-101393386D01*
X141207628Y-101393618D01*
X141153045Y-101394160D01*
X141108749Y-101395014D01*
X141074597Y-101396187D01*
X141050441Y-101397680D01*
X141036137Y-101399498D01*
X141034903Y-101399782D01*
X141022017Y-101404158D01*
X141009240Y-101411437D01*
X140994477Y-101423141D01*
X140975632Y-101440794D01*
X140967615Y-101448729D01*
X140922565Y-101487661D01*
X140875331Y-101516347D01*
X140825260Y-101535015D01*
X140771698Y-101543893D01*
X140713992Y-101543208D01*
X140700125Y-101541729D01*
X140647525Y-101530231D01*
X140599481Y-101509839D01*
X140556732Y-101481530D01*
X140520016Y-101446281D01*
X140490071Y-101405069D01*
X140467634Y-101358870D01*
X140453446Y-101308662D01*
X140448242Y-101255421D01*
X140448515Y-101251036D01*
X140670110Y-101251036D01*
X140670529Y-101275967D01*
X140678773Y-101297360D01*
X140695938Y-101315793D01*
X140718634Y-101327889D01*
X140743953Y-101333029D01*
X140768984Y-101330597D01*
X140789625Y-101320876D01*
X140807078Y-101302202D01*
X140817867Y-101278372D01*
X140821337Y-101252488D01*
X140816830Y-101227654D01*
X140811616Y-101216979D01*
X140793579Y-101197137D01*
X140770236Y-101184924D01*
X140744246Y-101181082D01*
X140718268Y-101186354D01*
X140712045Y-101189205D01*
X140691702Y-101204945D01*
X140677446Y-101226459D01*
X140670110Y-101251036D01*
X140448515Y-101251036D01*
X140450951Y-101212001D01*
X140459361Y-101170720D01*
X140473628Y-101134173D01*
X140495086Y-101099805D01*
X140525066Y-101065061D01*
X140530336Y-101059704D01*
X140571846Y-101023736D01*
X140615537Y-100997303D01*
X140662341Y-100980137D01*
X140713195Y-100971969D01*
X140769031Y-100972533D01*
X140814144Y-100978420D01*
X140841031Y-100983838D01*
X140864310Y-100990588D01*
X140885531Y-100999699D01*
X140906246Y-101012199D01*
X140928004Y-101029114D01*
X140952358Y-101051474D01*
X140980858Y-101080305D01*
X141002666Y-101103350D01*
X141016811Y-101118458D01*
X141087333Y-101118077D01*
X141130038Y-101117763D01*
X141176946Y-101117271D01*
X141226967Y-101116625D01*
X141279017Y-101115847D01*
X141332006Y-101114961D01*
X141384849Y-101113990D01*
X141436459Y-101112957D01*
X141485748Y-101111886D01*
X141531629Y-101110799D01*
X141573016Y-101109721D01*
X141608822Y-101108674D01*
X141637958Y-101107681D01*
X141659340Y-101106766D01*
X141671878Y-101105952D01*
X141674706Y-101105521D01*
X141684272Y-101097577D01*
X141686962Y-101092914D01*
X141688729Y-101085928D01*
X141692334Y-101069724D01*
X141697536Y-101045456D01*
X141704091Y-101014284D01*
X141711758Y-100977362D01*
X141720293Y-100935849D01*
X141729453Y-100890901D01*
X141732667Y-100875042D01*
X141742568Y-100826504D01*
X141752460Y-100778719D01*
X141762007Y-100733258D01*
X141770875Y-100691693D01*
X141778728Y-100655594D01*
X141785229Y-100626534D01*
X141790044Y-100606082D01*
X141790518Y-100604180D01*
X141794527Y-100586828D01*
X142141165Y-100586828D01*
X142141418Y-100605045D01*
X142145495Y-100616958D01*
X142153011Y-100623567D01*
X142161671Y-100625172D01*
X142179184Y-100626367D01*
X142203827Y-100627168D01*
X142233878Y-100627589D01*
X142267616Y-100627647D01*
X142303317Y-100627357D01*
X142339260Y-100626736D01*
X142373722Y-100625799D01*
X142404982Y-100624561D01*
X142431317Y-100623039D01*
X142451004Y-100621248D01*
X142454313Y-100620814D01*
X142500130Y-100609514D01*
X142540817Y-100589798D01*
X142575308Y-100562422D01*
X142602540Y-100528144D01*
X142613811Y-100507123D01*
X142620437Y-100489479D01*
X142627641Y-100465213D01*
X142634349Y-100438154D01*
X142637670Y-100422256D01*
X142642500Y-100395569D01*
X142645040Y-100376458D01*
X142645442Y-100362197D01*
X142643855Y-100350065D01*
X142642062Y-100342854D01*
X142628991Y-100314504D01*
X142607564Y-100289351D01*
X142579976Y-100269814D01*
X142572282Y-100266049D01*
X142563792Y-100262397D01*
X142555635Y-100259531D01*
X142546447Y-100257356D01*
X142534862Y-100255775D01*
X142519514Y-100254691D01*
X142499038Y-100254007D01*
X142472068Y-100253627D01*
X142437238Y-100253454D01*
X142393459Y-100253392D01*
X142353841Y-100253499D01*
X142317092Y-100253863D01*
X142284713Y-100254448D01*
X142258207Y-100255217D01*
X142239075Y-100256136D01*
X142228819Y-100257168D01*
X142228190Y-100257316D01*
X142219652Y-100260974D01*
X142212488Y-100267560D01*
X142206209Y-100278381D01*
X142200325Y-100294738D01*
X142194346Y-100317936D01*
X142187784Y-100349279D01*
X142181845Y-100380769D01*
X142175239Y-100415750D01*
X142168021Y-100452245D01*
X142160891Y-100486805D01*
X142154555Y-100515985D01*
X142152085Y-100526712D01*
X142144725Y-100561115D01*
X142141165Y-100586828D01*
X141794527Y-100586828D01*
X141797716Y-100573031D01*
X141805213Y-100536370D01*
X141812033Y-100499189D01*
X141816423Y-100471888D01*
X141820347Y-100447953D01*
X141826214Y-100415829D01*
X141833605Y-100377643D01*
X141842097Y-100335520D01*
X141851269Y-100291588D01*
X141860700Y-100247974D01*
X141861415Y-100244731D01*
X141871357Y-100198578D01*
X141880272Y-100154882D01*
X141887859Y-100115268D01*
X141893816Y-100081361D01*
X141897843Y-100054785D01*
X141899492Y-100039599D01*
X141901665Y-100017182D01*
X141904567Y-99998213D01*
X141907708Y-99985602D01*
X141909064Y-99982784D01*
X141911038Y-99981195D01*
X141914946Y-99979814D01*
X141921493Y-99978623D01*
X141931382Y-99977606D01*
X141945319Y-99976749D01*
X141964007Y-99976033D01*
X141988149Y-99975443D01*
X142018452Y-99974964D01*
X142055618Y-99974578D01*
X142100351Y-99974270D01*
X142153356Y-99974023D01*
X142215338Y-99973821D01*
X142286999Y-99973649D01*
X142309110Y-99973604D01*
X142383558Y-99973467D01*
X142448210Y-99973390D01*
X142503854Y-99973387D01*
X142551277Y-99973475D01*
X142591267Y-99973671D01*
X142624610Y-99973991D01*
X142652095Y-99974452D01*
X142674508Y-99975070D01*
X142692638Y-99975861D01*
X142707271Y-99976841D01*
X142719195Y-99978028D01*
X142729197Y-99979438D01*
X142738066Y-99981087D01*
X142745354Y-99982701D01*
X142780586Y-99991832D01*
X142809897Y-100001918D01*
X142836833Y-100014589D01*
X142864937Y-100031477D01*
X142892394Y-100050366D01*
X142924525Y-100075059D01*
X142949082Y-100098629D01*
X142968327Y-100123858D01*
X142984522Y-100153532D01*
X142994082Y-100175530D01*
X143007892Y-100222200D01*
X143014441Y-100274823D01*
X143014006Y-100331924D01*
X143006865Y-100392026D01*
X142993294Y-100453655D01*
X142973572Y-100515335D01*
X142947975Y-100575590D01*
X142916780Y-100632944D01*
X142904532Y-100652148D01*
X142864384Y-100703787D01*
X142815480Y-100751893D01*
X142759372Y-100795326D01*
X142697613Y-100832951D01*
X142631755Y-100863630D01*
X142599971Y-100875278D01*
X142574428Y-100883183D01*
X142548267Y-100889783D01*
X142520035Y-100895261D01*
X142488281Y-100899794D01*
X142451553Y-100903565D01*
X142408398Y-100906752D01*
X142357364Y-100909536D01*
X142305933Y-100911751D01*
X142265471Y-100913348D01*
X142226758Y-100914888D01*
X142191561Y-100916300D01*
X142161651Y-100917512D01*
X142138794Y-100918453D01*
X142124840Y-100919049D01*
X142103333Y-100921274D01*
X142088456Y-100925424D01*
X142084126Y-100928213D01*
X142080499Y-100935983D01*
X142075689Y-100952104D01*
X142070235Y-100974484D01*
X142064675Y-101001032D01*
X142062669Y-101011653D01*
X142057181Y-101042747D01*
X142053822Y-101065068D01*
X142052452Y-101080182D01*
X142052935Y-101089653D01*
X142055131Y-101095048D01*
X142055309Y-101095269D01*
X142057820Y-101096992D01*
X142062786Y-101098422D01*
X142071026Y-101099573D01*
X142083358Y-101100459D01*
X142100601Y-101101095D01*
X142123573Y-101101497D01*
X142153094Y-101101678D01*
X142189982Y-101101654D01*
X142235057Y-101101439D01*
X142289135Y-101101048D01*
X142348030Y-101100541D01*
X142410024Y-101099936D01*
X142475247Y-101099218D01*
X142541702Y-101098413D01*
X142607387Y-101097550D01*
X142670304Y-101096656D01*
X142728453Y-101095757D01*
X142779835Y-101094881D01*
X142818964Y-101094128D01*
X142868800Y-101093046D01*
X142909107Y-101092031D01*
X142940938Y-101091014D01*
X142965346Y-101089928D01*
X142983385Y-101088704D01*
X142996107Y-101087273D01*
X143004567Y-101085568D01*
X143009817Y-101083519D01*
X143012433Y-101081567D01*
X143015572Y-101077653D01*
X143017478Y-101072294D01*
X143018096Y-101063854D01*
X143017372Y-101050697D01*
X143015252Y-101031184D01*
X143011681Y-101003681D01*
X143009256Y-100985843D01*
X143001292Y-100916595D01*
X142997604Y-100853564D01*
X142998371Y-100793785D01*
X143003768Y-100734295D01*
X143013974Y-100672129D01*
X143029164Y-100604323D01*
X143032952Y-100589292D01*
X143048035Y-100534917D01*
X143063949Y-100487635D01*
X143082094Y-100443969D01*
X143103870Y-100400443D01*
X143121676Y-100368787D01*
X143162670Y-100302956D01*
X143204422Y-100245233D01*
X143248800Y-100193201D01*
X143288327Y-100153213D01*
X143317003Y-100126803D01*
X143343755Y-100104336D01*
X143370834Y-100084275D01*
X143400494Y-100065083D01*
X143434986Y-100045222D01*
X143476560Y-100023156D01*
X143485792Y-100018410D01*
X143577263Y-99977123D01*
X143671437Y-99945723D01*
X143713729Y-99934977D01*
X143735479Y-99931445D01*
X143765654Y-99928654D01*
X143802274Y-99926603D01*
X143843361Y-99925293D01*
X143886935Y-99924721D01*
X143931018Y-99924888D01*
X143931018Y-99924888D01*
G37*
X143931018Y-99924888D02*
X143973630Y-99925793D01*
X144012794Y-99927434D01*
X144046529Y-99929811D01*
X144072856Y-99932924D01*
X144084146Y-99935113D01*
X144108059Y-99942056D01*
X144134123Y-99951498D01*
X144161147Y-99962773D01*
X144187943Y-99975215D01*
X144213322Y-99988156D01*
X144236095Y-100000930D01*
X144255073Y-100012870D01*
X144269066Y-100023310D01*
X144276885Y-100031582D01*
X144277342Y-100037020D01*
X144269354Y-100038958D01*
X144262308Y-100041515D01*
X144261417Y-100043684D01*
X144266254Y-100049796D01*
X144279095Y-100053777D01*
X144293051Y-100054833D01*
X144304283Y-100057554D01*
X144316831Y-100066314D01*
X144331558Y-100082014D01*
X144349323Y-100105552D01*
X144367721Y-100132799D01*
X144388266Y-100169598D01*
X144400516Y-100204970D01*
X144401019Y-100207121D01*
X144406492Y-100234404D01*
X144411777Y-100266464D01*
X144416548Y-100300617D01*
X144420481Y-100334180D01*
X144423251Y-100364469D01*
X144424531Y-100388801D01*
X144424410Y-100400163D01*
X144422813Y-100427896D01*
X144369896Y-100431243D01*
X144344268Y-100432535D01*
X144313413Y-100433566D01*
X144278863Y-100434338D01*
X144242152Y-100434851D01*
X144204812Y-100435108D01*
X144168377Y-100435110D01*
X144134378Y-100434859D01*
X144104350Y-100434356D01*
X144079824Y-100433603D01*
X144062335Y-100432601D01*
X144053414Y-100431353D01*
X144052625Y-100430913D01*
X144050530Y-100423578D01*
X144047789Y-100408726D01*
X144044947Y-100389358D01*
X144044544Y-100386233D01*
X144036311Y-100345702D01*
X144021924Y-100311256D01*
X143999841Y-100279458D01*
X143993279Y-100271899D01*
X143965963Y-100246933D01*
X143934717Y-100229316D01*
X143897490Y-100218097D01*
X143867548Y-100213620D01*
X143804054Y-100211472D01*
X143744594Y-100218757D01*
X143688478Y-100235719D01*
X143635016Y-100262604D01*
X143583517Y-100299656D01*
X143556152Y-100324101D01*
X143510147Y-100373041D01*
X143473253Y-100423859D01*
X143444005Y-100478813D01*
X143426020Y-100524640D01*
X143417044Y-100552996D01*
X143407188Y-100587630D01*
X143397200Y-100625547D01*
X143387829Y-100663754D01*
X143379824Y-100699255D01*
X143373935Y-100729055D01*
X143372131Y-100740104D01*
X143367266Y-100789390D01*
X143366723Y-100839026D01*
X143370282Y-100886683D01*
X143377718Y-100930033D01*
X143388810Y-100966746D01*
X143395135Y-100980875D01*
X143409738Y-101001421D01*
X143431849Y-101022699D01*
X143458783Y-101042602D01*
X143487852Y-101059020D01*
X143502993Y-101065509D01*
X143531106Y-101073020D01*
X143567019Y-101077968D01*
X143608277Y-101080400D01*
X143652423Y-101080364D01*
X143697002Y-101077907D01*
X143739557Y-101073077D01*
X143777633Y-101065922D01*
X143799726Y-101059748D01*
X143834836Y-101044044D01*
X143869168Y-101021421D01*
X143898951Y-100994611D01*
X143913068Y-100977652D01*
X143923943Y-100961192D01*
X143937235Y-100938937D01*
X143950756Y-100914618D01*
X143956527Y-100903614D01*
X143972067Y-100875584D01*
X143984879Y-100857502D01*
X143994564Y-100849375D01*
X144003698Y-100847614D01*
X144021632Y-100846138D01*
X144046690Y-100844951D01*
X144077197Y-100844055D01*
X144111477Y-100843453D01*
X144147855Y-100843149D01*
X144184654Y-100843147D01*
X144220201Y-100843448D01*
X144252818Y-100844056D01*
X144280830Y-100844974D01*
X144302563Y-100846205D01*
X144316339Y-100847753D01*
X144319973Y-100848769D01*
X144327266Y-100855197D01*
X144330305Y-100865183D01*
X144328837Y-100879768D01*
X144322612Y-100899997D01*
X144311374Y-100926909D01*
X144294873Y-100961549D01*
X144290521Y-100970291D01*
X144277301Y-100997114D01*
X144265948Y-101020964D01*
X144257255Y-101040107D01*
X144252018Y-101052806D01*
X144250834Y-101056972D01*
X144252747Y-101063018D01*
X144259517Y-101067085D01*
X144272686Y-101069512D01*
X144293796Y-101070638D01*
X144313990Y-101070833D01*
X144354066Y-101070272D01*
X144384745Y-101068465D01*
X144407161Y-101065231D01*
X144422447Y-101060385D01*
X144431736Y-101053745D01*
X144433420Y-101051532D01*
X144436603Y-101043174D01*
X144441445Y-101025902D01*
X144447596Y-101001196D01*
X144454700Y-100970533D01*
X144462407Y-100935390D01*
X144470361Y-100897246D01*
X144470848Y-100894846D01*
X144478494Y-100857105D01*
X144487808Y-100811085D01*
X144498369Y-100758881D01*
X144509751Y-100702591D01*
X144521532Y-100644308D01*
X144533287Y-100586129D01*
X144544593Y-100530149D01*
X144547075Y-100517854D01*
X144556920Y-100469182D01*
X144902496Y-100469182D01*
X144903110Y-100475973D01*
X144905324Y-100479422D01*
X144909193Y-100481319D01*
X144911936Y-100482306D01*
X144920689Y-100483508D01*
X144938338Y-100484348D01*
X144963203Y-100484847D01*
X144993603Y-100485027D01*
X145027858Y-100484908D01*
X145064287Y-100484512D01*
X145101210Y-100483861D01*
X145136947Y-100482975D01*
X145169817Y-100481877D01*
X145198140Y-100480588D01*
X145220235Y-100479129D01*
X145229053Y-100478269D01*
X145277065Y-100468866D01*
X145317073Y-100452636D01*
X145349355Y-100429339D01*
X145374193Y-100398734D01*
X145391865Y-100360579D01*
X145399682Y-100331425D01*
X145402958Y-100298180D01*
X145397552Y-100269682D01*
X145383064Y-100244089D01*
X145379833Y-100240090D01*
X145371955Y-100230999D01*
X145364419Y-100223677D01*
X145356020Y-100217917D01*
X145345549Y-100213514D01*
X145331800Y-100210259D01*
X145313565Y-100207946D01*
X145289636Y-100206367D01*
X145258807Y-100205317D01*
X145219871Y-100204588D01*
X145171619Y-100203973D01*
X145168931Y-100203941D01*
X145127422Y-100203609D01*
X145088591Y-100203594D01*
X145053905Y-100203873D01*
X145024831Y-100204424D01*
X145002834Y-100205224D01*
X144989380Y-100206252D01*
X144986766Y-100206710D01*
X144971290Y-100213741D01*
X144959108Y-100224186D01*
X144958915Y-100224440D01*
X144952341Y-100237138D01*
X144944662Y-100258197D01*
X144936431Y-100285525D01*
X144928201Y-100317030D01*
X144920524Y-100350621D01*
X144913951Y-100384206D01*
X144909689Y-100410880D01*
X144905842Y-100438423D01*
X144903425Y-100457261D01*
X144902496Y-100469182D01*
X144556920Y-100469182D01*
X144557760Y-100465030D01*
X144568621Y-100411527D01*
X144579304Y-100359073D01*
X144589456Y-100309395D01*
X144598724Y-100264218D01*
X144606754Y-100225272D01*
X144613194Y-100194281D01*
X144615250Y-100184479D01*
X144622550Y-100148224D01*
X144629506Y-100110791D01*
X144635594Y-100075217D01*
X144640290Y-100044539D01*
X144642664Y-100025818D01*
X144646329Y-99994530D01*
X144649849Y-99972116D01*
X144653705Y-99956882D01*
X144658380Y-99947138D01*
X144664358Y-99941190D01*
X144667299Y-99939456D01*
X144674218Y-99938502D01*
X144690785Y-99937492D01*
X144716064Y-99936452D01*
X144749121Y-99935405D01*
X144789021Y-99934375D01*
X144834827Y-99933388D01*
X144885606Y-99932467D01*
X144940421Y-99931637D01*
X144990895Y-99931005D01*
X145057984Y-99930256D01*
X145115266Y-99929673D01*
X145163516Y-99929299D01*
X145203507Y-99929176D01*
X145236016Y-99929349D01*
X145261818Y-99929861D01*
X145281687Y-99930754D01*
X145296398Y-99932073D01*
X145306726Y-99933859D01*
X145313447Y-99936157D01*
X145317336Y-99939009D01*
X145319166Y-99942459D01*
X145319715Y-99946550D01*
X145319750Y-99949335D01*
X145321859Y-99959792D01*
X145327397Y-99961037D01*
X145335177Y-99953385D01*
X145340902Y-99943737D01*
X145348594Y-99930582D01*
X145354756Y-99925744D01*
X145360600Y-99927108D01*
X145369873Y-99929110D01*
X145386373Y-99929922D01*
X145406793Y-99929404D01*
X145410155Y-99929192D01*
X145445601Y-99929236D01*
X145486493Y-99933240D01*
X145528746Y-99940566D01*
X145568275Y-99950574D01*
X145587049Y-99956868D01*
X145632164Y-99975743D01*
X145668574Y-99995973D01*
X145698153Y-100019074D01*
X145722777Y-100046564D01*
X145744323Y-100079959D01*
X145748331Y-100087298D01*
X145758120Y-100107367D01*
X145763995Y-100125091D01*
X145767192Y-100145182D01*
X145768562Y-100164359D01*
X145767320Y-100223843D01*
X145758027Y-100284205D01*
X145742864Y-100336755D01*
X145727303Y-100372022D01*
X145706262Y-100409374D01*
X145681999Y-100445332D01*
X145656773Y-100476413D01*
X145643293Y-100490181D01*
X145619349Y-100510351D01*
X145590061Y-100531725D01*
X145559129Y-100551823D01*
X145530257Y-100568166D01*
X145518206Y-100573954D01*
X145502302Y-100581683D01*
X145493094Y-100588634D01*
X145491081Y-100595779D01*
X145496765Y-100604087D01*
X145510645Y-100614529D01*
X145533221Y-100628076D01*
X145551326Y-100638196D01*
X145583339Y-100656661D01*
X145607561Y-100673043D01*
X145625962Y-100689347D01*
X145640515Y-100707575D01*
X145653191Y-100729731D01*
X145663573Y-100752248D01*
X145674541Y-100778350D01*
X145681200Y-100796994D01*
X145683840Y-100810253D01*
X145682751Y-100820198D01*
X145678225Y-100828903D01*
X145674926Y-100833239D01*
X145664976Y-100845526D01*
X145494151Y-100845732D01*
X145323326Y-100845937D01*
X145318217Y-100830062D01*
X145304189Y-100802639D01*
X145282393Y-100779843D01*
X145262116Y-100767383D01*
X145255055Y-100764386D01*
X145247545Y-100761958D01*
X145238398Y-100760024D01*
X145226428Y-100758508D01*
X145210448Y-100757336D01*
X145189273Y-100756432D01*
X145161714Y-100755722D01*
X145126587Y-100755131D01*
X145082703Y-100754583D01*
X145054948Y-100754279D01*
X144872167Y-100752325D01*
X144849395Y-100771350D01*
X144830795Y-100784455D01*
X144814515Y-100789967D01*
X144808341Y-100790375D01*
X144784475Y-100794172D01*
X144765186Y-100804531D01*
X144752459Y-100819902D01*
X144748250Y-100837295D01*
X144749543Y-100844084D01*
X144754816Y-100848810D01*
X144766162Y-100852463D01*
X144785672Y-100856032D01*
X144788956Y-100856548D01*
X144808430Y-100861746D01*
X144818684Y-100870547D01*
X144820805Y-100884155D01*
X144819749Y-100890635D01*
X144810650Y-100909728D01*
X144793664Y-100922295D01*
X144769656Y-100927764D01*
X144763412Y-100927958D01*
X144740297Y-100931293D01*
X144724515Y-100940847D01*
X144717004Y-100955940D01*
X144716500Y-100961970D01*
X144721233Y-100975612D01*
X144733277Y-100987574D01*
X144749397Y-100995264D01*
X144759895Y-100996750D01*
X144779436Y-100999167D01*
X144790820Y-101007349D01*
X144795528Y-101022694D01*
X144795875Y-101030684D01*
X144797830Y-101048411D01*
X144803085Y-101059579D01*
X144803792Y-101060233D01*
X144808443Y-101062116D01*
X144817860Y-101063486D01*
X144832987Y-101064359D01*
X144854770Y-101064748D01*
X144884157Y-101064670D01*
X144922092Y-101064140D01*
X144969521Y-101063172D01*
X144977094Y-101062999D01*
X145029680Y-101061694D01*
X145072910Y-101060346D01*
X145108013Y-101058827D01*
X145136216Y-101057012D01*
X145158747Y-101054771D01*
X145176834Y-101051979D01*
X145191703Y-101048507D01*
X145204584Y-101044228D01*
X145216704Y-101039015D01*
X145219024Y-101037908D01*
X145242458Y-101023215D01*
X145266060Y-101002793D01*
X145286739Y-100979750D01*
X145301401Y-100957199D01*
X145303292Y-100953131D01*
X145310708Y-100938166D01*
X145317977Y-100927088D01*
X145320350Y-100924636D01*
X145328105Y-100922706D01*
X145346198Y-100920899D01*
X145374384Y-100919227D01*
X145412417Y-100917701D01*
X145460052Y-100916335D01*
X145500990Y-100915442D01*
X145674292Y-100912066D01*
X145674292Y-100944214D01*
X145670422Y-100980101D01*
X145659592Y-101020439D01*
X145642974Y-101062903D01*
X145621739Y-101105170D01*
X145597057Y-101144915D01*
X145570099Y-101179815D01*
X145542037Y-101207544D01*
X145541328Y-101208127D01*
X145489418Y-101244804D01*
X145430485Y-101276223D01*
X145367263Y-101301220D01*
X145302489Y-101318630D01*
X145267951Y-101324451D01*
X145247083Y-101326512D01*
X145215969Y-101328580D01*
X145174943Y-101330648D01*
X145124341Y-101332705D01*
X145064500Y-101334742D01*
X144995756Y-101336748D01*
X144918443Y-101338715D01*
X144832899Y-101340633D01*
X144739460Y-101342492D01*
X144638460Y-101344282D01*
X144530237Y-101345994D01*
X144504834Y-101346368D01*
X144431193Y-101347446D01*
X144351242Y-101348626D01*
X144267173Y-101349874D01*
X144181180Y-101351159D01*
X144095459Y-101352447D01*
X144012202Y-101353705D01*
X143933605Y-101354900D01*
X143861860Y-101356000D01*
X143816917Y-101356695D01*
X143685945Y-101358726D01*
X143564809Y-101360599D01*
X143452763Y-101362325D01*
X143349060Y-101363915D01*
X143252955Y-101365379D01*
X143163701Y-101366728D01*
X143080551Y-101367973D01*
X143002760Y-101369126D01*
X142929582Y-101370196D01*
X142860270Y-101371195D01*
X142794078Y-101372133D01*
X142730260Y-101373022D01*
X142668070Y-101373872D01*
X142606761Y-101374695D01*
X142545588Y-101375500D01*
X142483804Y-101376299D01*
X142420663Y-101377102D01*
X142367000Y-101377777D01*
X142293804Y-101378723D01*
X142218186Y-101379756D01*
X142141639Y-101380853D01*
X142065657Y-101381990D01*
X141991732Y-101383145D01*
X141921357Y-101384292D01*
X141856027Y-101385408D01*
X141797232Y-101386470D01*
X141746468Y-101387454D01*
X141716125Y-101388092D01*
X141656312Y-101389282D01*
X141590038Y-101390385D01*
X141520225Y-101391368D01*
X141449796Y-101392195D01*
X141381675Y-101392831D01*
X141318784Y-101393241D01*
X141272646Y-101393386D01*
X141207628Y-101393618D01*
X141153045Y-101394160D01*
X141108749Y-101395014D01*
X141074597Y-101396187D01*
X141050441Y-101397680D01*
X141036137Y-101399498D01*
X141034903Y-101399782D01*
X141022017Y-101404158D01*
X141009240Y-101411437D01*
X140994477Y-101423141D01*
X140975632Y-101440794D01*
X140967615Y-101448729D01*
X140922565Y-101487661D01*
X140875331Y-101516347D01*
X140825260Y-101535015D01*
X140771698Y-101543893D01*
X140713992Y-101543208D01*
X140700125Y-101541729D01*
X140647525Y-101530231D01*
X140599481Y-101509839D01*
X140556732Y-101481530D01*
X140520016Y-101446281D01*
X140490071Y-101405069D01*
X140467634Y-101358870D01*
X140453446Y-101308662D01*
X140448242Y-101255421D01*
X140448515Y-101251036D01*
X140670110Y-101251036D01*
X140670529Y-101275967D01*
X140678773Y-101297360D01*
X140695938Y-101315793D01*
X140718634Y-101327889D01*
X140743953Y-101333029D01*
X140768984Y-101330597D01*
X140789625Y-101320876D01*
X140807078Y-101302202D01*
X140817867Y-101278372D01*
X140821337Y-101252488D01*
X140816830Y-101227654D01*
X140811616Y-101216979D01*
X140793579Y-101197137D01*
X140770236Y-101184924D01*
X140744246Y-101181082D01*
X140718268Y-101186354D01*
X140712045Y-101189205D01*
X140691702Y-101204945D01*
X140677446Y-101226459D01*
X140670110Y-101251036D01*
X140448515Y-101251036D01*
X140450951Y-101212001D01*
X140459361Y-101170720D01*
X140473628Y-101134173D01*
X140495086Y-101099805D01*
X140525066Y-101065061D01*
X140530336Y-101059704D01*
X140571846Y-101023736D01*
X140615537Y-100997303D01*
X140662341Y-100980137D01*
X140713195Y-100971969D01*
X140769031Y-100972533D01*
X140814144Y-100978420D01*
X140841031Y-100983838D01*
X140864310Y-100990588D01*
X140885531Y-100999699D01*
X140906246Y-101012199D01*
X140928004Y-101029114D01*
X140952358Y-101051474D01*
X140980858Y-101080305D01*
X141002666Y-101103350D01*
X141016811Y-101118458D01*
X141087333Y-101118077D01*
X141130038Y-101117763D01*
X141176946Y-101117271D01*
X141226967Y-101116625D01*
X141279017Y-101115847D01*
X141332006Y-101114961D01*
X141384849Y-101113990D01*
X141436459Y-101112957D01*
X141485748Y-101111886D01*
X141531629Y-101110799D01*
X141573016Y-101109721D01*
X141608822Y-101108674D01*
X141637958Y-101107681D01*
X141659340Y-101106766D01*
X141671878Y-101105952D01*
X141674706Y-101105521D01*
X141684272Y-101097577D01*
X141686962Y-101092914D01*
X141688729Y-101085928D01*
X141692334Y-101069724D01*
X141697536Y-101045456D01*
X141704091Y-101014284D01*
X141711758Y-100977362D01*
X141720293Y-100935849D01*
X141729453Y-100890901D01*
X141732667Y-100875042D01*
X141742568Y-100826504D01*
X141752460Y-100778719D01*
X141762007Y-100733258D01*
X141770875Y-100691693D01*
X141778728Y-100655594D01*
X141785229Y-100626534D01*
X141790044Y-100606082D01*
X141790518Y-100604180D01*
X141794527Y-100586828D01*
X142141165Y-100586828D01*
X142141418Y-100605045D01*
X142145495Y-100616958D01*
X142153011Y-100623567D01*
X142161671Y-100625172D01*
X142179184Y-100626367D01*
X142203827Y-100627168D01*
X142233878Y-100627589D01*
X142267616Y-100627647D01*
X142303317Y-100627357D01*
X142339260Y-100626736D01*
X142373722Y-100625799D01*
X142404982Y-100624561D01*
X142431317Y-100623039D01*
X142451004Y-100621248D01*
X142454313Y-100620814D01*
X142500130Y-100609514D01*
X142540817Y-100589798D01*
X142575308Y-100562422D01*
X142602540Y-100528144D01*
X142613811Y-100507123D01*
X142620437Y-100489479D01*
X142627641Y-100465213D01*
X142634349Y-100438154D01*
X142637670Y-100422256D01*
X142642500Y-100395569D01*
X142645040Y-100376458D01*
X142645442Y-100362197D01*
X142643855Y-100350065D01*
X142642062Y-100342854D01*
X142628991Y-100314504D01*
X142607564Y-100289351D01*
X142579976Y-100269814D01*
X142572282Y-100266049D01*
X142563792Y-100262397D01*
X142555635Y-100259531D01*
X142546447Y-100257356D01*
X142534862Y-100255775D01*
X142519514Y-100254691D01*
X142499038Y-100254007D01*
X142472068Y-100253627D01*
X142437238Y-100253454D01*
X142393459Y-100253392D01*
X142353841Y-100253499D01*
X142317092Y-100253863D01*
X142284713Y-100254448D01*
X142258207Y-100255217D01*
X142239075Y-100256136D01*
X142228819Y-100257168D01*
X142228190Y-100257316D01*
X142219652Y-100260974D01*
X142212488Y-100267560D01*
X142206209Y-100278381D01*
X142200325Y-100294738D01*
X142194346Y-100317936D01*
X142187784Y-100349279D01*
X142181845Y-100380769D01*
X142175239Y-100415750D01*
X142168021Y-100452245D01*
X142160891Y-100486805D01*
X142154555Y-100515985D01*
X142152085Y-100526712D01*
X142144725Y-100561115D01*
X142141165Y-100586828D01*
X141794527Y-100586828D01*
X141797716Y-100573031D01*
X141805213Y-100536370D01*
X141812033Y-100499189D01*
X141816423Y-100471888D01*
X141820347Y-100447953D01*
X141826214Y-100415829D01*
X141833605Y-100377643D01*
X141842097Y-100335520D01*
X141851269Y-100291588D01*
X141860700Y-100247974D01*
X141861415Y-100244731D01*
X141871357Y-100198578D01*
X141880272Y-100154882D01*
X141887859Y-100115268D01*
X141893816Y-100081361D01*
X141897843Y-100054785D01*
X141899492Y-100039599D01*
X141901665Y-100017182D01*
X141904567Y-99998213D01*
X141907708Y-99985602D01*
X141909064Y-99982784D01*
X141911038Y-99981195D01*
X141914946Y-99979814D01*
X141921493Y-99978623D01*
X141931382Y-99977606D01*
X141945319Y-99976749D01*
X141964007Y-99976033D01*
X141988149Y-99975443D01*
X142018452Y-99974964D01*
X142055618Y-99974578D01*
X142100351Y-99974270D01*
X142153356Y-99974023D01*
X142215338Y-99973821D01*
X142286999Y-99973649D01*
X142309110Y-99973604D01*
X142383558Y-99973467D01*
X142448210Y-99973390D01*
X142503854Y-99973387D01*
X142551277Y-99973475D01*
X142591267Y-99973671D01*
X142624610Y-99973991D01*
X142652095Y-99974452D01*
X142674508Y-99975070D01*
X142692638Y-99975861D01*
X142707271Y-99976841D01*
X142719195Y-99978028D01*
X142729197Y-99979438D01*
X142738066Y-99981087D01*
X142745354Y-99982701D01*
X142780586Y-99991832D01*
X142809897Y-100001918D01*
X142836833Y-100014589D01*
X142864937Y-100031477D01*
X142892394Y-100050366D01*
X142924525Y-100075059D01*
X142949082Y-100098629D01*
X142968327Y-100123858D01*
X142984522Y-100153532D01*
X142994082Y-100175530D01*
X143007892Y-100222200D01*
X143014441Y-100274823D01*
X143014006Y-100331924D01*
X143006865Y-100392026D01*
X142993294Y-100453655D01*
X142973572Y-100515335D01*
X142947975Y-100575590D01*
X142916780Y-100632944D01*
X142904532Y-100652148D01*
X142864384Y-100703787D01*
X142815480Y-100751893D01*
X142759372Y-100795326D01*
X142697613Y-100832951D01*
X142631755Y-100863630D01*
X142599971Y-100875278D01*
X142574428Y-100883183D01*
X142548267Y-100889783D01*
X142520035Y-100895261D01*
X142488281Y-100899794D01*
X142451553Y-100903565D01*
X142408398Y-100906752D01*
X142357364Y-100909536D01*
X142305933Y-100911751D01*
X142265471Y-100913348D01*
X142226758Y-100914888D01*
X142191561Y-100916300D01*
X142161651Y-100917512D01*
X142138794Y-100918453D01*
X142124840Y-100919049D01*
X142103333Y-100921274D01*
X142088456Y-100925424D01*
X142084126Y-100928213D01*
X142080499Y-100935983D01*
X142075689Y-100952104D01*
X142070235Y-100974484D01*
X142064675Y-101001032D01*
X142062669Y-101011653D01*
X142057181Y-101042747D01*
X142053822Y-101065068D01*
X142052452Y-101080182D01*
X142052935Y-101089653D01*
X142055131Y-101095048D01*
X142055309Y-101095269D01*
X142057820Y-101096992D01*
X142062786Y-101098422D01*
X142071026Y-101099573D01*
X142083358Y-101100459D01*
X142100601Y-101101095D01*
X142123573Y-101101497D01*
X142153094Y-101101678D01*
X142189982Y-101101654D01*
X142235057Y-101101439D01*
X142289135Y-101101048D01*
X142348030Y-101100541D01*
X142410024Y-101099936D01*
X142475247Y-101099218D01*
X142541702Y-101098413D01*
X142607387Y-101097550D01*
X142670304Y-101096656D01*
X142728453Y-101095757D01*
X142779835Y-101094881D01*
X142818964Y-101094128D01*
X142868800Y-101093046D01*
X142909107Y-101092031D01*
X142940938Y-101091014D01*
X142965346Y-101089928D01*
X142983385Y-101088704D01*
X142996107Y-101087273D01*
X143004567Y-101085568D01*
X143009817Y-101083519D01*
X143012433Y-101081567D01*
X143015572Y-101077653D01*
X143017478Y-101072294D01*
X143018096Y-101063854D01*
X143017372Y-101050697D01*
X143015252Y-101031184D01*
X143011681Y-101003681D01*
X143009256Y-100985843D01*
X143001292Y-100916595D01*
X142997604Y-100853564D01*
X142998371Y-100793785D01*
X143003768Y-100734295D01*
X143013974Y-100672129D01*
X143029164Y-100604323D01*
X143032952Y-100589292D01*
X143048035Y-100534917D01*
X143063949Y-100487635D01*
X143082094Y-100443969D01*
X143103870Y-100400443D01*
X143121676Y-100368787D01*
X143162670Y-100302956D01*
X143204422Y-100245233D01*
X143248800Y-100193201D01*
X143288327Y-100153213D01*
X143317003Y-100126803D01*
X143343755Y-100104336D01*
X143370834Y-100084275D01*
X143400494Y-100065083D01*
X143434986Y-100045222D01*
X143476560Y-100023156D01*
X143485792Y-100018410D01*
X143577263Y-99977123D01*
X143671437Y-99945723D01*
X143713729Y-99934977D01*
X143735479Y-99931445D01*
X143765654Y-99928654D01*
X143802274Y-99926603D01*
X143843361Y-99925293D01*
X143886935Y-99924721D01*
X143931018Y-99924888D01*
G36*
X148139347Y-100843789D02*
G01*
X148151956Y-100844450D01*
X148159989Y-100845521D01*
X148164449Y-100847030D01*
X148166337Y-100849004D01*
X148166667Y-100850927D01*
X148164742Y-100866424D01*
X148159587Y-100888622D01*
X148152128Y-100914488D01*
X148143295Y-100940992D01*
X148134015Y-100965101D01*
X148127074Y-100980274D01*
X148117543Y-100997947D01*
X148103993Y-101021714D01*
X148088078Y-101048736D01*
X148071451Y-101076172D01*
X148067839Y-101082017D01*
X148048977Y-101111615D01*
X148032917Y-101134525D01*
X148017499Y-101153409D01*
X148000562Y-101170928D01*
X147981459Y-101188411D01*
X147942338Y-101220641D01*
X147899022Y-101252456D01*
X147853840Y-101282386D01*
X147809123Y-101308959D01*
X147767203Y-101330705D01*
X147732750Y-101345316D01*
X147707378Y-101354032D01*
X147683892Y-101360748D01*
X147659046Y-101366193D01*
X147629591Y-101371096D01*
X147599285Y-101375282D01*
X147573244Y-101378736D01*
X147549247Y-101382019D01*
X147530336Y-101384710D01*
X147521069Y-101386127D01*
X147507858Y-101387304D01*
X147499686Y-101386192D01*
X147499168Y-101385820D01*
X147493001Y-101384011D01*
X147478232Y-101381250D01*
X147456765Y-101377851D01*
X147430506Y-101374125D01*
X147415820Y-101372190D01*
X147384135Y-101367966D01*
X147359928Y-101364089D01*
X147340163Y-101359727D01*
X147321799Y-101354044D01*
X147301799Y-101346206D01*
X147277126Y-101335379D01*
X147269904Y-101332123D01*
X147241862Y-101319147D01*
X147220845Y-101308360D01*
X147204088Y-101297936D01*
X147188825Y-101286047D01*
X147172288Y-101270866D01*
X147162146Y-101260944D01*
X147125599Y-101221583D01*
X147097424Y-101184261D01*
X147077990Y-101149592D01*
X147067667Y-101118188D01*
X147066000Y-101101477D01*
X147064685Y-101089026D01*
X147061195Y-101070005D01*
X147056216Y-101048030D01*
X147054848Y-101042611D01*
X147049609Y-101019923D01*
X147046575Y-100999288D01*
X147045433Y-100976899D01*
X147045865Y-100948948D01*
X147046257Y-100938855D01*
X147047605Y-100912050D01*
X147049228Y-100893769D01*
X147051522Y-100881956D01*
X147054882Y-100874552D01*
X147059575Y-100869603D01*
X147063731Y-100867168D01*
X147070335Y-100865151D01*
X147080478Y-100863480D01*
X147095252Y-100862084D01*
X147115748Y-100860890D01*
X147143056Y-100859827D01*
X147178269Y-100858822D01*
X147222477Y-100857803D01*
X147245834Y-100857316D01*
X147287967Y-100856540D01*
X147326732Y-100855985D01*
X147360859Y-100855655D01*
X147389076Y-100855557D01*
X147410112Y-100855697D01*
X147422695Y-100856081D01*
X147425768Y-100856480D01*
X147429255Y-100862451D01*
X147434822Y-100876094D01*
X147441500Y-100894947D01*
X147444556Y-100904303D01*
X147454507Y-100932893D01*
X147464274Y-100953501D01*
X147475621Y-100968549D01*
X147490311Y-100980457D01*
X147507053Y-100990080D01*
X147539235Y-101001650D01*
X147573865Y-101003887D01*
X147611919Y-100996781D01*
X147634854Y-100988811D01*
X147664362Y-100973799D01*
X147692329Y-100953673D01*
X147716059Y-100930762D01*
X147732858Y-100907392D01*
X147735639Y-100901794D01*
X147744977Y-100881435D01*
X147751750Y-100868608D01*
X147757455Y-100861071D01*
X147763586Y-100856581D01*
X147766860Y-100854968D01*
X147774933Y-100853565D01*
X147792463Y-100852094D01*
X147818325Y-100850607D01*
X147851392Y-100849155D01*
X147890539Y-100847787D01*
X147934642Y-100846555D01*
X147972654Y-100845703D01*
X148023149Y-100844714D01*
X148064066Y-100844002D01*
X148096403Y-100843592D01*
X148121164Y-100843512D01*
X148139347Y-100843789D01*
X148139347Y-100843789D01*
G37*
X148139347Y-100843789D02*
X148151956Y-100844450D01*
X148159989Y-100845521D01*
X148164449Y-100847030D01*
X148166337Y-100849004D01*
X148166667Y-100850927D01*
X148164742Y-100866424D01*
X148159587Y-100888622D01*
X148152128Y-100914488D01*
X148143295Y-100940992D01*
X148134015Y-100965101D01*
X148127074Y-100980274D01*
X148117543Y-100997947D01*
X148103993Y-101021714D01*
X148088078Y-101048736D01*
X148071451Y-101076172D01*
X148067839Y-101082017D01*
X148048977Y-101111615D01*
X148032917Y-101134525D01*
X148017499Y-101153409D01*
X148000562Y-101170928D01*
X147981459Y-101188411D01*
X147942338Y-101220641D01*
X147899022Y-101252456D01*
X147853840Y-101282386D01*
X147809123Y-101308959D01*
X147767203Y-101330705D01*
X147732750Y-101345316D01*
X147707378Y-101354032D01*
X147683892Y-101360748D01*
X147659046Y-101366193D01*
X147629591Y-101371096D01*
X147599285Y-101375282D01*
X147573244Y-101378736D01*
X147549247Y-101382019D01*
X147530336Y-101384710D01*
X147521069Y-101386127D01*
X147507858Y-101387304D01*
X147499686Y-101386192D01*
X147499168Y-101385820D01*
X147493001Y-101384011D01*
X147478232Y-101381250D01*
X147456765Y-101377851D01*
X147430506Y-101374125D01*
X147415820Y-101372190D01*
X147384135Y-101367966D01*
X147359928Y-101364089D01*
X147340163Y-101359727D01*
X147321799Y-101354044D01*
X147301799Y-101346206D01*
X147277126Y-101335379D01*
X147269904Y-101332123D01*
X147241862Y-101319147D01*
X147220845Y-101308360D01*
X147204088Y-101297936D01*
X147188825Y-101286047D01*
X147172288Y-101270866D01*
X147162146Y-101260944D01*
X147125599Y-101221583D01*
X147097424Y-101184261D01*
X147077990Y-101149592D01*
X147067667Y-101118188D01*
X147066000Y-101101477D01*
X147064685Y-101089026D01*
X147061195Y-101070005D01*
X147056216Y-101048030D01*
X147054848Y-101042611D01*
X147049609Y-101019923D01*
X147046575Y-100999288D01*
X147045433Y-100976899D01*
X147045865Y-100948948D01*
X147046257Y-100938855D01*
X147047605Y-100912050D01*
X147049228Y-100893769D01*
X147051522Y-100881956D01*
X147054882Y-100874552D01*
X147059575Y-100869603D01*
X147063731Y-100867168D01*
X147070335Y-100865151D01*
X147080478Y-100863480D01*
X147095252Y-100862084D01*
X147115748Y-100860890D01*
X147143056Y-100859827D01*
X147178269Y-100858822D01*
X147222477Y-100857803D01*
X147245834Y-100857316D01*
X147287967Y-100856540D01*
X147326732Y-100855985D01*
X147360859Y-100855655D01*
X147389076Y-100855557D01*
X147410112Y-100855697D01*
X147422695Y-100856081D01*
X147425768Y-100856480D01*
X147429255Y-100862451D01*
X147434822Y-100876094D01*
X147441500Y-100894947D01*
X147444556Y-100904303D01*
X147454507Y-100932893D01*
X147464274Y-100953501D01*
X147475621Y-100968549D01*
X147490311Y-100980457D01*
X147507053Y-100990080D01*
X147539235Y-101001650D01*
X147573865Y-101003887D01*
X147611919Y-100996781D01*
X147634854Y-100988811D01*
X147664362Y-100973799D01*
X147692329Y-100953673D01*
X147716059Y-100930762D01*
X147732858Y-100907392D01*
X147735639Y-100901794D01*
X147744977Y-100881435D01*
X147751750Y-100868608D01*
X147757455Y-100861071D01*
X147763586Y-100856581D01*
X147766860Y-100854968D01*
X147774933Y-100853565D01*
X147792463Y-100852094D01*
X147818325Y-100850607D01*
X147851392Y-100849155D01*
X147890539Y-100847787D01*
X147934642Y-100846555D01*
X147972654Y-100845703D01*
X148023149Y-100844714D01*
X148064066Y-100844002D01*
X148096403Y-100843592D01*
X148121164Y-100843512D01*
X148139347Y-100843789D01*
G36*
X150662271Y-100809337D02*
G01*
X150669066Y-100809862D01*
X150679533Y-100816308D01*
X150683097Y-100828981D01*
X150679962Y-100848859D01*
X150678420Y-100854212D01*
X150671720Y-100874137D01*
X150663378Y-100896060D01*
X150654372Y-100917748D01*
X150645683Y-100936972D01*
X150638290Y-100951499D01*
X150633173Y-100959098D01*
X150632090Y-100959708D01*
X150627720Y-100963947D01*
X150627292Y-100966913D01*
X150624094Y-100979088D01*
X150615216Y-100997739D01*
X150601732Y-101021196D01*
X150584716Y-101047787D01*
X150565242Y-101075840D01*
X150544383Y-101103685D01*
X150523214Y-101129649D01*
X150521335Y-101131830D01*
X150495614Y-101158299D01*
X150463769Y-101186044D01*
X150428063Y-101213497D01*
X150390760Y-101239089D01*
X150354125Y-101261252D01*
X150320422Y-101278416D01*
X150296291Y-101287745D01*
X150274854Y-101294642D01*
X150254735Y-101301579D01*
X150241000Y-101306772D01*
X150226432Y-101311613D01*
X150205803Y-101317022D01*
X150183497Y-101321854D01*
X150182792Y-101321989D01*
X150156994Y-101327133D01*
X150129382Y-101333005D01*
X150108709Y-101337689D01*
X150089889Y-101341768D01*
X150074507Y-101344417D01*
X150066375Y-101345057D01*
X150058494Y-101344533D01*
X150042119Y-101343618D01*
X150019328Y-101342422D01*
X149992198Y-101341056D01*
X149979063Y-101340412D01*
X149921565Y-101335941D01*
X149871932Y-101328073D01*
X149827778Y-101316054D01*
X149786720Y-101299129D01*
X149746374Y-101276545D01*
X149718866Y-101258094D01*
X149697680Y-101240248D01*
X149674088Y-101215835D01*
X149650480Y-101187723D01*
X149629245Y-101158780D01*
X149612772Y-101131873D01*
X149611198Y-101128858D01*
X149594639Y-101088257D01*
X149581962Y-101039796D01*
X149573647Y-100985635D01*
X149570721Y-100946479D01*
X149569659Y-100909685D01*
X149570321Y-100881811D01*
X149572973Y-100861296D01*
X149577884Y-100846578D01*
X149585321Y-100836095D01*
X149590364Y-100831733D01*
X149595005Y-100828908D01*
X149601361Y-100826621D01*
X149610639Y-100824779D01*
X149624042Y-100823288D01*
X149642779Y-100822055D01*
X149668053Y-100820987D01*
X149701070Y-100819990D01*
X149743036Y-100818972D01*
X149760303Y-100818588D01*
X149809291Y-100817561D01*
X149848812Y-100816982D01*
X149879979Y-100817044D01*
X149903907Y-100817941D01*
X149921707Y-100819867D01*
X149934495Y-100823017D01*
X149943382Y-100827584D01*
X149949483Y-100833763D01*
X149953911Y-100841748D01*
X149957780Y-100851733D01*
X149958268Y-100853099D01*
X149972235Y-100888676D01*
X149986234Y-100917601D01*
X149999603Y-100938688D01*
X150011682Y-100950752D01*
X150013306Y-100951692D01*
X150026259Y-100956484D01*
X150045435Y-100961419D01*
X150065387Y-100965206D01*
X150098349Y-100967922D01*
X150127575Y-100964302D01*
X150157543Y-100953600D01*
X150169297Y-100947911D01*
X150191695Y-100933309D01*
X150215845Y-100912485D01*
X150238700Y-100888525D01*
X150257214Y-100864514D01*
X150265350Y-100850604D01*
X150274309Y-100834892D01*
X150283194Y-100823451D01*
X150288463Y-100819531D01*
X150296311Y-100818570D01*
X150313220Y-100817496D01*
X150337670Y-100816350D01*
X150368139Y-100815168D01*
X150403106Y-100813990D01*
X150441051Y-100812855D01*
X150480452Y-100811800D01*
X150519789Y-100810865D01*
X150557540Y-100810088D01*
X150592185Y-100809508D01*
X150622202Y-100809164D01*
X150646071Y-100809094D01*
X150662271Y-100809337D01*
X150662271Y-100809337D01*
G37*
X150662271Y-100809337D02*
X150669066Y-100809862D01*
X150679533Y-100816308D01*
X150683097Y-100828981D01*
X150679962Y-100848859D01*
X150678420Y-100854212D01*
X150671720Y-100874137D01*
X150663378Y-100896060D01*
X150654372Y-100917748D01*
X150645683Y-100936972D01*
X150638290Y-100951499D01*
X150633173Y-100959098D01*
X150632090Y-100959708D01*
X150627720Y-100963947D01*
X150627292Y-100966913D01*
X150624094Y-100979088D01*
X150615216Y-100997739D01*
X150601732Y-101021196D01*
X150584716Y-101047787D01*
X150565242Y-101075840D01*
X150544383Y-101103685D01*
X150523214Y-101129649D01*
X150521335Y-101131830D01*
X150495614Y-101158299D01*
X150463769Y-101186044D01*
X150428063Y-101213497D01*
X150390760Y-101239089D01*
X150354125Y-101261252D01*
X150320422Y-101278416D01*
X150296291Y-101287745D01*
X150274854Y-101294642D01*
X150254735Y-101301579D01*
X150241000Y-101306772D01*
X150226432Y-101311613D01*
X150205803Y-101317022D01*
X150183497Y-101321854D01*
X150182792Y-101321989D01*
X150156994Y-101327133D01*
X150129382Y-101333005D01*
X150108709Y-101337689D01*
X150089889Y-101341768D01*
X150074507Y-101344417D01*
X150066375Y-101345057D01*
X150058494Y-101344533D01*
X150042119Y-101343618D01*
X150019328Y-101342422D01*
X149992198Y-101341056D01*
X149979063Y-101340412D01*
X149921565Y-101335941D01*
X149871932Y-101328073D01*
X149827778Y-101316054D01*
X149786720Y-101299129D01*
X149746374Y-101276545D01*
X149718866Y-101258094D01*
X149697680Y-101240248D01*
X149674088Y-101215835D01*
X149650480Y-101187723D01*
X149629245Y-101158780D01*
X149612772Y-101131873D01*
X149611198Y-101128858D01*
X149594639Y-101088257D01*
X149581962Y-101039796D01*
X149573647Y-100985635D01*
X149570721Y-100946479D01*
X149569659Y-100909685D01*
X149570321Y-100881811D01*
X149572973Y-100861296D01*
X149577884Y-100846578D01*
X149585321Y-100836095D01*
X149590364Y-100831733D01*
X149595005Y-100828908D01*
X149601361Y-100826621D01*
X149610639Y-100824779D01*
X149624042Y-100823288D01*
X149642779Y-100822055D01*
X149668053Y-100820987D01*
X149701070Y-100819990D01*
X149743036Y-100818972D01*
X149760303Y-100818588D01*
X149809291Y-100817561D01*
X149848812Y-100816982D01*
X149879979Y-100817044D01*
X149903907Y-100817941D01*
X149921707Y-100819867D01*
X149934495Y-100823017D01*
X149943382Y-100827584D01*
X149949483Y-100833763D01*
X149953911Y-100841748D01*
X149957780Y-100851733D01*
X149958268Y-100853099D01*
X149972235Y-100888676D01*
X149986234Y-100917601D01*
X149999603Y-100938688D01*
X150011682Y-100950752D01*
X150013306Y-100951692D01*
X150026259Y-100956484D01*
X150045435Y-100961419D01*
X150065387Y-100965206D01*
X150098349Y-100967922D01*
X150127575Y-100964302D01*
X150157543Y-100953600D01*
X150169297Y-100947911D01*
X150191695Y-100933309D01*
X150215845Y-100912485D01*
X150238700Y-100888525D01*
X150257214Y-100864514D01*
X150265350Y-100850604D01*
X150274309Y-100834892D01*
X150283194Y-100823451D01*
X150288463Y-100819531D01*
X150296311Y-100818570D01*
X150313220Y-100817496D01*
X150337670Y-100816350D01*
X150368139Y-100815168D01*
X150403106Y-100813990D01*
X150441051Y-100812855D01*
X150480452Y-100811800D01*
X150519789Y-100810865D01*
X150557540Y-100810088D01*
X150592185Y-100809508D01*
X150622202Y-100809164D01*
X150646071Y-100809094D01*
X150662271Y-100809337D01*
G36*
X146430677Y-100294451D02*
G01*
X146460339Y-100297690D01*
X146495486Y-100304817D01*
X146532566Y-100314408D01*
X146568835Y-100325580D01*
X146601546Y-100337452D01*
X146627952Y-100349141D01*
X146638248Y-100354835D01*
X146654916Y-100364053D01*
X146669052Y-100370037D01*
X146677118Y-100371485D01*
X146684294Y-100365372D01*
X146691770Y-100351319D01*
X146694766Y-100343229D01*
X146703521Y-100316771D01*
X146865999Y-100315372D01*
X147028478Y-100313973D01*
X147025634Y-100341830D01*
X147022871Y-100359246D01*
X147017810Y-100382921D01*
X147011313Y-100409011D01*
X147007552Y-100422604D01*
X147000042Y-100451828D01*
X146993175Y-100484062D01*
X146988082Y-100513803D01*
X146986867Y-100523146D01*
X146982970Y-100550809D01*
X146977329Y-100583046D01*
X146970961Y-100614215D01*
X146968781Y-100623687D01*
X146962200Y-100653953D01*
X146955800Y-100687965D01*
X146950695Y-100719679D01*
X146949548Y-100728105D01*
X146945109Y-100756453D01*
X146940245Y-100776062D01*
X146935180Y-100786038D01*
X146934872Y-100786313D01*
X146930468Y-100788022D01*
X146921226Y-100789435D01*
X146906365Y-100790574D01*
X146885104Y-100791461D01*
X146856661Y-100792118D01*
X146820255Y-100792567D01*
X146775105Y-100792829D01*
X146720429Y-100792926D01*
X146698739Y-100792925D01*
X146470688Y-100792830D01*
X146466169Y-100771759D01*
X146458118Y-100740407D01*
X146448774Y-100717416D01*
X146437016Y-100700566D01*
X146424739Y-100689739D01*
X146388980Y-100669759D01*
X146350745Y-100659108D01*
X146311829Y-100657996D01*
X146274023Y-100666634D01*
X146263901Y-100670820D01*
X146230157Y-100689168D01*
X146203316Y-100711086D01*
X146180203Y-100739426D01*
X146170240Y-100754923D01*
X146157967Y-100773468D01*
X146145903Y-100788839D01*
X146136211Y-100798350D01*
X146134296Y-100799557D01*
X146126885Y-100801592D01*
X146112994Y-100803213D01*
X146091858Y-100804451D01*
X146062709Y-100805333D01*
X146024780Y-100805888D01*
X145977306Y-100806147D01*
X145958362Y-100806172D01*
X145795287Y-100806250D01*
X145798994Y-100794571D01*
X145801812Y-100784823D01*
X145806575Y-100767471D01*
X145812565Y-100745154D01*
X145817785Y-100725396D01*
X145832302Y-100677040D01*
X145848043Y-100638351D01*
X145865393Y-100608444D01*
X145872884Y-100598726D01*
X145881376Y-100587298D01*
X145885785Y-100578758D01*
X145885959Y-100577651D01*
X145889155Y-100569900D01*
X145897788Y-100556052D01*
X145910425Y-100538062D01*
X145925632Y-100517882D01*
X145941975Y-100497466D01*
X145958021Y-100478767D01*
X145960697Y-100475811D01*
X145979926Y-100456627D01*
X146002425Y-100436835D01*
X146020397Y-100422882D01*
X146047986Y-100405077D01*
X146082207Y-100385707D01*
X146120412Y-100366036D01*
X146159947Y-100347328D01*
X146198164Y-100330845D01*
X146232410Y-100317850D01*
X146256142Y-100310561D01*
X146297710Y-100302018D01*
X146343037Y-100296335D01*
X146388551Y-100293738D01*
X146430677Y-100294451D01*
X146430677Y-100294451D01*
G37*
X146430677Y-100294451D02*
X146460339Y-100297690D01*
X146495486Y-100304817D01*
X146532566Y-100314408D01*
X146568835Y-100325580D01*
X146601546Y-100337452D01*
X146627952Y-100349141D01*
X146638248Y-100354835D01*
X146654916Y-100364053D01*
X146669052Y-100370037D01*
X146677118Y-100371485D01*
X146684294Y-100365372D01*
X146691770Y-100351319D01*
X146694766Y-100343229D01*
X146703521Y-100316771D01*
X146865999Y-100315372D01*
X147028478Y-100313973D01*
X147025634Y-100341830D01*
X147022871Y-100359246D01*
X147017810Y-100382921D01*
X147011313Y-100409011D01*
X147007552Y-100422604D01*
X147000042Y-100451828D01*
X146993175Y-100484062D01*
X146988082Y-100513803D01*
X146986867Y-100523146D01*
X146982970Y-100550809D01*
X146977329Y-100583046D01*
X146970961Y-100614215D01*
X146968781Y-100623687D01*
X146962200Y-100653953D01*
X146955800Y-100687965D01*
X146950695Y-100719679D01*
X146949548Y-100728105D01*
X146945109Y-100756453D01*
X146940245Y-100776062D01*
X146935180Y-100786038D01*
X146934872Y-100786313D01*
X146930468Y-100788022D01*
X146921226Y-100789435D01*
X146906365Y-100790574D01*
X146885104Y-100791461D01*
X146856661Y-100792118D01*
X146820255Y-100792567D01*
X146775105Y-100792829D01*
X146720429Y-100792926D01*
X146698739Y-100792925D01*
X146470688Y-100792830D01*
X146466169Y-100771759D01*
X146458118Y-100740407D01*
X146448774Y-100717416D01*
X146437016Y-100700566D01*
X146424739Y-100689739D01*
X146388980Y-100669759D01*
X146350745Y-100659108D01*
X146311829Y-100657996D01*
X146274023Y-100666634D01*
X146263901Y-100670820D01*
X146230157Y-100689168D01*
X146203316Y-100711086D01*
X146180203Y-100739426D01*
X146170240Y-100754923D01*
X146157967Y-100773468D01*
X146145903Y-100788839D01*
X146136211Y-100798350D01*
X146134296Y-100799557D01*
X146126885Y-100801592D01*
X146112994Y-100803213D01*
X146091858Y-100804451D01*
X146062709Y-100805333D01*
X146024780Y-100805888D01*
X145977306Y-100806147D01*
X145958362Y-100806172D01*
X145795287Y-100806250D01*
X145798994Y-100794571D01*
X145801812Y-100784823D01*
X145806575Y-100767471D01*
X145812565Y-100745154D01*
X145817785Y-100725396D01*
X145832302Y-100677040D01*
X145848043Y-100638351D01*
X145865393Y-100608444D01*
X145872884Y-100598726D01*
X145881376Y-100587298D01*
X145885785Y-100578758D01*
X145885959Y-100577651D01*
X145889155Y-100569900D01*
X145897788Y-100556052D01*
X145910425Y-100538062D01*
X145925632Y-100517882D01*
X145941975Y-100497466D01*
X145958021Y-100478767D01*
X145960697Y-100475811D01*
X145979926Y-100456627D01*
X146002425Y-100436835D01*
X146020397Y-100422882D01*
X146047986Y-100405077D01*
X146082207Y-100385707D01*
X146120412Y-100366036D01*
X146159947Y-100347328D01*
X146198164Y-100330845D01*
X146232410Y-100317850D01*
X146256142Y-100310561D01*
X146297710Y-100302018D01*
X146343037Y-100296335D01*
X146388551Y-100293738D01*
X146430677Y-100294451D01*
G36*
X147721736Y-100265283D02*
G01*
X147754619Y-100266604D01*
X147764500Y-100267112D01*
X147823605Y-100271337D01*
X147872978Y-100277291D01*
X147913348Y-100285094D01*
X147945443Y-100294866D01*
X147953648Y-100298235D01*
X147968424Y-100305808D01*
X147988899Y-100317704D01*
X148012117Y-100332152D01*
X148030563Y-100344281D01*
X148068337Y-100372571D01*
X148098739Y-100402258D01*
X148124420Y-100436369D01*
X148148025Y-100477930D01*
X148148712Y-100479291D01*
X148160526Y-100507256D01*
X148171304Y-100541018D01*
X148180400Y-100577560D01*
X148187167Y-100613863D01*
X148190961Y-100646910D01*
X148191135Y-100673683D01*
X148190883Y-100676317D01*
X148188954Y-100699772D01*
X148187917Y-100724303D01*
X148187869Y-100736162D01*
X148187604Y-100752845D01*
X148185257Y-100762109D01*
X148179679Y-100767081D01*
X148175907Y-100768713D01*
X148167802Y-100769911D01*
X148150430Y-100771167D01*
X148125106Y-100772428D01*
X148093146Y-100773642D01*
X148055865Y-100774760D01*
X148014580Y-100775728D01*
X147980211Y-100776352D01*
X147928497Y-100777197D01*
X147886310Y-100777763D01*
X147852591Y-100777787D01*
X147826284Y-100777010D01*
X147806331Y-100775169D01*
X147791675Y-100772003D01*
X147781259Y-100767252D01*
X147774026Y-100760655D01*
X147768918Y-100751949D01*
X147764877Y-100740875D01*
X147760848Y-100727170D01*
X147759267Y-100721781D01*
X147747822Y-100691593D01*
X147733295Y-100670059D01*
X147714012Y-100655348D01*
X147690293Y-100646167D01*
X147662636Y-100638976D01*
X147641729Y-100635090D01*
X147624370Y-100634209D01*
X147607356Y-100636036D01*
X147598951Y-100637664D01*
X147569815Y-100645970D01*
X147544674Y-100658404D01*
X147521676Y-100676424D01*
X147498969Y-100701489D01*
X147474702Y-100735058D01*
X147474017Y-100736083D01*
X147460404Y-100755232D01*
X147447811Y-100768772D01*
X147434027Y-100777607D01*
X147416840Y-100782641D01*
X147394040Y-100784781D01*
X147363414Y-100784929D01*
X147355008Y-100784777D01*
X147327814Y-100784584D01*
X147293372Y-100784887D01*
X147255004Y-100785626D01*
X147216030Y-100786742D01*
X147189841Y-100787729D01*
X147154815Y-100789175D01*
X147128801Y-100790059D01*
X147110236Y-100790278D01*
X147097558Y-100789726D01*
X147089207Y-100788299D01*
X147083619Y-100785891D01*
X147079234Y-100782398D01*
X147076935Y-100780143D01*
X147068262Y-100767049D01*
X147068235Y-100755732D01*
X147073283Y-100740056D01*
X147082027Y-100717296D01*
X147093411Y-100689827D01*
X147106379Y-100660021D01*
X147119875Y-100630252D01*
X147132842Y-100602893D01*
X147144224Y-100580317D01*
X147152965Y-100564898D01*
X147153617Y-100563895D01*
X147180549Y-100527422D01*
X147213832Y-100488933D01*
X147251255Y-100450541D01*
X147290611Y-100414357D01*
X147329691Y-100382495D01*
X147366285Y-100357065D01*
X147375944Y-100351295D01*
X147404514Y-100337148D01*
X147441025Y-100322424D01*
X147482927Y-100307936D01*
X147527668Y-100294495D01*
X147572698Y-100282913D01*
X147615465Y-100274002D01*
X147622850Y-100272723D01*
X147649120Y-100268699D01*
X147672210Y-100266203D01*
X147695341Y-100265107D01*
X147721736Y-100265283D01*
X147721736Y-100265283D01*
G37*
X147721736Y-100265283D02*
X147754619Y-100266604D01*
X147764500Y-100267112D01*
X147823605Y-100271337D01*
X147872978Y-100277291D01*
X147913348Y-100285094D01*
X147945443Y-100294866D01*
X147953648Y-100298235D01*
X147968424Y-100305808D01*
X147988899Y-100317704D01*
X148012117Y-100332152D01*
X148030563Y-100344281D01*
X148068337Y-100372571D01*
X148098739Y-100402258D01*
X148124420Y-100436369D01*
X148148025Y-100477930D01*
X148148712Y-100479291D01*
X148160526Y-100507256D01*
X148171304Y-100541018D01*
X148180400Y-100577560D01*
X148187167Y-100613863D01*
X148190961Y-100646910D01*
X148191135Y-100673683D01*
X148190883Y-100676317D01*
X148188954Y-100699772D01*
X148187917Y-100724303D01*
X148187869Y-100736162D01*
X148187604Y-100752845D01*
X148185257Y-100762109D01*
X148179679Y-100767081D01*
X148175907Y-100768713D01*
X148167802Y-100769911D01*
X148150430Y-100771167D01*
X148125106Y-100772428D01*
X148093146Y-100773642D01*
X148055865Y-100774760D01*
X148014580Y-100775728D01*
X147980211Y-100776352D01*
X147928497Y-100777197D01*
X147886310Y-100777763D01*
X147852591Y-100777787D01*
X147826284Y-100777010D01*
X147806331Y-100775169D01*
X147791675Y-100772003D01*
X147781259Y-100767252D01*
X147774026Y-100760655D01*
X147768918Y-100751949D01*
X147764877Y-100740875D01*
X147760848Y-100727170D01*
X147759267Y-100721781D01*
X147747822Y-100691593D01*
X147733295Y-100670059D01*
X147714012Y-100655348D01*
X147690293Y-100646167D01*
X147662636Y-100638976D01*
X147641729Y-100635090D01*
X147624370Y-100634209D01*
X147607356Y-100636036D01*
X147598951Y-100637664D01*
X147569815Y-100645970D01*
X147544674Y-100658404D01*
X147521676Y-100676424D01*
X147498969Y-100701489D01*
X147474702Y-100735058D01*
X147474017Y-100736083D01*
X147460404Y-100755232D01*
X147447811Y-100768772D01*
X147434027Y-100777607D01*
X147416840Y-100782641D01*
X147394040Y-100784781D01*
X147363414Y-100784929D01*
X147355008Y-100784777D01*
X147327814Y-100784584D01*
X147293372Y-100784887D01*
X147255004Y-100785626D01*
X147216030Y-100786742D01*
X147189841Y-100787729D01*
X147154815Y-100789175D01*
X147128801Y-100790059D01*
X147110236Y-100790278D01*
X147097558Y-100789726D01*
X147089207Y-100788299D01*
X147083619Y-100785891D01*
X147079234Y-100782398D01*
X147076935Y-100780143D01*
X147068262Y-100767049D01*
X147068235Y-100755732D01*
X147073283Y-100740056D01*
X147082027Y-100717296D01*
X147093411Y-100689827D01*
X147106379Y-100660021D01*
X147119875Y-100630252D01*
X147132842Y-100602893D01*
X147144224Y-100580317D01*
X147152965Y-100564898D01*
X147153617Y-100563895D01*
X147180549Y-100527422D01*
X147213832Y-100488933D01*
X147251255Y-100450541D01*
X147290611Y-100414357D01*
X147329691Y-100382495D01*
X147366285Y-100357065D01*
X147375944Y-100351295D01*
X147404514Y-100337148D01*
X147441025Y-100322424D01*
X147482927Y-100307936D01*
X147527668Y-100294495D01*
X147572698Y-100282913D01*
X147615465Y-100274002D01*
X147622850Y-100272723D01*
X147649120Y-100268699D01*
X147672210Y-100266203D01*
X147695341Y-100265107D01*
X147721736Y-100265283D01*
G36*
X148990366Y-100261234D02*
G01*
X149050761Y-100273720D01*
X149105876Y-100295323D01*
X149127070Y-100306899D01*
X149154131Y-100321062D01*
X149175707Y-100328218D01*
X149191055Y-100328188D01*
X149197567Y-100323957D01*
X149204457Y-100315609D01*
X149214856Y-100303199D01*
X149219034Y-100298250D01*
X149234699Y-100279729D01*
X149374047Y-100278068D01*
X149412340Y-100277740D01*
X149447941Y-100277676D01*
X149479233Y-100277860D01*
X149504601Y-100278276D01*
X149522427Y-100278908D01*
X149530594Y-100279631D01*
X149542444Y-100283149D01*
X149547090Y-100290131D01*
X149547792Y-100300578D01*
X149546229Y-100315122D01*
X149542170Y-100334917D01*
X149537581Y-100351932D01*
X149526285Y-100392776D01*
X149515332Y-100438909D01*
X149505613Y-100486126D01*
X149498017Y-100530222D01*
X149494736Y-100554395D01*
X149490405Y-100584466D01*
X149484351Y-100617710D01*
X149477703Y-100648074D01*
X149475967Y-100654937D01*
X149470280Y-100678600D01*
X149465895Y-100700677D01*
X149463485Y-100717609D01*
X149463224Y-100722258D01*
X149461297Y-100736664D01*
X149456710Y-100746671D01*
X149455950Y-100747409D01*
X149449324Y-100749152D01*
X149433674Y-100750731D01*
X149408726Y-100752156D01*
X149374207Y-100753438D01*
X149329845Y-100754587D01*
X149275366Y-100755615D01*
X149230553Y-100756274D01*
X149175394Y-100756961D01*
X149129867Y-100757399D01*
X149093026Y-100757571D01*
X149063921Y-100757456D01*
X149041605Y-100757036D01*
X149025129Y-100756291D01*
X149013546Y-100755203D01*
X149005907Y-100753751D01*
X149001265Y-100751918D01*
X149000803Y-100751632D01*
X148991852Y-100741043D01*
X148983069Y-100722052D01*
X148979206Y-100710460D01*
X148967531Y-100680127D01*
X148952122Y-100657754D01*
X148931035Y-100641554D01*
X148902324Y-100629738D01*
X148886726Y-100625454D01*
X148863137Y-100620074D01*
X148846015Y-100617568D01*
X148831714Y-100617694D01*
X148816587Y-100620208D01*
X148814641Y-100620636D01*
X148781898Y-100632038D01*
X148749921Y-100650447D01*
X148721259Y-100673836D01*
X148698459Y-100700181D01*
X148685695Y-100723134D01*
X148677724Y-100739683D01*
X148669308Y-100752478D01*
X148664570Y-100757093D01*
X148655454Y-100759521D01*
X148636712Y-100761779D01*
X148609298Y-100763790D01*
X148574170Y-100765477D01*
X148549607Y-100766308D01*
X148513132Y-100767428D01*
X148476406Y-100768651D01*
X148442209Y-100769879D01*
X148413319Y-100771011D01*
X148394209Y-100771864D01*
X148368718Y-100772482D01*
X148348687Y-100771694D01*
X148336355Y-100769613D01*
X148334677Y-100768870D01*
X148328686Y-100762840D01*
X148326178Y-100753015D01*
X148327343Y-100738171D01*
X148332369Y-100717088D01*
X148341445Y-100688543D01*
X148351410Y-100660441D01*
X148364707Y-100624941D01*
X148376464Y-100596567D01*
X148388289Y-100572367D01*
X148401794Y-100549385D01*
X148418588Y-100524668D01*
X148440281Y-100495262D01*
X148444439Y-100489760D01*
X148475318Y-100450872D01*
X148503936Y-100419313D01*
X148532613Y-100392870D01*
X148563667Y-100369333D01*
X148586094Y-100354625D01*
X148630153Y-100329118D01*
X148673564Y-100308561D01*
X148718827Y-100292105D01*
X148768445Y-100278900D01*
X148824922Y-100268098D01*
X148854094Y-100263673D01*
X148924780Y-100257880D01*
X148990366Y-100261234D01*
X148990366Y-100261234D01*
G37*
X148990366Y-100261234D02*
X149050761Y-100273720D01*
X149105876Y-100295323D01*
X149127070Y-100306899D01*
X149154131Y-100321062D01*
X149175707Y-100328218D01*
X149191055Y-100328188D01*
X149197567Y-100323957D01*
X149204457Y-100315609D01*
X149214856Y-100303199D01*
X149219034Y-100298250D01*
X149234699Y-100279729D01*
X149374047Y-100278068D01*
X149412340Y-100277740D01*
X149447941Y-100277676D01*
X149479233Y-100277860D01*
X149504601Y-100278276D01*
X149522427Y-100278908D01*
X149530594Y-100279631D01*
X149542444Y-100283149D01*
X149547090Y-100290131D01*
X149547792Y-100300578D01*
X149546229Y-100315122D01*
X149542170Y-100334917D01*
X149537581Y-100351932D01*
X149526285Y-100392776D01*
X149515332Y-100438909D01*
X149505613Y-100486126D01*
X149498017Y-100530222D01*
X149494736Y-100554395D01*
X149490405Y-100584466D01*
X149484351Y-100617710D01*
X149477703Y-100648074D01*
X149475967Y-100654937D01*
X149470280Y-100678600D01*
X149465895Y-100700677D01*
X149463485Y-100717609D01*
X149463224Y-100722258D01*
X149461297Y-100736664D01*
X149456710Y-100746671D01*
X149455950Y-100747409D01*
X149449324Y-100749152D01*
X149433674Y-100750731D01*
X149408726Y-100752156D01*
X149374207Y-100753438D01*
X149329845Y-100754587D01*
X149275366Y-100755615D01*
X149230553Y-100756274D01*
X149175394Y-100756961D01*
X149129867Y-100757399D01*
X149093026Y-100757571D01*
X149063921Y-100757456D01*
X149041605Y-100757036D01*
X149025129Y-100756291D01*
X149013546Y-100755203D01*
X149005907Y-100753751D01*
X149001265Y-100751918D01*
X149000803Y-100751632D01*
X148991852Y-100741043D01*
X148983069Y-100722052D01*
X148979206Y-100710460D01*
X148967531Y-100680127D01*
X148952122Y-100657754D01*
X148931035Y-100641554D01*
X148902324Y-100629738D01*
X148886726Y-100625454D01*
X148863137Y-100620074D01*
X148846015Y-100617568D01*
X148831714Y-100617694D01*
X148816587Y-100620208D01*
X148814641Y-100620636D01*
X148781898Y-100632038D01*
X148749921Y-100650447D01*
X148721259Y-100673836D01*
X148698459Y-100700181D01*
X148685695Y-100723134D01*
X148677724Y-100739683D01*
X148669308Y-100752478D01*
X148664570Y-100757093D01*
X148655454Y-100759521D01*
X148636712Y-100761779D01*
X148609298Y-100763790D01*
X148574170Y-100765477D01*
X148549607Y-100766308D01*
X148513132Y-100767428D01*
X148476406Y-100768651D01*
X148442209Y-100769879D01*
X148413319Y-100771011D01*
X148394209Y-100771864D01*
X148368718Y-100772482D01*
X148348687Y-100771694D01*
X148336355Y-100769613D01*
X148334677Y-100768870D01*
X148328686Y-100762840D01*
X148326178Y-100753015D01*
X148327343Y-100738171D01*
X148332369Y-100717088D01*
X148341445Y-100688543D01*
X148351410Y-100660441D01*
X148364707Y-100624941D01*
X148376464Y-100596567D01*
X148388289Y-100572367D01*
X148401794Y-100549385D01*
X148418588Y-100524668D01*
X148440281Y-100495262D01*
X148444439Y-100489760D01*
X148475318Y-100450872D01*
X148503936Y-100419313D01*
X148532613Y-100392870D01*
X148563667Y-100369333D01*
X148586094Y-100354625D01*
X148630153Y-100329118D01*
X148673564Y-100308561D01*
X148718827Y-100292105D01*
X148768445Y-100278900D01*
X148824922Y-100268098D01*
X148854094Y-100263673D01*
X148924780Y-100257880D01*
X148990366Y-100261234D01*
G36*
X150326185Y-100233932D02*
G01*
X150362833Y-100236418D01*
X150394447Y-100240743D01*
X150422870Y-100247301D01*
X150449946Y-100256487D01*
X150477519Y-100268696D01*
X150507430Y-100284323D01*
X150530071Y-100297118D01*
X150558365Y-100314010D01*
X150580358Y-100329035D01*
X150598439Y-100344465D01*
X150614995Y-100362572D01*
X150632415Y-100385625D01*
X150649825Y-100411017D01*
X150667403Y-100443892D01*
X150682274Y-100485125D01*
X150693987Y-100532733D01*
X150702089Y-100584733D01*
X150706127Y-100639144D01*
X150706501Y-100659406D01*
X150706635Y-100683005D01*
X150706079Y-100701217D01*
X150703621Y-100714756D01*
X150698052Y-100724340D01*
X150688163Y-100730684D01*
X150672744Y-100734503D01*
X150650586Y-100736514D01*
X150620479Y-100737431D01*
X150581213Y-100737971D01*
X150573550Y-100738076D01*
X150533328Y-100738602D01*
X150490469Y-100739080D01*
X150448333Y-100739476D01*
X150410282Y-100739761D01*
X150381441Y-100739897D01*
X150302277Y-100740104D01*
X150295864Y-100726875D01*
X150290440Y-100715493D01*
X150282295Y-100698185D01*
X150273160Y-100678630D01*
X150272851Y-100677966D01*
X150252688Y-100645569D01*
X150226819Y-100621722D01*
X150196105Y-100606676D01*
X150161405Y-100600681D01*
X150123580Y-100603986D01*
X150083491Y-100616842D01*
X150075355Y-100620544D01*
X150041096Y-100642041D01*
X150012047Y-100671671D01*
X149987348Y-100710332D01*
X149985009Y-100714879D01*
X149972986Y-100734464D01*
X149961721Y-100744354D01*
X149959175Y-100745218D01*
X149951317Y-100745871D01*
X149934564Y-100746525D01*
X149910444Y-100747165D01*
X149880482Y-100747774D01*
X149846204Y-100748337D01*
X149809136Y-100748839D01*
X149770804Y-100749263D01*
X149732734Y-100749596D01*
X149696451Y-100749820D01*
X149663482Y-100749920D01*
X149635352Y-100749882D01*
X149613588Y-100749689D01*
X149599715Y-100749325D01*
X149595383Y-100748923D01*
X149590523Y-100742020D01*
X149591044Y-100727020D01*
X149596754Y-100704823D01*
X149607459Y-100676328D01*
X149614292Y-100660729D01*
X149625514Y-100635694D01*
X149636256Y-100611013D01*
X149645004Y-100590198D01*
X149648819Y-100580629D01*
X149658248Y-100560482D01*
X149671008Y-100538611D01*
X149678917Y-100527112D01*
X149691721Y-100509979D01*
X149707776Y-100488491D01*
X149723999Y-100466772D01*
X149726989Y-100462768D01*
X149747485Y-100438716D01*
X149775033Y-100411346D01*
X149807477Y-100382551D01*
X149842660Y-100354228D01*
X149878422Y-100328271D01*
X149885680Y-100323381D01*
X149908514Y-100310278D01*
X149939345Y-100295602D01*
X149975889Y-100280293D01*
X150015862Y-100265286D01*
X150056980Y-100251521D01*
X150071591Y-100247060D01*
X150087440Y-100242565D01*
X150101865Y-100239183D01*
X150116785Y-100236742D01*
X150134122Y-100235072D01*
X150155797Y-100234001D01*
X150183730Y-100233357D01*
X150219844Y-100232969D01*
X150230417Y-100232892D01*
X150282661Y-100232888D01*
X150326185Y-100233932D01*
X150326185Y-100233932D01*
G37*
X150326185Y-100233932D02*
X150362833Y-100236418D01*
X150394447Y-100240743D01*
X150422870Y-100247301D01*
X150449946Y-100256487D01*
X150477519Y-100268696D01*
X150507430Y-100284323D01*
X150530071Y-100297118D01*
X150558365Y-100314010D01*
X150580358Y-100329035D01*
X150598439Y-100344465D01*
X150614995Y-100362572D01*
X150632415Y-100385625D01*
X150649825Y-100411017D01*
X150667403Y-100443892D01*
X150682274Y-100485125D01*
X150693987Y-100532733D01*
X150702089Y-100584733D01*
X150706127Y-100639144D01*
X150706501Y-100659406D01*
X150706635Y-100683005D01*
X150706079Y-100701217D01*
X150703621Y-100714756D01*
X150698052Y-100724340D01*
X150688163Y-100730684D01*
X150672744Y-100734503D01*
X150650586Y-100736514D01*
X150620479Y-100737431D01*
X150581213Y-100737971D01*
X150573550Y-100738076D01*
X150533328Y-100738602D01*
X150490469Y-100739080D01*
X150448333Y-100739476D01*
X150410282Y-100739761D01*
X150381441Y-100739897D01*
X150302277Y-100740104D01*
X150295864Y-100726875D01*
X150290440Y-100715493D01*
X150282295Y-100698185D01*
X150273160Y-100678630D01*
X150272851Y-100677966D01*
X150252688Y-100645569D01*
X150226819Y-100621722D01*
X150196105Y-100606676D01*
X150161405Y-100600681D01*
X150123580Y-100603986D01*
X150083491Y-100616842D01*
X150075355Y-100620544D01*
X150041096Y-100642041D01*
X150012047Y-100671671D01*
X149987348Y-100710332D01*
X149985009Y-100714879D01*
X149972986Y-100734464D01*
X149961721Y-100744354D01*
X149959175Y-100745218D01*
X149951317Y-100745871D01*
X149934564Y-100746525D01*
X149910444Y-100747165D01*
X149880482Y-100747774D01*
X149846204Y-100748337D01*
X149809136Y-100748839D01*
X149770804Y-100749263D01*
X149732734Y-100749596D01*
X149696451Y-100749820D01*
X149663482Y-100749920D01*
X149635352Y-100749882D01*
X149613588Y-100749689D01*
X149599715Y-100749325D01*
X149595383Y-100748923D01*
X149590523Y-100742020D01*
X149591044Y-100727020D01*
X149596754Y-100704823D01*
X149607459Y-100676328D01*
X149614292Y-100660729D01*
X149625514Y-100635694D01*
X149636256Y-100611013D01*
X149645004Y-100590198D01*
X149648819Y-100580629D01*
X149658248Y-100560482D01*
X149671008Y-100538611D01*
X149678917Y-100527112D01*
X149691721Y-100509979D01*
X149707776Y-100488491D01*
X149723999Y-100466772D01*
X149726989Y-100462768D01*
X149747485Y-100438716D01*
X149775033Y-100411346D01*
X149807477Y-100382551D01*
X149842660Y-100354228D01*
X149878422Y-100328271D01*
X149885680Y-100323381D01*
X149908514Y-100310278D01*
X149939345Y-100295602D01*
X149975889Y-100280293D01*
X150015862Y-100265286D01*
X150056980Y-100251521D01*
X150071591Y-100247060D01*
X150087440Y-100242565D01*
X150101865Y-100239183D01*
X150116785Y-100236742D01*
X150134122Y-100235072D01*
X150155797Y-100234001D01*
X150183730Y-100233357D01*
X150219844Y-100232969D01*
X150230417Y-100232892D01*
X150282661Y-100232888D01*
X150326185Y-100233932D01*
G36*
X150802912Y-99654941D02*
G01*
X150821837Y-99656867D01*
X150837554Y-99659584D01*
X150852457Y-99663984D01*
X150868937Y-99670955D01*
X150889385Y-99681387D01*
X150916194Y-99696170D01*
X150920979Y-99698856D01*
X150947191Y-99713711D01*
X150966276Y-99725239D01*
X150980349Y-99735268D01*
X150991527Y-99745624D01*
X151001927Y-99758135D01*
X151013663Y-99774628D01*
X151020708Y-99784958D01*
X151040983Y-99817323D01*
X151054527Y-99845998D01*
X151062467Y-99874385D01*
X151065928Y-99905885D01*
X151066327Y-99922753D01*
X151061630Y-99979041D01*
X151047373Y-100031201D01*
X151023977Y-100078624D01*
X150991865Y-100120704D01*
X150951457Y-100156832D01*
X150903174Y-100186400D01*
X150874809Y-100199095D01*
X150851471Y-100206789D01*
X150825327Y-100211927D01*
X150792838Y-100215169D01*
X150786042Y-100215602D01*
X150759939Y-100216901D01*
X150740658Y-100216847D01*
X150724478Y-100215010D01*
X150707676Y-100210955D01*
X150686531Y-100204250D01*
X150685500Y-100203907D01*
X150648364Y-100190602D01*
X150619454Y-100177926D01*
X150596567Y-100164724D01*
X150577497Y-100149844D01*
X150571729Y-100144431D01*
X150548820Y-100122825D01*
X150526680Y-100103344D01*
X150507353Y-100087702D01*
X150492881Y-100077613D01*
X150490629Y-100076349D01*
X150486161Y-100075149D01*
X150477373Y-100074173D01*
X150463671Y-100073420D01*
X150444465Y-100072889D01*
X150419161Y-100072580D01*
X150387168Y-100072494D01*
X150347891Y-100072628D01*
X150300740Y-100072984D01*
X150245122Y-100073560D01*
X150180444Y-100074356D01*
X150106114Y-100075371D01*
X150059358Y-100076046D01*
X149961597Y-100077444D01*
X149870339Y-100078676D01*
X149785988Y-100079740D01*
X149708949Y-100080631D01*
X149639627Y-100081347D01*
X149578424Y-100081884D01*
X149525746Y-100082239D01*
X149481996Y-100082407D01*
X149447578Y-100082385D01*
X149422898Y-100082171D01*
X149408358Y-100081759D01*
X149407563Y-100081713D01*
X149398294Y-100081851D01*
X149380991Y-100082724D01*
X149358165Y-100084187D01*
X149333479Y-100086005D01*
X149318683Y-100086783D01*
X149294188Y-100087600D01*
X149260883Y-100088442D01*
X149219651Y-100089296D01*
X149171379Y-100090148D01*
X149116954Y-100090984D01*
X149057259Y-100091790D01*
X148993182Y-100092553D01*
X148925608Y-100093258D01*
X148855423Y-100093893D01*
X148794056Y-100094369D01*
X148723958Y-100094903D01*
X148656863Y-100095479D01*
X148593531Y-100096086D01*
X148534717Y-100096713D01*
X148481180Y-100097352D01*
X148433677Y-100097991D01*
X148392965Y-100098620D01*
X148359801Y-100099229D01*
X148334944Y-100099808D01*
X148319150Y-100100347D01*
X148313178Y-100100836D01*
X148313173Y-100100839D01*
X148307108Y-100101487D01*
X148291418Y-100102261D01*
X148267062Y-100103136D01*
X148234997Y-100104086D01*
X148196181Y-100105087D01*
X148151572Y-100106114D01*
X148102128Y-100107141D01*
X148048806Y-100108143D01*
X148005930Y-100108879D01*
X147949579Y-100109807D01*
X147895811Y-100110693D01*
X147845665Y-100111521D01*
X147800178Y-100112274D01*
X147760388Y-100112933D01*
X147727334Y-100113482D01*
X147702054Y-100113904D01*
X147685585Y-100114181D01*
X147679834Y-100114280D01*
X147660545Y-100114276D01*
X147637328Y-100113797D01*
X147624271Y-100113329D01*
X147611402Y-100113094D01*
X147589454Y-100113058D01*
X147559928Y-100113209D01*
X147524326Y-100113534D01*
X147484150Y-100114020D01*
X147440901Y-100114654D01*
X147409959Y-100115173D01*
X147356515Y-100116087D01*
X147295801Y-100117078D01*
X147231126Y-100118094D01*
X147165803Y-100119084D01*
X147103143Y-100119997D01*
X147046458Y-100120783D01*
X147036896Y-100120910D01*
X146981882Y-100121648D01*
X146920464Y-100122492D01*
X146855910Y-100123395D01*
X146791489Y-100124311D01*
X146730469Y-100125193D01*
X146676119Y-100125997D01*
X146666479Y-100126142D01*
X146615389Y-100126877D01*
X146556752Y-100127658D01*
X146493605Y-100128449D01*
X146428984Y-100129215D01*
X146365926Y-100129917D01*
X146307466Y-100130520D01*
X146285479Y-100130730D01*
X146239683Y-100131250D01*
X146196666Y-100131917D01*
X146157706Y-100132697D01*
X146124086Y-100133558D01*
X146097085Y-100134466D01*
X146077983Y-100135388D01*
X146068062Y-100136291D01*
X146067640Y-100136375D01*
X146050885Y-100140146D01*
X146044828Y-100109396D01*
X146031923Y-100057277D01*
X146014382Y-100006314D01*
X145993463Y-99959738D01*
X145979432Y-99935666D01*
X150691458Y-99935666D01*
X150694161Y-99955701D01*
X150706716Y-99976322D01*
X150710747Y-99981012D01*
X150733617Y-99999044D01*
X150760543Y-100008291D01*
X150789189Y-100008404D01*
X150817219Y-99999035D01*
X150820242Y-99997366D01*
X150831818Y-99988181D01*
X150838984Y-99975263D01*
X150842674Y-99956181D01*
X150843723Y-99936274D01*
X150843261Y-99920286D01*
X150839743Y-99909060D01*
X150831179Y-99898150D01*
X150823120Y-99890219D01*
X150798647Y-99872243D01*
X150774299Y-99864809D01*
X150750361Y-99867913D01*
X150727117Y-99881549D01*
X150715906Y-99892248D01*
X150698682Y-99914940D01*
X150691458Y-99935666D01*
X145979432Y-99935666D01*
X145972678Y-99924079D01*
X145958077Y-99901369D01*
X145949777Y-99885877D01*
X145947329Y-99876672D01*
X145948426Y-99873832D01*
X145956114Y-99871359D01*
X145973630Y-99869006D01*
X146000216Y-99866808D01*
X146035118Y-99864799D01*
X146077579Y-99863011D01*
X146126844Y-99861479D01*
X146182156Y-99860237D01*
X146242760Y-99859318D01*
X146282834Y-99858924D01*
X146316012Y-99858610D01*
X146358205Y-99858127D01*
X146407847Y-99857498D01*
X146463370Y-99856744D01*
X146523209Y-99855887D01*
X146585796Y-99854950D01*
X146649565Y-99853955D01*
X146712949Y-99852924D01*
X146745854Y-99852371D01*
X146819020Y-99851192D01*
X146882119Y-99850327D01*
X146935661Y-99849775D01*
X146980158Y-99849537D01*
X147016121Y-99849614D01*
X147044061Y-99850006D01*
X147064490Y-99850715D01*
X147077918Y-99851740D01*
X147083953Y-99852785D01*
X147101703Y-99855954D01*
X147114433Y-99853292D01*
X147115458Y-99852769D01*
X147123995Y-99851042D01*
X147142793Y-99849529D01*
X147171911Y-99848227D01*
X147211407Y-99847135D01*
X147261343Y-99846251D01*
X147321776Y-99845573D01*
X147348859Y-99845360D01*
X147406210Y-99844849D01*
X147471289Y-99844091D01*
X147541246Y-99843129D01*
X147613228Y-99842008D01*
X147684384Y-99840771D01*
X147751864Y-99839465D01*
X147812125Y-99838148D01*
X147862051Y-99837080D01*
X147920735Y-99835996D01*
X147986351Y-99834922D01*
X148057073Y-99833881D01*
X148131076Y-99832899D01*
X148206535Y-99831998D01*
X148281622Y-99831205D01*
X148354514Y-99830544D01*
X148412729Y-99830107D01*
X148543156Y-99829175D01*
X148663153Y-99828188D01*
X148772872Y-99827144D01*
X148872466Y-99826041D01*
X148962089Y-99824877D01*
X149041893Y-99823648D01*
X149112031Y-99822354D01*
X149172657Y-99820991D01*
X149223922Y-99819557D01*
X149265980Y-99818049D01*
X149296438Y-99816609D01*
X149316583Y-99815762D01*
X149346237Y-99814889D01*
X149384328Y-99814006D01*
X149429782Y-99813129D01*
X149481525Y-99812276D01*
X149538485Y-99811462D01*
X149599587Y-99810705D01*
X149663758Y-99810021D01*
X149729924Y-99809427D01*
X149788563Y-99808994D01*
X149892476Y-99808272D01*
X149986294Y-99807542D01*
X150070503Y-99806791D01*
X150145592Y-99806007D01*
X150212048Y-99805179D01*
X150270358Y-99804295D01*
X150321011Y-99803343D01*
X150364493Y-99802311D01*
X150401293Y-99801186D01*
X150431898Y-99799958D01*
X150456795Y-99798614D01*
X150476473Y-99797142D01*
X150491418Y-99795530D01*
X150502119Y-99793767D01*
X150509063Y-99791840D01*
X150510223Y-99791352D01*
X150523608Y-99782231D01*
X150538178Y-99767972D01*
X150545636Y-99758695D01*
X150572195Y-99729812D01*
X150606899Y-99704367D01*
X150647628Y-99683215D01*
X150692262Y-99667211D01*
X150738684Y-99657210D01*
X150784773Y-99654065D01*
X150802912Y-99654941D01*
X150802912Y-99654941D01*
G37*
X150802912Y-99654941D02*
X150821837Y-99656867D01*
X150837554Y-99659584D01*
X150852457Y-99663984D01*
X150868937Y-99670955D01*
X150889385Y-99681387D01*
X150916194Y-99696170D01*
X150920979Y-99698856D01*
X150947191Y-99713711D01*
X150966276Y-99725239D01*
X150980349Y-99735268D01*
X150991527Y-99745624D01*
X151001927Y-99758135D01*
X151013663Y-99774628D01*
X151020708Y-99784958D01*
X151040983Y-99817323D01*
X151054527Y-99845998D01*
X151062467Y-99874385D01*
X151065928Y-99905885D01*
X151066327Y-99922753D01*
X151061630Y-99979041D01*
X151047373Y-100031201D01*
X151023977Y-100078624D01*
X150991865Y-100120704D01*
X150951457Y-100156832D01*
X150903174Y-100186400D01*
X150874809Y-100199095D01*
X150851471Y-100206789D01*
X150825327Y-100211927D01*
X150792838Y-100215169D01*
X150786042Y-100215602D01*
X150759939Y-100216901D01*
X150740658Y-100216847D01*
X150724478Y-100215010D01*
X150707676Y-100210955D01*
X150686531Y-100204250D01*
X150685500Y-100203907D01*
X150648364Y-100190602D01*
X150619454Y-100177926D01*
X150596567Y-100164724D01*
X150577497Y-100149844D01*
X150571729Y-100144431D01*
X150548820Y-100122825D01*
X150526680Y-100103344D01*
X150507353Y-100087702D01*
X150492881Y-100077613D01*
X150490629Y-100076349D01*
X150486161Y-100075149D01*
X150477373Y-100074173D01*
X150463671Y-100073420D01*
X150444465Y-100072889D01*
X150419161Y-100072580D01*
X150387168Y-100072494D01*
X150347891Y-100072628D01*
X150300740Y-100072984D01*
X150245122Y-100073560D01*
X150180444Y-100074356D01*
X150106114Y-100075371D01*
X150059358Y-100076046D01*
X149961597Y-100077444D01*
X149870339Y-100078676D01*
X149785988Y-100079740D01*
X149708949Y-100080631D01*
X149639627Y-100081347D01*
X149578424Y-100081884D01*
X149525746Y-100082239D01*
X149481996Y-100082407D01*
X149447578Y-100082385D01*
X149422898Y-100082171D01*
X149408358Y-100081759D01*
X149407563Y-100081713D01*
X149398294Y-100081851D01*
X149380991Y-100082724D01*
X149358165Y-100084187D01*
X149333479Y-100086005D01*
X149318683Y-100086783D01*
X149294188Y-100087600D01*
X149260883Y-100088442D01*
X149219651Y-100089296D01*
X149171379Y-100090148D01*
X149116954Y-100090984D01*
X149057259Y-100091790D01*
X148993182Y-100092553D01*
X148925608Y-100093258D01*
X148855423Y-100093893D01*
X148794056Y-100094369D01*
X148723958Y-100094903D01*
X148656863Y-100095479D01*
X148593531Y-100096086D01*
X148534717Y-100096713D01*
X148481180Y-100097352D01*
X148433677Y-100097991D01*
X148392965Y-100098620D01*
X148359801Y-100099229D01*
X148334944Y-100099808D01*
X148319150Y-100100347D01*
X148313178Y-100100836D01*
X148313173Y-100100839D01*
X148307108Y-100101487D01*
X148291418Y-100102261D01*
X148267062Y-100103136D01*
X148234997Y-100104086D01*
X148196181Y-100105087D01*
X148151572Y-100106114D01*
X148102128Y-100107141D01*
X148048806Y-100108143D01*
X148005930Y-100108879D01*
X147949579Y-100109807D01*
X147895811Y-100110693D01*
X147845665Y-100111521D01*
X147800178Y-100112274D01*
X147760388Y-100112933D01*
X147727334Y-100113482D01*
X147702054Y-100113904D01*
X147685585Y-100114181D01*
X147679834Y-100114280D01*
X147660545Y-100114276D01*
X147637328Y-100113797D01*
X147624271Y-100113329D01*
X147611402Y-100113094D01*
X147589454Y-100113058D01*
X147559928Y-100113209D01*
X147524326Y-100113534D01*
X147484150Y-100114020D01*
X147440901Y-100114654D01*
X147409959Y-100115173D01*
X147356515Y-100116087D01*
X147295801Y-100117078D01*
X147231126Y-100118094D01*
X147165803Y-100119084D01*
X147103143Y-100119997D01*
X147046458Y-100120783D01*
X147036896Y-100120910D01*
X146981882Y-100121648D01*
X146920464Y-100122492D01*
X146855910Y-100123395D01*
X146791489Y-100124311D01*
X146730469Y-100125193D01*
X146676119Y-100125997D01*
X146666479Y-100126142D01*
X146615389Y-100126877D01*
X146556752Y-100127658D01*
X146493605Y-100128449D01*
X146428984Y-100129215D01*
X146365926Y-100129917D01*
X146307466Y-100130520D01*
X146285479Y-100130730D01*
X146239683Y-100131250D01*
X146196666Y-100131917D01*
X146157706Y-100132697D01*
X146124086Y-100133558D01*
X146097085Y-100134466D01*
X146077983Y-100135388D01*
X146068062Y-100136291D01*
X146067640Y-100136375D01*
X146050885Y-100140146D01*
X146044828Y-100109396D01*
X146031923Y-100057277D01*
X146014382Y-100006314D01*
X145993463Y-99959738D01*
X145979432Y-99935666D01*
X150691458Y-99935666D01*
X150694161Y-99955701D01*
X150706716Y-99976322D01*
X150710747Y-99981012D01*
X150733617Y-99999044D01*
X150760543Y-100008291D01*
X150789189Y-100008404D01*
X150817219Y-99999035D01*
X150820242Y-99997366D01*
X150831818Y-99988181D01*
X150838984Y-99975263D01*
X150842674Y-99956181D01*
X150843723Y-99936274D01*
X150843261Y-99920286D01*
X150839743Y-99909060D01*
X150831179Y-99898150D01*
X150823120Y-99890219D01*
X150798647Y-99872243D01*
X150774299Y-99864809D01*
X150750361Y-99867913D01*
X150727117Y-99881549D01*
X150715906Y-99892248D01*
X150698682Y-99914940D01*
X150691458Y-99935666D01*
X145979432Y-99935666D01*
X145972678Y-99924079D01*
X145958077Y-99901369D01*
X145949777Y-99885877D01*
X145947329Y-99876672D01*
X145948426Y-99873832D01*
X145956114Y-99871359D01*
X145973630Y-99869006D01*
X146000216Y-99866808D01*
X146035118Y-99864799D01*
X146077579Y-99863011D01*
X146126844Y-99861479D01*
X146182156Y-99860237D01*
X146242760Y-99859318D01*
X146282834Y-99858924D01*
X146316012Y-99858610D01*
X146358205Y-99858127D01*
X146407847Y-99857498D01*
X146463370Y-99856744D01*
X146523209Y-99855887D01*
X146585796Y-99854950D01*
X146649565Y-99853955D01*
X146712949Y-99852924D01*
X146745854Y-99852371D01*
X146819020Y-99851192D01*
X146882119Y-99850327D01*
X146935661Y-99849775D01*
X146980158Y-99849537D01*
X147016121Y-99849614D01*
X147044061Y-99850006D01*
X147064490Y-99850715D01*
X147077918Y-99851740D01*
X147083953Y-99852785D01*
X147101703Y-99855954D01*
X147114433Y-99853292D01*
X147115458Y-99852769D01*
X147123995Y-99851042D01*
X147142793Y-99849529D01*
X147171911Y-99848227D01*
X147211407Y-99847135D01*
X147261343Y-99846251D01*
X147321776Y-99845573D01*
X147348859Y-99845360D01*
X147406210Y-99844849D01*
X147471289Y-99844091D01*
X147541246Y-99843129D01*
X147613228Y-99842008D01*
X147684384Y-99840771D01*
X147751864Y-99839465D01*
X147812125Y-99838148D01*
X147862051Y-99837080D01*
X147920735Y-99835996D01*
X147986351Y-99834922D01*
X148057073Y-99833881D01*
X148131076Y-99832899D01*
X148206535Y-99831998D01*
X148281622Y-99831205D01*
X148354514Y-99830544D01*
X148412729Y-99830107D01*
X148543156Y-99829175D01*
X148663153Y-99828188D01*
X148772872Y-99827144D01*
X148872466Y-99826041D01*
X148962089Y-99824877D01*
X149041893Y-99823648D01*
X149112031Y-99822354D01*
X149172657Y-99820991D01*
X149223922Y-99819557D01*
X149265980Y-99818049D01*
X149296438Y-99816609D01*
X149316583Y-99815762D01*
X149346237Y-99814889D01*
X149384328Y-99814006D01*
X149429782Y-99813129D01*
X149481525Y-99812276D01*
X149538485Y-99811462D01*
X149599587Y-99810705D01*
X149663758Y-99810021D01*
X149729924Y-99809427D01*
X149788563Y-99808994D01*
X149892476Y-99808272D01*
X149986294Y-99807542D01*
X150070503Y-99806791D01*
X150145592Y-99806007D01*
X150212048Y-99805179D01*
X150270358Y-99804295D01*
X150321011Y-99803343D01*
X150364493Y-99802311D01*
X150401293Y-99801186D01*
X150431898Y-99799958D01*
X150456795Y-99798614D01*
X150476473Y-99797142D01*
X150491418Y-99795530D01*
X150502119Y-99793767D01*
X150509063Y-99791840D01*
X150510223Y-99791352D01*
X150523608Y-99782231D01*
X150538178Y-99767972D01*
X150545636Y-99758695D01*
X150572195Y-99729812D01*
X150606899Y-99704367D01*
X150647628Y-99683215D01*
X150692262Y-99667211D01*
X150738684Y-99657210D01*
X150784773Y-99654065D01*
X150802912Y-99654941D01*
D10*
X133105142Y-113222666D02*
X133152761Y-113270285D01*
X133200380Y-113413142D01*
X133200380Y-113508380D01*
X133152761Y-113651238D01*
X133057523Y-113746476D01*
X132962285Y-113794095D01*
X132771809Y-113841714D01*
X132628952Y-113841714D01*
X132438476Y-113794095D01*
X132343238Y-113746476D01*
X132248000Y-113651238D01*
X132200380Y-113508380D01*
X132200380Y-113413142D01*
X132248000Y-113270285D01*
X132295619Y-113222666D01*
X133200380Y-112270285D02*
X133200380Y-112841714D01*
X133200380Y-112556000D02*
X132200380Y-112556000D01*
X132343238Y-112651238D01*
X132438476Y-112746476D01*
X132486095Y-112841714D01*
X124911142Y-105830666D02*
X124958761Y-105878285D01*
X125006380Y-106021142D01*
X125006380Y-106116380D01*
X124958761Y-106259238D01*
X124863523Y-106354476D01*
X124768285Y-106402095D01*
X124577809Y-106449714D01*
X124434952Y-106449714D01*
X124244476Y-106402095D01*
X124149238Y-106354476D01*
X124054000Y-106259238D01*
X124006380Y-106116380D01*
X124006380Y-106021142D01*
X124054000Y-105878285D01*
X124101619Y-105830666D01*
X124101619Y-105449714D02*
X124054000Y-105402095D01*
X124006380Y-105306857D01*
X124006380Y-105068761D01*
X124054000Y-104973523D01*
X124101619Y-104925904D01*
X124196857Y-104878285D01*
X124292095Y-104878285D01*
X124434952Y-104925904D01*
X125006380Y-105497333D01*
X125006380Y-104878285D01*
X125139142Y-116498666D02*
X125186761Y-116546285D01*
X125234380Y-116689142D01*
X125234380Y-116784380D01*
X125186761Y-116927238D01*
X125091523Y-117022476D01*
X124996285Y-117070095D01*
X124805809Y-117117714D01*
X124662952Y-117117714D01*
X124472476Y-117070095D01*
X124377238Y-117022476D01*
X124282000Y-116927238D01*
X124234380Y-116784380D01*
X124234380Y-116689142D01*
X124282000Y-116546285D01*
X124329619Y-116498666D01*
X124234380Y-116165333D02*
X124234380Y-115546285D01*
X124615333Y-115879619D01*
X124615333Y-115736761D01*
X124662952Y-115641523D01*
X124710571Y-115593904D01*
X124805809Y-115546285D01*
X125043904Y-115546285D01*
X125139142Y-115593904D01*
X125186761Y-115641523D01*
X125234380Y-115736761D01*
X125234380Y-116022476D01*
X125186761Y-116117714D01*
X125139142Y-116165333D01*
X126154380Y-126571333D02*
X126868666Y-126571333D01*
X127011523Y-126618952D01*
X127106761Y-126714190D01*
X127154380Y-126857047D01*
X127154380Y-126952285D01*
X127154380Y-125571333D02*
X127154380Y-126142761D01*
X127154380Y-125857047D02*
X126154380Y-125857047D01*
X126297238Y-125952285D01*
X126392476Y-126047523D01*
X126440095Y-126142761D01*
X140455380Y-113410904D02*
X141264904Y-113410904D01*
X141360142Y-113363285D01*
X141407761Y-113315666D01*
X141455380Y-113220428D01*
X141455380Y-113029952D01*
X141407761Y-112934714D01*
X141360142Y-112887095D01*
X141264904Y-112839476D01*
X140455380Y-112839476D01*
X141455380Y-111839476D02*
X141455380Y-112410904D01*
X141455380Y-112125190D02*
X140455380Y-112125190D01*
X140598238Y-112220428D01*
X140693476Y-112315666D01*
X140741095Y-112410904D01*
X117712095Y-102637380D02*
X117712095Y-103446904D01*
X117759714Y-103542142D01*
X117807333Y-103589761D01*
X117902571Y-103637380D01*
X118093047Y-103637380D01*
X118188285Y-103589761D01*
X118235904Y-103542142D01*
X118283523Y-103446904D01*
X118283523Y-102637380D01*
X118664476Y-102637380D02*
X119283523Y-102637380D01*
X118950190Y-103018333D01*
X119093047Y-103018333D01*
X119188285Y-103065952D01*
X119235904Y-103113571D01*
X119283523Y-103208809D01*
X119283523Y-103446904D01*
X119235904Y-103542142D01*
X119188285Y-103589761D01*
X119093047Y-103637380D01*
X118807333Y-103637380D01*
X118712095Y-103589761D01*
X118664476Y-103542142D01*
X117602095Y-113432380D02*
X117602095Y-114241904D01*
X117649714Y-114337142D01*
X117697333Y-114384761D01*
X117792571Y-114432380D01*
X117983047Y-114432380D01*
X118078285Y-114384761D01*
X118125904Y-114337142D01*
X118173523Y-114241904D01*
X118173523Y-113432380D01*
X119078285Y-113765714D02*
X119078285Y-114432380D01*
X118840190Y-113384761D02*
X118602095Y-114099047D01*
X119221142Y-114099047D01*
X120904095Y-101306380D02*
X120904095Y-102115904D01*
X120951714Y-102211142D01*
X120999333Y-102258761D01*
X121094571Y-102306380D01*
X121285047Y-102306380D01*
X121380285Y-102258761D01*
X121427904Y-102211142D01*
X121475523Y-102115904D01*
X121475523Y-101306380D01*
X121904095Y-101401619D02*
X121951714Y-101354000D01*
X122046952Y-101306380D01*
X122285047Y-101306380D01*
X122380285Y-101354000D01*
X122427904Y-101401619D01*
X122475523Y-101496857D01*
X122475523Y-101592095D01*
X122427904Y-101734952D01*
X121856476Y-102306380D01*
X122475523Y-102306380D01*
X133604380Y-99647333D02*
X134318666Y-99647333D01*
X134461523Y-99694952D01*
X134556761Y-99790190D01*
X134604380Y-99933047D01*
X134604380Y-100028285D01*
X133699619Y-99218761D02*
X133652000Y-99171142D01*
X133604380Y-99075904D01*
X133604380Y-98837809D01*
X133652000Y-98742571D01*
X133699619Y-98694952D01*
X133794857Y-98647333D01*
X133890095Y-98647333D01*
X134032952Y-98694952D01*
X134604380Y-99266380D01*
X134604380Y-98647333D01*
X105664380Y-99901333D02*
X106378666Y-99901333D01*
X106521523Y-99948952D01*
X106616761Y-100044190D01*
X106664380Y-100187047D01*
X106664380Y-100282285D01*
X105664380Y-99520380D02*
X105664380Y-98901333D01*
X106045333Y-99234666D01*
X106045333Y-99091809D01*
X106092952Y-98996571D01*
X106140571Y-98948952D01*
X106235809Y-98901333D01*
X106473904Y-98901333D01*
X106569142Y-98948952D01*
X106616761Y-98996571D01*
X106664380Y-99091809D01*
X106664380Y-99377523D01*
X106616761Y-99472761D01*
X106569142Y-99520380D01*
X113538380Y-99901333D02*
X114252666Y-99901333D01*
X114395523Y-99948952D01*
X114490761Y-100044190D01*
X114538380Y-100187047D01*
X114538380Y-100282285D01*
X113871714Y-98996571D02*
X114538380Y-98996571D01*
X113490761Y-99234666D02*
X114205047Y-99472761D01*
X114205047Y-98853714D01*
X113538380Y-126571333D02*
X114252666Y-126571333D01*
X114395523Y-126618952D01*
X114490761Y-126714190D01*
X114538380Y-126857047D01*
X114538380Y-126952285D01*
X113538380Y-125618952D02*
X113538380Y-126095142D01*
X114014571Y-126142761D01*
X113966952Y-126095142D01*
X113919333Y-125999904D01*
X113919333Y-125761809D01*
X113966952Y-125666571D01*
X114014571Y-125618952D01*
X114109809Y-125571333D01*
X114347904Y-125571333D01*
X114443142Y-125618952D01*
X114490761Y-125666571D01*
X114538380Y-125761809D01*
X114538380Y-125999904D01*
X114490761Y-126095142D01*
X114443142Y-126142761D01*
X135071142Y-105830666D02*
X135118761Y-105878285D01*
X135166380Y-106021142D01*
X135166380Y-106116380D01*
X135118761Y-106259238D01*
X135023523Y-106354476D01*
X134928285Y-106402095D01*
X134737809Y-106449714D01*
X134594952Y-106449714D01*
X134404476Y-106402095D01*
X134309238Y-106354476D01*
X134214000Y-106259238D01*
X134166380Y-106116380D01*
X134166380Y-106021142D01*
X134214000Y-105878285D01*
X134261619Y-105830666D01*
X134499714Y-104973523D02*
X135166380Y-104973523D01*
X134118761Y-105211619D02*
X134833047Y-105449714D01*
X134833047Y-104830666D01*
M02*
