G04 #@! TF.GenerationSoftware,KiCad,Pcbnew,(5.1.2)-2*
G04 #@! TF.CreationDate,2020-08-07T23:42:31+09:00*
G04 #@! TF.ProjectId,IRRemo,49525265-6d6f-42e6-9b69-6361645f7063,rev?*
G04 #@! TF.SameCoordinates,Original*
G04 #@! TF.FileFunction,Copper,L1,Top*
G04 #@! TF.FilePolarity,Positive*
%FSLAX46Y46*%
G04 Gerber Fmt 4.6, Leading zero omitted, Abs format (unit mm)*
G04 Created by KiCad (PCBNEW (5.1.2)-2) date 2020-08-07 23:42:31*
%MOMM*%
%LPD*%
G04 APERTURE LIST*
%ADD10C,3.500000*%
%ADD11R,3.500000X3.500000*%
%ADD12C,3.200000*%
%ADD13C,0.100000*%
%ADD14C,0.875000*%
%ADD15O,1.700000X1.700000*%
%ADD16R,1.700000X1.700000*%
%ADD17C,0.600000*%
%ADD18R,1.750000X0.550000*%
%ADD19O,1.905000X2.000000*%
%ADD20R,1.905000X2.000000*%
%ADD21O,1.350000X1.350000*%
%ADD22R,1.350000X1.350000*%
%ADD23C,0.800000*%
%ADD24C,0.250000*%
%ADD25C,1.000000*%
G04 APERTURE END LIST*
D10*
X147474000Y-113030000D03*
D11*
X109474000Y-113030000D03*
D12*
X109474000Y-121230000D03*
D13*
G36*
X131595691Y-113407053D02*
G01*
X131616926Y-113410203D01*
X131637750Y-113415419D01*
X131657962Y-113422651D01*
X131677368Y-113431830D01*
X131695781Y-113442866D01*
X131713024Y-113455654D01*
X131728930Y-113470070D01*
X131743346Y-113485976D01*
X131756134Y-113503219D01*
X131767170Y-113521632D01*
X131776349Y-113541038D01*
X131783581Y-113561250D01*
X131788797Y-113582074D01*
X131791947Y-113603309D01*
X131793000Y-113624750D01*
X131793000Y-114062250D01*
X131791947Y-114083691D01*
X131788797Y-114104926D01*
X131783581Y-114125750D01*
X131776349Y-114145962D01*
X131767170Y-114165368D01*
X131756134Y-114183781D01*
X131743346Y-114201024D01*
X131728930Y-114216930D01*
X131713024Y-114231346D01*
X131695781Y-114244134D01*
X131677368Y-114255170D01*
X131657962Y-114264349D01*
X131637750Y-114271581D01*
X131616926Y-114276797D01*
X131595691Y-114279947D01*
X131574250Y-114281000D01*
X131061750Y-114281000D01*
X131040309Y-114279947D01*
X131019074Y-114276797D01*
X130998250Y-114271581D01*
X130978038Y-114264349D01*
X130958632Y-114255170D01*
X130940219Y-114244134D01*
X130922976Y-114231346D01*
X130907070Y-114216930D01*
X130892654Y-114201024D01*
X130879866Y-114183781D01*
X130868830Y-114165368D01*
X130859651Y-114145962D01*
X130852419Y-114125750D01*
X130847203Y-114104926D01*
X130844053Y-114083691D01*
X130843000Y-114062250D01*
X130843000Y-113624750D01*
X130844053Y-113603309D01*
X130847203Y-113582074D01*
X130852419Y-113561250D01*
X130859651Y-113541038D01*
X130868830Y-113521632D01*
X130879866Y-113503219D01*
X130892654Y-113485976D01*
X130907070Y-113470070D01*
X130922976Y-113455654D01*
X130940219Y-113442866D01*
X130958632Y-113431830D01*
X130978038Y-113422651D01*
X130998250Y-113415419D01*
X131019074Y-113410203D01*
X131040309Y-113407053D01*
X131061750Y-113406000D01*
X131574250Y-113406000D01*
X131595691Y-113407053D01*
X131595691Y-113407053D01*
G37*
D14*
X131318000Y-113843500D03*
D13*
G36*
X131595691Y-111832053D02*
G01*
X131616926Y-111835203D01*
X131637750Y-111840419D01*
X131657962Y-111847651D01*
X131677368Y-111856830D01*
X131695781Y-111867866D01*
X131713024Y-111880654D01*
X131728930Y-111895070D01*
X131743346Y-111910976D01*
X131756134Y-111928219D01*
X131767170Y-111946632D01*
X131776349Y-111966038D01*
X131783581Y-111986250D01*
X131788797Y-112007074D01*
X131791947Y-112028309D01*
X131793000Y-112049750D01*
X131793000Y-112487250D01*
X131791947Y-112508691D01*
X131788797Y-112529926D01*
X131783581Y-112550750D01*
X131776349Y-112570962D01*
X131767170Y-112590368D01*
X131756134Y-112608781D01*
X131743346Y-112626024D01*
X131728930Y-112641930D01*
X131713024Y-112656346D01*
X131695781Y-112669134D01*
X131677368Y-112680170D01*
X131657962Y-112689349D01*
X131637750Y-112696581D01*
X131616926Y-112701797D01*
X131595691Y-112704947D01*
X131574250Y-112706000D01*
X131061750Y-112706000D01*
X131040309Y-112704947D01*
X131019074Y-112701797D01*
X130998250Y-112696581D01*
X130978038Y-112689349D01*
X130958632Y-112680170D01*
X130940219Y-112669134D01*
X130922976Y-112656346D01*
X130907070Y-112641930D01*
X130892654Y-112626024D01*
X130879866Y-112608781D01*
X130868830Y-112590368D01*
X130859651Y-112570962D01*
X130852419Y-112550750D01*
X130847203Y-112529926D01*
X130844053Y-112508691D01*
X130843000Y-112487250D01*
X130843000Y-112049750D01*
X130844053Y-112028309D01*
X130847203Y-112007074D01*
X130852419Y-111986250D01*
X130859651Y-111966038D01*
X130868830Y-111946632D01*
X130879866Y-111928219D01*
X130892654Y-111910976D01*
X130907070Y-111895070D01*
X130922976Y-111880654D01*
X130940219Y-111867866D01*
X130958632Y-111856830D01*
X130978038Y-111847651D01*
X130998250Y-111840419D01*
X131019074Y-111835203D01*
X131040309Y-111832053D01*
X131061750Y-111831000D01*
X131574250Y-111831000D01*
X131595691Y-111832053D01*
X131595691Y-111832053D01*
G37*
D14*
X131318000Y-112268500D03*
D13*
G36*
X126261691Y-104440053D02*
G01*
X126282926Y-104443203D01*
X126303750Y-104448419D01*
X126323962Y-104455651D01*
X126343368Y-104464830D01*
X126361781Y-104475866D01*
X126379024Y-104488654D01*
X126394930Y-104503070D01*
X126409346Y-104518976D01*
X126422134Y-104536219D01*
X126433170Y-104554632D01*
X126442349Y-104574038D01*
X126449581Y-104594250D01*
X126454797Y-104615074D01*
X126457947Y-104636309D01*
X126459000Y-104657750D01*
X126459000Y-105095250D01*
X126457947Y-105116691D01*
X126454797Y-105137926D01*
X126449581Y-105158750D01*
X126442349Y-105178962D01*
X126433170Y-105198368D01*
X126422134Y-105216781D01*
X126409346Y-105234024D01*
X126394930Y-105249930D01*
X126379024Y-105264346D01*
X126361781Y-105277134D01*
X126343368Y-105288170D01*
X126323962Y-105297349D01*
X126303750Y-105304581D01*
X126282926Y-105309797D01*
X126261691Y-105312947D01*
X126240250Y-105314000D01*
X125727750Y-105314000D01*
X125706309Y-105312947D01*
X125685074Y-105309797D01*
X125664250Y-105304581D01*
X125644038Y-105297349D01*
X125624632Y-105288170D01*
X125606219Y-105277134D01*
X125588976Y-105264346D01*
X125573070Y-105249930D01*
X125558654Y-105234024D01*
X125545866Y-105216781D01*
X125534830Y-105198368D01*
X125525651Y-105178962D01*
X125518419Y-105158750D01*
X125513203Y-105137926D01*
X125510053Y-105116691D01*
X125509000Y-105095250D01*
X125509000Y-104657750D01*
X125510053Y-104636309D01*
X125513203Y-104615074D01*
X125518419Y-104594250D01*
X125525651Y-104574038D01*
X125534830Y-104554632D01*
X125545866Y-104536219D01*
X125558654Y-104518976D01*
X125573070Y-104503070D01*
X125588976Y-104488654D01*
X125606219Y-104475866D01*
X125624632Y-104464830D01*
X125644038Y-104455651D01*
X125664250Y-104448419D01*
X125685074Y-104443203D01*
X125706309Y-104440053D01*
X125727750Y-104439000D01*
X126240250Y-104439000D01*
X126261691Y-104440053D01*
X126261691Y-104440053D01*
G37*
D14*
X125984000Y-104876500D03*
D13*
G36*
X126261691Y-106015053D02*
G01*
X126282926Y-106018203D01*
X126303750Y-106023419D01*
X126323962Y-106030651D01*
X126343368Y-106039830D01*
X126361781Y-106050866D01*
X126379024Y-106063654D01*
X126394930Y-106078070D01*
X126409346Y-106093976D01*
X126422134Y-106111219D01*
X126433170Y-106129632D01*
X126442349Y-106149038D01*
X126449581Y-106169250D01*
X126454797Y-106190074D01*
X126457947Y-106211309D01*
X126459000Y-106232750D01*
X126459000Y-106670250D01*
X126457947Y-106691691D01*
X126454797Y-106712926D01*
X126449581Y-106733750D01*
X126442349Y-106753962D01*
X126433170Y-106773368D01*
X126422134Y-106791781D01*
X126409346Y-106809024D01*
X126394930Y-106824930D01*
X126379024Y-106839346D01*
X126361781Y-106852134D01*
X126343368Y-106863170D01*
X126323962Y-106872349D01*
X126303750Y-106879581D01*
X126282926Y-106884797D01*
X126261691Y-106887947D01*
X126240250Y-106889000D01*
X125727750Y-106889000D01*
X125706309Y-106887947D01*
X125685074Y-106884797D01*
X125664250Y-106879581D01*
X125644038Y-106872349D01*
X125624632Y-106863170D01*
X125606219Y-106852134D01*
X125588976Y-106839346D01*
X125573070Y-106824930D01*
X125558654Y-106809024D01*
X125545866Y-106791781D01*
X125534830Y-106773368D01*
X125525651Y-106753962D01*
X125518419Y-106733750D01*
X125513203Y-106712926D01*
X125510053Y-106691691D01*
X125509000Y-106670250D01*
X125509000Y-106232750D01*
X125510053Y-106211309D01*
X125513203Y-106190074D01*
X125518419Y-106169250D01*
X125525651Y-106149038D01*
X125534830Y-106129632D01*
X125545866Y-106111219D01*
X125558654Y-106093976D01*
X125573070Y-106078070D01*
X125588976Y-106063654D01*
X125606219Y-106050866D01*
X125624632Y-106039830D01*
X125644038Y-106030651D01*
X125664250Y-106023419D01*
X125685074Y-106018203D01*
X125706309Y-106015053D01*
X125727750Y-106014000D01*
X126240250Y-106014000D01*
X126261691Y-106015053D01*
X126261691Y-106015053D01*
G37*
D14*
X125984000Y-106451500D03*
D13*
G36*
X126489691Y-115108053D02*
G01*
X126510926Y-115111203D01*
X126531750Y-115116419D01*
X126551962Y-115123651D01*
X126571368Y-115132830D01*
X126589781Y-115143866D01*
X126607024Y-115156654D01*
X126622930Y-115171070D01*
X126637346Y-115186976D01*
X126650134Y-115204219D01*
X126661170Y-115222632D01*
X126670349Y-115242038D01*
X126677581Y-115262250D01*
X126682797Y-115283074D01*
X126685947Y-115304309D01*
X126687000Y-115325750D01*
X126687000Y-115763250D01*
X126685947Y-115784691D01*
X126682797Y-115805926D01*
X126677581Y-115826750D01*
X126670349Y-115846962D01*
X126661170Y-115866368D01*
X126650134Y-115884781D01*
X126637346Y-115902024D01*
X126622930Y-115917930D01*
X126607024Y-115932346D01*
X126589781Y-115945134D01*
X126571368Y-115956170D01*
X126551962Y-115965349D01*
X126531750Y-115972581D01*
X126510926Y-115977797D01*
X126489691Y-115980947D01*
X126468250Y-115982000D01*
X125955750Y-115982000D01*
X125934309Y-115980947D01*
X125913074Y-115977797D01*
X125892250Y-115972581D01*
X125872038Y-115965349D01*
X125852632Y-115956170D01*
X125834219Y-115945134D01*
X125816976Y-115932346D01*
X125801070Y-115917930D01*
X125786654Y-115902024D01*
X125773866Y-115884781D01*
X125762830Y-115866368D01*
X125753651Y-115846962D01*
X125746419Y-115826750D01*
X125741203Y-115805926D01*
X125738053Y-115784691D01*
X125737000Y-115763250D01*
X125737000Y-115325750D01*
X125738053Y-115304309D01*
X125741203Y-115283074D01*
X125746419Y-115262250D01*
X125753651Y-115242038D01*
X125762830Y-115222632D01*
X125773866Y-115204219D01*
X125786654Y-115186976D01*
X125801070Y-115171070D01*
X125816976Y-115156654D01*
X125834219Y-115143866D01*
X125852632Y-115132830D01*
X125872038Y-115123651D01*
X125892250Y-115116419D01*
X125913074Y-115111203D01*
X125934309Y-115108053D01*
X125955750Y-115107000D01*
X126468250Y-115107000D01*
X126489691Y-115108053D01*
X126489691Y-115108053D01*
G37*
D14*
X126212000Y-115544500D03*
D13*
G36*
X126489691Y-116683053D02*
G01*
X126510926Y-116686203D01*
X126531750Y-116691419D01*
X126551962Y-116698651D01*
X126571368Y-116707830D01*
X126589781Y-116718866D01*
X126607024Y-116731654D01*
X126622930Y-116746070D01*
X126637346Y-116761976D01*
X126650134Y-116779219D01*
X126661170Y-116797632D01*
X126670349Y-116817038D01*
X126677581Y-116837250D01*
X126682797Y-116858074D01*
X126685947Y-116879309D01*
X126687000Y-116900750D01*
X126687000Y-117338250D01*
X126685947Y-117359691D01*
X126682797Y-117380926D01*
X126677581Y-117401750D01*
X126670349Y-117421962D01*
X126661170Y-117441368D01*
X126650134Y-117459781D01*
X126637346Y-117477024D01*
X126622930Y-117492930D01*
X126607024Y-117507346D01*
X126589781Y-117520134D01*
X126571368Y-117531170D01*
X126551962Y-117540349D01*
X126531750Y-117547581D01*
X126510926Y-117552797D01*
X126489691Y-117555947D01*
X126468250Y-117557000D01*
X125955750Y-117557000D01*
X125934309Y-117555947D01*
X125913074Y-117552797D01*
X125892250Y-117547581D01*
X125872038Y-117540349D01*
X125852632Y-117531170D01*
X125834219Y-117520134D01*
X125816976Y-117507346D01*
X125801070Y-117492930D01*
X125786654Y-117477024D01*
X125773866Y-117459781D01*
X125762830Y-117441368D01*
X125753651Y-117421962D01*
X125746419Y-117401750D01*
X125741203Y-117380926D01*
X125738053Y-117359691D01*
X125737000Y-117338250D01*
X125737000Y-116900750D01*
X125738053Y-116879309D01*
X125741203Y-116858074D01*
X125746419Y-116837250D01*
X125753651Y-116817038D01*
X125762830Y-116797632D01*
X125773866Y-116779219D01*
X125786654Y-116761976D01*
X125801070Y-116746070D01*
X125816976Y-116731654D01*
X125834219Y-116718866D01*
X125852632Y-116707830D01*
X125872038Y-116698651D01*
X125892250Y-116691419D01*
X125913074Y-116686203D01*
X125934309Y-116683053D01*
X125955750Y-116682000D01*
X126468250Y-116682000D01*
X126489691Y-116683053D01*
X126489691Y-116683053D01*
G37*
D14*
X126212000Y-117119500D03*
D15*
X139192000Y-126238000D03*
X136652000Y-126238000D03*
X134112000Y-126238000D03*
X131572000Y-126238000D03*
D16*
X129032000Y-126238000D03*
D13*
G36*
X139672703Y-114149722D02*
G01*
X139687264Y-114151882D01*
X139701543Y-114155459D01*
X139715403Y-114160418D01*
X139728710Y-114166712D01*
X139741336Y-114174280D01*
X139753159Y-114183048D01*
X139764066Y-114192934D01*
X139773952Y-114203841D01*
X139782720Y-114215664D01*
X139790288Y-114228290D01*
X139796582Y-114241597D01*
X139801541Y-114255457D01*
X139805118Y-114269736D01*
X139807278Y-114284297D01*
X139808000Y-114299000D01*
X139808000Y-115949000D01*
X139807278Y-115963703D01*
X139805118Y-115978264D01*
X139801541Y-115992543D01*
X139796582Y-116006403D01*
X139790288Y-116019710D01*
X139782720Y-116032336D01*
X139773952Y-116044159D01*
X139764066Y-116055066D01*
X139753159Y-116064952D01*
X139741336Y-116073720D01*
X139728710Y-116081288D01*
X139715403Y-116087582D01*
X139701543Y-116092541D01*
X139687264Y-116096118D01*
X139672703Y-116098278D01*
X139658000Y-116099000D01*
X139358000Y-116099000D01*
X139343297Y-116098278D01*
X139328736Y-116096118D01*
X139314457Y-116092541D01*
X139300597Y-116087582D01*
X139287290Y-116081288D01*
X139274664Y-116073720D01*
X139262841Y-116064952D01*
X139251934Y-116055066D01*
X139242048Y-116044159D01*
X139233280Y-116032336D01*
X139225712Y-116019710D01*
X139219418Y-116006403D01*
X139214459Y-115992543D01*
X139210882Y-115978264D01*
X139208722Y-115963703D01*
X139208000Y-115949000D01*
X139208000Y-114299000D01*
X139208722Y-114284297D01*
X139210882Y-114269736D01*
X139214459Y-114255457D01*
X139219418Y-114241597D01*
X139225712Y-114228290D01*
X139233280Y-114215664D01*
X139242048Y-114203841D01*
X139251934Y-114192934D01*
X139262841Y-114183048D01*
X139274664Y-114174280D01*
X139287290Y-114166712D01*
X139300597Y-114160418D01*
X139314457Y-114155459D01*
X139328736Y-114151882D01*
X139343297Y-114149722D01*
X139358000Y-114149000D01*
X139658000Y-114149000D01*
X139672703Y-114149722D01*
X139672703Y-114149722D01*
G37*
D17*
X139508000Y-115124000D03*
D13*
G36*
X138402703Y-114149722D02*
G01*
X138417264Y-114151882D01*
X138431543Y-114155459D01*
X138445403Y-114160418D01*
X138458710Y-114166712D01*
X138471336Y-114174280D01*
X138483159Y-114183048D01*
X138494066Y-114192934D01*
X138503952Y-114203841D01*
X138512720Y-114215664D01*
X138520288Y-114228290D01*
X138526582Y-114241597D01*
X138531541Y-114255457D01*
X138535118Y-114269736D01*
X138537278Y-114284297D01*
X138538000Y-114299000D01*
X138538000Y-115949000D01*
X138537278Y-115963703D01*
X138535118Y-115978264D01*
X138531541Y-115992543D01*
X138526582Y-116006403D01*
X138520288Y-116019710D01*
X138512720Y-116032336D01*
X138503952Y-116044159D01*
X138494066Y-116055066D01*
X138483159Y-116064952D01*
X138471336Y-116073720D01*
X138458710Y-116081288D01*
X138445403Y-116087582D01*
X138431543Y-116092541D01*
X138417264Y-116096118D01*
X138402703Y-116098278D01*
X138388000Y-116099000D01*
X138088000Y-116099000D01*
X138073297Y-116098278D01*
X138058736Y-116096118D01*
X138044457Y-116092541D01*
X138030597Y-116087582D01*
X138017290Y-116081288D01*
X138004664Y-116073720D01*
X137992841Y-116064952D01*
X137981934Y-116055066D01*
X137972048Y-116044159D01*
X137963280Y-116032336D01*
X137955712Y-116019710D01*
X137949418Y-116006403D01*
X137944459Y-115992543D01*
X137940882Y-115978264D01*
X137938722Y-115963703D01*
X137938000Y-115949000D01*
X137938000Y-114299000D01*
X137938722Y-114284297D01*
X137940882Y-114269736D01*
X137944459Y-114255457D01*
X137949418Y-114241597D01*
X137955712Y-114228290D01*
X137963280Y-114215664D01*
X137972048Y-114203841D01*
X137981934Y-114192934D01*
X137992841Y-114183048D01*
X138004664Y-114174280D01*
X138017290Y-114166712D01*
X138030597Y-114160418D01*
X138044457Y-114155459D01*
X138058736Y-114151882D01*
X138073297Y-114149722D01*
X138088000Y-114149000D01*
X138388000Y-114149000D01*
X138402703Y-114149722D01*
X138402703Y-114149722D01*
G37*
D17*
X138238000Y-115124000D03*
D13*
G36*
X137132703Y-114149722D02*
G01*
X137147264Y-114151882D01*
X137161543Y-114155459D01*
X137175403Y-114160418D01*
X137188710Y-114166712D01*
X137201336Y-114174280D01*
X137213159Y-114183048D01*
X137224066Y-114192934D01*
X137233952Y-114203841D01*
X137242720Y-114215664D01*
X137250288Y-114228290D01*
X137256582Y-114241597D01*
X137261541Y-114255457D01*
X137265118Y-114269736D01*
X137267278Y-114284297D01*
X137268000Y-114299000D01*
X137268000Y-115949000D01*
X137267278Y-115963703D01*
X137265118Y-115978264D01*
X137261541Y-115992543D01*
X137256582Y-116006403D01*
X137250288Y-116019710D01*
X137242720Y-116032336D01*
X137233952Y-116044159D01*
X137224066Y-116055066D01*
X137213159Y-116064952D01*
X137201336Y-116073720D01*
X137188710Y-116081288D01*
X137175403Y-116087582D01*
X137161543Y-116092541D01*
X137147264Y-116096118D01*
X137132703Y-116098278D01*
X137118000Y-116099000D01*
X136818000Y-116099000D01*
X136803297Y-116098278D01*
X136788736Y-116096118D01*
X136774457Y-116092541D01*
X136760597Y-116087582D01*
X136747290Y-116081288D01*
X136734664Y-116073720D01*
X136722841Y-116064952D01*
X136711934Y-116055066D01*
X136702048Y-116044159D01*
X136693280Y-116032336D01*
X136685712Y-116019710D01*
X136679418Y-116006403D01*
X136674459Y-115992543D01*
X136670882Y-115978264D01*
X136668722Y-115963703D01*
X136668000Y-115949000D01*
X136668000Y-114299000D01*
X136668722Y-114284297D01*
X136670882Y-114269736D01*
X136674459Y-114255457D01*
X136679418Y-114241597D01*
X136685712Y-114228290D01*
X136693280Y-114215664D01*
X136702048Y-114203841D01*
X136711934Y-114192934D01*
X136722841Y-114183048D01*
X136734664Y-114174280D01*
X136747290Y-114166712D01*
X136760597Y-114160418D01*
X136774457Y-114155459D01*
X136788736Y-114151882D01*
X136803297Y-114149722D01*
X136818000Y-114149000D01*
X137118000Y-114149000D01*
X137132703Y-114149722D01*
X137132703Y-114149722D01*
G37*
D17*
X136968000Y-115124000D03*
D13*
G36*
X135862703Y-114149722D02*
G01*
X135877264Y-114151882D01*
X135891543Y-114155459D01*
X135905403Y-114160418D01*
X135918710Y-114166712D01*
X135931336Y-114174280D01*
X135943159Y-114183048D01*
X135954066Y-114192934D01*
X135963952Y-114203841D01*
X135972720Y-114215664D01*
X135980288Y-114228290D01*
X135986582Y-114241597D01*
X135991541Y-114255457D01*
X135995118Y-114269736D01*
X135997278Y-114284297D01*
X135998000Y-114299000D01*
X135998000Y-115949000D01*
X135997278Y-115963703D01*
X135995118Y-115978264D01*
X135991541Y-115992543D01*
X135986582Y-116006403D01*
X135980288Y-116019710D01*
X135972720Y-116032336D01*
X135963952Y-116044159D01*
X135954066Y-116055066D01*
X135943159Y-116064952D01*
X135931336Y-116073720D01*
X135918710Y-116081288D01*
X135905403Y-116087582D01*
X135891543Y-116092541D01*
X135877264Y-116096118D01*
X135862703Y-116098278D01*
X135848000Y-116099000D01*
X135548000Y-116099000D01*
X135533297Y-116098278D01*
X135518736Y-116096118D01*
X135504457Y-116092541D01*
X135490597Y-116087582D01*
X135477290Y-116081288D01*
X135464664Y-116073720D01*
X135452841Y-116064952D01*
X135441934Y-116055066D01*
X135432048Y-116044159D01*
X135423280Y-116032336D01*
X135415712Y-116019710D01*
X135409418Y-116006403D01*
X135404459Y-115992543D01*
X135400882Y-115978264D01*
X135398722Y-115963703D01*
X135398000Y-115949000D01*
X135398000Y-114299000D01*
X135398722Y-114284297D01*
X135400882Y-114269736D01*
X135404459Y-114255457D01*
X135409418Y-114241597D01*
X135415712Y-114228290D01*
X135423280Y-114215664D01*
X135432048Y-114203841D01*
X135441934Y-114192934D01*
X135452841Y-114183048D01*
X135464664Y-114174280D01*
X135477290Y-114166712D01*
X135490597Y-114160418D01*
X135504457Y-114155459D01*
X135518736Y-114151882D01*
X135533297Y-114149722D01*
X135548000Y-114149000D01*
X135848000Y-114149000D01*
X135862703Y-114149722D01*
X135862703Y-114149722D01*
G37*
D17*
X135698000Y-115124000D03*
D13*
G36*
X135862703Y-109199722D02*
G01*
X135877264Y-109201882D01*
X135891543Y-109205459D01*
X135905403Y-109210418D01*
X135918710Y-109216712D01*
X135931336Y-109224280D01*
X135943159Y-109233048D01*
X135954066Y-109242934D01*
X135963952Y-109253841D01*
X135972720Y-109265664D01*
X135980288Y-109278290D01*
X135986582Y-109291597D01*
X135991541Y-109305457D01*
X135995118Y-109319736D01*
X135997278Y-109334297D01*
X135998000Y-109349000D01*
X135998000Y-110999000D01*
X135997278Y-111013703D01*
X135995118Y-111028264D01*
X135991541Y-111042543D01*
X135986582Y-111056403D01*
X135980288Y-111069710D01*
X135972720Y-111082336D01*
X135963952Y-111094159D01*
X135954066Y-111105066D01*
X135943159Y-111114952D01*
X135931336Y-111123720D01*
X135918710Y-111131288D01*
X135905403Y-111137582D01*
X135891543Y-111142541D01*
X135877264Y-111146118D01*
X135862703Y-111148278D01*
X135848000Y-111149000D01*
X135548000Y-111149000D01*
X135533297Y-111148278D01*
X135518736Y-111146118D01*
X135504457Y-111142541D01*
X135490597Y-111137582D01*
X135477290Y-111131288D01*
X135464664Y-111123720D01*
X135452841Y-111114952D01*
X135441934Y-111105066D01*
X135432048Y-111094159D01*
X135423280Y-111082336D01*
X135415712Y-111069710D01*
X135409418Y-111056403D01*
X135404459Y-111042543D01*
X135400882Y-111028264D01*
X135398722Y-111013703D01*
X135398000Y-110999000D01*
X135398000Y-109349000D01*
X135398722Y-109334297D01*
X135400882Y-109319736D01*
X135404459Y-109305457D01*
X135409418Y-109291597D01*
X135415712Y-109278290D01*
X135423280Y-109265664D01*
X135432048Y-109253841D01*
X135441934Y-109242934D01*
X135452841Y-109233048D01*
X135464664Y-109224280D01*
X135477290Y-109216712D01*
X135490597Y-109210418D01*
X135504457Y-109205459D01*
X135518736Y-109201882D01*
X135533297Y-109199722D01*
X135548000Y-109199000D01*
X135848000Y-109199000D01*
X135862703Y-109199722D01*
X135862703Y-109199722D01*
G37*
D17*
X135698000Y-110174000D03*
D13*
G36*
X137132703Y-109199722D02*
G01*
X137147264Y-109201882D01*
X137161543Y-109205459D01*
X137175403Y-109210418D01*
X137188710Y-109216712D01*
X137201336Y-109224280D01*
X137213159Y-109233048D01*
X137224066Y-109242934D01*
X137233952Y-109253841D01*
X137242720Y-109265664D01*
X137250288Y-109278290D01*
X137256582Y-109291597D01*
X137261541Y-109305457D01*
X137265118Y-109319736D01*
X137267278Y-109334297D01*
X137268000Y-109349000D01*
X137268000Y-110999000D01*
X137267278Y-111013703D01*
X137265118Y-111028264D01*
X137261541Y-111042543D01*
X137256582Y-111056403D01*
X137250288Y-111069710D01*
X137242720Y-111082336D01*
X137233952Y-111094159D01*
X137224066Y-111105066D01*
X137213159Y-111114952D01*
X137201336Y-111123720D01*
X137188710Y-111131288D01*
X137175403Y-111137582D01*
X137161543Y-111142541D01*
X137147264Y-111146118D01*
X137132703Y-111148278D01*
X137118000Y-111149000D01*
X136818000Y-111149000D01*
X136803297Y-111148278D01*
X136788736Y-111146118D01*
X136774457Y-111142541D01*
X136760597Y-111137582D01*
X136747290Y-111131288D01*
X136734664Y-111123720D01*
X136722841Y-111114952D01*
X136711934Y-111105066D01*
X136702048Y-111094159D01*
X136693280Y-111082336D01*
X136685712Y-111069710D01*
X136679418Y-111056403D01*
X136674459Y-111042543D01*
X136670882Y-111028264D01*
X136668722Y-111013703D01*
X136668000Y-110999000D01*
X136668000Y-109349000D01*
X136668722Y-109334297D01*
X136670882Y-109319736D01*
X136674459Y-109305457D01*
X136679418Y-109291597D01*
X136685712Y-109278290D01*
X136693280Y-109265664D01*
X136702048Y-109253841D01*
X136711934Y-109242934D01*
X136722841Y-109233048D01*
X136734664Y-109224280D01*
X136747290Y-109216712D01*
X136760597Y-109210418D01*
X136774457Y-109205459D01*
X136788736Y-109201882D01*
X136803297Y-109199722D01*
X136818000Y-109199000D01*
X137118000Y-109199000D01*
X137132703Y-109199722D01*
X137132703Y-109199722D01*
G37*
D17*
X136968000Y-110174000D03*
D13*
G36*
X138402703Y-109199722D02*
G01*
X138417264Y-109201882D01*
X138431543Y-109205459D01*
X138445403Y-109210418D01*
X138458710Y-109216712D01*
X138471336Y-109224280D01*
X138483159Y-109233048D01*
X138494066Y-109242934D01*
X138503952Y-109253841D01*
X138512720Y-109265664D01*
X138520288Y-109278290D01*
X138526582Y-109291597D01*
X138531541Y-109305457D01*
X138535118Y-109319736D01*
X138537278Y-109334297D01*
X138538000Y-109349000D01*
X138538000Y-110999000D01*
X138537278Y-111013703D01*
X138535118Y-111028264D01*
X138531541Y-111042543D01*
X138526582Y-111056403D01*
X138520288Y-111069710D01*
X138512720Y-111082336D01*
X138503952Y-111094159D01*
X138494066Y-111105066D01*
X138483159Y-111114952D01*
X138471336Y-111123720D01*
X138458710Y-111131288D01*
X138445403Y-111137582D01*
X138431543Y-111142541D01*
X138417264Y-111146118D01*
X138402703Y-111148278D01*
X138388000Y-111149000D01*
X138088000Y-111149000D01*
X138073297Y-111148278D01*
X138058736Y-111146118D01*
X138044457Y-111142541D01*
X138030597Y-111137582D01*
X138017290Y-111131288D01*
X138004664Y-111123720D01*
X137992841Y-111114952D01*
X137981934Y-111105066D01*
X137972048Y-111094159D01*
X137963280Y-111082336D01*
X137955712Y-111069710D01*
X137949418Y-111056403D01*
X137944459Y-111042543D01*
X137940882Y-111028264D01*
X137938722Y-111013703D01*
X137938000Y-110999000D01*
X137938000Y-109349000D01*
X137938722Y-109334297D01*
X137940882Y-109319736D01*
X137944459Y-109305457D01*
X137949418Y-109291597D01*
X137955712Y-109278290D01*
X137963280Y-109265664D01*
X137972048Y-109253841D01*
X137981934Y-109242934D01*
X137992841Y-109233048D01*
X138004664Y-109224280D01*
X138017290Y-109216712D01*
X138030597Y-109210418D01*
X138044457Y-109205459D01*
X138058736Y-109201882D01*
X138073297Y-109199722D01*
X138088000Y-109199000D01*
X138388000Y-109199000D01*
X138402703Y-109199722D01*
X138402703Y-109199722D01*
G37*
D17*
X138238000Y-110174000D03*
D13*
G36*
X139672703Y-109199722D02*
G01*
X139687264Y-109201882D01*
X139701543Y-109205459D01*
X139715403Y-109210418D01*
X139728710Y-109216712D01*
X139741336Y-109224280D01*
X139753159Y-109233048D01*
X139764066Y-109242934D01*
X139773952Y-109253841D01*
X139782720Y-109265664D01*
X139790288Y-109278290D01*
X139796582Y-109291597D01*
X139801541Y-109305457D01*
X139805118Y-109319736D01*
X139807278Y-109334297D01*
X139808000Y-109349000D01*
X139808000Y-110999000D01*
X139807278Y-111013703D01*
X139805118Y-111028264D01*
X139801541Y-111042543D01*
X139796582Y-111056403D01*
X139790288Y-111069710D01*
X139782720Y-111082336D01*
X139773952Y-111094159D01*
X139764066Y-111105066D01*
X139753159Y-111114952D01*
X139741336Y-111123720D01*
X139728710Y-111131288D01*
X139715403Y-111137582D01*
X139701543Y-111142541D01*
X139687264Y-111146118D01*
X139672703Y-111148278D01*
X139658000Y-111149000D01*
X139358000Y-111149000D01*
X139343297Y-111148278D01*
X139328736Y-111146118D01*
X139314457Y-111142541D01*
X139300597Y-111137582D01*
X139287290Y-111131288D01*
X139274664Y-111123720D01*
X139262841Y-111114952D01*
X139251934Y-111105066D01*
X139242048Y-111094159D01*
X139233280Y-111082336D01*
X139225712Y-111069710D01*
X139219418Y-111056403D01*
X139214459Y-111042543D01*
X139210882Y-111028264D01*
X139208722Y-111013703D01*
X139208000Y-110999000D01*
X139208000Y-109349000D01*
X139208722Y-109334297D01*
X139210882Y-109319736D01*
X139214459Y-109305457D01*
X139219418Y-109291597D01*
X139225712Y-109278290D01*
X139233280Y-109265664D01*
X139242048Y-109253841D01*
X139251934Y-109242934D01*
X139262841Y-109233048D01*
X139274664Y-109224280D01*
X139287290Y-109216712D01*
X139300597Y-109210418D01*
X139314457Y-109205459D01*
X139328736Y-109201882D01*
X139343297Y-109199722D01*
X139358000Y-109199000D01*
X139658000Y-109199000D01*
X139672703Y-109199722D01*
X139672703Y-109199722D01*
G37*
D17*
X139508000Y-110174000D03*
D18*
X122174000Y-105410000D03*
X122174000Y-106680000D03*
X122174000Y-107950000D03*
X122174000Y-109220000D03*
X114774000Y-109220000D03*
X114774000Y-107950000D03*
X114774000Y-106680000D03*
X114774000Y-105410000D03*
X122064000Y-116205000D03*
X122064000Y-117475000D03*
X122064000Y-118745000D03*
X122064000Y-120015000D03*
X114664000Y-120015000D03*
X114664000Y-118745000D03*
X114664000Y-117475000D03*
X114664000Y-116205000D03*
D19*
X131064000Y-99568000D03*
X128524000Y-99568000D03*
D20*
X125984000Y-99568000D03*
D21*
X138652000Y-99314000D03*
D22*
X136652000Y-99314000D03*
D21*
X110712000Y-99568000D03*
D22*
X108712000Y-99568000D03*
D21*
X118586000Y-99568000D03*
D22*
X116586000Y-99568000D03*
D21*
X118586000Y-126238000D03*
D22*
X116586000Y-126238000D03*
D13*
G36*
X136421691Y-104440053D02*
G01*
X136442926Y-104443203D01*
X136463750Y-104448419D01*
X136483962Y-104455651D01*
X136503368Y-104464830D01*
X136521781Y-104475866D01*
X136539024Y-104488654D01*
X136554930Y-104503070D01*
X136569346Y-104518976D01*
X136582134Y-104536219D01*
X136593170Y-104554632D01*
X136602349Y-104574038D01*
X136609581Y-104594250D01*
X136614797Y-104615074D01*
X136617947Y-104636309D01*
X136619000Y-104657750D01*
X136619000Y-105095250D01*
X136617947Y-105116691D01*
X136614797Y-105137926D01*
X136609581Y-105158750D01*
X136602349Y-105178962D01*
X136593170Y-105198368D01*
X136582134Y-105216781D01*
X136569346Y-105234024D01*
X136554930Y-105249930D01*
X136539024Y-105264346D01*
X136521781Y-105277134D01*
X136503368Y-105288170D01*
X136483962Y-105297349D01*
X136463750Y-105304581D01*
X136442926Y-105309797D01*
X136421691Y-105312947D01*
X136400250Y-105314000D01*
X135887750Y-105314000D01*
X135866309Y-105312947D01*
X135845074Y-105309797D01*
X135824250Y-105304581D01*
X135804038Y-105297349D01*
X135784632Y-105288170D01*
X135766219Y-105277134D01*
X135748976Y-105264346D01*
X135733070Y-105249930D01*
X135718654Y-105234024D01*
X135705866Y-105216781D01*
X135694830Y-105198368D01*
X135685651Y-105178962D01*
X135678419Y-105158750D01*
X135673203Y-105137926D01*
X135670053Y-105116691D01*
X135669000Y-105095250D01*
X135669000Y-104657750D01*
X135670053Y-104636309D01*
X135673203Y-104615074D01*
X135678419Y-104594250D01*
X135685651Y-104574038D01*
X135694830Y-104554632D01*
X135705866Y-104536219D01*
X135718654Y-104518976D01*
X135733070Y-104503070D01*
X135748976Y-104488654D01*
X135766219Y-104475866D01*
X135784632Y-104464830D01*
X135804038Y-104455651D01*
X135824250Y-104448419D01*
X135845074Y-104443203D01*
X135866309Y-104440053D01*
X135887750Y-104439000D01*
X136400250Y-104439000D01*
X136421691Y-104440053D01*
X136421691Y-104440053D01*
G37*
D14*
X136144000Y-104876500D03*
D13*
G36*
X136421691Y-106015053D02*
G01*
X136442926Y-106018203D01*
X136463750Y-106023419D01*
X136483962Y-106030651D01*
X136503368Y-106039830D01*
X136521781Y-106050866D01*
X136539024Y-106063654D01*
X136554930Y-106078070D01*
X136569346Y-106093976D01*
X136582134Y-106111219D01*
X136593170Y-106129632D01*
X136602349Y-106149038D01*
X136609581Y-106169250D01*
X136614797Y-106190074D01*
X136617947Y-106211309D01*
X136619000Y-106232750D01*
X136619000Y-106670250D01*
X136617947Y-106691691D01*
X136614797Y-106712926D01*
X136609581Y-106733750D01*
X136602349Y-106753962D01*
X136593170Y-106773368D01*
X136582134Y-106791781D01*
X136569346Y-106809024D01*
X136554930Y-106824930D01*
X136539024Y-106839346D01*
X136521781Y-106852134D01*
X136503368Y-106863170D01*
X136483962Y-106872349D01*
X136463750Y-106879581D01*
X136442926Y-106884797D01*
X136421691Y-106887947D01*
X136400250Y-106889000D01*
X135887750Y-106889000D01*
X135866309Y-106887947D01*
X135845074Y-106884797D01*
X135824250Y-106879581D01*
X135804038Y-106872349D01*
X135784632Y-106863170D01*
X135766219Y-106852134D01*
X135748976Y-106839346D01*
X135733070Y-106824930D01*
X135718654Y-106809024D01*
X135705866Y-106791781D01*
X135694830Y-106773368D01*
X135685651Y-106753962D01*
X135678419Y-106733750D01*
X135673203Y-106712926D01*
X135670053Y-106691691D01*
X135669000Y-106670250D01*
X135669000Y-106232750D01*
X135670053Y-106211309D01*
X135673203Y-106190074D01*
X135678419Y-106169250D01*
X135685651Y-106149038D01*
X135694830Y-106129632D01*
X135705866Y-106111219D01*
X135718654Y-106093976D01*
X135733070Y-106078070D01*
X135748976Y-106063654D01*
X135766219Y-106050866D01*
X135784632Y-106039830D01*
X135804038Y-106030651D01*
X135824250Y-106023419D01*
X135845074Y-106018203D01*
X135866309Y-106015053D01*
X135887750Y-106014000D01*
X136400250Y-106014000D01*
X136421691Y-106015053D01*
X136421691Y-106015053D01*
G37*
D14*
X136144000Y-106451500D03*
D23*
X116840000Y-116078000D03*
X131318000Y-115570000D03*
D24*
X125399000Y-117932500D02*
X124586000Y-118745000D01*
X126212000Y-117120000D02*
X125399000Y-117932500D01*
X125399000Y-117932500D02*
X126212000Y-117119500D01*
X120142000Y-108397400D02*
X119827400Y-108397400D01*
X119827400Y-108397400D02*
X119634000Y-108204000D01*
D25*
X120142000Y-108397400D02*
X120142000Y-109474000D01*
X120142000Y-109474000D02*
X120777000Y-110109000D01*
X120142000Y-107950000D02*
X120142000Y-108397400D01*
D24*
X125984000Y-106452000D02*
X125984000Y-106451500D01*
X125984000Y-106452000D02*
X127140000Y-105296000D01*
X124486000Y-107950000D02*
X125984000Y-106452000D01*
X116332000Y-107188000D02*
X115974000Y-107188000D01*
D25*
X116332000Y-107188000D02*
X118618000Y-107188000D01*
D24*
X115974000Y-107188000D02*
X115974000Y-106680000D01*
X115974000Y-106680000D02*
X114774000Y-106680000D01*
X114774000Y-107950000D02*
X115974000Y-107950000D01*
X115974000Y-107950000D02*
X115974000Y-107188000D01*
X126689000Y-100019000D02*
X126435000Y-100019000D01*
X126435000Y-100019000D02*
X125984000Y-99568000D01*
X126689000Y-100019000D02*
X126238000Y-99568000D01*
X127140000Y-105296000D02*
X127140000Y-100470000D01*
X127140000Y-100470000D02*
X126689000Y-100019000D01*
X131318000Y-112268000D02*
X123612000Y-112268000D01*
X123612000Y-112268000D02*
X123104000Y-111760000D01*
X135698000Y-110174000D02*
X133604000Y-112268000D01*
X133604000Y-112268000D02*
X131318000Y-112268000D01*
X131318000Y-112268500D02*
X131318000Y-112268000D01*
X125984000Y-99568000D02*
X125984000Y-99310700D01*
D25*
X118618000Y-107188000D02*
X119634000Y-108204000D01*
D24*
X126712000Y-98582800D02*
X125984000Y-99310700D01*
D25*
X118364000Y-106934000D02*
X118618000Y-107188000D01*
X123104000Y-111760000D02*
X133858000Y-111760000D01*
X133858000Y-111760000D02*
X135128000Y-110490000D01*
X120777000Y-110109000D02*
X122428000Y-111760000D01*
X122428000Y-111760000D02*
X123104000Y-111760000D01*
D24*
X123104000Y-111760000D02*
X120974000Y-109630000D01*
X113610000Y-117928000D02*
X113464000Y-118075000D01*
X113464000Y-118075000D02*
X113464000Y-118745000D01*
X113464000Y-118745000D02*
X114664000Y-118745000D01*
X114064000Y-117475000D02*
X113610000Y-117928000D01*
D25*
X120974000Y-107950000D02*
X122174000Y-107950000D01*
X120142000Y-107950000D02*
X120974000Y-107950000D01*
D24*
X120974000Y-107950000D02*
X120142000Y-107950000D01*
X122174000Y-107950000D02*
X120974000Y-107950000D01*
D25*
X124486000Y-107950000D02*
X124486000Y-107924000D01*
X124486000Y-107924000D02*
X126238000Y-106172000D01*
X122174000Y-107950000D02*
X124486000Y-107950000D01*
D24*
X122174000Y-107950000D02*
X124486000Y-107950000D01*
X127140000Y-105296000D02*
X127254000Y-105182000D01*
D25*
X109474000Y-113030000D02*
X109474000Y-113792000D01*
X109474000Y-113792000D02*
X113610000Y-117928000D01*
X114046000Y-113030000D02*
X116586000Y-110490000D01*
X116586000Y-110490000D02*
X120396000Y-110490000D01*
X120396000Y-110490000D02*
X120777000Y-110109000D01*
D24*
X120142000Y-107950000D02*
X120974000Y-107950000D01*
X109474000Y-113030000D02*
X112629000Y-113030000D01*
X122174000Y-107950000D02*
X120974000Y-107950000D01*
X138017000Y-126238000D02*
X139192000Y-126238000D01*
X112629000Y-116640000D02*
X113464000Y-117475000D01*
X113464000Y-117475000D02*
X114064000Y-117475000D01*
X114664000Y-117475000D02*
X114064000Y-117475000D01*
D25*
X114046000Y-113030000D02*
X109220000Y-113030000D01*
X126212000Y-117119500D02*
X125704500Y-117119500D01*
X124079000Y-118745000D02*
X123317000Y-118745000D01*
X125704500Y-117119500D02*
X124079000Y-118745000D01*
D24*
X124586000Y-118745000D02*
X123317000Y-118745000D01*
X123317000Y-118745000D02*
X122064000Y-118745000D01*
D25*
X139192000Y-126238000D02*
X139192000Y-124460000D01*
X139192000Y-124460000D02*
X136398000Y-121666000D01*
X136398000Y-121666000D02*
X120294010Y-121666000D01*
X120294010Y-121666000D02*
X120142000Y-121513990D01*
X120142000Y-121513990D02*
X120142000Y-119380000D01*
X120142000Y-119380000D02*
X120650000Y-118872000D01*
X120650000Y-118872000D02*
X122428000Y-118872000D01*
D24*
X108712000Y-99568000D02*
X108712000Y-104358000D01*
X108712000Y-104358000D02*
X113574000Y-109220000D01*
X113574000Y-109220000D02*
X114774000Y-109220000D01*
X119126000Y-102200000D02*
X118586000Y-101660000D01*
X118586000Y-101660000D02*
X118586000Y-99568000D01*
D25*
X119126000Y-102200000D02*
X119126000Y-104832000D01*
X119126000Y-104832000D02*
X120974000Y-106680000D01*
X119126000Y-99568000D02*
X119126000Y-102200000D01*
D24*
X122174000Y-106680000D02*
X120974000Y-106680000D01*
X116586000Y-99822000D02*
X116586000Y-104140000D01*
X116586000Y-99568000D02*
X116586000Y-99822000D01*
D25*
X116586000Y-104140000D02*
X116586000Y-99822000D01*
X114774000Y-105410000D02*
X115316000Y-105410000D01*
X115316000Y-105410000D02*
X116586000Y-104140000D01*
D24*
X119126000Y-126237900D02*
X118586100Y-126237900D01*
X118586100Y-126237900D02*
X118586000Y-126238000D01*
X119126000Y-126237900D02*
X119126000Y-126237800D01*
X119126000Y-126238000D02*
X119126000Y-126237900D01*
X119126000Y-126237800D02*
X119126000Y-126237700D01*
X119126000Y-126237700D02*
X119126000Y-126237500D01*
X119126000Y-126237500D02*
X119126000Y-126237100D01*
X119126000Y-126237100D02*
X119126000Y-126236200D01*
X119126000Y-126236200D02*
X119126000Y-126234500D01*
X119126000Y-126234500D02*
X119126000Y-126231100D01*
X119126000Y-126231100D02*
X119126000Y-126224200D01*
X119126000Y-126224200D02*
X119126000Y-126210500D01*
X119126000Y-126210500D02*
X119126000Y-126183100D01*
X119126000Y-126183100D02*
X119126000Y-126128200D01*
X119126000Y-126128200D02*
X119126000Y-126018400D01*
D25*
X118745000Y-117475000D02*
X122064000Y-117475000D01*
X118586000Y-126238000D02*
X118586000Y-117634000D01*
X118586000Y-117634000D02*
X118745000Y-117475000D01*
D24*
X138238000Y-115124000D02*
X138238000Y-116166000D01*
X138238000Y-116166000D02*
X134389000Y-120015000D01*
X134389000Y-120015000D02*
X122064000Y-120015000D01*
X136968000Y-114657000D02*
X136968000Y-115124000D01*
X116205000Y-120015000D02*
X117602000Y-118618000D01*
X114664000Y-120015000D02*
X116205000Y-120015000D01*
X117602000Y-118618000D02*
X117602000Y-117094000D01*
X117602000Y-117094000D02*
X121640000Y-113056000D01*
X121640000Y-113056000D02*
X135367000Y-113056000D01*
X135367000Y-113056000D02*
X136968000Y-114657000D01*
X122174000Y-109220000D02*
X123374300Y-109220000D01*
X123374300Y-109220000D02*
X123721300Y-108873000D01*
X123721300Y-108873000D02*
X136098700Y-108873000D01*
X136098700Y-108873000D02*
X136333000Y-109107300D01*
X136333000Y-109107300D02*
X136333000Y-111210100D01*
X136333000Y-111210100D02*
X136605500Y-111482600D01*
X136605500Y-111482600D02*
X137359700Y-111482600D01*
X137359700Y-111482600D02*
X138238000Y-110604300D01*
X138238000Y-110604300D02*
X138238000Y-110174000D01*
X138238000Y-110174000D02*
X138238000Y-109712000D01*
X131359000Y-98853300D02*
X131064000Y-99148300D01*
X131064000Y-99148300D02*
X131064000Y-99568000D01*
X131359000Y-98853300D02*
X130644000Y-99568000D01*
X138652000Y-99314000D02*
X138017000Y-99314000D01*
X138017000Y-99314000D02*
X138017000Y-98506000D01*
X138017000Y-98506000D02*
X137649000Y-98138600D01*
X137649000Y-98138600D02*
X132074000Y-98138600D01*
X132074000Y-98138600D02*
X131359000Y-98853300D01*
X139192000Y-99314000D02*
X138652000Y-99314000D01*
D25*
X115864000Y-116205000D02*
X114664000Y-116205000D01*
X116840000Y-116078000D02*
X116713000Y-116205000D01*
X116713000Y-116205000D02*
X115864000Y-116205000D01*
D24*
X116586000Y-126238000D02*
X116586000Y-125063000D01*
X116586000Y-125063000D02*
X113464000Y-121940000D01*
X113464000Y-121940000D02*
X113464000Y-119551000D01*
X113464000Y-119551000D02*
X113636000Y-119378000D01*
X113636000Y-119378000D02*
X115725000Y-119378000D01*
X115725000Y-119378000D02*
X115864000Y-119239000D01*
X115864000Y-119239000D02*
X115864000Y-116205000D01*
X114664000Y-116205000D02*
X115864000Y-116205000D01*
D25*
X116840000Y-116078000D02*
X116689000Y-116078000D01*
D24*
X131318500Y-113844000D02*
X131318000Y-113843500D01*
X134620000Y-114046000D02*
X134418000Y-113844000D01*
X134418000Y-113844000D02*
X131318500Y-113844000D01*
X131318500Y-113844000D02*
X131318000Y-113844000D01*
X129617000Y-115544000D02*
X126212500Y-115544000D01*
X126212500Y-115544000D02*
X126212000Y-115544500D01*
X126212500Y-115544000D02*
X123925000Y-115544000D01*
X123925000Y-115544000D02*
X123645000Y-115824000D01*
X128524000Y-99567900D02*
X133832600Y-104876500D01*
X133832600Y-104876500D02*
X136144000Y-104876500D01*
D25*
X128524000Y-99567900D02*
X128524000Y-99567800D01*
X128524000Y-99568000D02*
X128524000Y-99567900D01*
D24*
X128524000Y-99567900D02*
X128524000Y-99567800D01*
X128524000Y-99568000D02*
X128524000Y-99567900D01*
X128524000Y-99567800D02*
X128524000Y-99567600D01*
D25*
X128524000Y-99567800D02*
X128524000Y-99567600D01*
X128524000Y-99567600D02*
X128524000Y-99567200D01*
D24*
X128524000Y-99567600D02*
X128524000Y-99567200D01*
X128524000Y-99567200D02*
X128524000Y-99566500D01*
D25*
X128524000Y-99567200D02*
X128524000Y-99566500D01*
X128524000Y-99566500D02*
X128524000Y-99565000D01*
D24*
X128524000Y-99566500D02*
X128524000Y-99565000D01*
X128524000Y-99565000D02*
X128524000Y-99562000D01*
D25*
X128524000Y-99565000D02*
X128524000Y-99562000D01*
X128524000Y-99562000D02*
X128524000Y-99556000D01*
D24*
X128524000Y-99562000D02*
X128524000Y-99556000D01*
X128524000Y-99556000D02*
X128524000Y-99544100D01*
D25*
X128524000Y-99556000D02*
X128524000Y-99544100D01*
X128524000Y-99544100D02*
X128524000Y-99520300D01*
D24*
X128524000Y-99544100D02*
X128524000Y-99520300D01*
X128524000Y-99520300D02*
X128524000Y-99472700D01*
D25*
X128524000Y-99520300D02*
X128524000Y-99472700D01*
X128524000Y-99472700D02*
X128524000Y-99377500D01*
D24*
X128524000Y-99472700D02*
X128524000Y-99377500D01*
X125983800Y-104876000D02*
X125984000Y-104876200D01*
X125984000Y-104876200D02*
X125984000Y-104876500D01*
X125983800Y-104876000D02*
X125984000Y-104876000D01*
X125983500Y-104876000D02*
X125983800Y-104876000D01*
X128524000Y-99377500D02*
X128524000Y-99187000D01*
D25*
X128524000Y-99377500D02*
X128524000Y-99187000D01*
D24*
X125857000Y-104775000D02*
X125882500Y-104775000D01*
X125882500Y-104775000D02*
X125983500Y-104876000D01*
D25*
X125857000Y-104775000D02*
X125730000Y-104648000D01*
X125730000Y-104648000D02*
X122936000Y-104648000D01*
X122936000Y-104648000D02*
X122428000Y-105156000D01*
X122428000Y-105156000D02*
X122428000Y-98806000D01*
X122428000Y-98806000D02*
X123698000Y-97536000D01*
X123698000Y-97536000D02*
X127254000Y-97536000D01*
X127254000Y-97536000D02*
X128524000Y-98806000D01*
X125984000Y-104902000D02*
X125857000Y-104775000D01*
X128524000Y-99187000D02*
X128524000Y-98806000D01*
D24*
X128524000Y-99187000D02*
X128524000Y-98806000D01*
X122174000Y-105410000D02*
X123374000Y-105410000D01*
X123908000Y-104876000D02*
X125983500Y-104876000D01*
X135382000Y-114808000D02*
X134620000Y-114046000D01*
X135698000Y-115124000D02*
X135382000Y-114808000D01*
D25*
X134620000Y-114046000D02*
X135382000Y-114808000D01*
X131318000Y-115570000D02*
X131318000Y-114046000D01*
X131318000Y-114046000D02*
X134620000Y-114046000D01*
X123645000Y-115824000D02*
X122174000Y-115824000D01*
X122174000Y-115824000D02*
X121920000Y-116078000D01*
X131318000Y-115570000D02*
X124714000Y-115570000D01*
X124714000Y-115570000D02*
X124460000Y-115824000D01*
X124460000Y-115824000D02*
X123645000Y-115824000D01*
D24*
X122064000Y-116205000D02*
X123264000Y-116205000D01*
X123264000Y-116205000D02*
X123645000Y-115824000D01*
X128524000Y-98806000D02*
X128524000Y-98592700D01*
X128524000Y-98592700D02*
X128514000Y-98582800D01*
X136968000Y-110174000D02*
X136968000Y-107275500D01*
X136968000Y-107275500D02*
X136144000Y-106451500D01*
X139508000Y-110174000D02*
X140389000Y-111055000D01*
X140389000Y-111055000D02*
X140389000Y-126725000D01*
X140389000Y-126725000D02*
X139672000Y-127442000D01*
X139672000Y-127442000D02*
X133586000Y-127442000D01*
X133586000Y-127442000D02*
X132747000Y-126603000D01*
X132747000Y-126603000D02*
X132747000Y-126238000D01*
X132747000Y-126238000D02*
X131572000Y-126238000D01*
X129032000Y-126238000D02*
X130207300Y-126238000D01*
X138873000Y-105087700D02*
X140887500Y-107102200D01*
X140887500Y-107102200D02*
X140887500Y-126908300D01*
X140887500Y-126908300D02*
X139872400Y-127923400D01*
X139872400Y-127923400D02*
X131525400Y-127923400D01*
X131525400Y-127923400D02*
X130207300Y-126605300D01*
X130207300Y-126605300D02*
X130207300Y-126238000D01*
X138873000Y-105087700D02*
X138873000Y-114489000D01*
X138873000Y-114489000D02*
X139508000Y-115124000D01*
X136652000Y-99314000D02*
X136652000Y-100489000D01*
X136652000Y-100489000D02*
X138873000Y-102710000D01*
X138873000Y-102710000D02*
X138873000Y-105087700D01*
M02*
