M48
; DRILL file {KiCad (5.1.2)-2} date 2020/08/07 23:41:41
; FORMAT={-:-/ absolute / inch / decimal}
; #@! TF.CreationDate,2020-08-07T23:41:41+09:00
; #@! TF.GenerationSoftware,Kicad,Pcbnew,(5.1.2)-2
; #@! TF.FileFunction,Plated,1,2,PTH
FMAT,2
INCH
T1C0.0157
T2C0.0315
T3C0.0394
T4C0.0433
T5C0.0472
%
G90
G05
T1
X4.6Y-4.57
X5.17Y-4.55
T2
X4.59Y-3.92
X4.6687Y-3.92
X4.59Y-4.97
X4.6687Y-4.97
X4.28Y-3.92
X4.3587Y-3.92
X5.38Y-3.91
X5.4587Y-3.91
T3
X5.08Y-4.97
X5.18Y-4.97
X5.28Y-4.97
X5.38Y-4.97
X5.48Y-4.97
T4
X4.96Y-3.92
X5.06Y-3.92
X5.16Y-3.92
T5
X4.31Y-4.45
X4.31Y-4.7728
X5.8061Y-4.45
T0
M30
