G04 #@! TF.GenerationSoftware,KiCad,Pcbnew,(5.1.2)-2*
G04 #@! TF.CreationDate,2020-08-25T18:12:49+09:00*
G04 #@! TF.ProjectId,IRRemo,49525265-6d6f-42e6-9b69-6361645f7063,rev?*
G04 #@! TF.SameCoordinates,Original*
G04 #@! TF.FileFunction,Paste,Top*
G04 #@! TF.FilePolarity,Positive*
%FSLAX46Y46*%
G04 Gerber Fmt 4.6, Leading zero omitted, Abs format (unit mm)*
G04 Created by KiCad (PCBNEW (5.1.2)-2) date 2020-08-25 18:12:49*
%MOMM*%
%LPD*%
G04 APERTURE LIST*
%ADD10C,0.200000*%
%ADD11R,1.750000X0.550000*%
%ADD12C,0.100000*%
%ADD13C,0.950000*%
%ADD14C,0.875000*%
G04 APERTURE END LIST*
D10*
X101408000Y-89950000D03*
X101758000Y-89950000D03*
X102108000Y-89950000D03*
X102458000Y-89950000D03*
X102808000Y-89950000D03*
X101408000Y-89600000D03*
X101758000Y-89600000D03*
X102108000Y-89600000D03*
X102458000Y-89600000D03*
X102808000Y-89600000D03*
X101408000Y-89250000D03*
X101758000Y-89250000D03*
X102108000Y-89250000D03*
X102458000Y-89250000D03*
X102808000Y-89250000D03*
X101408000Y-88900000D03*
X101758000Y-88900000D03*
X102108000Y-88900000D03*
X102458000Y-88900000D03*
X102808000Y-88900000D03*
X101408000Y-88550000D03*
X101758000Y-88550000D03*
X102108000Y-88550000D03*
X102458000Y-88550000D03*
X102808000Y-88550000D03*
X101408000Y-88200000D03*
X101758000Y-88200000D03*
X102108000Y-88200000D03*
X102458000Y-88200000D03*
X102808000Y-88200000D03*
X101408000Y-87850000D03*
X101758000Y-87850000D03*
X102108000Y-87850000D03*
X102458000Y-87850000D03*
X102808000Y-87850000D03*
D11*
X120650000Y-84836000D03*
X120650000Y-86106000D03*
X120650000Y-87376000D03*
X120650000Y-88646000D03*
X113250000Y-88646000D03*
X113250000Y-87376000D03*
X113250000Y-86106000D03*
X113250000Y-84836000D03*
X120650000Y-96520000D03*
X120650000Y-97790000D03*
X120650000Y-99060000D03*
X120650000Y-100330000D03*
X113250000Y-100330000D03*
X113250000Y-99060000D03*
X113250000Y-97790000D03*
X113250000Y-96520000D03*
D12*
G36*
X99116779Y-99856144D02*
G01*
X99139834Y-99859563D01*
X99162443Y-99865227D01*
X99184387Y-99873079D01*
X99205457Y-99883044D01*
X99225448Y-99895026D01*
X99244168Y-99908910D01*
X99261438Y-99924562D01*
X99277090Y-99941832D01*
X99290974Y-99960552D01*
X99302956Y-99980543D01*
X99312921Y-100001613D01*
X99320773Y-100023557D01*
X99326437Y-100046166D01*
X99329856Y-100069221D01*
X99331000Y-100092500D01*
X99331000Y-100567500D01*
X99329856Y-100590779D01*
X99326437Y-100613834D01*
X99320773Y-100636443D01*
X99312921Y-100658387D01*
X99302956Y-100679457D01*
X99290974Y-100699448D01*
X99277090Y-100718168D01*
X99261438Y-100735438D01*
X99244168Y-100751090D01*
X99225448Y-100764974D01*
X99205457Y-100776956D01*
X99184387Y-100786921D01*
X99162443Y-100794773D01*
X99139834Y-100800437D01*
X99116779Y-100803856D01*
X99093500Y-100805000D01*
X98518500Y-100805000D01*
X98495221Y-100803856D01*
X98472166Y-100800437D01*
X98449557Y-100794773D01*
X98427613Y-100786921D01*
X98406543Y-100776956D01*
X98386552Y-100764974D01*
X98367832Y-100751090D01*
X98350562Y-100735438D01*
X98334910Y-100718168D01*
X98321026Y-100699448D01*
X98309044Y-100679457D01*
X98299079Y-100658387D01*
X98291227Y-100636443D01*
X98285563Y-100613834D01*
X98282144Y-100590779D01*
X98281000Y-100567500D01*
X98281000Y-100092500D01*
X98282144Y-100069221D01*
X98285563Y-100046166D01*
X98291227Y-100023557D01*
X98299079Y-100001613D01*
X98309044Y-99980543D01*
X98321026Y-99960552D01*
X98334910Y-99941832D01*
X98350562Y-99924562D01*
X98367832Y-99908910D01*
X98386552Y-99895026D01*
X98406543Y-99883044D01*
X98427613Y-99873079D01*
X98449557Y-99865227D01*
X98472166Y-99859563D01*
X98495221Y-99856144D01*
X98518500Y-99855000D01*
X99093500Y-99855000D01*
X99116779Y-99856144D01*
X99116779Y-99856144D01*
G37*
D13*
X98806000Y-100330000D03*
D12*
G36*
X97366779Y-99856144D02*
G01*
X97389834Y-99859563D01*
X97412443Y-99865227D01*
X97434387Y-99873079D01*
X97455457Y-99883044D01*
X97475448Y-99895026D01*
X97494168Y-99908910D01*
X97511438Y-99924562D01*
X97527090Y-99941832D01*
X97540974Y-99960552D01*
X97552956Y-99980543D01*
X97562921Y-100001613D01*
X97570773Y-100023557D01*
X97576437Y-100046166D01*
X97579856Y-100069221D01*
X97581000Y-100092500D01*
X97581000Y-100567500D01*
X97579856Y-100590779D01*
X97576437Y-100613834D01*
X97570773Y-100636443D01*
X97562921Y-100658387D01*
X97552956Y-100679457D01*
X97540974Y-100699448D01*
X97527090Y-100718168D01*
X97511438Y-100735438D01*
X97494168Y-100751090D01*
X97475448Y-100764974D01*
X97455457Y-100776956D01*
X97434387Y-100786921D01*
X97412443Y-100794773D01*
X97389834Y-100800437D01*
X97366779Y-100803856D01*
X97343500Y-100805000D01*
X96768500Y-100805000D01*
X96745221Y-100803856D01*
X96722166Y-100800437D01*
X96699557Y-100794773D01*
X96677613Y-100786921D01*
X96656543Y-100776956D01*
X96636552Y-100764974D01*
X96617832Y-100751090D01*
X96600562Y-100735438D01*
X96584910Y-100718168D01*
X96571026Y-100699448D01*
X96559044Y-100679457D01*
X96549079Y-100658387D01*
X96541227Y-100636443D01*
X96535563Y-100613834D01*
X96532144Y-100590779D01*
X96531000Y-100567500D01*
X96531000Y-100092500D01*
X96532144Y-100069221D01*
X96535563Y-100046166D01*
X96541227Y-100023557D01*
X96549079Y-100001613D01*
X96559044Y-99980543D01*
X96571026Y-99960552D01*
X96584910Y-99941832D01*
X96600562Y-99924562D01*
X96617832Y-99908910D01*
X96636552Y-99895026D01*
X96656543Y-99883044D01*
X96677613Y-99873079D01*
X96699557Y-99865227D01*
X96722166Y-99859563D01*
X96745221Y-99856144D01*
X96768500Y-99855000D01*
X97343500Y-99855000D01*
X97366779Y-99856144D01*
X97366779Y-99856144D01*
G37*
D13*
X97056000Y-100330000D03*
D12*
G36*
X100798691Y-99856053D02*
G01*
X100819926Y-99859203D01*
X100840750Y-99864419D01*
X100860962Y-99871651D01*
X100880368Y-99880830D01*
X100898781Y-99891866D01*
X100916024Y-99904654D01*
X100931930Y-99919070D01*
X100946346Y-99934976D01*
X100959134Y-99952219D01*
X100970170Y-99970632D01*
X100979349Y-99990038D01*
X100986581Y-100010250D01*
X100991797Y-100031074D01*
X100994947Y-100052309D01*
X100996000Y-100073750D01*
X100996000Y-100586250D01*
X100994947Y-100607691D01*
X100991797Y-100628926D01*
X100986581Y-100649750D01*
X100979349Y-100669962D01*
X100970170Y-100689368D01*
X100959134Y-100707781D01*
X100946346Y-100725024D01*
X100931930Y-100740930D01*
X100916024Y-100755346D01*
X100898781Y-100768134D01*
X100880368Y-100779170D01*
X100860962Y-100788349D01*
X100840750Y-100795581D01*
X100819926Y-100800797D01*
X100798691Y-100803947D01*
X100777250Y-100805000D01*
X100339750Y-100805000D01*
X100318309Y-100803947D01*
X100297074Y-100800797D01*
X100276250Y-100795581D01*
X100256038Y-100788349D01*
X100236632Y-100779170D01*
X100218219Y-100768134D01*
X100200976Y-100755346D01*
X100185070Y-100740930D01*
X100170654Y-100725024D01*
X100157866Y-100707781D01*
X100146830Y-100689368D01*
X100137651Y-100669962D01*
X100130419Y-100649750D01*
X100125203Y-100628926D01*
X100122053Y-100607691D01*
X100121000Y-100586250D01*
X100121000Y-100073750D01*
X100122053Y-100052309D01*
X100125203Y-100031074D01*
X100130419Y-100010250D01*
X100137651Y-99990038D01*
X100146830Y-99970632D01*
X100157866Y-99952219D01*
X100170654Y-99934976D01*
X100185070Y-99919070D01*
X100200976Y-99904654D01*
X100218219Y-99891866D01*
X100236632Y-99880830D01*
X100256038Y-99871651D01*
X100276250Y-99864419D01*
X100297074Y-99859203D01*
X100318309Y-99856053D01*
X100339750Y-99855000D01*
X100777250Y-99855000D01*
X100798691Y-99856053D01*
X100798691Y-99856053D01*
G37*
D14*
X100558500Y-100330000D03*
D12*
G36*
X102373691Y-99856053D02*
G01*
X102394926Y-99859203D01*
X102415750Y-99864419D01*
X102435962Y-99871651D01*
X102455368Y-99880830D01*
X102473781Y-99891866D01*
X102491024Y-99904654D01*
X102506930Y-99919070D01*
X102521346Y-99934976D01*
X102534134Y-99952219D01*
X102545170Y-99970632D01*
X102554349Y-99990038D01*
X102561581Y-100010250D01*
X102566797Y-100031074D01*
X102569947Y-100052309D01*
X102571000Y-100073750D01*
X102571000Y-100586250D01*
X102569947Y-100607691D01*
X102566797Y-100628926D01*
X102561581Y-100649750D01*
X102554349Y-100669962D01*
X102545170Y-100689368D01*
X102534134Y-100707781D01*
X102521346Y-100725024D01*
X102506930Y-100740930D01*
X102491024Y-100755346D01*
X102473781Y-100768134D01*
X102455368Y-100779170D01*
X102435962Y-100788349D01*
X102415750Y-100795581D01*
X102394926Y-100800797D01*
X102373691Y-100803947D01*
X102352250Y-100805000D01*
X101914750Y-100805000D01*
X101893309Y-100803947D01*
X101872074Y-100800797D01*
X101851250Y-100795581D01*
X101831038Y-100788349D01*
X101811632Y-100779170D01*
X101793219Y-100768134D01*
X101775976Y-100755346D01*
X101760070Y-100740930D01*
X101745654Y-100725024D01*
X101732866Y-100707781D01*
X101721830Y-100689368D01*
X101712651Y-100669962D01*
X101705419Y-100649750D01*
X101700203Y-100628926D01*
X101697053Y-100607691D01*
X101696000Y-100586250D01*
X101696000Y-100073750D01*
X101697053Y-100052309D01*
X101700203Y-100031074D01*
X101705419Y-100010250D01*
X101712651Y-99990038D01*
X101721830Y-99970632D01*
X101732866Y-99952219D01*
X101745654Y-99934976D01*
X101760070Y-99919070D01*
X101775976Y-99904654D01*
X101793219Y-99891866D01*
X101811632Y-99880830D01*
X101831038Y-99871651D01*
X101851250Y-99864419D01*
X101872074Y-99859203D01*
X101893309Y-99856053D01*
X101914750Y-99855000D01*
X102352250Y-99855000D01*
X102373691Y-99856053D01*
X102373691Y-99856053D01*
G37*
D14*
X102133500Y-100330000D03*
D12*
G36*
X94511691Y-92019553D02*
G01*
X94532926Y-92022703D01*
X94553750Y-92027919D01*
X94573962Y-92035151D01*
X94593368Y-92044330D01*
X94611781Y-92055366D01*
X94629024Y-92068154D01*
X94644930Y-92082570D01*
X94659346Y-92098476D01*
X94672134Y-92115719D01*
X94683170Y-92134132D01*
X94692349Y-92153538D01*
X94699581Y-92173750D01*
X94704797Y-92194574D01*
X94707947Y-92215809D01*
X94709000Y-92237250D01*
X94709000Y-92674750D01*
X94707947Y-92696191D01*
X94704797Y-92717426D01*
X94699581Y-92738250D01*
X94692349Y-92758462D01*
X94683170Y-92777868D01*
X94672134Y-92796281D01*
X94659346Y-92813524D01*
X94644930Y-92829430D01*
X94629024Y-92843846D01*
X94611781Y-92856634D01*
X94593368Y-92867670D01*
X94573962Y-92876849D01*
X94553750Y-92884081D01*
X94532926Y-92889297D01*
X94511691Y-92892447D01*
X94490250Y-92893500D01*
X93977750Y-92893500D01*
X93956309Y-92892447D01*
X93935074Y-92889297D01*
X93914250Y-92884081D01*
X93894038Y-92876849D01*
X93874632Y-92867670D01*
X93856219Y-92856634D01*
X93838976Y-92843846D01*
X93823070Y-92829430D01*
X93808654Y-92813524D01*
X93795866Y-92796281D01*
X93784830Y-92777868D01*
X93775651Y-92758462D01*
X93768419Y-92738250D01*
X93763203Y-92717426D01*
X93760053Y-92696191D01*
X93759000Y-92674750D01*
X93759000Y-92237250D01*
X93760053Y-92215809D01*
X93763203Y-92194574D01*
X93768419Y-92173750D01*
X93775651Y-92153538D01*
X93784830Y-92134132D01*
X93795866Y-92115719D01*
X93808654Y-92098476D01*
X93823070Y-92082570D01*
X93838976Y-92068154D01*
X93856219Y-92055366D01*
X93874632Y-92044330D01*
X93894038Y-92035151D01*
X93914250Y-92027919D01*
X93935074Y-92022703D01*
X93956309Y-92019553D01*
X93977750Y-92018500D01*
X94490250Y-92018500D01*
X94511691Y-92019553D01*
X94511691Y-92019553D01*
G37*
D14*
X94234000Y-92456000D03*
D12*
G36*
X94511691Y-90444553D02*
G01*
X94532926Y-90447703D01*
X94553750Y-90452919D01*
X94573962Y-90460151D01*
X94593368Y-90469330D01*
X94611781Y-90480366D01*
X94629024Y-90493154D01*
X94644930Y-90507570D01*
X94659346Y-90523476D01*
X94672134Y-90540719D01*
X94683170Y-90559132D01*
X94692349Y-90578538D01*
X94699581Y-90598750D01*
X94704797Y-90619574D01*
X94707947Y-90640809D01*
X94709000Y-90662250D01*
X94709000Y-91099750D01*
X94707947Y-91121191D01*
X94704797Y-91142426D01*
X94699581Y-91163250D01*
X94692349Y-91183462D01*
X94683170Y-91202868D01*
X94672134Y-91221281D01*
X94659346Y-91238524D01*
X94644930Y-91254430D01*
X94629024Y-91268846D01*
X94611781Y-91281634D01*
X94593368Y-91292670D01*
X94573962Y-91301849D01*
X94553750Y-91309081D01*
X94532926Y-91314297D01*
X94511691Y-91317447D01*
X94490250Y-91318500D01*
X93977750Y-91318500D01*
X93956309Y-91317447D01*
X93935074Y-91314297D01*
X93914250Y-91309081D01*
X93894038Y-91301849D01*
X93874632Y-91292670D01*
X93856219Y-91281634D01*
X93838976Y-91268846D01*
X93823070Y-91254430D01*
X93808654Y-91238524D01*
X93795866Y-91221281D01*
X93784830Y-91202868D01*
X93775651Y-91183462D01*
X93768419Y-91163250D01*
X93763203Y-91142426D01*
X93760053Y-91121191D01*
X93759000Y-91099750D01*
X93759000Y-90662250D01*
X93760053Y-90640809D01*
X93763203Y-90619574D01*
X93768419Y-90598750D01*
X93775651Y-90578538D01*
X93784830Y-90559132D01*
X93795866Y-90540719D01*
X93808654Y-90523476D01*
X93823070Y-90507570D01*
X93838976Y-90493154D01*
X93856219Y-90480366D01*
X93874632Y-90469330D01*
X93894038Y-90460151D01*
X93914250Y-90452919D01*
X93935074Y-90447703D01*
X93956309Y-90444553D01*
X93977750Y-90443500D01*
X94490250Y-90443500D01*
X94511691Y-90444553D01*
X94511691Y-90444553D01*
G37*
D14*
X94234000Y-90881000D03*
D12*
G36*
X110513691Y-84094553D02*
G01*
X110534926Y-84097703D01*
X110555750Y-84102919D01*
X110575962Y-84110151D01*
X110595368Y-84119330D01*
X110613781Y-84130366D01*
X110631024Y-84143154D01*
X110646930Y-84157570D01*
X110661346Y-84173476D01*
X110674134Y-84190719D01*
X110685170Y-84209132D01*
X110694349Y-84228538D01*
X110701581Y-84248750D01*
X110706797Y-84269574D01*
X110709947Y-84290809D01*
X110711000Y-84312250D01*
X110711000Y-84749750D01*
X110709947Y-84771191D01*
X110706797Y-84792426D01*
X110701581Y-84813250D01*
X110694349Y-84833462D01*
X110685170Y-84852868D01*
X110674134Y-84871281D01*
X110661346Y-84888524D01*
X110646930Y-84904430D01*
X110631024Y-84918846D01*
X110613781Y-84931634D01*
X110595368Y-84942670D01*
X110575962Y-84951849D01*
X110555750Y-84959081D01*
X110534926Y-84964297D01*
X110513691Y-84967447D01*
X110492250Y-84968500D01*
X109979750Y-84968500D01*
X109958309Y-84967447D01*
X109937074Y-84964297D01*
X109916250Y-84959081D01*
X109896038Y-84951849D01*
X109876632Y-84942670D01*
X109858219Y-84931634D01*
X109840976Y-84918846D01*
X109825070Y-84904430D01*
X109810654Y-84888524D01*
X109797866Y-84871281D01*
X109786830Y-84852868D01*
X109777651Y-84833462D01*
X109770419Y-84813250D01*
X109765203Y-84792426D01*
X109762053Y-84771191D01*
X109761000Y-84749750D01*
X109761000Y-84312250D01*
X109762053Y-84290809D01*
X109765203Y-84269574D01*
X109770419Y-84248750D01*
X109777651Y-84228538D01*
X109786830Y-84209132D01*
X109797866Y-84190719D01*
X109810654Y-84173476D01*
X109825070Y-84157570D01*
X109840976Y-84143154D01*
X109858219Y-84130366D01*
X109876632Y-84119330D01*
X109896038Y-84110151D01*
X109916250Y-84102919D01*
X109937074Y-84097703D01*
X109958309Y-84094553D01*
X109979750Y-84093500D01*
X110492250Y-84093500D01*
X110513691Y-84094553D01*
X110513691Y-84094553D01*
G37*
D14*
X110236000Y-84531000D03*
D12*
G36*
X110513691Y-85669553D02*
G01*
X110534926Y-85672703D01*
X110555750Y-85677919D01*
X110575962Y-85685151D01*
X110595368Y-85694330D01*
X110613781Y-85705366D01*
X110631024Y-85718154D01*
X110646930Y-85732570D01*
X110661346Y-85748476D01*
X110674134Y-85765719D01*
X110685170Y-85784132D01*
X110694349Y-85803538D01*
X110701581Y-85823750D01*
X110706797Y-85844574D01*
X110709947Y-85865809D01*
X110711000Y-85887250D01*
X110711000Y-86324750D01*
X110709947Y-86346191D01*
X110706797Y-86367426D01*
X110701581Y-86388250D01*
X110694349Y-86408462D01*
X110685170Y-86427868D01*
X110674134Y-86446281D01*
X110661346Y-86463524D01*
X110646930Y-86479430D01*
X110631024Y-86493846D01*
X110613781Y-86506634D01*
X110595368Y-86517670D01*
X110575962Y-86526849D01*
X110555750Y-86534081D01*
X110534926Y-86539297D01*
X110513691Y-86542447D01*
X110492250Y-86543500D01*
X109979750Y-86543500D01*
X109958309Y-86542447D01*
X109937074Y-86539297D01*
X109916250Y-86534081D01*
X109896038Y-86526849D01*
X109876632Y-86517670D01*
X109858219Y-86506634D01*
X109840976Y-86493846D01*
X109825070Y-86479430D01*
X109810654Y-86463524D01*
X109797866Y-86446281D01*
X109786830Y-86427868D01*
X109777651Y-86408462D01*
X109770419Y-86388250D01*
X109765203Y-86367426D01*
X109762053Y-86346191D01*
X109761000Y-86324750D01*
X109761000Y-85887250D01*
X109762053Y-85865809D01*
X109765203Y-85844574D01*
X109770419Y-85823750D01*
X109777651Y-85803538D01*
X109786830Y-85784132D01*
X109797866Y-85765719D01*
X109810654Y-85748476D01*
X109825070Y-85732570D01*
X109840976Y-85718154D01*
X109858219Y-85705366D01*
X109876632Y-85694330D01*
X109896038Y-85685151D01*
X109916250Y-85677919D01*
X109937074Y-85672703D01*
X109958309Y-85669553D01*
X109979750Y-85668500D01*
X110492250Y-85668500D01*
X110513691Y-85669553D01*
X110513691Y-85669553D01*
G37*
D14*
X110236000Y-86106000D03*
D12*
G36*
X110259691Y-95778553D02*
G01*
X110280926Y-95781703D01*
X110301750Y-95786919D01*
X110321962Y-95794151D01*
X110341368Y-95803330D01*
X110359781Y-95814366D01*
X110377024Y-95827154D01*
X110392930Y-95841570D01*
X110407346Y-95857476D01*
X110420134Y-95874719D01*
X110431170Y-95893132D01*
X110440349Y-95912538D01*
X110447581Y-95932750D01*
X110452797Y-95953574D01*
X110455947Y-95974809D01*
X110457000Y-95996250D01*
X110457000Y-96433750D01*
X110455947Y-96455191D01*
X110452797Y-96476426D01*
X110447581Y-96497250D01*
X110440349Y-96517462D01*
X110431170Y-96536868D01*
X110420134Y-96555281D01*
X110407346Y-96572524D01*
X110392930Y-96588430D01*
X110377024Y-96602846D01*
X110359781Y-96615634D01*
X110341368Y-96626670D01*
X110321962Y-96635849D01*
X110301750Y-96643081D01*
X110280926Y-96648297D01*
X110259691Y-96651447D01*
X110238250Y-96652500D01*
X109725750Y-96652500D01*
X109704309Y-96651447D01*
X109683074Y-96648297D01*
X109662250Y-96643081D01*
X109642038Y-96635849D01*
X109622632Y-96626670D01*
X109604219Y-96615634D01*
X109586976Y-96602846D01*
X109571070Y-96588430D01*
X109556654Y-96572524D01*
X109543866Y-96555281D01*
X109532830Y-96536868D01*
X109523651Y-96517462D01*
X109516419Y-96497250D01*
X109511203Y-96476426D01*
X109508053Y-96455191D01*
X109507000Y-96433750D01*
X109507000Y-95996250D01*
X109508053Y-95974809D01*
X109511203Y-95953574D01*
X109516419Y-95932750D01*
X109523651Y-95912538D01*
X109532830Y-95893132D01*
X109543866Y-95874719D01*
X109556654Y-95857476D01*
X109571070Y-95841570D01*
X109586976Y-95827154D01*
X109604219Y-95814366D01*
X109622632Y-95803330D01*
X109642038Y-95794151D01*
X109662250Y-95786919D01*
X109683074Y-95781703D01*
X109704309Y-95778553D01*
X109725750Y-95777500D01*
X110238250Y-95777500D01*
X110259691Y-95778553D01*
X110259691Y-95778553D01*
G37*
D14*
X109982000Y-96215000D03*
D12*
G36*
X110259691Y-97353553D02*
G01*
X110280926Y-97356703D01*
X110301750Y-97361919D01*
X110321962Y-97369151D01*
X110341368Y-97378330D01*
X110359781Y-97389366D01*
X110377024Y-97402154D01*
X110392930Y-97416570D01*
X110407346Y-97432476D01*
X110420134Y-97449719D01*
X110431170Y-97468132D01*
X110440349Y-97487538D01*
X110447581Y-97507750D01*
X110452797Y-97528574D01*
X110455947Y-97549809D01*
X110457000Y-97571250D01*
X110457000Y-98008750D01*
X110455947Y-98030191D01*
X110452797Y-98051426D01*
X110447581Y-98072250D01*
X110440349Y-98092462D01*
X110431170Y-98111868D01*
X110420134Y-98130281D01*
X110407346Y-98147524D01*
X110392930Y-98163430D01*
X110377024Y-98177846D01*
X110359781Y-98190634D01*
X110341368Y-98201670D01*
X110321962Y-98210849D01*
X110301750Y-98218081D01*
X110280926Y-98223297D01*
X110259691Y-98226447D01*
X110238250Y-98227500D01*
X109725750Y-98227500D01*
X109704309Y-98226447D01*
X109683074Y-98223297D01*
X109662250Y-98218081D01*
X109642038Y-98210849D01*
X109622632Y-98201670D01*
X109604219Y-98190634D01*
X109586976Y-98177846D01*
X109571070Y-98163430D01*
X109556654Y-98147524D01*
X109543866Y-98130281D01*
X109532830Y-98111868D01*
X109523651Y-98092462D01*
X109516419Y-98072250D01*
X109511203Y-98051426D01*
X109508053Y-98030191D01*
X109507000Y-98008750D01*
X109507000Y-97571250D01*
X109508053Y-97549809D01*
X109511203Y-97528574D01*
X109516419Y-97507750D01*
X109523651Y-97487538D01*
X109532830Y-97468132D01*
X109543866Y-97449719D01*
X109556654Y-97432476D01*
X109571070Y-97416570D01*
X109586976Y-97402154D01*
X109604219Y-97389366D01*
X109622632Y-97378330D01*
X109642038Y-97369151D01*
X109662250Y-97361919D01*
X109683074Y-97356703D01*
X109704309Y-97353553D01*
X109725750Y-97352500D01*
X110238250Y-97352500D01*
X110259691Y-97353553D01*
X110259691Y-97353553D01*
G37*
D14*
X109982000Y-97790000D03*
D12*
G36*
X94486191Y-94534053D02*
G01*
X94507426Y-94537203D01*
X94528250Y-94542419D01*
X94548462Y-94549651D01*
X94567868Y-94558830D01*
X94586281Y-94569866D01*
X94603524Y-94582654D01*
X94619430Y-94597070D01*
X94633846Y-94612976D01*
X94646634Y-94630219D01*
X94657670Y-94648632D01*
X94666849Y-94668038D01*
X94674081Y-94688250D01*
X94679297Y-94709074D01*
X94682447Y-94730309D01*
X94683500Y-94751750D01*
X94683500Y-95189250D01*
X94682447Y-95210691D01*
X94679297Y-95231926D01*
X94674081Y-95252750D01*
X94666849Y-95272962D01*
X94657670Y-95292368D01*
X94646634Y-95310781D01*
X94633846Y-95328024D01*
X94619430Y-95343930D01*
X94603524Y-95358346D01*
X94586281Y-95371134D01*
X94567868Y-95382170D01*
X94548462Y-95391349D01*
X94528250Y-95398581D01*
X94507426Y-95403797D01*
X94486191Y-95406947D01*
X94464750Y-95408000D01*
X93952250Y-95408000D01*
X93930809Y-95406947D01*
X93909574Y-95403797D01*
X93888750Y-95398581D01*
X93868538Y-95391349D01*
X93849132Y-95382170D01*
X93830719Y-95371134D01*
X93813476Y-95358346D01*
X93797570Y-95343930D01*
X93783154Y-95328024D01*
X93770366Y-95310781D01*
X93759330Y-95292368D01*
X93750151Y-95272962D01*
X93742919Y-95252750D01*
X93737703Y-95231926D01*
X93734553Y-95210691D01*
X93733500Y-95189250D01*
X93733500Y-94751750D01*
X93734553Y-94730309D01*
X93737703Y-94709074D01*
X93742919Y-94688250D01*
X93750151Y-94668038D01*
X93759330Y-94648632D01*
X93770366Y-94630219D01*
X93783154Y-94612976D01*
X93797570Y-94597070D01*
X93813476Y-94582654D01*
X93830719Y-94569866D01*
X93849132Y-94558830D01*
X93868538Y-94549651D01*
X93888750Y-94542419D01*
X93909574Y-94537203D01*
X93930809Y-94534053D01*
X93952250Y-94533000D01*
X94464750Y-94533000D01*
X94486191Y-94534053D01*
X94486191Y-94534053D01*
G37*
D14*
X94208500Y-94970500D03*
D12*
G36*
X94486191Y-96109053D02*
G01*
X94507426Y-96112203D01*
X94528250Y-96117419D01*
X94548462Y-96124651D01*
X94567868Y-96133830D01*
X94586281Y-96144866D01*
X94603524Y-96157654D01*
X94619430Y-96172070D01*
X94633846Y-96187976D01*
X94646634Y-96205219D01*
X94657670Y-96223632D01*
X94666849Y-96243038D01*
X94674081Y-96263250D01*
X94679297Y-96284074D01*
X94682447Y-96305309D01*
X94683500Y-96326750D01*
X94683500Y-96764250D01*
X94682447Y-96785691D01*
X94679297Y-96806926D01*
X94674081Y-96827750D01*
X94666849Y-96847962D01*
X94657670Y-96867368D01*
X94646634Y-96885781D01*
X94633846Y-96903024D01*
X94619430Y-96918930D01*
X94603524Y-96933346D01*
X94586281Y-96946134D01*
X94567868Y-96957170D01*
X94548462Y-96966349D01*
X94528250Y-96973581D01*
X94507426Y-96978797D01*
X94486191Y-96981947D01*
X94464750Y-96983000D01*
X93952250Y-96983000D01*
X93930809Y-96981947D01*
X93909574Y-96978797D01*
X93888750Y-96973581D01*
X93868538Y-96966349D01*
X93849132Y-96957170D01*
X93830719Y-96946134D01*
X93813476Y-96933346D01*
X93797570Y-96918930D01*
X93783154Y-96903024D01*
X93770366Y-96885781D01*
X93759330Y-96867368D01*
X93750151Y-96847962D01*
X93742919Y-96827750D01*
X93737703Y-96806926D01*
X93734553Y-96785691D01*
X93733500Y-96764250D01*
X93733500Y-96326750D01*
X93734553Y-96305309D01*
X93737703Y-96284074D01*
X93742919Y-96263250D01*
X93750151Y-96243038D01*
X93759330Y-96223632D01*
X93770366Y-96205219D01*
X93783154Y-96187976D01*
X93797570Y-96172070D01*
X93813476Y-96157654D01*
X93830719Y-96144866D01*
X93849132Y-96133830D01*
X93868538Y-96124651D01*
X93888750Y-96117419D01*
X93909574Y-96112203D01*
X93930809Y-96109053D01*
X93952250Y-96108000D01*
X94464750Y-96108000D01*
X94486191Y-96109053D01*
X94486191Y-96109053D01*
G37*
D14*
X94208500Y-96545500D03*
M02*
