G04 #@! TF.GenerationSoftware,KiCad,Pcbnew,(5.1.2)-2*
G04 #@! TF.CreationDate,2020-08-22T00:21:16+09:00*
G04 #@! TF.ProjectId,IRRemo,49525265-6d6f-42e6-9b69-6361645f7063,rev?*
G04 #@! TF.SameCoordinates,Original*
G04 #@! TF.FileFunction,Copper,L2,Bot*
G04 #@! TF.FilePolarity,Positive*
%FSLAX46Y46*%
G04 Gerber Fmt 4.6, Leading zero omitted, Abs format (unit mm)*
G04 Created by KiCad (PCBNEW (5.1.2)-2) date 2020-08-22 00:21:16*
%MOMM*%
%LPD*%
G04 APERTURE LIST*
%ADD10C,3.200000*%
%ADD11R,3.500000X3.500000*%
%ADD12C,3.500000*%
%ADD13O,1.350000X1.350000*%
%ADD14R,1.350000X1.350000*%
%ADD15O,1.905000X2.000000*%
%ADD16R,1.905000X2.000000*%
%ADD17O,1.700000X1.700000*%
%ADD18R,1.700000X1.700000*%
%ADD19C,0.800000*%
%ADD20C,1.000000*%
%ADD21C,0.250000*%
G04 APERTURE END LIST*
D10*
X99568000Y-94560000D03*
D11*
X99568000Y-86360000D03*
D12*
X137568000Y-86360000D03*
D13*
X130334000Y-98806000D03*
D14*
X132334000Y-98806000D03*
D15*
X100076000Y-72390000D03*
X102616000Y-72390000D03*
D16*
X105156000Y-72390000D03*
D13*
X130334000Y-74168000D03*
D14*
X132334000Y-74168000D03*
D17*
X121666000Y-99568000D03*
X119126000Y-99568000D03*
D18*
X116586000Y-99568000D03*
D13*
X114300000Y-74136000D03*
X112300000Y-74136000D03*
X114300000Y-72136000D03*
D14*
X112300000Y-72136000D03*
D17*
X108836000Y-99460000D03*
X106296000Y-99460000D03*
X103756000Y-99460000D03*
X101216000Y-99460000D03*
D18*
X98676000Y-99460000D03*
D19*
X121158000Y-90825200D03*
X108077000Y-87757000D03*
X124206000Y-81534000D03*
X128778000Y-89408000D03*
X112014000Y-88925400D03*
D20*
X100076000Y-86360000D02*
X106680000Y-86360000D01*
X106680000Y-86360000D02*
X108077000Y-87757000D01*
D21*
X115206000Y-90825200D02*
X108836000Y-97195300D01*
X108836000Y-97195300D02*
X108836000Y-99460000D01*
X115206000Y-90825200D02*
X120582000Y-90825200D01*
D20*
X108077000Y-87757000D02*
X111145000Y-90825200D01*
X121158000Y-90825200D02*
X121158000Y-84582000D01*
X121158000Y-84582000D02*
X124206000Y-81534000D01*
X110530000Y-90825200D02*
X111145000Y-90825200D01*
X111145000Y-90825200D02*
X115206000Y-90825200D01*
X115206000Y-90825200D02*
X120582000Y-90825200D01*
X120582000Y-90825200D02*
X121158000Y-90825200D01*
D21*
X100076000Y-86360000D02*
X99568000Y-86360000D01*
X114300000Y-74136000D02*
X115300000Y-74136000D01*
X115300000Y-74136000D02*
X115300000Y-74136300D01*
X121666000Y-99568000D02*
X120491000Y-99568000D01*
X120491000Y-99568000D02*
X120491000Y-99935300D01*
X120491000Y-99935300D02*
X119658000Y-100768000D01*
X119658000Y-100768000D02*
X108412000Y-100768000D01*
X108412000Y-100768000D02*
X107471000Y-99827300D01*
X107471000Y-99827300D02*
X107471000Y-99460000D01*
X107471000Y-99460000D02*
X106296000Y-99460000D01*
D20*
X130334000Y-98806000D02*
X130334000Y-90964000D01*
X130334000Y-90964000D02*
X128778000Y-89408000D01*
D21*
X105156000Y-72390000D02*
X106433800Y-72390000D01*
X112014000Y-88925400D02*
X112014000Y-77970200D01*
X112014000Y-77970200D02*
X106433800Y-72390000D01*
M02*
