M48
; DRILL file {KiCad (5.1.2)-2} date 2020/08/25 18:13:02
; FORMAT={-:-/ absolute / inch / decimal}
; #@! TF.CreationDate,2020-08-25T18:13:02+09:00
; #@! TF.GenerationSoftware,Kicad,Pcbnew,(5.1.2)-2
; #@! TF.FileFunction,Plated,1,2,PTH
FMAT,2
INCH
T1C0.0118
T2C0.0157
T3C0.0315
T4C0.0394
T5C0.0433
T6C0.0591
%
G90
G05
T1
X3.9715Y-3.4659
X3.9726Y-3.5159
X3.9815Y-3.4792
X3.9912Y-3.4448
X3.9944Y-3.4275
X4.0152Y-3.336
X4.02Y-3.4464
X4.0272Y-3.3489
X4.0338Y-3.4371
X4.0677Y-3.4555
X4.4148Y-3.95
T2
X3.8431Y-3.8141
X3.9499Y-3.5009
X4.5177Y-3.34
T3
X4.29Y-3.08
X4.29Y-3.1587
X4.3687Y-3.08
X4.3687Y-3.1587
X4.54Y-4.1
X4.6187Y-4.1
X4.5413Y-3.16
X4.62Y-3.16
T4
X3.9Y-3.14
X4.0Y-3.14
X4.1Y-3.14
X3.68Y-4.11
X3.78Y-4.11
X3.88Y-4.11
X3.98Y-4.11
X4.08Y-4.11
T5
X3.51Y-3.08
X3.61Y-3.08
X3.71Y-3.08
T6
X3.53Y-3.63
X3.53Y-3.9528
X5.0261Y-3.63
T0
M30
