G04 #@! TF.GenerationSoftware,KiCad,Pcbnew,(5.1.2)-2*
G04 #@! TF.CreationDate,2020-08-22T00:21:16+09:00*
G04 #@! TF.ProjectId,IRRemo,49525265-6d6f-42e6-9b69-6361645f7063,rev?*
G04 #@! TF.SameCoordinates,Original*
G04 #@! TF.FileFunction,Soldermask,Top*
G04 #@! TF.FilePolarity,Negative*
%FSLAX46Y46*%
G04 Gerber Fmt 4.6, Leading zero omitted, Abs format (unit mm)*
G04 Created by KiCad (PCBNEW (5.1.2)-2) date 2020-08-22 00:21:16*
%MOMM*%
%LPD*%
G04 APERTURE LIST*
%ADD10C,0.100000*%
G04 APERTURE END LIST*
D10*
G36*
X117487000Y-100469000D02*
G01*
X115685000Y-100469000D01*
X115685000Y-98667000D01*
X117487000Y-98667000D01*
X117487000Y-100469000D01*
X117487000Y-100469000D01*
G37*
G36*
X121776442Y-98673518D02*
G01*
X121842627Y-98680037D01*
X122012466Y-98731557D01*
X122168991Y-98815222D01*
X122204729Y-98844552D01*
X122306186Y-98927814D01*
X122389448Y-99029271D01*
X122418778Y-99065009D01*
X122502443Y-99221534D01*
X122553963Y-99391373D01*
X122571359Y-99568000D01*
X122553963Y-99744627D01*
X122502443Y-99914466D01*
X122418778Y-100070991D01*
X122394819Y-100100185D01*
X122306186Y-100208186D01*
X122204729Y-100291448D01*
X122168991Y-100320778D01*
X122012466Y-100404443D01*
X121842627Y-100455963D01*
X121776442Y-100462482D01*
X121710260Y-100469000D01*
X121621740Y-100469000D01*
X121555557Y-100462481D01*
X121489373Y-100455963D01*
X121319534Y-100404443D01*
X121163009Y-100320778D01*
X121127271Y-100291448D01*
X121025814Y-100208186D01*
X120937181Y-100100185D01*
X120913222Y-100070991D01*
X120829557Y-99914466D01*
X120778037Y-99744627D01*
X120760641Y-99568000D01*
X120778037Y-99391373D01*
X120829557Y-99221534D01*
X120913222Y-99065009D01*
X120942552Y-99029271D01*
X121025814Y-98927814D01*
X121127271Y-98844552D01*
X121163009Y-98815222D01*
X121319534Y-98731557D01*
X121489373Y-98680037D01*
X121555558Y-98673518D01*
X121621740Y-98667000D01*
X121710260Y-98667000D01*
X121776442Y-98673518D01*
X121776442Y-98673518D01*
G37*
G36*
X119236442Y-98673518D02*
G01*
X119302627Y-98680037D01*
X119472466Y-98731557D01*
X119628991Y-98815222D01*
X119664729Y-98844552D01*
X119766186Y-98927814D01*
X119849448Y-99029271D01*
X119878778Y-99065009D01*
X119962443Y-99221534D01*
X120013963Y-99391373D01*
X120031359Y-99568000D01*
X120013963Y-99744627D01*
X119962443Y-99914466D01*
X119878778Y-100070991D01*
X119854819Y-100100185D01*
X119766186Y-100208186D01*
X119664729Y-100291448D01*
X119628991Y-100320778D01*
X119472466Y-100404443D01*
X119302627Y-100455963D01*
X119236442Y-100462482D01*
X119170260Y-100469000D01*
X119081740Y-100469000D01*
X119015557Y-100462481D01*
X118949373Y-100455963D01*
X118779534Y-100404443D01*
X118623009Y-100320778D01*
X118587271Y-100291448D01*
X118485814Y-100208186D01*
X118397181Y-100100185D01*
X118373222Y-100070991D01*
X118289557Y-99914466D01*
X118238037Y-99744627D01*
X118220641Y-99568000D01*
X118238037Y-99391373D01*
X118289557Y-99221534D01*
X118373222Y-99065009D01*
X118402552Y-99029271D01*
X118485814Y-98927814D01*
X118587271Y-98844552D01*
X118623009Y-98815222D01*
X118779534Y-98731557D01*
X118949373Y-98680037D01*
X119015558Y-98673518D01*
X119081740Y-98667000D01*
X119170260Y-98667000D01*
X119236442Y-98673518D01*
X119236442Y-98673518D01*
G37*
G36*
X101326443Y-98565519D02*
G01*
X101392627Y-98572037D01*
X101562466Y-98623557D01*
X101718991Y-98707222D01*
X101748643Y-98731557D01*
X101856186Y-98819814D01*
X101939448Y-98921271D01*
X101968778Y-98957009D01*
X102052443Y-99113534D01*
X102103963Y-99283373D01*
X102121359Y-99460000D01*
X102103963Y-99636627D01*
X102052443Y-99806466D01*
X101968778Y-99962991D01*
X101939448Y-99998729D01*
X101856186Y-100100186D01*
X101754729Y-100183448D01*
X101718991Y-100212778D01*
X101562466Y-100296443D01*
X101392627Y-100347963D01*
X101326443Y-100354481D01*
X101260260Y-100361000D01*
X101171740Y-100361000D01*
X101105557Y-100354481D01*
X101039373Y-100347963D01*
X100869534Y-100296443D01*
X100713009Y-100212778D01*
X100677271Y-100183448D01*
X100575814Y-100100186D01*
X100492552Y-99998729D01*
X100463222Y-99962991D01*
X100379557Y-99806466D01*
X100328037Y-99636627D01*
X100310641Y-99460000D01*
X100328037Y-99283373D01*
X100379557Y-99113534D01*
X100463222Y-98957009D01*
X100492552Y-98921271D01*
X100575814Y-98819814D01*
X100683357Y-98731557D01*
X100713009Y-98707222D01*
X100869534Y-98623557D01*
X101039373Y-98572037D01*
X101105558Y-98565518D01*
X101171740Y-98559000D01*
X101260260Y-98559000D01*
X101326443Y-98565519D01*
X101326443Y-98565519D01*
G37*
G36*
X99577000Y-100361000D02*
G01*
X97775000Y-100361000D01*
X97775000Y-98559000D01*
X99577000Y-98559000D01*
X99577000Y-100361000D01*
X99577000Y-100361000D01*
G37*
G36*
X108946443Y-98565519D02*
G01*
X109012627Y-98572037D01*
X109182466Y-98623557D01*
X109338991Y-98707222D01*
X109368643Y-98731557D01*
X109476186Y-98819814D01*
X109559448Y-98921271D01*
X109588778Y-98957009D01*
X109672443Y-99113534D01*
X109723963Y-99283373D01*
X109741359Y-99460000D01*
X109723963Y-99636627D01*
X109672443Y-99806466D01*
X109588778Y-99962991D01*
X109559448Y-99998729D01*
X109476186Y-100100186D01*
X109374729Y-100183448D01*
X109338991Y-100212778D01*
X109182466Y-100296443D01*
X109012627Y-100347963D01*
X108946443Y-100354481D01*
X108880260Y-100361000D01*
X108791740Y-100361000D01*
X108725557Y-100354481D01*
X108659373Y-100347963D01*
X108489534Y-100296443D01*
X108333009Y-100212778D01*
X108297271Y-100183448D01*
X108195814Y-100100186D01*
X108112552Y-99998729D01*
X108083222Y-99962991D01*
X107999557Y-99806466D01*
X107948037Y-99636627D01*
X107930641Y-99460000D01*
X107948037Y-99283373D01*
X107999557Y-99113534D01*
X108083222Y-98957009D01*
X108112552Y-98921271D01*
X108195814Y-98819814D01*
X108303357Y-98731557D01*
X108333009Y-98707222D01*
X108489534Y-98623557D01*
X108659373Y-98572037D01*
X108725558Y-98565518D01*
X108791740Y-98559000D01*
X108880260Y-98559000D01*
X108946443Y-98565519D01*
X108946443Y-98565519D01*
G37*
G36*
X106406443Y-98565519D02*
G01*
X106472627Y-98572037D01*
X106642466Y-98623557D01*
X106798991Y-98707222D01*
X106828643Y-98731557D01*
X106936186Y-98819814D01*
X107019448Y-98921271D01*
X107048778Y-98957009D01*
X107132443Y-99113534D01*
X107183963Y-99283373D01*
X107201359Y-99460000D01*
X107183963Y-99636627D01*
X107132443Y-99806466D01*
X107048778Y-99962991D01*
X107019448Y-99998729D01*
X106936186Y-100100186D01*
X106834729Y-100183448D01*
X106798991Y-100212778D01*
X106642466Y-100296443D01*
X106472627Y-100347963D01*
X106406443Y-100354481D01*
X106340260Y-100361000D01*
X106251740Y-100361000D01*
X106185557Y-100354481D01*
X106119373Y-100347963D01*
X105949534Y-100296443D01*
X105793009Y-100212778D01*
X105757271Y-100183448D01*
X105655814Y-100100186D01*
X105572552Y-99998729D01*
X105543222Y-99962991D01*
X105459557Y-99806466D01*
X105408037Y-99636627D01*
X105390641Y-99460000D01*
X105408037Y-99283373D01*
X105459557Y-99113534D01*
X105543222Y-98957009D01*
X105572552Y-98921271D01*
X105655814Y-98819814D01*
X105763357Y-98731557D01*
X105793009Y-98707222D01*
X105949534Y-98623557D01*
X106119373Y-98572037D01*
X106185558Y-98565518D01*
X106251740Y-98559000D01*
X106340260Y-98559000D01*
X106406443Y-98565519D01*
X106406443Y-98565519D01*
G37*
G36*
X103866443Y-98565519D02*
G01*
X103932627Y-98572037D01*
X104102466Y-98623557D01*
X104258991Y-98707222D01*
X104288643Y-98731557D01*
X104396186Y-98819814D01*
X104479448Y-98921271D01*
X104508778Y-98957009D01*
X104592443Y-99113534D01*
X104643963Y-99283373D01*
X104661359Y-99460000D01*
X104643963Y-99636627D01*
X104592443Y-99806466D01*
X104508778Y-99962991D01*
X104479448Y-99998729D01*
X104396186Y-100100186D01*
X104294729Y-100183448D01*
X104258991Y-100212778D01*
X104102466Y-100296443D01*
X103932627Y-100347963D01*
X103866443Y-100354481D01*
X103800260Y-100361000D01*
X103711740Y-100361000D01*
X103645557Y-100354481D01*
X103579373Y-100347963D01*
X103409534Y-100296443D01*
X103253009Y-100212778D01*
X103217271Y-100183448D01*
X103115814Y-100100186D01*
X103032552Y-99998729D01*
X103003222Y-99962991D01*
X102919557Y-99806466D01*
X102868037Y-99636627D01*
X102850641Y-99460000D01*
X102868037Y-99283373D01*
X102919557Y-99113534D01*
X103003222Y-98957009D01*
X103032552Y-98921271D01*
X103115814Y-98819814D01*
X103223357Y-98731557D01*
X103253009Y-98707222D01*
X103409534Y-98623557D01*
X103579373Y-98572037D01*
X103645558Y-98565518D01*
X103711740Y-98559000D01*
X103800260Y-98559000D01*
X103866443Y-98565519D01*
X103866443Y-98565519D01*
G37*
G36*
X133060000Y-99532000D02*
G01*
X131608000Y-99532000D01*
X131608000Y-98080000D01*
X133060000Y-98080000D01*
X133060000Y-99532000D01*
X133060000Y-99532000D01*
G37*
G36*
X130405213Y-98083502D02*
G01*
X130476321Y-98090505D01*
X130613172Y-98132019D01*
X130613175Y-98132020D01*
X130739294Y-98199432D01*
X130849843Y-98290157D01*
X130940568Y-98400706D01*
X131007980Y-98526825D01*
X131007981Y-98526828D01*
X131049495Y-98663679D01*
X131063512Y-98806000D01*
X131049495Y-98948321D01*
X131014097Y-99065009D01*
X131007980Y-99085175D01*
X130940568Y-99211294D01*
X130849843Y-99321843D01*
X130739294Y-99412568D01*
X130613175Y-99479980D01*
X130613172Y-99479981D01*
X130476321Y-99521495D01*
X130405213Y-99528498D01*
X130369660Y-99532000D01*
X130298340Y-99532000D01*
X130262787Y-99528498D01*
X130191679Y-99521495D01*
X130054828Y-99479981D01*
X130054825Y-99479980D01*
X129928706Y-99412568D01*
X129818157Y-99321843D01*
X129727432Y-99211294D01*
X129660020Y-99085175D01*
X129653903Y-99065009D01*
X129618505Y-98948321D01*
X129604488Y-98806000D01*
X129618505Y-98663679D01*
X129660019Y-98526828D01*
X129660020Y-98526825D01*
X129727432Y-98400706D01*
X129818157Y-98290157D01*
X129928706Y-98199432D01*
X130054825Y-98132020D01*
X130054828Y-98132019D01*
X130191679Y-98090505D01*
X130262787Y-98083502D01*
X130298340Y-98080000D01*
X130369660Y-98080000D01*
X130405213Y-98083502D01*
X130405213Y-98083502D01*
G37*
G36*
X99943256Y-92951298D02*
G01*
X100049579Y-92972447D01*
X100350042Y-93096903D01*
X100620451Y-93277585D01*
X100850415Y-93507549D01*
X100850416Y-93507551D01*
X101031098Y-93777960D01*
X101155553Y-94078422D01*
X101215214Y-94378354D01*
X101219000Y-94397391D01*
X101219000Y-94722609D01*
X101155553Y-95041579D01*
X101031097Y-95342042D01*
X100850415Y-95612451D01*
X100620451Y-95842415D01*
X100350042Y-96023097D01*
X100049579Y-96147553D01*
X99943256Y-96168702D01*
X99730611Y-96211000D01*
X99405389Y-96211000D01*
X99192744Y-96168702D01*
X99086421Y-96147553D01*
X98785958Y-96023097D01*
X98515549Y-95842415D01*
X98285585Y-95612451D01*
X98104903Y-95342042D01*
X97980447Y-95041579D01*
X97917000Y-94722609D01*
X97917000Y-94397391D01*
X97920787Y-94378354D01*
X97980447Y-94078422D01*
X98104902Y-93777960D01*
X98285584Y-93507551D01*
X98285585Y-93507549D01*
X98515549Y-93277585D01*
X98785958Y-93096903D01*
X99086421Y-92972447D01*
X99192744Y-92951298D01*
X99405389Y-92909000D01*
X99730611Y-92909000D01*
X99943256Y-92951298D01*
X99943256Y-92951298D01*
G37*
G36*
X110650499Y-94220445D02*
G01*
X110687995Y-94231820D01*
X110722554Y-94250292D01*
X110752847Y-94275153D01*
X110777708Y-94305446D01*
X110796180Y-94340005D01*
X110807555Y-94377501D01*
X110812000Y-94422638D01*
X110812000Y-95061362D01*
X110807555Y-95106499D01*
X110796180Y-95143995D01*
X110777708Y-95178554D01*
X110752847Y-95208847D01*
X110722554Y-95233708D01*
X110687995Y-95252180D01*
X110650499Y-95263555D01*
X110605362Y-95268000D01*
X109866638Y-95268000D01*
X109821501Y-95263555D01*
X109784005Y-95252180D01*
X109749446Y-95233708D01*
X109719153Y-95208847D01*
X109694292Y-95178554D01*
X109675820Y-95143995D01*
X109664445Y-95106499D01*
X109660000Y-95061362D01*
X109660000Y-94422638D01*
X109664445Y-94377501D01*
X109675820Y-94340005D01*
X109694292Y-94305446D01*
X109719153Y-94275153D01*
X109749446Y-94250292D01*
X109784005Y-94231820D01*
X109821501Y-94220445D01*
X109866638Y-94216000D01*
X110605362Y-94216000D01*
X110650499Y-94220445D01*
X110650499Y-94220445D01*
G37*
G36*
X112400499Y-94220445D02*
G01*
X112437995Y-94231820D01*
X112472554Y-94250292D01*
X112502847Y-94275153D01*
X112527708Y-94305446D01*
X112546180Y-94340005D01*
X112557555Y-94377501D01*
X112562000Y-94422638D01*
X112562000Y-95061362D01*
X112557555Y-95106499D01*
X112546180Y-95143995D01*
X112527708Y-95178554D01*
X112502847Y-95208847D01*
X112472554Y-95233708D01*
X112437995Y-95252180D01*
X112400499Y-95263555D01*
X112355362Y-95268000D01*
X111616638Y-95268000D01*
X111571501Y-95263555D01*
X111534005Y-95252180D01*
X111499446Y-95233708D01*
X111469153Y-95208847D01*
X111444292Y-95178554D01*
X111425820Y-95143995D01*
X111414445Y-95106499D01*
X111410000Y-95061362D01*
X111410000Y-94422638D01*
X111414445Y-94377501D01*
X111425820Y-94340005D01*
X111444292Y-94305446D01*
X111469153Y-94275153D01*
X111499446Y-94250292D01*
X111534005Y-94231820D01*
X111571501Y-94220445D01*
X111616638Y-94216000D01*
X112355362Y-94216000D01*
X112400499Y-94220445D01*
X112400499Y-94220445D01*
G37*
G36*
X106970591Y-94220085D02*
G01*
X107004569Y-94230393D01*
X107035890Y-94247134D01*
X107063339Y-94269661D01*
X107085866Y-94297110D01*
X107102607Y-94328431D01*
X107112915Y-94362409D01*
X107117000Y-94403890D01*
X107117000Y-95080110D01*
X107112915Y-95121591D01*
X107102607Y-95155569D01*
X107085866Y-95186890D01*
X107063339Y-95214339D01*
X107035890Y-95236866D01*
X107004569Y-95253607D01*
X106970591Y-95263915D01*
X106929110Y-95268000D01*
X106327890Y-95268000D01*
X106286409Y-95263915D01*
X106252431Y-95253607D01*
X106221110Y-95236866D01*
X106193661Y-95214339D01*
X106171134Y-95186890D01*
X106154393Y-95155569D01*
X106144085Y-95121591D01*
X106140000Y-95080110D01*
X106140000Y-94403890D01*
X106144085Y-94362409D01*
X106154393Y-94328431D01*
X106171134Y-94297110D01*
X106193661Y-94269661D01*
X106221110Y-94247134D01*
X106252431Y-94230393D01*
X106286409Y-94220085D01*
X106327890Y-94216000D01*
X106929110Y-94216000D01*
X106970591Y-94220085D01*
X106970591Y-94220085D01*
G37*
G36*
X108545591Y-94220085D02*
G01*
X108579569Y-94230393D01*
X108610890Y-94247134D01*
X108638339Y-94269661D01*
X108660866Y-94297110D01*
X108677607Y-94328431D01*
X108687915Y-94362409D01*
X108692000Y-94403890D01*
X108692000Y-95080110D01*
X108687915Y-95121591D01*
X108677607Y-95155569D01*
X108660866Y-95186890D01*
X108638339Y-95214339D01*
X108610890Y-95236866D01*
X108579569Y-95253607D01*
X108545591Y-95263915D01*
X108504110Y-95268000D01*
X107902890Y-95268000D01*
X107861409Y-95263915D01*
X107827431Y-95253607D01*
X107796110Y-95236866D01*
X107768661Y-95214339D01*
X107746134Y-95186890D01*
X107729393Y-95155569D01*
X107719085Y-95121591D01*
X107715000Y-95080110D01*
X107715000Y-94403890D01*
X107719085Y-94362409D01*
X107729393Y-94328431D01*
X107746134Y-94297110D01*
X107768661Y-94269661D01*
X107796110Y-94247134D01*
X107827431Y-94230393D01*
X107861409Y-94220085D01*
X107902890Y-94216000D01*
X108504110Y-94216000D01*
X108545591Y-94220085D01*
X108545591Y-94220085D01*
G37*
G36*
X127782000Y-93417000D02*
G01*
X125930000Y-93417000D01*
X125930000Y-92765000D01*
X127782000Y-92765000D01*
X127782000Y-93417000D01*
X127782000Y-93417000D01*
G37*
G36*
X135182000Y-93417000D02*
G01*
X133330000Y-93417000D01*
X133330000Y-92765000D01*
X135182000Y-92765000D01*
X135182000Y-93417000D01*
X135182000Y-93417000D01*
G37*
G36*
X127782000Y-92147000D02*
G01*
X125930000Y-92147000D01*
X125930000Y-91495000D01*
X127782000Y-91495000D01*
X127782000Y-92147000D01*
X127782000Y-92147000D01*
G37*
G36*
X135182000Y-92147000D02*
G01*
X133330000Y-92147000D01*
X133330000Y-91495000D01*
X135182000Y-91495000D01*
X135182000Y-92147000D01*
X135182000Y-92147000D01*
G37*
G36*
X123289591Y-90981085D02*
G01*
X123323569Y-90991393D01*
X123354890Y-91008134D01*
X123382339Y-91030661D01*
X123404866Y-91058110D01*
X123421607Y-91089431D01*
X123431915Y-91123409D01*
X123436000Y-91164890D01*
X123436000Y-91766110D01*
X123431915Y-91807591D01*
X123421607Y-91841569D01*
X123404866Y-91872890D01*
X123382339Y-91900339D01*
X123354890Y-91922866D01*
X123323569Y-91939607D01*
X123289591Y-91949915D01*
X123248110Y-91954000D01*
X122571890Y-91954000D01*
X122530409Y-91949915D01*
X122496431Y-91939607D01*
X122465110Y-91922866D01*
X122437661Y-91900339D01*
X122415134Y-91872890D01*
X122398393Y-91841569D01*
X122388085Y-91807591D01*
X122384000Y-91766110D01*
X122384000Y-91164890D01*
X122388085Y-91123409D01*
X122398393Y-91089431D01*
X122415134Y-91058110D01*
X122437661Y-91030661D01*
X122465110Y-91008134D01*
X122496431Y-90991393D01*
X122530409Y-90981085D01*
X122571890Y-90977000D01*
X123248110Y-90977000D01*
X123289591Y-90981085D01*
X123289591Y-90981085D01*
G37*
G36*
X114415000Y-91667000D02*
G01*
X112563000Y-91667000D01*
X112563000Y-82665000D01*
X114415000Y-82665000D01*
X114415000Y-91667000D01*
X114415000Y-91667000D01*
G37*
G36*
X107215000Y-91667000D02*
G01*
X105363000Y-91667000D01*
X105363000Y-82665000D01*
X107215000Y-82665000D01*
X107215000Y-91667000D01*
X107215000Y-91667000D01*
G37*
G36*
X135182000Y-90877000D02*
G01*
X133330000Y-90877000D01*
X133330000Y-90225000D01*
X135182000Y-90225000D01*
X135182000Y-90877000D01*
X135182000Y-90877000D01*
G37*
G36*
X127782000Y-90877000D02*
G01*
X125930000Y-90877000D01*
X125930000Y-90225000D01*
X127782000Y-90225000D01*
X127782000Y-90877000D01*
X127782000Y-90877000D01*
G37*
G36*
X123289591Y-89406085D02*
G01*
X123323569Y-89416393D01*
X123354890Y-89433134D01*
X123382339Y-89455661D01*
X123404866Y-89483110D01*
X123421607Y-89514431D01*
X123431915Y-89548409D01*
X123436000Y-89589890D01*
X123436000Y-90191110D01*
X123431915Y-90232591D01*
X123421607Y-90266569D01*
X123404866Y-90297890D01*
X123382339Y-90325339D01*
X123354890Y-90347866D01*
X123323569Y-90364607D01*
X123289591Y-90374915D01*
X123248110Y-90379000D01*
X122571890Y-90379000D01*
X122530409Y-90374915D01*
X122496431Y-90364607D01*
X122465110Y-90347866D01*
X122437661Y-90325339D01*
X122415134Y-90297890D01*
X122398393Y-90266569D01*
X122388085Y-90232591D01*
X122384000Y-90191110D01*
X122384000Y-89589890D01*
X122388085Y-89548409D01*
X122398393Y-89514431D01*
X122415134Y-89483110D01*
X122437661Y-89455661D01*
X122465110Y-89433134D01*
X122496431Y-89416393D01*
X122530409Y-89406085D01*
X122571890Y-89402000D01*
X123248110Y-89402000D01*
X123289591Y-89406085D01*
X123289591Y-89406085D01*
G37*
G36*
X127782000Y-89607000D02*
G01*
X125930000Y-89607000D01*
X125930000Y-88955000D01*
X127782000Y-88955000D01*
X127782000Y-89607000D01*
X127782000Y-89607000D01*
G37*
G36*
X135182000Y-89607000D02*
G01*
X133330000Y-89607000D01*
X133330000Y-88955000D01*
X135182000Y-88955000D01*
X135182000Y-89607000D01*
X135182000Y-89607000D01*
G37*
G36*
X138093331Y-84628211D02*
G01*
X138421092Y-84763974D01*
X138716070Y-84961072D01*
X138966928Y-85211930D01*
X139164026Y-85506908D01*
X139299789Y-85834669D01*
X139369000Y-86182616D01*
X139369000Y-86537384D01*
X139299789Y-86885331D01*
X139164026Y-87213092D01*
X138966928Y-87508070D01*
X138716070Y-87758928D01*
X138421092Y-87956026D01*
X138093331Y-88091789D01*
X137745384Y-88161000D01*
X137390616Y-88161000D01*
X137042669Y-88091789D01*
X136714908Y-87956026D01*
X136419930Y-87758928D01*
X136169072Y-87508070D01*
X135971974Y-87213092D01*
X135836211Y-86885331D01*
X135767000Y-86537384D01*
X135767000Y-86182616D01*
X135836211Y-85834669D01*
X135971974Y-85506908D01*
X136169072Y-85211930D01*
X136419930Y-84961072D01*
X136714908Y-84763974D01*
X137042669Y-84628211D01*
X137390616Y-84559000D01*
X137745384Y-84559000D01*
X138093331Y-84628211D01*
X138093331Y-84628211D01*
G37*
G36*
X101369000Y-88161000D02*
G01*
X97767000Y-88161000D01*
X97767000Y-84559000D01*
X101369000Y-84559000D01*
X101369000Y-88161000D01*
X101369000Y-88161000D01*
G37*
G36*
X119467591Y-83552085D02*
G01*
X119501569Y-83562393D01*
X119532890Y-83579134D01*
X119560339Y-83601661D01*
X119582866Y-83629110D01*
X119599607Y-83660431D01*
X119609915Y-83694409D01*
X119614000Y-83735890D01*
X119614000Y-84412110D01*
X119609915Y-84453591D01*
X119599607Y-84487569D01*
X119582866Y-84518890D01*
X119560339Y-84546339D01*
X119532890Y-84568866D01*
X119501569Y-84585607D01*
X119467591Y-84595915D01*
X119426110Y-84600000D01*
X118824890Y-84600000D01*
X118783409Y-84595915D01*
X118749431Y-84585607D01*
X118718110Y-84568866D01*
X118690661Y-84546339D01*
X118668134Y-84518890D01*
X118651393Y-84487569D01*
X118641085Y-84453591D01*
X118637000Y-84412110D01*
X118637000Y-83735890D01*
X118641085Y-83694409D01*
X118651393Y-83660431D01*
X118668134Y-83629110D01*
X118690661Y-83601661D01*
X118718110Y-83579134D01*
X118749431Y-83562393D01*
X118783409Y-83552085D01*
X118824890Y-83548000D01*
X119426110Y-83548000D01*
X119467591Y-83552085D01*
X119467591Y-83552085D01*
G37*
G36*
X117892591Y-83552085D02*
G01*
X117926569Y-83562393D01*
X117957890Y-83579134D01*
X117985339Y-83601661D01*
X118007866Y-83629110D01*
X118024607Y-83660431D01*
X118034915Y-83694409D01*
X118039000Y-83735890D01*
X118039000Y-84412110D01*
X118034915Y-84453591D01*
X118024607Y-84487569D01*
X118007866Y-84518890D01*
X117985339Y-84546339D01*
X117957890Y-84568866D01*
X117926569Y-84585607D01*
X117892591Y-84595915D01*
X117851110Y-84600000D01*
X117249890Y-84600000D01*
X117208409Y-84595915D01*
X117174431Y-84585607D01*
X117143110Y-84568866D01*
X117115661Y-84546339D01*
X117093134Y-84518890D01*
X117076393Y-84487569D01*
X117066085Y-84453591D01*
X117062000Y-84412110D01*
X117062000Y-83735890D01*
X117066085Y-83694409D01*
X117076393Y-83660431D01*
X117093134Y-83629110D01*
X117115661Y-83601661D01*
X117143110Y-83579134D01*
X117174431Y-83562393D01*
X117208409Y-83552085D01*
X117249890Y-83548000D01*
X117851110Y-83548000D01*
X117892591Y-83552085D01*
X117892591Y-83552085D01*
G37*
G36*
X127638000Y-83638000D02*
G01*
X125786000Y-83638000D01*
X125786000Y-82986000D01*
X127638000Y-82986000D01*
X127638000Y-83638000D01*
X127638000Y-83638000D01*
G37*
G36*
X135038000Y-83638000D02*
G01*
X133186000Y-83638000D01*
X133186000Y-82986000D01*
X135038000Y-82986000D01*
X135038000Y-83638000D01*
X135038000Y-83638000D01*
G37*
G36*
X127638000Y-82368000D02*
G01*
X125786000Y-82368000D01*
X125786000Y-81716000D01*
X127638000Y-81716000D01*
X127638000Y-82368000D01*
X127638000Y-82368000D01*
G37*
G36*
X135038000Y-82368000D02*
G01*
X133186000Y-82368000D01*
X133186000Y-81716000D01*
X135038000Y-81716000D01*
X135038000Y-82368000D01*
X135038000Y-82368000D01*
G37*
G36*
X127638000Y-81098000D02*
G01*
X125786000Y-81098000D01*
X125786000Y-80446000D01*
X127638000Y-80446000D01*
X127638000Y-81098000D01*
X127638000Y-81098000D01*
G37*
G36*
X135038000Y-81098000D02*
G01*
X133186000Y-81098000D01*
X133186000Y-80446000D01*
X135038000Y-80446000D01*
X135038000Y-81098000D01*
X135038000Y-81098000D01*
G37*
G36*
X123569591Y-79271585D02*
G01*
X123603569Y-79281893D01*
X123634890Y-79298634D01*
X123662339Y-79321161D01*
X123684866Y-79348610D01*
X123701607Y-79379931D01*
X123711915Y-79413909D01*
X123716000Y-79455390D01*
X123716000Y-80056610D01*
X123711915Y-80098091D01*
X123701607Y-80132069D01*
X123684866Y-80163390D01*
X123662339Y-80190839D01*
X123634890Y-80213366D01*
X123603569Y-80230107D01*
X123569591Y-80240415D01*
X123528110Y-80244500D01*
X122851890Y-80244500D01*
X122810409Y-80240415D01*
X122776431Y-80230107D01*
X122745110Y-80213366D01*
X122717661Y-80190839D01*
X122695134Y-80163390D01*
X122678393Y-80132069D01*
X122668085Y-80098091D01*
X122664000Y-80056610D01*
X122664000Y-79455390D01*
X122668085Y-79413909D01*
X122678393Y-79379931D01*
X122695134Y-79348610D01*
X122717661Y-79321161D01*
X122745110Y-79298634D01*
X122776431Y-79281893D01*
X122810409Y-79271585D01*
X122851890Y-79267500D01*
X123528110Y-79267500D01*
X123569591Y-79271585D01*
X123569591Y-79271585D01*
G37*
G36*
X112304591Y-78980085D02*
G01*
X112338569Y-78990393D01*
X112369890Y-79007134D01*
X112397339Y-79029661D01*
X112419866Y-79057110D01*
X112436607Y-79088431D01*
X112446915Y-79122409D01*
X112451000Y-79163890D01*
X112451000Y-79840110D01*
X112446915Y-79881591D01*
X112436607Y-79915569D01*
X112419866Y-79946890D01*
X112397339Y-79974339D01*
X112369890Y-79996866D01*
X112338569Y-80013607D01*
X112304591Y-80023915D01*
X112263110Y-80028000D01*
X111661890Y-80028000D01*
X111620409Y-80023915D01*
X111586431Y-80013607D01*
X111555110Y-79996866D01*
X111527661Y-79974339D01*
X111505134Y-79946890D01*
X111488393Y-79915569D01*
X111478085Y-79881591D01*
X111474000Y-79840110D01*
X111474000Y-79163890D01*
X111478085Y-79122409D01*
X111488393Y-79088431D01*
X111505134Y-79057110D01*
X111527661Y-79029661D01*
X111555110Y-79007134D01*
X111586431Y-78990393D01*
X111620409Y-78980085D01*
X111661890Y-78976000D01*
X112263110Y-78976000D01*
X112304591Y-78980085D01*
X112304591Y-78980085D01*
G37*
G36*
X113879591Y-78980085D02*
G01*
X113913569Y-78990393D01*
X113944890Y-79007134D01*
X113972339Y-79029661D01*
X113994866Y-79057110D01*
X114011607Y-79088431D01*
X114021915Y-79122409D01*
X114026000Y-79163890D01*
X114026000Y-79840110D01*
X114021915Y-79881591D01*
X114011607Y-79915569D01*
X113994866Y-79946890D01*
X113972339Y-79974339D01*
X113944890Y-79996866D01*
X113913569Y-80013607D01*
X113879591Y-80023915D01*
X113838110Y-80028000D01*
X113236890Y-80028000D01*
X113195409Y-80023915D01*
X113161431Y-80013607D01*
X113130110Y-79996866D01*
X113102661Y-79974339D01*
X113080134Y-79946890D01*
X113063393Y-79915569D01*
X113053085Y-79881591D01*
X113049000Y-79840110D01*
X113049000Y-79163890D01*
X113053085Y-79122409D01*
X113063393Y-79088431D01*
X113080134Y-79057110D01*
X113102661Y-79029661D01*
X113130110Y-79007134D01*
X113161431Y-78990393D01*
X113195409Y-78980085D01*
X113236890Y-78976000D01*
X113838110Y-78976000D01*
X113879591Y-78980085D01*
X113879591Y-78980085D01*
G37*
G36*
X127638000Y-79828000D02*
G01*
X125786000Y-79828000D01*
X125786000Y-79176000D01*
X127638000Y-79176000D01*
X127638000Y-79828000D01*
X127638000Y-79828000D01*
G37*
G36*
X135038000Y-79828000D02*
G01*
X133186000Y-79828000D01*
X133186000Y-79176000D01*
X135038000Y-79176000D01*
X135038000Y-79828000D01*
X135038000Y-79828000D01*
G37*
G36*
X123569591Y-77696585D02*
G01*
X123603569Y-77706893D01*
X123634890Y-77723634D01*
X123662339Y-77746161D01*
X123684866Y-77773610D01*
X123701607Y-77804931D01*
X123711915Y-77838909D01*
X123716000Y-77880390D01*
X123716000Y-78481610D01*
X123711915Y-78523091D01*
X123701607Y-78557069D01*
X123684866Y-78588390D01*
X123662339Y-78615839D01*
X123634890Y-78638366D01*
X123603569Y-78655107D01*
X123569591Y-78665415D01*
X123528110Y-78669500D01*
X122851890Y-78669500D01*
X122810409Y-78665415D01*
X122776431Y-78655107D01*
X122745110Y-78638366D01*
X122717661Y-78615839D01*
X122695134Y-78588390D01*
X122678393Y-78557069D01*
X122668085Y-78523091D01*
X122664000Y-78481610D01*
X122664000Y-77880390D01*
X122668085Y-77838909D01*
X122678393Y-77804931D01*
X122695134Y-77773610D01*
X122717661Y-77746161D01*
X122745110Y-77723634D01*
X122776431Y-77706893D01*
X122810409Y-77696585D01*
X122851890Y-77692500D01*
X123528110Y-77692500D01*
X123569591Y-77696585D01*
X123569591Y-77696585D01*
G37*
G36*
X130405213Y-73445502D02*
G01*
X130476321Y-73452505D01*
X130613172Y-73494019D01*
X130613175Y-73494020D01*
X130739294Y-73561432D01*
X130849843Y-73652157D01*
X130940568Y-73762706D01*
X131007980Y-73888825D01*
X131007981Y-73888828D01*
X131049495Y-74025679D01*
X131063512Y-74168000D01*
X131049495Y-74310321D01*
X131017688Y-74415172D01*
X131007980Y-74447175D01*
X130940568Y-74573294D01*
X130849843Y-74683843D01*
X130739294Y-74774568D01*
X130613175Y-74841980D01*
X130613172Y-74841981D01*
X130476321Y-74883495D01*
X130405213Y-74890498D01*
X130369660Y-74894000D01*
X130298340Y-74894000D01*
X130262787Y-74890498D01*
X130191679Y-74883495D01*
X130054828Y-74841981D01*
X130054825Y-74841980D01*
X129928706Y-74774568D01*
X129818157Y-74683843D01*
X129727432Y-74573294D01*
X129660020Y-74447175D01*
X129650312Y-74415172D01*
X129618505Y-74310321D01*
X129604488Y-74168000D01*
X129618505Y-74025679D01*
X129660019Y-73888828D01*
X129660020Y-73888825D01*
X129727432Y-73762706D01*
X129818157Y-73652157D01*
X129928706Y-73561432D01*
X130054825Y-73494020D01*
X130054828Y-73494019D01*
X130191679Y-73452505D01*
X130262787Y-73445502D01*
X130298340Y-73442000D01*
X130369660Y-73442000D01*
X130405213Y-73445502D01*
X130405213Y-73445502D01*
G37*
G36*
X133060000Y-74894000D02*
G01*
X131608000Y-74894000D01*
X131608000Y-73442000D01*
X133060000Y-73442000D01*
X133060000Y-74894000D01*
X133060000Y-74894000D01*
G37*
G36*
X112371213Y-73413502D02*
G01*
X112442321Y-73420505D01*
X112579172Y-73462019D01*
X112579175Y-73462020D01*
X112705294Y-73529432D01*
X112815843Y-73620157D01*
X112906568Y-73730706D01*
X112973980Y-73856825D01*
X112973981Y-73856828D01*
X113015495Y-73993679D01*
X113029512Y-74136000D01*
X113015495Y-74278321D01*
X112973981Y-74415172D01*
X112973980Y-74415175D01*
X112906568Y-74541294D01*
X112815843Y-74651843D01*
X112705294Y-74742568D01*
X112579175Y-74809980D01*
X112579172Y-74809981D01*
X112442321Y-74851495D01*
X112371213Y-74858498D01*
X112335660Y-74862000D01*
X112264340Y-74862000D01*
X112228787Y-74858498D01*
X112157679Y-74851495D01*
X112020828Y-74809981D01*
X112020825Y-74809980D01*
X111894706Y-74742568D01*
X111784157Y-74651843D01*
X111693432Y-74541294D01*
X111626020Y-74415175D01*
X111626019Y-74415172D01*
X111584505Y-74278321D01*
X111570488Y-74136000D01*
X111584505Y-73993679D01*
X111626019Y-73856828D01*
X111626020Y-73856825D01*
X111693432Y-73730706D01*
X111784157Y-73620157D01*
X111894706Y-73529432D01*
X112020825Y-73462020D01*
X112020828Y-73462019D01*
X112157679Y-73420505D01*
X112228787Y-73413502D01*
X112264340Y-73410000D01*
X112335660Y-73410000D01*
X112371213Y-73413502D01*
X112371213Y-73413502D01*
G37*
G36*
X114371213Y-73413502D02*
G01*
X114442321Y-73420505D01*
X114579172Y-73462019D01*
X114579175Y-73462020D01*
X114705294Y-73529432D01*
X114815843Y-73620157D01*
X114906568Y-73730706D01*
X114973980Y-73856825D01*
X114973981Y-73856828D01*
X115015495Y-73993679D01*
X115029512Y-74136000D01*
X115015495Y-74278321D01*
X114973981Y-74415172D01*
X114973980Y-74415175D01*
X114906568Y-74541294D01*
X114815843Y-74651843D01*
X114705294Y-74742568D01*
X114579175Y-74809980D01*
X114579172Y-74809981D01*
X114442321Y-74851495D01*
X114371213Y-74858498D01*
X114335660Y-74862000D01*
X114264340Y-74862000D01*
X114228787Y-74858498D01*
X114157679Y-74851495D01*
X114020828Y-74809981D01*
X114020825Y-74809980D01*
X113894706Y-74742568D01*
X113784157Y-74651843D01*
X113693432Y-74541294D01*
X113626020Y-74415175D01*
X113626019Y-74415172D01*
X113584505Y-74278321D01*
X113570488Y-74136000D01*
X113584505Y-73993679D01*
X113626019Y-73856828D01*
X113626020Y-73856825D01*
X113693432Y-73730706D01*
X113784157Y-73620157D01*
X113894706Y-73529432D01*
X114020825Y-73462020D01*
X114020828Y-73462019D01*
X114157679Y-73420505D01*
X114228787Y-73413502D01*
X114264340Y-73410000D01*
X114335660Y-73410000D01*
X114371213Y-73413502D01*
X114371213Y-73413502D01*
G37*
G36*
X102812720Y-71353520D02*
G01*
X103001881Y-71410901D01*
X103176212Y-71504083D01*
X103329015Y-71629485D01*
X103454417Y-71782288D01*
X103494258Y-71856825D01*
X103547598Y-71956617D01*
X103547599Y-71956620D01*
X103604980Y-72145781D01*
X103619500Y-72293207D01*
X103619500Y-72486794D01*
X103604980Y-72634220D01*
X103547599Y-72823381D01*
X103454417Y-72997712D01*
X103329015Y-73150515D01*
X103176212Y-73275917D01*
X103094333Y-73319682D01*
X103001883Y-73369098D01*
X103001880Y-73369099D01*
X102812719Y-73426480D01*
X102616000Y-73445855D01*
X102419280Y-73426480D01*
X102230119Y-73369099D01*
X102055788Y-73275917D01*
X101902985Y-73150515D01*
X101777583Y-72997712D01*
X101733818Y-72915833D01*
X101684402Y-72823383D01*
X101684401Y-72823380D01*
X101627020Y-72634219D01*
X101612500Y-72486793D01*
X101612500Y-72293206D01*
X101627020Y-72145780D01*
X101684401Y-71956619D01*
X101777583Y-71782288D01*
X101902985Y-71629485D01*
X102055788Y-71504083D01*
X102230120Y-71410901D01*
X102419281Y-71353520D01*
X102616000Y-71334145D01*
X102812720Y-71353520D01*
X102812720Y-71353520D01*
G37*
G36*
X100272720Y-71353520D02*
G01*
X100461881Y-71410901D01*
X100636212Y-71504083D01*
X100789015Y-71629485D01*
X100914417Y-71782288D01*
X100954258Y-71856825D01*
X101007598Y-71956617D01*
X101007599Y-71956620D01*
X101064980Y-72145781D01*
X101079500Y-72293207D01*
X101079500Y-72486794D01*
X101064980Y-72634220D01*
X101007599Y-72823381D01*
X100914417Y-72997712D01*
X100789015Y-73150515D01*
X100636212Y-73275917D01*
X100554333Y-73319682D01*
X100461883Y-73369098D01*
X100461880Y-73369099D01*
X100272719Y-73426480D01*
X100076000Y-73445855D01*
X99879280Y-73426480D01*
X99690119Y-73369099D01*
X99515788Y-73275917D01*
X99362985Y-73150515D01*
X99237583Y-72997712D01*
X99193818Y-72915833D01*
X99144402Y-72823383D01*
X99144401Y-72823380D01*
X99087020Y-72634219D01*
X99072500Y-72486793D01*
X99072500Y-72293206D01*
X99087020Y-72145780D01*
X99144401Y-71956619D01*
X99237583Y-71782288D01*
X99362985Y-71629485D01*
X99515788Y-71504083D01*
X99690120Y-71410901D01*
X99879281Y-71353520D01*
X100076000Y-71334145D01*
X100272720Y-71353520D01*
X100272720Y-71353520D01*
G37*
G36*
X106159500Y-73441000D02*
G01*
X104152500Y-73441000D01*
X104152500Y-71339000D01*
X106159500Y-71339000D01*
X106159500Y-73441000D01*
X106159500Y-73441000D01*
G37*
G36*
X114371213Y-71413502D02*
G01*
X114442321Y-71420505D01*
X114579172Y-71462019D01*
X114579175Y-71462020D01*
X114705294Y-71529432D01*
X114815843Y-71620157D01*
X114906568Y-71730706D01*
X114973980Y-71856825D01*
X114973981Y-71856828D01*
X115015495Y-71993679D01*
X115029512Y-72136000D01*
X115015495Y-72278321D01*
X115010979Y-72293207D01*
X114973980Y-72415175D01*
X114906568Y-72541294D01*
X114815843Y-72651843D01*
X114705294Y-72742568D01*
X114579175Y-72809980D01*
X114579172Y-72809981D01*
X114442321Y-72851495D01*
X114371213Y-72858498D01*
X114335660Y-72862000D01*
X114264340Y-72862000D01*
X114228787Y-72858498D01*
X114157679Y-72851495D01*
X114020828Y-72809981D01*
X114020825Y-72809980D01*
X113894706Y-72742568D01*
X113784157Y-72651843D01*
X113693432Y-72541294D01*
X113626020Y-72415175D01*
X113589021Y-72293207D01*
X113584505Y-72278321D01*
X113570488Y-72136000D01*
X113584505Y-71993679D01*
X113626019Y-71856828D01*
X113626020Y-71856825D01*
X113693432Y-71730706D01*
X113784157Y-71620157D01*
X113894706Y-71529432D01*
X114020825Y-71462020D01*
X114020828Y-71462019D01*
X114157679Y-71420505D01*
X114228787Y-71413502D01*
X114264340Y-71410000D01*
X114335660Y-71410000D01*
X114371213Y-71413502D01*
X114371213Y-71413502D01*
G37*
G36*
X113026000Y-72862000D02*
G01*
X111574000Y-72862000D01*
X111574000Y-71410000D01*
X113026000Y-71410000D01*
X113026000Y-72862000D01*
X113026000Y-72862000D01*
G37*
M02*
