G04 #@! TF.GenerationSoftware,KiCad,Pcbnew,(5.1.2)-2*
G04 #@! TF.CreationDate,2020-08-25T18:12:49+09:00*
G04 #@! TF.ProjectId,IRRemo,49525265-6d6f-42e6-9b69-6361645f7063,rev?*
G04 #@! TF.SameCoordinates,Original*
G04 #@! TF.FileFunction,Soldermask,Top*
G04 #@! TF.FilePolarity,Negative*
%FSLAX46Y46*%
G04 Gerber Fmt 4.6, Leading zero omitted, Abs format (unit mm)*
G04 Created by KiCad (PCBNEW (5.1.2)-2) date 2020-08-25 18:12:49*
%MOMM*%
%LPD*%
G04 APERTURE LIST*
%ADD10C,0.100000*%
G04 APERTURE END LIST*
D10*
G36*
X98684504Y-103501691D02*
G01*
X98728627Y-103506037D01*
X98898466Y-103557557D01*
X98950641Y-103585445D01*
X99054989Y-103641220D01*
X99192185Y-103753815D01*
X99304780Y-103891011D01*
X99360555Y-103995359D01*
X99388443Y-104047534D01*
X99439963Y-104217373D01*
X99457359Y-104394000D01*
X99439963Y-104570627D01*
X99388443Y-104740466D01*
X99360555Y-104792641D01*
X99304780Y-104896989D01*
X99192185Y-105034185D01*
X99054989Y-105146780D01*
X98950641Y-105202555D01*
X98898466Y-105230443D01*
X98728627Y-105281963D01*
X98684504Y-105286309D01*
X98596260Y-105295000D01*
X98507740Y-105295000D01*
X98419496Y-105286309D01*
X98375373Y-105281963D01*
X98205534Y-105230443D01*
X98153359Y-105202555D01*
X98049011Y-105146780D01*
X97911815Y-105034185D01*
X97799220Y-104896989D01*
X97743445Y-104792641D01*
X97715557Y-104740466D01*
X97664037Y-104570627D01*
X97646641Y-104394000D01*
X97664037Y-104217373D01*
X97715557Y-104047534D01*
X97743445Y-103995359D01*
X97799220Y-103891011D01*
X97911815Y-103753815D01*
X98049011Y-103641220D01*
X98153359Y-103585445D01*
X98205534Y-103557557D01*
X98375373Y-103506037D01*
X98419496Y-103501691D01*
X98507740Y-103493000D01*
X98596260Y-103493000D01*
X98684504Y-103501691D01*
X98684504Y-103501691D01*
G37*
G36*
X101224504Y-103501691D02*
G01*
X101268627Y-103506037D01*
X101438466Y-103557557D01*
X101490641Y-103585445D01*
X101594989Y-103641220D01*
X101732185Y-103753815D01*
X101844780Y-103891011D01*
X101900555Y-103995359D01*
X101928443Y-104047534D01*
X101979963Y-104217373D01*
X101997359Y-104394000D01*
X101979963Y-104570627D01*
X101928443Y-104740466D01*
X101900555Y-104792641D01*
X101844780Y-104896989D01*
X101732185Y-105034185D01*
X101594989Y-105146780D01*
X101490641Y-105202555D01*
X101438466Y-105230443D01*
X101268627Y-105281963D01*
X101224504Y-105286309D01*
X101136260Y-105295000D01*
X101047740Y-105295000D01*
X100959496Y-105286309D01*
X100915373Y-105281963D01*
X100745534Y-105230443D01*
X100693359Y-105202555D01*
X100589011Y-105146780D01*
X100451815Y-105034185D01*
X100339220Y-104896989D01*
X100283445Y-104792641D01*
X100255557Y-104740466D01*
X100204037Y-104570627D01*
X100186641Y-104394000D01*
X100204037Y-104217373D01*
X100255557Y-104047534D01*
X100283445Y-103995359D01*
X100339220Y-103891011D01*
X100451815Y-103753815D01*
X100589011Y-103641220D01*
X100693359Y-103585445D01*
X100745534Y-103557557D01*
X100915373Y-103506037D01*
X100959496Y-103501691D01*
X101047740Y-103493000D01*
X101136260Y-103493000D01*
X101224504Y-103501691D01*
X101224504Y-103501691D01*
G37*
G36*
X103764504Y-103501691D02*
G01*
X103808627Y-103506037D01*
X103978466Y-103557557D01*
X104030641Y-103585445D01*
X104134989Y-103641220D01*
X104272185Y-103753815D01*
X104384780Y-103891011D01*
X104440555Y-103995359D01*
X104468443Y-104047534D01*
X104519963Y-104217373D01*
X104537359Y-104394000D01*
X104519963Y-104570627D01*
X104468443Y-104740466D01*
X104440555Y-104792641D01*
X104384780Y-104896989D01*
X104272185Y-105034185D01*
X104134989Y-105146780D01*
X104030641Y-105202555D01*
X103978466Y-105230443D01*
X103808627Y-105281963D01*
X103764504Y-105286309D01*
X103676260Y-105295000D01*
X103587740Y-105295000D01*
X103499496Y-105286309D01*
X103455373Y-105281963D01*
X103285534Y-105230443D01*
X103233359Y-105202555D01*
X103129011Y-105146780D01*
X102991815Y-105034185D01*
X102879220Y-104896989D01*
X102823445Y-104792641D01*
X102795557Y-104740466D01*
X102744037Y-104570627D01*
X102726641Y-104394000D01*
X102744037Y-104217373D01*
X102795557Y-104047534D01*
X102823445Y-103995359D01*
X102879220Y-103891011D01*
X102991815Y-103753815D01*
X103129011Y-103641220D01*
X103233359Y-103585445D01*
X103285534Y-103557557D01*
X103455373Y-103506037D01*
X103499496Y-103501691D01*
X103587740Y-103493000D01*
X103676260Y-103493000D01*
X103764504Y-103501691D01*
X103764504Y-103501691D01*
G37*
G36*
X94373000Y-105295000D02*
G01*
X92571000Y-105295000D01*
X92571000Y-103493000D01*
X94373000Y-103493000D01*
X94373000Y-105295000D01*
X94373000Y-105295000D01*
G37*
G36*
X96144504Y-103501691D02*
G01*
X96188627Y-103506037D01*
X96358466Y-103557557D01*
X96410641Y-103585445D01*
X96514989Y-103641220D01*
X96652185Y-103753815D01*
X96764780Y-103891011D01*
X96820555Y-103995359D01*
X96848443Y-104047534D01*
X96899963Y-104217373D01*
X96917359Y-104394000D01*
X96899963Y-104570627D01*
X96848443Y-104740466D01*
X96820555Y-104792641D01*
X96764780Y-104896989D01*
X96652185Y-105034185D01*
X96514989Y-105146780D01*
X96410641Y-105202555D01*
X96358466Y-105230443D01*
X96188627Y-105281963D01*
X96144504Y-105286309D01*
X96056260Y-105295000D01*
X95967740Y-105295000D01*
X95879496Y-105286309D01*
X95835373Y-105281963D01*
X95665534Y-105230443D01*
X95613359Y-105202555D01*
X95509011Y-105146780D01*
X95371815Y-105034185D01*
X95259220Y-104896989D01*
X95203445Y-104792641D01*
X95175557Y-104740466D01*
X95124037Y-104570627D01*
X95106641Y-104394000D01*
X95124037Y-104217373D01*
X95175557Y-104047534D01*
X95203445Y-103995359D01*
X95259220Y-103891011D01*
X95371815Y-103753815D01*
X95509011Y-103641220D01*
X95613359Y-103585445D01*
X95665534Y-103557557D01*
X95835373Y-103506037D01*
X95879496Y-103501691D01*
X95967740Y-103493000D01*
X96056260Y-103493000D01*
X96144504Y-103501691D01*
X96144504Y-103501691D01*
G37*
G36*
X115404990Y-103419252D02*
G01*
X115458321Y-103424505D01*
X115503938Y-103438343D01*
X115595174Y-103466019D01*
X115721294Y-103533431D01*
X115831843Y-103624157D01*
X115922569Y-103734706D01*
X115989981Y-103860826D01*
X115999137Y-103891011D01*
X116031495Y-103997679D01*
X116045512Y-104140000D01*
X116037892Y-104217374D01*
X116031495Y-104282320D01*
X115989981Y-104419174D01*
X115922569Y-104545294D01*
X115831843Y-104655843D01*
X115721294Y-104746569D01*
X115595174Y-104813981D01*
X115503938Y-104841657D01*
X115458321Y-104855495D01*
X115404990Y-104860748D01*
X115351660Y-104866000D01*
X115280340Y-104866000D01*
X115227010Y-104860748D01*
X115173679Y-104855495D01*
X115128062Y-104841657D01*
X115036826Y-104813981D01*
X114910706Y-104746569D01*
X114800157Y-104655843D01*
X114709431Y-104545294D01*
X114642019Y-104419174D01*
X114600505Y-104282320D01*
X114594109Y-104217374D01*
X114586488Y-104140000D01*
X114600505Y-103997679D01*
X114632863Y-103891011D01*
X114642019Y-103860826D01*
X114709431Y-103734706D01*
X114800157Y-103624157D01*
X114910706Y-103533431D01*
X115036826Y-103466019D01*
X115128062Y-103438343D01*
X115173679Y-103424505D01*
X115227010Y-103419252D01*
X115280340Y-103414000D01*
X115351660Y-103414000D01*
X115404990Y-103419252D01*
X115404990Y-103419252D01*
G37*
G36*
X118042000Y-104866000D02*
G01*
X116590000Y-104866000D01*
X116590000Y-103414000D01*
X118042000Y-103414000D01*
X118042000Y-104866000D01*
X118042000Y-104866000D01*
G37*
G36*
X89984094Y-98782724D02*
G01*
X90143579Y-98814447D01*
X90444042Y-98938903D01*
X90714451Y-99119585D01*
X90944415Y-99349549D01*
X91125097Y-99619958D01*
X91249553Y-99920421D01*
X91261508Y-99980523D01*
X91313000Y-100239389D01*
X91313000Y-100564611D01*
X91281980Y-100720559D01*
X91249553Y-100883579D01*
X91125097Y-101184042D01*
X90944415Y-101454451D01*
X90714451Y-101684415D01*
X90444042Y-101865097D01*
X90143579Y-101989553D01*
X89984094Y-102021276D01*
X89824611Y-102053000D01*
X89499389Y-102053000D01*
X89339906Y-102021276D01*
X89180421Y-101989553D01*
X88879958Y-101865097D01*
X88609549Y-101684415D01*
X88379585Y-101454451D01*
X88198903Y-101184042D01*
X88074447Y-100883579D01*
X88042020Y-100720559D01*
X88011000Y-100564611D01*
X88011000Y-100239389D01*
X88062492Y-99980523D01*
X88074447Y-99920421D01*
X88198903Y-99619958D01*
X88379585Y-99349549D01*
X88609549Y-99119585D01*
X88879958Y-98938903D01*
X89180421Y-98814447D01*
X89339906Y-98782723D01*
X89499389Y-98751000D01*
X89824611Y-98751000D01*
X89984094Y-98782724D01*
X89984094Y-98782724D01*
G37*
G36*
X102445477Y-99808450D02*
G01*
X102486559Y-99820912D01*
X102524424Y-99841152D01*
X102557612Y-99868388D01*
X102584848Y-99901576D01*
X102605088Y-99939441D01*
X102617550Y-99980523D01*
X102622000Y-100025704D01*
X102622000Y-100634296D01*
X102617550Y-100679477D01*
X102605088Y-100720559D01*
X102584848Y-100758424D01*
X102557612Y-100791612D01*
X102524424Y-100818848D01*
X102486559Y-100839088D01*
X102445477Y-100851550D01*
X102400296Y-100856000D01*
X101866704Y-100856000D01*
X101821523Y-100851550D01*
X101780441Y-100839088D01*
X101742576Y-100818848D01*
X101709388Y-100791612D01*
X101682152Y-100758424D01*
X101661912Y-100720559D01*
X101649450Y-100679477D01*
X101645000Y-100634296D01*
X101645000Y-100025704D01*
X101649450Y-99980523D01*
X101661912Y-99939441D01*
X101682152Y-99901576D01*
X101709388Y-99868388D01*
X101742576Y-99841152D01*
X101780441Y-99820912D01*
X101821523Y-99808450D01*
X101866704Y-99804000D01*
X102400296Y-99804000D01*
X102445477Y-99808450D01*
X102445477Y-99808450D01*
G37*
G36*
X100870477Y-99808450D02*
G01*
X100911559Y-99820912D01*
X100949424Y-99841152D01*
X100982612Y-99868388D01*
X101009848Y-99901576D01*
X101030088Y-99939441D01*
X101042550Y-99980523D01*
X101047000Y-100025704D01*
X101047000Y-100634296D01*
X101042550Y-100679477D01*
X101030088Y-100720559D01*
X101009848Y-100758424D01*
X100982612Y-100791612D01*
X100949424Y-100818848D01*
X100911559Y-100839088D01*
X100870477Y-100851550D01*
X100825296Y-100856000D01*
X100291704Y-100856000D01*
X100246523Y-100851550D01*
X100205441Y-100839088D01*
X100167576Y-100818848D01*
X100134388Y-100791612D01*
X100107152Y-100758424D01*
X100086912Y-100720559D01*
X100074450Y-100679477D01*
X100070000Y-100634296D01*
X100070000Y-100025704D01*
X100074450Y-99980523D01*
X100086912Y-99939441D01*
X100107152Y-99901576D01*
X100134388Y-99868388D01*
X100167576Y-99841152D01*
X100205441Y-99820912D01*
X100246523Y-99808450D01*
X100291704Y-99804000D01*
X100825296Y-99804000D01*
X100870477Y-99808450D01*
X100870477Y-99808450D01*
G37*
G36*
X97440383Y-99808810D02*
G01*
X97484987Y-99822341D01*
X97526090Y-99844310D01*
X97562120Y-99873880D01*
X97591690Y-99909910D01*
X97613659Y-99951013D01*
X97627190Y-99995617D01*
X97632000Y-100044454D01*
X97632000Y-100615546D01*
X97627190Y-100664383D01*
X97613659Y-100708987D01*
X97591690Y-100750090D01*
X97562120Y-100786120D01*
X97526090Y-100815690D01*
X97484987Y-100837659D01*
X97440383Y-100851190D01*
X97391546Y-100856000D01*
X96720454Y-100856000D01*
X96671617Y-100851190D01*
X96627013Y-100837659D01*
X96585910Y-100815690D01*
X96549880Y-100786120D01*
X96520310Y-100750090D01*
X96498341Y-100708987D01*
X96484810Y-100664383D01*
X96480000Y-100615546D01*
X96480000Y-100044454D01*
X96484810Y-99995617D01*
X96498341Y-99951013D01*
X96520310Y-99909910D01*
X96549880Y-99873880D01*
X96585910Y-99844310D01*
X96627013Y-99822341D01*
X96671617Y-99808810D01*
X96720454Y-99804000D01*
X97391546Y-99804000D01*
X97440383Y-99808810D01*
X97440383Y-99808810D01*
G37*
G36*
X99190383Y-99808810D02*
G01*
X99234987Y-99822341D01*
X99276090Y-99844310D01*
X99312120Y-99873880D01*
X99341690Y-99909910D01*
X99363659Y-99951013D01*
X99377190Y-99995617D01*
X99382000Y-100044454D01*
X99382000Y-100615546D01*
X99377190Y-100664383D01*
X99363659Y-100708987D01*
X99341690Y-100750090D01*
X99312120Y-100786120D01*
X99276090Y-100815690D01*
X99234987Y-100837659D01*
X99190383Y-100851190D01*
X99141546Y-100856000D01*
X98470454Y-100856000D01*
X98421617Y-100851190D01*
X98377013Y-100837659D01*
X98335910Y-100815690D01*
X98299880Y-100786120D01*
X98270310Y-100750090D01*
X98248341Y-100708987D01*
X98234810Y-100664383D01*
X98230000Y-100615546D01*
X98230000Y-100044454D01*
X98234810Y-99995617D01*
X98248341Y-99951013D01*
X98270310Y-99909910D01*
X98299880Y-99873880D01*
X98335910Y-99844310D01*
X98377013Y-99822341D01*
X98421617Y-99808810D01*
X98470454Y-99804000D01*
X99141546Y-99804000D01*
X99190383Y-99808810D01*
X99190383Y-99808810D01*
G37*
G36*
X121576000Y-100656000D02*
G01*
X119724000Y-100656000D01*
X119724000Y-100004000D01*
X121576000Y-100004000D01*
X121576000Y-100656000D01*
X121576000Y-100656000D01*
G37*
G36*
X114176000Y-100656000D02*
G01*
X112324000Y-100656000D01*
X112324000Y-100004000D01*
X114176000Y-100004000D01*
X114176000Y-100656000D01*
X114176000Y-100656000D01*
G37*
G36*
X114176000Y-99386000D02*
G01*
X112324000Y-99386000D01*
X112324000Y-98734000D01*
X114176000Y-98734000D01*
X114176000Y-99386000D01*
X114176000Y-99386000D01*
G37*
G36*
X121576000Y-99386000D02*
G01*
X119724000Y-99386000D01*
X119724000Y-98734000D01*
X121576000Y-98734000D01*
X121576000Y-99386000D01*
X121576000Y-99386000D01*
G37*
G36*
X110331477Y-97305950D02*
G01*
X110372559Y-97318412D01*
X110410424Y-97338652D01*
X110443612Y-97365888D01*
X110470848Y-97399076D01*
X110491088Y-97436941D01*
X110503550Y-97478023D01*
X110508000Y-97523204D01*
X110508000Y-98056796D01*
X110503550Y-98101977D01*
X110491088Y-98143059D01*
X110470848Y-98180924D01*
X110443612Y-98214112D01*
X110410424Y-98241348D01*
X110372559Y-98261588D01*
X110331477Y-98274050D01*
X110286296Y-98278500D01*
X109677704Y-98278500D01*
X109632523Y-98274050D01*
X109591441Y-98261588D01*
X109553576Y-98241348D01*
X109520388Y-98214112D01*
X109493152Y-98180924D01*
X109472912Y-98143059D01*
X109460450Y-98101977D01*
X109456000Y-98056796D01*
X109456000Y-97523204D01*
X109460450Y-97478023D01*
X109472912Y-97436941D01*
X109493152Y-97399076D01*
X109520388Y-97365888D01*
X109553576Y-97338652D01*
X109591441Y-97318412D01*
X109632523Y-97305950D01*
X109677704Y-97301500D01*
X110286296Y-97301500D01*
X110331477Y-97305950D01*
X110331477Y-97305950D01*
G37*
G36*
X121576000Y-98116000D02*
G01*
X119724000Y-98116000D01*
X119724000Y-97464000D01*
X121576000Y-97464000D01*
X121576000Y-98116000D01*
X121576000Y-98116000D01*
G37*
G36*
X114176000Y-98116000D02*
G01*
X112324000Y-98116000D01*
X112324000Y-97464000D01*
X114176000Y-97464000D01*
X114176000Y-98116000D01*
X114176000Y-98116000D01*
G37*
G36*
X91596898Y-95720220D02*
G01*
X91596922Y-95719972D01*
X91603309Y-95720919D01*
X91628555Y-95720919D01*
X91643464Y-95722387D01*
X91734775Y-95740550D01*
X91749114Y-95744900D01*
X91835135Y-95780531D01*
X91848341Y-95787589D01*
X91925762Y-95839320D01*
X91937340Y-95848822D01*
X92003178Y-95914660D01*
X92012680Y-95926238D01*
X92064411Y-96003659D01*
X92071469Y-96016865D01*
X92107100Y-96102886D01*
X92111450Y-96117225D01*
X92129613Y-96208536D01*
X92131081Y-96223445D01*
X92131081Y-96248691D01*
X92132028Y-96255078D01*
X92131780Y-96255102D01*
X92133489Y-96272454D01*
X92133489Y-96767546D01*
X92131780Y-96784898D01*
X92132028Y-96784922D01*
X92131081Y-96791309D01*
X92131081Y-96816555D01*
X92129613Y-96831464D01*
X92111450Y-96922775D01*
X92107100Y-96937114D01*
X92071469Y-97023135D01*
X92064411Y-97036341D01*
X92012680Y-97113762D01*
X92003178Y-97125340D01*
X91937340Y-97191178D01*
X91925762Y-97200680D01*
X91848341Y-97252411D01*
X91835135Y-97259469D01*
X91749114Y-97295100D01*
X91734775Y-97299450D01*
X91643464Y-97317613D01*
X91628555Y-97319081D01*
X91603309Y-97319081D01*
X91596922Y-97320028D01*
X91596898Y-97319780D01*
X91579546Y-97321489D01*
X91084454Y-97321489D01*
X91072001Y-97320263D01*
X91062391Y-97317347D01*
X91053529Y-97312610D01*
X91045763Y-97306237D01*
X91039390Y-97298471D01*
X91034653Y-97289609D01*
X91031737Y-97279999D01*
X91030511Y-97267546D01*
X91030511Y-95772454D01*
X91031737Y-95760001D01*
X91034653Y-95750391D01*
X91039390Y-95741529D01*
X91045763Y-95733763D01*
X91053529Y-95727390D01*
X91062391Y-95722653D01*
X91072001Y-95719737D01*
X91084454Y-95718511D01*
X91579546Y-95718511D01*
X91596898Y-95720220D01*
X91596898Y-95720220D01*
G37*
G36*
X90791999Y-95719737D02*
G01*
X90801609Y-95722653D01*
X90810471Y-95727390D01*
X90818237Y-95733763D01*
X90824610Y-95741529D01*
X90829347Y-95750391D01*
X90832263Y-95760001D01*
X90833489Y-95772454D01*
X90833489Y-97267546D01*
X90832263Y-97279999D01*
X90829347Y-97289609D01*
X90824610Y-97298471D01*
X90818237Y-97306237D01*
X90810471Y-97312610D01*
X90801609Y-97317347D01*
X90791999Y-97320263D01*
X90779546Y-97321489D01*
X90284454Y-97321489D01*
X90267102Y-97319780D01*
X90267078Y-97320028D01*
X90260691Y-97319081D01*
X90235445Y-97319081D01*
X90220536Y-97317613D01*
X90129225Y-97299450D01*
X90114886Y-97295100D01*
X90028865Y-97259469D01*
X90015659Y-97252411D01*
X89938238Y-97200680D01*
X89926660Y-97191178D01*
X89860822Y-97125340D01*
X89851320Y-97113762D01*
X89799589Y-97036341D01*
X89792531Y-97023135D01*
X89756900Y-96937114D01*
X89752550Y-96922775D01*
X89734387Y-96831464D01*
X89732919Y-96816555D01*
X89732919Y-96791309D01*
X89731972Y-96784922D01*
X89732220Y-96784898D01*
X89730511Y-96767546D01*
X89730511Y-96272454D01*
X89732220Y-96255102D01*
X89731972Y-96255078D01*
X89732919Y-96248691D01*
X89732919Y-96223445D01*
X89734387Y-96208536D01*
X89752550Y-96117225D01*
X89756900Y-96102886D01*
X89792531Y-96016865D01*
X89799589Y-96003659D01*
X89851320Y-95926238D01*
X89860822Y-95914660D01*
X89926660Y-95848822D01*
X89938238Y-95839320D01*
X90015659Y-95787589D01*
X90028865Y-95780531D01*
X90114886Y-95744900D01*
X90129225Y-95740550D01*
X90220536Y-95722387D01*
X90235445Y-95720919D01*
X90260691Y-95720919D01*
X90267078Y-95719972D01*
X90267102Y-95720220D01*
X90284454Y-95718511D01*
X90779546Y-95718511D01*
X90791999Y-95719737D01*
X90791999Y-95719737D01*
G37*
G36*
X94557977Y-96061450D02*
G01*
X94599059Y-96073912D01*
X94636924Y-96094152D01*
X94670112Y-96121388D01*
X94697348Y-96154576D01*
X94717588Y-96192441D01*
X94730050Y-96233523D01*
X94734500Y-96278704D01*
X94734500Y-96812296D01*
X94730050Y-96857477D01*
X94717588Y-96898559D01*
X94697348Y-96936424D01*
X94670112Y-96969612D01*
X94636924Y-96996848D01*
X94599059Y-97017088D01*
X94557977Y-97029550D01*
X94512796Y-97034000D01*
X93904204Y-97034000D01*
X93859023Y-97029550D01*
X93817941Y-97017088D01*
X93780076Y-96996848D01*
X93746888Y-96969612D01*
X93719652Y-96936424D01*
X93699412Y-96898559D01*
X93686950Y-96857477D01*
X93682500Y-96812296D01*
X93682500Y-96278704D01*
X93686950Y-96233523D01*
X93699412Y-96192441D01*
X93719652Y-96154576D01*
X93746888Y-96121388D01*
X93780076Y-96094152D01*
X93817941Y-96073912D01*
X93859023Y-96061450D01*
X93904204Y-96057000D01*
X94512796Y-96057000D01*
X94557977Y-96061450D01*
X94557977Y-96061450D01*
G37*
G36*
X114176000Y-96846000D02*
G01*
X112324000Y-96846000D01*
X112324000Y-96194000D01*
X114176000Y-96194000D01*
X114176000Y-96846000D01*
X114176000Y-96846000D01*
G37*
G36*
X121576000Y-96846000D02*
G01*
X119724000Y-96846000D01*
X119724000Y-96194000D01*
X121576000Y-96194000D01*
X121576000Y-96846000D01*
X121576000Y-96846000D01*
G37*
G36*
X110331477Y-95730950D02*
G01*
X110372559Y-95743412D01*
X110410424Y-95763652D01*
X110443612Y-95790888D01*
X110470848Y-95824076D01*
X110491088Y-95861941D01*
X110503550Y-95903023D01*
X110508000Y-95948204D01*
X110508000Y-96481796D01*
X110503550Y-96526977D01*
X110491088Y-96568059D01*
X110470848Y-96605924D01*
X110443612Y-96639112D01*
X110410424Y-96666348D01*
X110372559Y-96686588D01*
X110331477Y-96699050D01*
X110286296Y-96703500D01*
X109677704Y-96703500D01*
X109632523Y-96699050D01*
X109591441Y-96686588D01*
X109553576Y-96666348D01*
X109520388Y-96639112D01*
X109493152Y-96605924D01*
X109472912Y-96568059D01*
X109460450Y-96526977D01*
X109456000Y-96481796D01*
X109456000Y-95948204D01*
X109460450Y-95903023D01*
X109472912Y-95861941D01*
X109493152Y-95824076D01*
X109520388Y-95790888D01*
X109553576Y-95763652D01*
X109591441Y-95743412D01*
X109632523Y-95730950D01*
X109677704Y-95726500D01*
X110286296Y-95726500D01*
X110331477Y-95730950D01*
X110331477Y-95730950D01*
G37*
G36*
X94557977Y-94486450D02*
G01*
X94599059Y-94498912D01*
X94636924Y-94519152D01*
X94670112Y-94546388D01*
X94697348Y-94579576D01*
X94717588Y-94617441D01*
X94730050Y-94658523D01*
X94734500Y-94703704D01*
X94734500Y-95237296D01*
X94730050Y-95282477D01*
X94717588Y-95323559D01*
X94697348Y-95361424D01*
X94670112Y-95394612D01*
X94636924Y-95421848D01*
X94599059Y-95442088D01*
X94557977Y-95454550D01*
X94512796Y-95459000D01*
X93904204Y-95459000D01*
X93859023Y-95454550D01*
X93817941Y-95442088D01*
X93780076Y-95421848D01*
X93746888Y-95394612D01*
X93719652Y-95361424D01*
X93699412Y-95323559D01*
X93686950Y-95282477D01*
X93682500Y-95237296D01*
X93682500Y-94703704D01*
X93686950Y-94658523D01*
X93699412Y-94617441D01*
X93719652Y-94579576D01*
X93746888Y-94546388D01*
X93780076Y-94519152D01*
X93817941Y-94498912D01*
X93859023Y-94486450D01*
X93904204Y-94482000D01*
X94512796Y-94482000D01*
X94557977Y-94486450D01*
X94557977Y-94486450D01*
G37*
G36*
X91463000Y-94003000D02*
G01*
X87861000Y-94003000D01*
X87861000Y-90401000D01*
X91463000Y-90401000D01*
X91463000Y-94003000D01*
X91463000Y-94003000D01*
G37*
G36*
X128187330Y-90470211D02*
G01*
X128515092Y-90605974D01*
X128810069Y-90803071D01*
X129060929Y-91053931D01*
X129258026Y-91348908D01*
X129393789Y-91676670D01*
X129463000Y-92024616D01*
X129463000Y-92379384D01*
X129393789Y-92727330D01*
X129258026Y-93055092D01*
X129060929Y-93350069D01*
X128810069Y-93600929D01*
X128515092Y-93798026D01*
X128187330Y-93933789D01*
X127839384Y-94003000D01*
X127484616Y-94003000D01*
X127136670Y-93933789D01*
X126808908Y-93798026D01*
X126513931Y-93600929D01*
X126263071Y-93350069D01*
X126065974Y-93055092D01*
X125930211Y-92727330D01*
X125861000Y-92379384D01*
X125861000Y-92024616D01*
X125930211Y-91676670D01*
X126065974Y-91348908D01*
X126263071Y-91053931D01*
X126513931Y-90803071D01*
X126808908Y-90605974D01*
X127136670Y-90470211D01*
X127484616Y-90401000D01*
X127839384Y-90401000D01*
X128187330Y-90470211D01*
X128187330Y-90470211D01*
G37*
G36*
X94583477Y-91971950D02*
G01*
X94624559Y-91984412D01*
X94662424Y-92004652D01*
X94695612Y-92031888D01*
X94722848Y-92065076D01*
X94743088Y-92102941D01*
X94755550Y-92144023D01*
X94760000Y-92189204D01*
X94760000Y-92722796D01*
X94755550Y-92767977D01*
X94743088Y-92809059D01*
X94722848Y-92846924D01*
X94695612Y-92880112D01*
X94662424Y-92907348D01*
X94624559Y-92927588D01*
X94583477Y-92940050D01*
X94538296Y-92944500D01*
X93929704Y-92944500D01*
X93884523Y-92940050D01*
X93843441Y-92927588D01*
X93805576Y-92907348D01*
X93772388Y-92880112D01*
X93745152Y-92846924D01*
X93724912Y-92809059D01*
X93712450Y-92767977D01*
X93708000Y-92722796D01*
X93708000Y-92189204D01*
X93712450Y-92144023D01*
X93724912Y-92102941D01*
X93745152Y-92065076D01*
X93772388Y-92031888D01*
X93805576Y-92004652D01*
X93843441Y-91984412D01*
X93884523Y-91971950D01*
X93929704Y-91967500D01*
X94538296Y-91967500D01*
X94583477Y-91971950D01*
X94583477Y-91971950D01*
G37*
G36*
X94583477Y-90396950D02*
G01*
X94624559Y-90409412D01*
X94662424Y-90429652D01*
X94695612Y-90456888D01*
X94722848Y-90490076D01*
X94743088Y-90527941D01*
X94755550Y-90569023D01*
X94760000Y-90614204D01*
X94760000Y-91147796D01*
X94755550Y-91192977D01*
X94743088Y-91234059D01*
X94722848Y-91271924D01*
X94695612Y-91305112D01*
X94662424Y-91332348D01*
X94624559Y-91352588D01*
X94583477Y-91365050D01*
X94538296Y-91369500D01*
X93929704Y-91369500D01*
X93884523Y-91365050D01*
X93843441Y-91352588D01*
X93805576Y-91332348D01*
X93772388Y-91305112D01*
X93745152Y-91271924D01*
X93724912Y-91234059D01*
X93712450Y-91192977D01*
X93708000Y-91147796D01*
X93708000Y-90614204D01*
X93712450Y-90569023D01*
X93724912Y-90527941D01*
X93745152Y-90490076D01*
X93772388Y-90456888D01*
X93805576Y-90429652D01*
X93843441Y-90409412D01*
X93884523Y-90396950D01*
X93929704Y-90392500D01*
X94538296Y-90392500D01*
X94583477Y-90396950D01*
X94583477Y-90396950D01*
G37*
G36*
X109996898Y-89370220D02*
G01*
X109996922Y-89369972D01*
X110003309Y-89370919D01*
X110028555Y-89370919D01*
X110043464Y-89372387D01*
X110134775Y-89390550D01*
X110149114Y-89394900D01*
X110235135Y-89430531D01*
X110248341Y-89437589D01*
X110325762Y-89489320D01*
X110337340Y-89498822D01*
X110403178Y-89564660D01*
X110412680Y-89576238D01*
X110464411Y-89653659D01*
X110471469Y-89666865D01*
X110507100Y-89752886D01*
X110511450Y-89767225D01*
X110529613Y-89858536D01*
X110531081Y-89873445D01*
X110531081Y-89898691D01*
X110532028Y-89905078D01*
X110531780Y-89905102D01*
X110533489Y-89922454D01*
X110533489Y-90417546D01*
X110531780Y-90434898D01*
X110532028Y-90434922D01*
X110531081Y-90441309D01*
X110531081Y-90466555D01*
X110529613Y-90481464D01*
X110511450Y-90572775D01*
X110507100Y-90587114D01*
X110471469Y-90673135D01*
X110464411Y-90686341D01*
X110412680Y-90763762D01*
X110403178Y-90775340D01*
X110337340Y-90841178D01*
X110325762Y-90850680D01*
X110248341Y-90902411D01*
X110235135Y-90909469D01*
X110149114Y-90945100D01*
X110134775Y-90949450D01*
X110043464Y-90967613D01*
X110028555Y-90969081D01*
X110003309Y-90969081D01*
X109996922Y-90970028D01*
X109996898Y-90969780D01*
X109979546Y-90971489D01*
X109484454Y-90971489D01*
X109472001Y-90970263D01*
X109462391Y-90967347D01*
X109453529Y-90962610D01*
X109445763Y-90956237D01*
X109439390Y-90948471D01*
X109434653Y-90939609D01*
X109431737Y-90929999D01*
X109430511Y-90917546D01*
X109430511Y-89422454D01*
X109431737Y-89410001D01*
X109434653Y-89400391D01*
X109439390Y-89391529D01*
X109445763Y-89383763D01*
X109453529Y-89377390D01*
X109462391Y-89372653D01*
X109472001Y-89369737D01*
X109484454Y-89368511D01*
X109979546Y-89368511D01*
X109996898Y-89370220D01*
X109996898Y-89370220D01*
G37*
G36*
X109191999Y-89369737D02*
G01*
X109201609Y-89372653D01*
X109210471Y-89377390D01*
X109218237Y-89383763D01*
X109224610Y-89391529D01*
X109229347Y-89400391D01*
X109232263Y-89410001D01*
X109233489Y-89422454D01*
X109233489Y-90917546D01*
X109232263Y-90929999D01*
X109229347Y-90939609D01*
X109224610Y-90948471D01*
X109218237Y-90956237D01*
X109210471Y-90962610D01*
X109201609Y-90967347D01*
X109191999Y-90970263D01*
X109179546Y-90971489D01*
X108684454Y-90971489D01*
X108667102Y-90969780D01*
X108667078Y-90970028D01*
X108660691Y-90969081D01*
X108635445Y-90969081D01*
X108620536Y-90967613D01*
X108529225Y-90949450D01*
X108514886Y-90945100D01*
X108428865Y-90909469D01*
X108415659Y-90902411D01*
X108338238Y-90850680D01*
X108326660Y-90841178D01*
X108260822Y-90775340D01*
X108251320Y-90763762D01*
X108199589Y-90686341D01*
X108192531Y-90673135D01*
X108156900Y-90587114D01*
X108152550Y-90572775D01*
X108134387Y-90481464D01*
X108132919Y-90466555D01*
X108132919Y-90441309D01*
X108131972Y-90434922D01*
X108132220Y-90434898D01*
X108130511Y-90417546D01*
X108130511Y-89922454D01*
X108132220Y-89905102D01*
X108131972Y-89905078D01*
X108132919Y-89898691D01*
X108132919Y-89873445D01*
X108134387Y-89858536D01*
X108152550Y-89767225D01*
X108156900Y-89752886D01*
X108192531Y-89666865D01*
X108199589Y-89653659D01*
X108251320Y-89576238D01*
X108260822Y-89564660D01*
X108326660Y-89498822D01*
X108338238Y-89489320D01*
X108415659Y-89437589D01*
X108428865Y-89430531D01*
X108514886Y-89394900D01*
X108529225Y-89390550D01*
X108620536Y-89372387D01*
X108635445Y-89370919D01*
X108660691Y-89370919D01*
X108667078Y-89369972D01*
X108667102Y-89370220D01*
X108684454Y-89368511D01*
X109179546Y-89368511D01*
X109191999Y-89369737D01*
X109191999Y-89369737D01*
G37*
G36*
X101437459Y-87701901D02*
G01*
X101452045Y-87704802D01*
X101479525Y-87716185D01*
X101504257Y-87732710D01*
X101525290Y-87753743D01*
X101541427Y-87777895D01*
X101547645Y-87785472D01*
X101555222Y-87791690D01*
X101563866Y-87796310D01*
X101573246Y-87799155D01*
X101583000Y-87800116D01*
X101592754Y-87799155D01*
X101602134Y-87796310D01*
X101610778Y-87791690D01*
X101618355Y-87785472D01*
X101624573Y-87777895D01*
X101640710Y-87753743D01*
X101661743Y-87732710D01*
X101686475Y-87716185D01*
X101713955Y-87704802D01*
X101728542Y-87701901D01*
X101743126Y-87699000D01*
X101772874Y-87699000D01*
X101787459Y-87701901D01*
X101802045Y-87704802D01*
X101829525Y-87716185D01*
X101854257Y-87732710D01*
X101875290Y-87753743D01*
X101891427Y-87777895D01*
X101897645Y-87785472D01*
X101905222Y-87791690D01*
X101913866Y-87796310D01*
X101923246Y-87799155D01*
X101933000Y-87800116D01*
X101942754Y-87799155D01*
X101952134Y-87796310D01*
X101960778Y-87791690D01*
X101968355Y-87785472D01*
X101974573Y-87777895D01*
X101990710Y-87753743D01*
X102011743Y-87732710D01*
X102036475Y-87716185D01*
X102063955Y-87704802D01*
X102078542Y-87701901D01*
X102093126Y-87699000D01*
X102122874Y-87699000D01*
X102137459Y-87701901D01*
X102152045Y-87704802D01*
X102179525Y-87716185D01*
X102204257Y-87732710D01*
X102225290Y-87753743D01*
X102241427Y-87777895D01*
X102247645Y-87785472D01*
X102255222Y-87791690D01*
X102263866Y-87796310D01*
X102273246Y-87799155D01*
X102283000Y-87800116D01*
X102292754Y-87799155D01*
X102302134Y-87796310D01*
X102310778Y-87791690D01*
X102318355Y-87785472D01*
X102324573Y-87777895D01*
X102340710Y-87753743D01*
X102361743Y-87732710D01*
X102386475Y-87716185D01*
X102413955Y-87704802D01*
X102428542Y-87701901D01*
X102443126Y-87699000D01*
X102472874Y-87699000D01*
X102487459Y-87701901D01*
X102502045Y-87704802D01*
X102529525Y-87716185D01*
X102554257Y-87732710D01*
X102575290Y-87753743D01*
X102591427Y-87777895D01*
X102597645Y-87785472D01*
X102605222Y-87791690D01*
X102613866Y-87796310D01*
X102623246Y-87799155D01*
X102633000Y-87800116D01*
X102642754Y-87799155D01*
X102652134Y-87796310D01*
X102660778Y-87791690D01*
X102668355Y-87785472D01*
X102674573Y-87777895D01*
X102690710Y-87753743D01*
X102711743Y-87732710D01*
X102736475Y-87716185D01*
X102763955Y-87704802D01*
X102778542Y-87701901D01*
X102793126Y-87699000D01*
X102822874Y-87699000D01*
X102837459Y-87701901D01*
X102852045Y-87704802D01*
X102879525Y-87716185D01*
X102904257Y-87732710D01*
X102925290Y-87753743D01*
X102941815Y-87778475D01*
X102953198Y-87805955D01*
X102959000Y-87835128D01*
X102959000Y-87864872D01*
X102953198Y-87894045D01*
X102941815Y-87921525D01*
X102925290Y-87946257D01*
X102904257Y-87967290D01*
X102880102Y-87983430D01*
X102872528Y-87989645D01*
X102866310Y-87997222D01*
X102861690Y-88005866D01*
X102858845Y-88015246D01*
X102857884Y-88025000D01*
X102858845Y-88034754D01*
X102861690Y-88044134D01*
X102866310Y-88052778D01*
X102872528Y-88060355D01*
X102880102Y-88066570D01*
X102904257Y-88082710D01*
X102925290Y-88103743D01*
X102941815Y-88128475D01*
X102953198Y-88155955D01*
X102959000Y-88185128D01*
X102959000Y-88214872D01*
X102953198Y-88244045D01*
X102941815Y-88271525D01*
X102925290Y-88296257D01*
X102904257Y-88317290D01*
X102880102Y-88333430D01*
X102872528Y-88339645D01*
X102866310Y-88347222D01*
X102861690Y-88355866D01*
X102858845Y-88365246D01*
X102857884Y-88375000D01*
X102858845Y-88384754D01*
X102861690Y-88394134D01*
X102866310Y-88402778D01*
X102872528Y-88410355D01*
X102880102Y-88416570D01*
X102904257Y-88432710D01*
X102925290Y-88453743D01*
X102941815Y-88478475D01*
X102953198Y-88505955D01*
X102959000Y-88535128D01*
X102959000Y-88564872D01*
X102953198Y-88594045D01*
X102941815Y-88621525D01*
X102925290Y-88646257D01*
X102904257Y-88667290D01*
X102880102Y-88683430D01*
X102872528Y-88689645D01*
X102866310Y-88697222D01*
X102861690Y-88705866D01*
X102858845Y-88715246D01*
X102857884Y-88725000D01*
X102858845Y-88734754D01*
X102861690Y-88744134D01*
X102866310Y-88752778D01*
X102872528Y-88760355D01*
X102880102Y-88766570D01*
X102904257Y-88782710D01*
X102925290Y-88803743D01*
X102941815Y-88828475D01*
X102953198Y-88855955D01*
X102959000Y-88885128D01*
X102959000Y-88914872D01*
X102953198Y-88944045D01*
X102941815Y-88971525D01*
X102925290Y-88996257D01*
X102904257Y-89017290D01*
X102880102Y-89033430D01*
X102872528Y-89039645D01*
X102866310Y-89047222D01*
X102861690Y-89055866D01*
X102858845Y-89065246D01*
X102857884Y-89075000D01*
X102858845Y-89084754D01*
X102861690Y-89094134D01*
X102866310Y-89102778D01*
X102872528Y-89110355D01*
X102880102Y-89116570D01*
X102904257Y-89132710D01*
X102925290Y-89153743D01*
X102941815Y-89178475D01*
X102953198Y-89205955D01*
X102959000Y-89235128D01*
X102959000Y-89264872D01*
X102953198Y-89294045D01*
X102941815Y-89321525D01*
X102925290Y-89346257D01*
X102904257Y-89367290D01*
X102880102Y-89383430D01*
X102872528Y-89389645D01*
X102866310Y-89397222D01*
X102861690Y-89405866D01*
X102858845Y-89415246D01*
X102857884Y-89425000D01*
X102858845Y-89434754D01*
X102861690Y-89444134D01*
X102866310Y-89452778D01*
X102872528Y-89460355D01*
X102880102Y-89466570D01*
X102904257Y-89482710D01*
X102925290Y-89503743D01*
X102941815Y-89528475D01*
X102953198Y-89555955D01*
X102959000Y-89585128D01*
X102959000Y-89614872D01*
X102953198Y-89644045D01*
X102941815Y-89671525D01*
X102925290Y-89696257D01*
X102904257Y-89717290D01*
X102880102Y-89733430D01*
X102872528Y-89739645D01*
X102866310Y-89747222D01*
X102861690Y-89755866D01*
X102858845Y-89765246D01*
X102857884Y-89775000D01*
X102858845Y-89784754D01*
X102861690Y-89794134D01*
X102866310Y-89802778D01*
X102872528Y-89810355D01*
X102880102Y-89816570D01*
X102904257Y-89832710D01*
X102925290Y-89853743D01*
X102941815Y-89878475D01*
X102953198Y-89905955D01*
X102959000Y-89935128D01*
X102959000Y-89964872D01*
X102953198Y-89994045D01*
X102941815Y-90021525D01*
X102925290Y-90046257D01*
X102904257Y-90067290D01*
X102879525Y-90083815D01*
X102852045Y-90095198D01*
X102837459Y-90098099D01*
X102822874Y-90101000D01*
X102793126Y-90101000D01*
X102778542Y-90098099D01*
X102763955Y-90095198D01*
X102736475Y-90083815D01*
X102711743Y-90067290D01*
X102690710Y-90046257D01*
X102674570Y-90022102D01*
X102668355Y-90014528D01*
X102660778Y-90008310D01*
X102652134Y-90003690D01*
X102642754Y-90000845D01*
X102633000Y-89999884D01*
X102623246Y-90000845D01*
X102613866Y-90003690D01*
X102605222Y-90008310D01*
X102597645Y-90014528D01*
X102591430Y-90022102D01*
X102575290Y-90046257D01*
X102554257Y-90067290D01*
X102529525Y-90083815D01*
X102502045Y-90095198D01*
X102487459Y-90098099D01*
X102472874Y-90101000D01*
X102443126Y-90101000D01*
X102428542Y-90098099D01*
X102413955Y-90095198D01*
X102386475Y-90083815D01*
X102361743Y-90067290D01*
X102340710Y-90046257D01*
X102324570Y-90022102D01*
X102318355Y-90014528D01*
X102310778Y-90008310D01*
X102302134Y-90003690D01*
X102292754Y-90000845D01*
X102283000Y-89999884D01*
X102273246Y-90000845D01*
X102263866Y-90003690D01*
X102255222Y-90008310D01*
X102247645Y-90014528D01*
X102241430Y-90022102D01*
X102225290Y-90046257D01*
X102204257Y-90067290D01*
X102179525Y-90083815D01*
X102152045Y-90095198D01*
X102137459Y-90098099D01*
X102122874Y-90101000D01*
X102093126Y-90101000D01*
X102078542Y-90098099D01*
X102063955Y-90095198D01*
X102036475Y-90083815D01*
X102011743Y-90067290D01*
X101990710Y-90046257D01*
X101974570Y-90022102D01*
X101968355Y-90014528D01*
X101960778Y-90008310D01*
X101952134Y-90003690D01*
X101942754Y-90000845D01*
X101933000Y-89999884D01*
X101923246Y-90000845D01*
X101913866Y-90003690D01*
X101905222Y-90008310D01*
X101897645Y-90014528D01*
X101891430Y-90022102D01*
X101875290Y-90046257D01*
X101854257Y-90067290D01*
X101829525Y-90083815D01*
X101802045Y-90095198D01*
X101787459Y-90098099D01*
X101772874Y-90101000D01*
X101743126Y-90101000D01*
X101728542Y-90098099D01*
X101713955Y-90095198D01*
X101686475Y-90083815D01*
X101661743Y-90067290D01*
X101640710Y-90046257D01*
X101624570Y-90022102D01*
X101618355Y-90014528D01*
X101610778Y-90008310D01*
X101602134Y-90003690D01*
X101592754Y-90000845D01*
X101583000Y-89999884D01*
X101573246Y-90000845D01*
X101563866Y-90003690D01*
X101555222Y-90008310D01*
X101547645Y-90014528D01*
X101541430Y-90022102D01*
X101525290Y-90046257D01*
X101504257Y-90067290D01*
X101479525Y-90083815D01*
X101452045Y-90095198D01*
X101437459Y-90098099D01*
X101422874Y-90101000D01*
X101393126Y-90101000D01*
X101378542Y-90098099D01*
X101363955Y-90095198D01*
X101336475Y-90083815D01*
X101311743Y-90067290D01*
X101290710Y-90046257D01*
X101274185Y-90021525D01*
X101262802Y-89994045D01*
X101257000Y-89964872D01*
X101257000Y-89935128D01*
X101262802Y-89905955D01*
X101274185Y-89878475D01*
X101290710Y-89853743D01*
X101311743Y-89832710D01*
X101335898Y-89816570D01*
X101343472Y-89810355D01*
X101349690Y-89802778D01*
X101354310Y-89794134D01*
X101357155Y-89784754D01*
X101358116Y-89775000D01*
X101457884Y-89775000D01*
X101458845Y-89784754D01*
X101461690Y-89794134D01*
X101466310Y-89802778D01*
X101472528Y-89810355D01*
X101480102Y-89816570D01*
X101504257Y-89832710D01*
X101525290Y-89853743D01*
X101530134Y-89860993D01*
X101541427Y-89877895D01*
X101547645Y-89885472D01*
X101555222Y-89891690D01*
X101563866Y-89896310D01*
X101573246Y-89899155D01*
X101583000Y-89900116D01*
X101592754Y-89899155D01*
X101602134Y-89896310D01*
X101610778Y-89891690D01*
X101618355Y-89885472D01*
X101624573Y-89877895D01*
X101635866Y-89860993D01*
X101640710Y-89853743D01*
X101661743Y-89832710D01*
X101685898Y-89816570D01*
X101693472Y-89810355D01*
X101699690Y-89802778D01*
X101704310Y-89794134D01*
X101707155Y-89784754D01*
X101708116Y-89775000D01*
X101807884Y-89775000D01*
X101808845Y-89784754D01*
X101811690Y-89794134D01*
X101816310Y-89802778D01*
X101822528Y-89810355D01*
X101830102Y-89816570D01*
X101854257Y-89832710D01*
X101875290Y-89853743D01*
X101880134Y-89860993D01*
X101891427Y-89877895D01*
X101897645Y-89885472D01*
X101905222Y-89891690D01*
X101913866Y-89896310D01*
X101923246Y-89899155D01*
X101933000Y-89900116D01*
X101942754Y-89899155D01*
X101952134Y-89896310D01*
X101960778Y-89891690D01*
X101968355Y-89885472D01*
X101974573Y-89877895D01*
X101985866Y-89860993D01*
X101990710Y-89853743D01*
X102011743Y-89832710D01*
X102035898Y-89816570D01*
X102043472Y-89810355D01*
X102049690Y-89802778D01*
X102054310Y-89794134D01*
X102057155Y-89784754D01*
X102058116Y-89775000D01*
X102157884Y-89775000D01*
X102158845Y-89784754D01*
X102161690Y-89794134D01*
X102166310Y-89802778D01*
X102172528Y-89810355D01*
X102180102Y-89816570D01*
X102204257Y-89832710D01*
X102225290Y-89853743D01*
X102230134Y-89860993D01*
X102241427Y-89877895D01*
X102247645Y-89885472D01*
X102255222Y-89891690D01*
X102263866Y-89896310D01*
X102273246Y-89899155D01*
X102283000Y-89900116D01*
X102292754Y-89899155D01*
X102302134Y-89896310D01*
X102310778Y-89891690D01*
X102318355Y-89885472D01*
X102324573Y-89877895D01*
X102335866Y-89860993D01*
X102340710Y-89853743D01*
X102361743Y-89832710D01*
X102385898Y-89816570D01*
X102393472Y-89810355D01*
X102399690Y-89802778D01*
X102404310Y-89794134D01*
X102407155Y-89784754D01*
X102408116Y-89775000D01*
X102507884Y-89775000D01*
X102508845Y-89784754D01*
X102511690Y-89794134D01*
X102516310Y-89802778D01*
X102522528Y-89810355D01*
X102530102Y-89816570D01*
X102554257Y-89832710D01*
X102575290Y-89853743D01*
X102580134Y-89860993D01*
X102591427Y-89877895D01*
X102597645Y-89885472D01*
X102605222Y-89891690D01*
X102613866Y-89896310D01*
X102623246Y-89899155D01*
X102633000Y-89900116D01*
X102642754Y-89899155D01*
X102652134Y-89896310D01*
X102660778Y-89891690D01*
X102668355Y-89885472D01*
X102674573Y-89877895D01*
X102685866Y-89860993D01*
X102690710Y-89853743D01*
X102711743Y-89832710D01*
X102735898Y-89816570D01*
X102743472Y-89810355D01*
X102749690Y-89802778D01*
X102754310Y-89794134D01*
X102757155Y-89784754D01*
X102758116Y-89775000D01*
X102757155Y-89765246D01*
X102754310Y-89755866D01*
X102749690Y-89747222D01*
X102743472Y-89739645D01*
X102735898Y-89733430D01*
X102711743Y-89717290D01*
X102690710Y-89696257D01*
X102674570Y-89672102D01*
X102668355Y-89664528D01*
X102660778Y-89658310D01*
X102652134Y-89653690D01*
X102642754Y-89650845D01*
X102633000Y-89649884D01*
X102623246Y-89650845D01*
X102613866Y-89653690D01*
X102605222Y-89658310D01*
X102597645Y-89664528D01*
X102591430Y-89672102D01*
X102575290Y-89696257D01*
X102554257Y-89717290D01*
X102530102Y-89733430D01*
X102522528Y-89739645D01*
X102516310Y-89747222D01*
X102511690Y-89755866D01*
X102508845Y-89765246D01*
X102507884Y-89775000D01*
X102408116Y-89775000D01*
X102407155Y-89765246D01*
X102404310Y-89755866D01*
X102399690Y-89747222D01*
X102393472Y-89739645D01*
X102385898Y-89733430D01*
X102361743Y-89717290D01*
X102340710Y-89696257D01*
X102324570Y-89672102D01*
X102318355Y-89664528D01*
X102310778Y-89658310D01*
X102302134Y-89653690D01*
X102292754Y-89650845D01*
X102283000Y-89649884D01*
X102273246Y-89650845D01*
X102263866Y-89653690D01*
X102255222Y-89658310D01*
X102247645Y-89664528D01*
X102241430Y-89672102D01*
X102225290Y-89696257D01*
X102204257Y-89717290D01*
X102180102Y-89733430D01*
X102172528Y-89739645D01*
X102166310Y-89747222D01*
X102161690Y-89755866D01*
X102158845Y-89765246D01*
X102157884Y-89775000D01*
X102058116Y-89775000D01*
X102057155Y-89765246D01*
X102054310Y-89755866D01*
X102049690Y-89747222D01*
X102043472Y-89739645D01*
X102035898Y-89733430D01*
X102011743Y-89717290D01*
X101990710Y-89696257D01*
X101974570Y-89672102D01*
X101968355Y-89664528D01*
X101960778Y-89658310D01*
X101952134Y-89653690D01*
X101942754Y-89650845D01*
X101933000Y-89649884D01*
X101923246Y-89650845D01*
X101913866Y-89653690D01*
X101905222Y-89658310D01*
X101897645Y-89664528D01*
X101891430Y-89672102D01*
X101875290Y-89696257D01*
X101854257Y-89717290D01*
X101830102Y-89733430D01*
X101822528Y-89739645D01*
X101816310Y-89747222D01*
X101811690Y-89755866D01*
X101808845Y-89765246D01*
X101807884Y-89775000D01*
X101708116Y-89775000D01*
X101707155Y-89765246D01*
X101704310Y-89755866D01*
X101699690Y-89747222D01*
X101693472Y-89739645D01*
X101685898Y-89733430D01*
X101661743Y-89717290D01*
X101640710Y-89696257D01*
X101624570Y-89672102D01*
X101618355Y-89664528D01*
X101610778Y-89658310D01*
X101602134Y-89653690D01*
X101592754Y-89650845D01*
X101583000Y-89649884D01*
X101573246Y-89650845D01*
X101563866Y-89653690D01*
X101555222Y-89658310D01*
X101547645Y-89664528D01*
X101541430Y-89672102D01*
X101525290Y-89696257D01*
X101504257Y-89717290D01*
X101480102Y-89733430D01*
X101472528Y-89739645D01*
X101466310Y-89747222D01*
X101461690Y-89755866D01*
X101458845Y-89765246D01*
X101457884Y-89775000D01*
X101358116Y-89775000D01*
X101357155Y-89765246D01*
X101354310Y-89755866D01*
X101349690Y-89747222D01*
X101343472Y-89739645D01*
X101335898Y-89733430D01*
X101311743Y-89717290D01*
X101290710Y-89696257D01*
X101274185Y-89671525D01*
X101262802Y-89644045D01*
X101257000Y-89614872D01*
X101257000Y-89585128D01*
X101262802Y-89555955D01*
X101274185Y-89528475D01*
X101290710Y-89503743D01*
X101311743Y-89482710D01*
X101335898Y-89466570D01*
X101343472Y-89460355D01*
X101349690Y-89452778D01*
X101354310Y-89444134D01*
X101357155Y-89434754D01*
X101358116Y-89425000D01*
X101457884Y-89425000D01*
X101458845Y-89434754D01*
X101461690Y-89444134D01*
X101466310Y-89452778D01*
X101472528Y-89460355D01*
X101480102Y-89466570D01*
X101504257Y-89482710D01*
X101525290Y-89503743D01*
X101541427Y-89527895D01*
X101547645Y-89535472D01*
X101555222Y-89541690D01*
X101563866Y-89546310D01*
X101573246Y-89549155D01*
X101583000Y-89550116D01*
X101592754Y-89549155D01*
X101602134Y-89546310D01*
X101610778Y-89541690D01*
X101618355Y-89535472D01*
X101624573Y-89527895D01*
X101640710Y-89503743D01*
X101661743Y-89482710D01*
X101685898Y-89466570D01*
X101693472Y-89460355D01*
X101699690Y-89452778D01*
X101704310Y-89444134D01*
X101707155Y-89434754D01*
X101708116Y-89425000D01*
X101807884Y-89425000D01*
X101808845Y-89434754D01*
X101811690Y-89444134D01*
X101816310Y-89452778D01*
X101822528Y-89460355D01*
X101830102Y-89466570D01*
X101854257Y-89482710D01*
X101875290Y-89503743D01*
X101891427Y-89527895D01*
X101897645Y-89535472D01*
X101905222Y-89541690D01*
X101913866Y-89546310D01*
X101923246Y-89549155D01*
X101933000Y-89550116D01*
X101942754Y-89549155D01*
X101952134Y-89546310D01*
X101960778Y-89541690D01*
X101968355Y-89535472D01*
X101974573Y-89527895D01*
X101990710Y-89503743D01*
X102011743Y-89482710D01*
X102035898Y-89466570D01*
X102043472Y-89460355D01*
X102049690Y-89452778D01*
X102054310Y-89444134D01*
X102057155Y-89434754D01*
X102058116Y-89425000D01*
X102157884Y-89425000D01*
X102158845Y-89434754D01*
X102161690Y-89444134D01*
X102166310Y-89452778D01*
X102172528Y-89460355D01*
X102180102Y-89466570D01*
X102204257Y-89482710D01*
X102225290Y-89503743D01*
X102241427Y-89527895D01*
X102247645Y-89535472D01*
X102255222Y-89541690D01*
X102263866Y-89546310D01*
X102273246Y-89549155D01*
X102283000Y-89550116D01*
X102292754Y-89549155D01*
X102302134Y-89546310D01*
X102310778Y-89541690D01*
X102318355Y-89535472D01*
X102324573Y-89527895D01*
X102340710Y-89503743D01*
X102361743Y-89482710D01*
X102385898Y-89466570D01*
X102393472Y-89460355D01*
X102399690Y-89452778D01*
X102404310Y-89444134D01*
X102407155Y-89434754D01*
X102408116Y-89425000D01*
X102507884Y-89425000D01*
X102508845Y-89434754D01*
X102511690Y-89444134D01*
X102516310Y-89452778D01*
X102522528Y-89460355D01*
X102530102Y-89466570D01*
X102554257Y-89482710D01*
X102575290Y-89503743D01*
X102591427Y-89527895D01*
X102597645Y-89535472D01*
X102605222Y-89541690D01*
X102613866Y-89546310D01*
X102623246Y-89549155D01*
X102633000Y-89550116D01*
X102642754Y-89549155D01*
X102652134Y-89546310D01*
X102660778Y-89541690D01*
X102668355Y-89535472D01*
X102674573Y-89527895D01*
X102690710Y-89503743D01*
X102711743Y-89482710D01*
X102735898Y-89466570D01*
X102743472Y-89460355D01*
X102749690Y-89452778D01*
X102754310Y-89444134D01*
X102757155Y-89434754D01*
X102758116Y-89425000D01*
X102757155Y-89415246D01*
X102754310Y-89405866D01*
X102749690Y-89397222D01*
X102743472Y-89389645D01*
X102735898Y-89383430D01*
X102711743Y-89367290D01*
X102690710Y-89346257D01*
X102674570Y-89322102D01*
X102668355Y-89314528D01*
X102660778Y-89308310D01*
X102652134Y-89303690D01*
X102642754Y-89300845D01*
X102633000Y-89299884D01*
X102623246Y-89300845D01*
X102613866Y-89303690D01*
X102605222Y-89308310D01*
X102597645Y-89314528D01*
X102591430Y-89322102D01*
X102575290Y-89346257D01*
X102554257Y-89367290D01*
X102530102Y-89383430D01*
X102522528Y-89389645D01*
X102516310Y-89397222D01*
X102511690Y-89405866D01*
X102508845Y-89415246D01*
X102507884Y-89425000D01*
X102408116Y-89425000D01*
X102407155Y-89415246D01*
X102404310Y-89405866D01*
X102399690Y-89397222D01*
X102393472Y-89389645D01*
X102385898Y-89383430D01*
X102361743Y-89367290D01*
X102340710Y-89346257D01*
X102324570Y-89322102D01*
X102318355Y-89314528D01*
X102310778Y-89308310D01*
X102302134Y-89303690D01*
X102292754Y-89300845D01*
X102283000Y-89299884D01*
X102273246Y-89300845D01*
X102263866Y-89303690D01*
X102255222Y-89308310D01*
X102247645Y-89314528D01*
X102241430Y-89322102D01*
X102225290Y-89346257D01*
X102204257Y-89367290D01*
X102180102Y-89383430D01*
X102172528Y-89389645D01*
X102166310Y-89397222D01*
X102161690Y-89405866D01*
X102158845Y-89415246D01*
X102157884Y-89425000D01*
X102058116Y-89425000D01*
X102057155Y-89415246D01*
X102054310Y-89405866D01*
X102049690Y-89397222D01*
X102043472Y-89389645D01*
X102035898Y-89383430D01*
X102011743Y-89367290D01*
X101990710Y-89346257D01*
X101974570Y-89322102D01*
X101968355Y-89314528D01*
X101960778Y-89308310D01*
X101952134Y-89303690D01*
X101942754Y-89300845D01*
X101933000Y-89299884D01*
X101923246Y-89300845D01*
X101913866Y-89303690D01*
X101905222Y-89308310D01*
X101897645Y-89314528D01*
X101891430Y-89322102D01*
X101875290Y-89346257D01*
X101854257Y-89367290D01*
X101830102Y-89383430D01*
X101822528Y-89389645D01*
X101816310Y-89397222D01*
X101811690Y-89405866D01*
X101808845Y-89415246D01*
X101807884Y-89425000D01*
X101708116Y-89425000D01*
X101707155Y-89415246D01*
X101704310Y-89405866D01*
X101699690Y-89397222D01*
X101693472Y-89389645D01*
X101685898Y-89383430D01*
X101661743Y-89367290D01*
X101640710Y-89346257D01*
X101624570Y-89322102D01*
X101618355Y-89314528D01*
X101610778Y-89308310D01*
X101602134Y-89303690D01*
X101592754Y-89300845D01*
X101583000Y-89299884D01*
X101573246Y-89300845D01*
X101563866Y-89303690D01*
X101555222Y-89308310D01*
X101547645Y-89314528D01*
X101541430Y-89322102D01*
X101525290Y-89346257D01*
X101504257Y-89367290D01*
X101480102Y-89383430D01*
X101472528Y-89389645D01*
X101466310Y-89397222D01*
X101461690Y-89405866D01*
X101458845Y-89415246D01*
X101457884Y-89425000D01*
X101358116Y-89425000D01*
X101357155Y-89415246D01*
X101354310Y-89405866D01*
X101349690Y-89397222D01*
X101343472Y-89389645D01*
X101335898Y-89383430D01*
X101311743Y-89367290D01*
X101290710Y-89346257D01*
X101274185Y-89321525D01*
X101262802Y-89294045D01*
X101257000Y-89264872D01*
X101257000Y-89235128D01*
X101262802Y-89205955D01*
X101274185Y-89178475D01*
X101290710Y-89153743D01*
X101311743Y-89132710D01*
X101335898Y-89116570D01*
X101343472Y-89110355D01*
X101349690Y-89102778D01*
X101354310Y-89094134D01*
X101357155Y-89084754D01*
X101358116Y-89075000D01*
X101457884Y-89075000D01*
X101458845Y-89084754D01*
X101461690Y-89094134D01*
X101466310Y-89102778D01*
X101472528Y-89110355D01*
X101480102Y-89116570D01*
X101504257Y-89132710D01*
X101525290Y-89153743D01*
X101541427Y-89177895D01*
X101547645Y-89185472D01*
X101555222Y-89191690D01*
X101563866Y-89196310D01*
X101573246Y-89199155D01*
X101583000Y-89200116D01*
X101592754Y-89199155D01*
X101602134Y-89196310D01*
X101610778Y-89191690D01*
X101618355Y-89185472D01*
X101624573Y-89177895D01*
X101640710Y-89153743D01*
X101661743Y-89132710D01*
X101685898Y-89116570D01*
X101693472Y-89110355D01*
X101699690Y-89102778D01*
X101704310Y-89094134D01*
X101707155Y-89084754D01*
X101708116Y-89075000D01*
X101807884Y-89075000D01*
X101808845Y-89084754D01*
X101811690Y-89094134D01*
X101816310Y-89102778D01*
X101822528Y-89110355D01*
X101830102Y-89116570D01*
X101854257Y-89132710D01*
X101875290Y-89153743D01*
X101891427Y-89177895D01*
X101897645Y-89185472D01*
X101905222Y-89191690D01*
X101913866Y-89196310D01*
X101923246Y-89199155D01*
X101933000Y-89200116D01*
X101942754Y-89199155D01*
X101952134Y-89196310D01*
X101960778Y-89191690D01*
X101968355Y-89185472D01*
X101974573Y-89177895D01*
X101990710Y-89153743D01*
X102011743Y-89132710D01*
X102035898Y-89116570D01*
X102043472Y-89110355D01*
X102049690Y-89102778D01*
X102054310Y-89094134D01*
X102057155Y-89084754D01*
X102058116Y-89075000D01*
X102157884Y-89075000D01*
X102158845Y-89084754D01*
X102161690Y-89094134D01*
X102166310Y-89102778D01*
X102172528Y-89110355D01*
X102180102Y-89116570D01*
X102204257Y-89132710D01*
X102225290Y-89153743D01*
X102241427Y-89177895D01*
X102247645Y-89185472D01*
X102255222Y-89191690D01*
X102263866Y-89196310D01*
X102273246Y-89199155D01*
X102283000Y-89200116D01*
X102292754Y-89199155D01*
X102302134Y-89196310D01*
X102310778Y-89191690D01*
X102318355Y-89185472D01*
X102324573Y-89177895D01*
X102340710Y-89153743D01*
X102361743Y-89132710D01*
X102385898Y-89116570D01*
X102393472Y-89110355D01*
X102399690Y-89102778D01*
X102404310Y-89094134D01*
X102407155Y-89084754D01*
X102408116Y-89075000D01*
X102507884Y-89075000D01*
X102508845Y-89084754D01*
X102511690Y-89094134D01*
X102516310Y-89102778D01*
X102522528Y-89110355D01*
X102530102Y-89116570D01*
X102554257Y-89132710D01*
X102575290Y-89153743D01*
X102591427Y-89177895D01*
X102597645Y-89185472D01*
X102605222Y-89191690D01*
X102613866Y-89196310D01*
X102623246Y-89199155D01*
X102633000Y-89200116D01*
X102642754Y-89199155D01*
X102652134Y-89196310D01*
X102660778Y-89191690D01*
X102668355Y-89185472D01*
X102674573Y-89177895D01*
X102690710Y-89153743D01*
X102711743Y-89132710D01*
X102735898Y-89116570D01*
X102743472Y-89110355D01*
X102749690Y-89102778D01*
X102754310Y-89094134D01*
X102757155Y-89084754D01*
X102758116Y-89075000D01*
X102757155Y-89065246D01*
X102754310Y-89055866D01*
X102749690Y-89047222D01*
X102743472Y-89039645D01*
X102735898Y-89033430D01*
X102711743Y-89017290D01*
X102690710Y-88996257D01*
X102674570Y-88972102D01*
X102668355Y-88964528D01*
X102660778Y-88958310D01*
X102652134Y-88953690D01*
X102642754Y-88950845D01*
X102633000Y-88949884D01*
X102623246Y-88950845D01*
X102613866Y-88953690D01*
X102605222Y-88958310D01*
X102597645Y-88964528D01*
X102591430Y-88972102D01*
X102575290Y-88996257D01*
X102554257Y-89017290D01*
X102530102Y-89033430D01*
X102522528Y-89039645D01*
X102516310Y-89047222D01*
X102511690Y-89055866D01*
X102508845Y-89065246D01*
X102507884Y-89075000D01*
X102408116Y-89075000D01*
X102407155Y-89065246D01*
X102404310Y-89055866D01*
X102399690Y-89047222D01*
X102393472Y-89039645D01*
X102385898Y-89033430D01*
X102361743Y-89017290D01*
X102340710Y-88996257D01*
X102324570Y-88972102D01*
X102318355Y-88964528D01*
X102310778Y-88958310D01*
X102302134Y-88953690D01*
X102292754Y-88950845D01*
X102283000Y-88949884D01*
X102273246Y-88950845D01*
X102263866Y-88953690D01*
X102255222Y-88958310D01*
X102247645Y-88964528D01*
X102241430Y-88972102D01*
X102225290Y-88996257D01*
X102204257Y-89017290D01*
X102180102Y-89033430D01*
X102172528Y-89039645D01*
X102166310Y-89047222D01*
X102161690Y-89055866D01*
X102158845Y-89065246D01*
X102157884Y-89075000D01*
X102058116Y-89075000D01*
X102057155Y-89065246D01*
X102054310Y-89055866D01*
X102049690Y-89047222D01*
X102043472Y-89039645D01*
X102035898Y-89033430D01*
X102011743Y-89017290D01*
X101990710Y-88996257D01*
X101974570Y-88972102D01*
X101968355Y-88964528D01*
X101960778Y-88958310D01*
X101952134Y-88953690D01*
X101942754Y-88950845D01*
X101933000Y-88949884D01*
X101923246Y-88950845D01*
X101913866Y-88953690D01*
X101905222Y-88958310D01*
X101897645Y-88964528D01*
X101891430Y-88972102D01*
X101875290Y-88996257D01*
X101854257Y-89017290D01*
X101830102Y-89033430D01*
X101822528Y-89039645D01*
X101816310Y-89047222D01*
X101811690Y-89055866D01*
X101808845Y-89065246D01*
X101807884Y-89075000D01*
X101708116Y-89075000D01*
X101707155Y-89065246D01*
X101704310Y-89055866D01*
X101699690Y-89047222D01*
X101693472Y-89039645D01*
X101685898Y-89033430D01*
X101661743Y-89017290D01*
X101640710Y-88996257D01*
X101624570Y-88972102D01*
X101618355Y-88964528D01*
X101610778Y-88958310D01*
X101602134Y-88953690D01*
X101592754Y-88950845D01*
X101583000Y-88949884D01*
X101573246Y-88950845D01*
X101563866Y-88953690D01*
X101555222Y-88958310D01*
X101547645Y-88964528D01*
X101541430Y-88972102D01*
X101525290Y-88996257D01*
X101504257Y-89017290D01*
X101480102Y-89033430D01*
X101472528Y-89039645D01*
X101466310Y-89047222D01*
X101461690Y-89055866D01*
X101458845Y-89065246D01*
X101457884Y-89075000D01*
X101358116Y-89075000D01*
X101357155Y-89065246D01*
X101354310Y-89055866D01*
X101349690Y-89047222D01*
X101343472Y-89039645D01*
X101335898Y-89033430D01*
X101311743Y-89017290D01*
X101290710Y-88996257D01*
X101274185Y-88971525D01*
X101262802Y-88944045D01*
X101257000Y-88914872D01*
X101257000Y-88885128D01*
X101262802Y-88855955D01*
X101274185Y-88828475D01*
X101290710Y-88803743D01*
X101311743Y-88782710D01*
X101335898Y-88766570D01*
X101343472Y-88760355D01*
X101349690Y-88752778D01*
X101354310Y-88744134D01*
X101357155Y-88734754D01*
X101358116Y-88725000D01*
X101457884Y-88725000D01*
X101458845Y-88734754D01*
X101461690Y-88744134D01*
X101466310Y-88752778D01*
X101472528Y-88760355D01*
X101480102Y-88766570D01*
X101504257Y-88782710D01*
X101525290Y-88803743D01*
X101541427Y-88827895D01*
X101547645Y-88835472D01*
X101555222Y-88841690D01*
X101563866Y-88846310D01*
X101573246Y-88849155D01*
X101583000Y-88850116D01*
X101592754Y-88849155D01*
X101602134Y-88846310D01*
X101610778Y-88841690D01*
X101618355Y-88835472D01*
X101624573Y-88827895D01*
X101640710Y-88803743D01*
X101661743Y-88782710D01*
X101685898Y-88766570D01*
X101693472Y-88760355D01*
X101699690Y-88752778D01*
X101704310Y-88744134D01*
X101707155Y-88734754D01*
X101708116Y-88725000D01*
X101807884Y-88725000D01*
X101808845Y-88734754D01*
X101811690Y-88744134D01*
X101816310Y-88752778D01*
X101822528Y-88760355D01*
X101830102Y-88766570D01*
X101854257Y-88782710D01*
X101875290Y-88803743D01*
X101891427Y-88827895D01*
X101897645Y-88835472D01*
X101905222Y-88841690D01*
X101913866Y-88846310D01*
X101923246Y-88849155D01*
X101933000Y-88850116D01*
X101942754Y-88849155D01*
X101952134Y-88846310D01*
X101960778Y-88841690D01*
X101968355Y-88835472D01*
X101974573Y-88827895D01*
X101990710Y-88803743D01*
X102011743Y-88782710D01*
X102035898Y-88766570D01*
X102043472Y-88760355D01*
X102049690Y-88752778D01*
X102054310Y-88744134D01*
X102057155Y-88734754D01*
X102058116Y-88725000D01*
X102157884Y-88725000D01*
X102158845Y-88734754D01*
X102161690Y-88744134D01*
X102166310Y-88752778D01*
X102172528Y-88760355D01*
X102180102Y-88766570D01*
X102204257Y-88782710D01*
X102225290Y-88803743D01*
X102241427Y-88827895D01*
X102247645Y-88835472D01*
X102255222Y-88841690D01*
X102263866Y-88846310D01*
X102273246Y-88849155D01*
X102283000Y-88850116D01*
X102292754Y-88849155D01*
X102302134Y-88846310D01*
X102310778Y-88841690D01*
X102318355Y-88835472D01*
X102324573Y-88827895D01*
X102340710Y-88803743D01*
X102361743Y-88782710D01*
X102385898Y-88766570D01*
X102393472Y-88760355D01*
X102399690Y-88752778D01*
X102404310Y-88744134D01*
X102407155Y-88734754D01*
X102408116Y-88725000D01*
X102507884Y-88725000D01*
X102508845Y-88734754D01*
X102511690Y-88744134D01*
X102516310Y-88752778D01*
X102522528Y-88760355D01*
X102530102Y-88766570D01*
X102554257Y-88782710D01*
X102575290Y-88803743D01*
X102591427Y-88827895D01*
X102597645Y-88835472D01*
X102605222Y-88841690D01*
X102613866Y-88846310D01*
X102623246Y-88849155D01*
X102633000Y-88850116D01*
X102642754Y-88849155D01*
X102652134Y-88846310D01*
X102660778Y-88841690D01*
X102668355Y-88835472D01*
X102674573Y-88827895D01*
X102690710Y-88803743D01*
X102711743Y-88782710D01*
X102735898Y-88766570D01*
X102743472Y-88760355D01*
X102749690Y-88752778D01*
X102754310Y-88744134D01*
X102757155Y-88734754D01*
X102758116Y-88725000D01*
X102757155Y-88715246D01*
X102754310Y-88705866D01*
X102749690Y-88697222D01*
X102743472Y-88689645D01*
X102735898Y-88683430D01*
X102711743Y-88667290D01*
X102690710Y-88646257D01*
X102674570Y-88622102D01*
X102668355Y-88614528D01*
X102660778Y-88608310D01*
X102652134Y-88603690D01*
X102642754Y-88600845D01*
X102633000Y-88599884D01*
X102623246Y-88600845D01*
X102613866Y-88603690D01*
X102605222Y-88608310D01*
X102597645Y-88614528D01*
X102591430Y-88622102D01*
X102575290Y-88646257D01*
X102554257Y-88667290D01*
X102530102Y-88683430D01*
X102522528Y-88689645D01*
X102516310Y-88697222D01*
X102511690Y-88705866D01*
X102508845Y-88715246D01*
X102507884Y-88725000D01*
X102408116Y-88725000D01*
X102407155Y-88715246D01*
X102404310Y-88705866D01*
X102399690Y-88697222D01*
X102393472Y-88689645D01*
X102385898Y-88683430D01*
X102361743Y-88667290D01*
X102340710Y-88646257D01*
X102324570Y-88622102D01*
X102318355Y-88614528D01*
X102310778Y-88608310D01*
X102302134Y-88603690D01*
X102292754Y-88600845D01*
X102283000Y-88599884D01*
X102273246Y-88600845D01*
X102263866Y-88603690D01*
X102255222Y-88608310D01*
X102247645Y-88614528D01*
X102241430Y-88622102D01*
X102225290Y-88646257D01*
X102204257Y-88667290D01*
X102180102Y-88683430D01*
X102172528Y-88689645D01*
X102166310Y-88697222D01*
X102161690Y-88705866D01*
X102158845Y-88715246D01*
X102157884Y-88725000D01*
X102058116Y-88725000D01*
X102057155Y-88715246D01*
X102054310Y-88705866D01*
X102049690Y-88697222D01*
X102043472Y-88689645D01*
X102035898Y-88683430D01*
X102011743Y-88667290D01*
X101990710Y-88646257D01*
X101974570Y-88622102D01*
X101968355Y-88614528D01*
X101960778Y-88608310D01*
X101952134Y-88603690D01*
X101942754Y-88600845D01*
X101933000Y-88599884D01*
X101923246Y-88600845D01*
X101913866Y-88603690D01*
X101905222Y-88608310D01*
X101897645Y-88614528D01*
X101891430Y-88622102D01*
X101875290Y-88646257D01*
X101854257Y-88667290D01*
X101830102Y-88683430D01*
X101822528Y-88689645D01*
X101816310Y-88697222D01*
X101811690Y-88705866D01*
X101808845Y-88715246D01*
X101807884Y-88725000D01*
X101708116Y-88725000D01*
X101707155Y-88715246D01*
X101704310Y-88705866D01*
X101699690Y-88697222D01*
X101693472Y-88689645D01*
X101685898Y-88683430D01*
X101661743Y-88667290D01*
X101640710Y-88646257D01*
X101624570Y-88622102D01*
X101618355Y-88614528D01*
X101610778Y-88608310D01*
X101602134Y-88603690D01*
X101592754Y-88600845D01*
X101583000Y-88599884D01*
X101573246Y-88600845D01*
X101563866Y-88603690D01*
X101555222Y-88608310D01*
X101547645Y-88614528D01*
X101541430Y-88622102D01*
X101525290Y-88646257D01*
X101504257Y-88667290D01*
X101480102Y-88683430D01*
X101472528Y-88689645D01*
X101466310Y-88697222D01*
X101461690Y-88705866D01*
X101458845Y-88715246D01*
X101457884Y-88725000D01*
X101358116Y-88725000D01*
X101357155Y-88715246D01*
X101354310Y-88705866D01*
X101349690Y-88697222D01*
X101343472Y-88689645D01*
X101335898Y-88683430D01*
X101311743Y-88667290D01*
X101290710Y-88646257D01*
X101274185Y-88621525D01*
X101262802Y-88594045D01*
X101257000Y-88564872D01*
X101257000Y-88535128D01*
X101262802Y-88505955D01*
X101274185Y-88478475D01*
X101290710Y-88453743D01*
X101311743Y-88432710D01*
X101335898Y-88416570D01*
X101343472Y-88410355D01*
X101349690Y-88402778D01*
X101354310Y-88394134D01*
X101357155Y-88384754D01*
X101358116Y-88375000D01*
X101457884Y-88375000D01*
X101458845Y-88384754D01*
X101461690Y-88394134D01*
X101466310Y-88402778D01*
X101472528Y-88410355D01*
X101480102Y-88416570D01*
X101504257Y-88432710D01*
X101525290Y-88453743D01*
X101541427Y-88477895D01*
X101547645Y-88485472D01*
X101555222Y-88491690D01*
X101563866Y-88496310D01*
X101573246Y-88499155D01*
X101583000Y-88500116D01*
X101592754Y-88499155D01*
X101602134Y-88496310D01*
X101610778Y-88491690D01*
X101618355Y-88485472D01*
X101624573Y-88477895D01*
X101640710Y-88453743D01*
X101661743Y-88432710D01*
X101685898Y-88416570D01*
X101693472Y-88410355D01*
X101699690Y-88402778D01*
X101704310Y-88394134D01*
X101707155Y-88384754D01*
X101708116Y-88375000D01*
X101807884Y-88375000D01*
X101808845Y-88384754D01*
X101811690Y-88394134D01*
X101816310Y-88402778D01*
X101822528Y-88410355D01*
X101830102Y-88416570D01*
X101854257Y-88432710D01*
X101875290Y-88453743D01*
X101891427Y-88477895D01*
X101897645Y-88485472D01*
X101905222Y-88491690D01*
X101913866Y-88496310D01*
X101923246Y-88499155D01*
X101933000Y-88500116D01*
X101942754Y-88499155D01*
X101952134Y-88496310D01*
X101960778Y-88491690D01*
X101968355Y-88485472D01*
X101974573Y-88477895D01*
X101990710Y-88453743D01*
X102011743Y-88432710D01*
X102035898Y-88416570D01*
X102043472Y-88410355D01*
X102049690Y-88402778D01*
X102054310Y-88394134D01*
X102057155Y-88384754D01*
X102058116Y-88375000D01*
X102157884Y-88375000D01*
X102158845Y-88384754D01*
X102161690Y-88394134D01*
X102166310Y-88402778D01*
X102172528Y-88410355D01*
X102180102Y-88416570D01*
X102204257Y-88432710D01*
X102225290Y-88453743D01*
X102241427Y-88477895D01*
X102247645Y-88485472D01*
X102255222Y-88491690D01*
X102263866Y-88496310D01*
X102273246Y-88499155D01*
X102283000Y-88500116D01*
X102292754Y-88499155D01*
X102302134Y-88496310D01*
X102310778Y-88491690D01*
X102318355Y-88485472D01*
X102324573Y-88477895D01*
X102340710Y-88453743D01*
X102361743Y-88432710D01*
X102385898Y-88416570D01*
X102393472Y-88410355D01*
X102399690Y-88402778D01*
X102404310Y-88394134D01*
X102407155Y-88384754D01*
X102408116Y-88375000D01*
X102507884Y-88375000D01*
X102508845Y-88384754D01*
X102511690Y-88394134D01*
X102516310Y-88402778D01*
X102522528Y-88410355D01*
X102530102Y-88416570D01*
X102554257Y-88432710D01*
X102575290Y-88453743D01*
X102591427Y-88477895D01*
X102597645Y-88485472D01*
X102605222Y-88491690D01*
X102613866Y-88496310D01*
X102623246Y-88499155D01*
X102633000Y-88500116D01*
X102642754Y-88499155D01*
X102652134Y-88496310D01*
X102660778Y-88491690D01*
X102668355Y-88485472D01*
X102674573Y-88477895D01*
X102690710Y-88453743D01*
X102711743Y-88432710D01*
X102735898Y-88416570D01*
X102743472Y-88410355D01*
X102749690Y-88402778D01*
X102754310Y-88394134D01*
X102757155Y-88384754D01*
X102758116Y-88375000D01*
X102757155Y-88365246D01*
X102754310Y-88355866D01*
X102749690Y-88347222D01*
X102743472Y-88339645D01*
X102735898Y-88333430D01*
X102711743Y-88317290D01*
X102690710Y-88296257D01*
X102674570Y-88272102D01*
X102668355Y-88264528D01*
X102660778Y-88258310D01*
X102652134Y-88253690D01*
X102642754Y-88250845D01*
X102633000Y-88249884D01*
X102623246Y-88250845D01*
X102613866Y-88253690D01*
X102605222Y-88258310D01*
X102597645Y-88264528D01*
X102591430Y-88272102D01*
X102575290Y-88296257D01*
X102554257Y-88317290D01*
X102530102Y-88333430D01*
X102522528Y-88339645D01*
X102516310Y-88347222D01*
X102511690Y-88355866D01*
X102508845Y-88365246D01*
X102507884Y-88375000D01*
X102408116Y-88375000D01*
X102407155Y-88365246D01*
X102404310Y-88355866D01*
X102399690Y-88347222D01*
X102393472Y-88339645D01*
X102385898Y-88333430D01*
X102361743Y-88317290D01*
X102340710Y-88296257D01*
X102324570Y-88272102D01*
X102318355Y-88264528D01*
X102310778Y-88258310D01*
X102302134Y-88253690D01*
X102292754Y-88250845D01*
X102283000Y-88249884D01*
X102273246Y-88250845D01*
X102263866Y-88253690D01*
X102255222Y-88258310D01*
X102247645Y-88264528D01*
X102241430Y-88272102D01*
X102225290Y-88296257D01*
X102204257Y-88317290D01*
X102180102Y-88333430D01*
X102172528Y-88339645D01*
X102166310Y-88347222D01*
X102161690Y-88355866D01*
X102158845Y-88365246D01*
X102157884Y-88375000D01*
X102058116Y-88375000D01*
X102057155Y-88365246D01*
X102054310Y-88355866D01*
X102049690Y-88347222D01*
X102043472Y-88339645D01*
X102035898Y-88333430D01*
X102011743Y-88317290D01*
X101990710Y-88296257D01*
X101974570Y-88272102D01*
X101968355Y-88264528D01*
X101960778Y-88258310D01*
X101952134Y-88253690D01*
X101942754Y-88250845D01*
X101933000Y-88249884D01*
X101923246Y-88250845D01*
X101913866Y-88253690D01*
X101905222Y-88258310D01*
X101897645Y-88264528D01*
X101891430Y-88272102D01*
X101875290Y-88296257D01*
X101854257Y-88317290D01*
X101830102Y-88333430D01*
X101822528Y-88339645D01*
X101816310Y-88347222D01*
X101811690Y-88355866D01*
X101808845Y-88365246D01*
X101807884Y-88375000D01*
X101708116Y-88375000D01*
X101707155Y-88365246D01*
X101704310Y-88355866D01*
X101699690Y-88347222D01*
X101693472Y-88339645D01*
X101685898Y-88333430D01*
X101661743Y-88317290D01*
X101640710Y-88296257D01*
X101624570Y-88272102D01*
X101618355Y-88264528D01*
X101610778Y-88258310D01*
X101602134Y-88253690D01*
X101592754Y-88250845D01*
X101583000Y-88249884D01*
X101573246Y-88250845D01*
X101563866Y-88253690D01*
X101555222Y-88258310D01*
X101547645Y-88264528D01*
X101541430Y-88272102D01*
X101525290Y-88296257D01*
X101504257Y-88317290D01*
X101480102Y-88333430D01*
X101472528Y-88339645D01*
X101466310Y-88347222D01*
X101461690Y-88355866D01*
X101458845Y-88365246D01*
X101457884Y-88375000D01*
X101358116Y-88375000D01*
X101357155Y-88365246D01*
X101354310Y-88355866D01*
X101349690Y-88347222D01*
X101343472Y-88339645D01*
X101335898Y-88333430D01*
X101311743Y-88317290D01*
X101290710Y-88296257D01*
X101274185Y-88271525D01*
X101262802Y-88244045D01*
X101257000Y-88214872D01*
X101257000Y-88185128D01*
X101262802Y-88155955D01*
X101274185Y-88128475D01*
X101290710Y-88103743D01*
X101311743Y-88082710D01*
X101335898Y-88066570D01*
X101343472Y-88060355D01*
X101349690Y-88052778D01*
X101354310Y-88044134D01*
X101357155Y-88034754D01*
X101358116Y-88025000D01*
X101457884Y-88025000D01*
X101458845Y-88034754D01*
X101461690Y-88044134D01*
X101466310Y-88052778D01*
X101472528Y-88060355D01*
X101480102Y-88066570D01*
X101504257Y-88082710D01*
X101525290Y-88103743D01*
X101541427Y-88127895D01*
X101547645Y-88135472D01*
X101555222Y-88141690D01*
X101563866Y-88146310D01*
X101573246Y-88149155D01*
X101583000Y-88150116D01*
X101592754Y-88149155D01*
X101602134Y-88146310D01*
X101610778Y-88141690D01*
X101618355Y-88135472D01*
X101624573Y-88127895D01*
X101640710Y-88103743D01*
X101661743Y-88082710D01*
X101685898Y-88066570D01*
X101693472Y-88060355D01*
X101699690Y-88052778D01*
X101704310Y-88044134D01*
X101707155Y-88034754D01*
X101708116Y-88025000D01*
X101807884Y-88025000D01*
X101808845Y-88034754D01*
X101811690Y-88044134D01*
X101816310Y-88052778D01*
X101822528Y-88060355D01*
X101830102Y-88066570D01*
X101854257Y-88082710D01*
X101875290Y-88103743D01*
X101891427Y-88127895D01*
X101897645Y-88135472D01*
X101905222Y-88141690D01*
X101913866Y-88146310D01*
X101923246Y-88149155D01*
X101933000Y-88150116D01*
X101942754Y-88149155D01*
X101952134Y-88146310D01*
X101960778Y-88141690D01*
X101968355Y-88135472D01*
X101974573Y-88127895D01*
X101990710Y-88103743D01*
X102011743Y-88082710D01*
X102035898Y-88066570D01*
X102043472Y-88060355D01*
X102049690Y-88052778D01*
X102054310Y-88044134D01*
X102057155Y-88034754D01*
X102058116Y-88025000D01*
X102157884Y-88025000D01*
X102158845Y-88034754D01*
X102161690Y-88044134D01*
X102166310Y-88052778D01*
X102172528Y-88060355D01*
X102180102Y-88066570D01*
X102204257Y-88082710D01*
X102225290Y-88103743D01*
X102241427Y-88127895D01*
X102247645Y-88135472D01*
X102255222Y-88141690D01*
X102263866Y-88146310D01*
X102273246Y-88149155D01*
X102283000Y-88150116D01*
X102292754Y-88149155D01*
X102302134Y-88146310D01*
X102310778Y-88141690D01*
X102318355Y-88135472D01*
X102324573Y-88127895D01*
X102340710Y-88103743D01*
X102361743Y-88082710D01*
X102385898Y-88066570D01*
X102393472Y-88060355D01*
X102399690Y-88052778D01*
X102404310Y-88044134D01*
X102407155Y-88034754D01*
X102408116Y-88025000D01*
X102507884Y-88025000D01*
X102508845Y-88034754D01*
X102511690Y-88044134D01*
X102516310Y-88052778D01*
X102522528Y-88060355D01*
X102530102Y-88066570D01*
X102554257Y-88082710D01*
X102575290Y-88103743D01*
X102591427Y-88127895D01*
X102597645Y-88135472D01*
X102605222Y-88141690D01*
X102613866Y-88146310D01*
X102623246Y-88149155D01*
X102633000Y-88150116D01*
X102642754Y-88149155D01*
X102652134Y-88146310D01*
X102660778Y-88141690D01*
X102668355Y-88135472D01*
X102674573Y-88127895D01*
X102690710Y-88103743D01*
X102711743Y-88082710D01*
X102735898Y-88066570D01*
X102743472Y-88060355D01*
X102749690Y-88052778D01*
X102754310Y-88044134D01*
X102757155Y-88034754D01*
X102758116Y-88025000D01*
X102757155Y-88015246D01*
X102754310Y-88005866D01*
X102749690Y-87997222D01*
X102743472Y-87989645D01*
X102735898Y-87983430D01*
X102711743Y-87967290D01*
X102690710Y-87946257D01*
X102674570Y-87922102D01*
X102668355Y-87914528D01*
X102660778Y-87908310D01*
X102652134Y-87903690D01*
X102642754Y-87900845D01*
X102633000Y-87899884D01*
X102623246Y-87900845D01*
X102613866Y-87903690D01*
X102605222Y-87908310D01*
X102597645Y-87914528D01*
X102591430Y-87922102D01*
X102575290Y-87946257D01*
X102554257Y-87967290D01*
X102530102Y-87983430D01*
X102522528Y-87989645D01*
X102516310Y-87997222D01*
X102511690Y-88005866D01*
X102508845Y-88015246D01*
X102507884Y-88025000D01*
X102408116Y-88025000D01*
X102407155Y-88015246D01*
X102404310Y-88005866D01*
X102399690Y-87997222D01*
X102393472Y-87989645D01*
X102385898Y-87983430D01*
X102361743Y-87967290D01*
X102340710Y-87946257D01*
X102324570Y-87922102D01*
X102318355Y-87914528D01*
X102310778Y-87908310D01*
X102302134Y-87903690D01*
X102292754Y-87900845D01*
X102283000Y-87899884D01*
X102273246Y-87900845D01*
X102263866Y-87903690D01*
X102255222Y-87908310D01*
X102247645Y-87914528D01*
X102241430Y-87922102D01*
X102225290Y-87946257D01*
X102204257Y-87967290D01*
X102180102Y-87983430D01*
X102172528Y-87989645D01*
X102166310Y-87997222D01*
X102161690Y-88005866D01*
X102158845Y-88015246D01*
X102157884Y-88025000D01*
X102058116Y-88025000D01*
X102057155Y-88015246D01*
X102054310Y-88005866D01*
X102049690Y-87997222D01*
X102043472Y-87989645D01*
X102035898Y-87983430D01*
X102011743Y-87967290D01*
X101990710Y-87946257D01*
X101974570Y-87922102D01*
X101968355Y-87914528D01*
X101960778Y-87908310D01*
X101952134Y-87903690D01*
X101942754Y-87900845D01*
X101933000Y-87899884D01*
X101923246Y-87900845D01*
X101913866Y-87903690D01*
X101905222Y-87908310D01*
X101897645Y-87914528D01*
X101891430Y-87922102D01*
X101875290Y-87946257D01*
X101854257Y-87967290D01*
X101830102Y-87983430D01*
X101822528Y-87989645D01*
X101816310Y-87997222D01*
X101811690Y-88005866D01*
X101808845Y-88015246D01*
X101807884Y-88025000D01*
X101708116Y-88025000D01*
X101707155Y-88015246D01*
X101704310Y-88005866D01*
X101699690Y-87997222D01*
X101693472Y-87989645D01*
X101685898Y-87983430D01*
X101661743Y-87967290D01*
X101640710Y-87946257D01*
X101624570Y-87922102D01*
X101618355Y-87914528D01*
X101610778Y-87908310D01*
X101602134Y-87903690D01*
X101592754Y-87900845D01*
X101583000Y-87899884D01*
X101573246Y-87900845D01*
X101563866Y-87903690D01*
X101555222Y-87908310D01*
X101547645Y-87914528D01*
X101541430Y-87922102D01*
X101525290Y-87946257D01*
X101504257Y-87967290D01*
X101480102Y-87983430D01*
X101472528Y-87989645D01*
X101466310Y-87997222D01*
X101461690Y-88005866D01*
X101458845Y-88015246D01*
X101457884Y-88025000D01*
X101358116Y-88025000D01*
X101357155Y-88015246D01*
X101354310Y-88005866D01*
X101349690Y-87997222D01*
X101343472Y-87989645D01*
X101335898Y-87983430D01*
X101311743Y-87967290D01*
X101290710Y-87946257D01*
X101274185Y-87921525D01*
X101262802Y-87894045D01*
X101257000Y-87864872D01*
X101257000Y-87835128D01*
X101262802Y-87805955D01*
X101274185Y-87778475D01*
X101290710Y-87753743D01*
X101311743Y-87732710D01*
X101336475Y-87716185D01*
X101363955Y-87704802D01*
X101378542Y-87701901D01*
X101393126Y-87699000D01*
X101422874Y-87699000D01*
X101437459Y-87701901D01*
X101437459Y-87701901D01*
G37*
G36*
X121576000Y-88972000D02*
G01*
X119724000Y-88972000D01*
X119724000Y-88320000D01*
X121576000Y-88320000D01*
X121576000Y-88972000D01*
X121576000Y-88972000D01*
G37*
G36*
X114176000Y-88972000D02*
G01*
X112324000Y-88972000D01*
X112324000Y-88320000D01*
X114176000Y-88320000D01*
X114176000Y-88972000D01*
X114176000Y-88972000D01*
G37*
G36*
X121576000Y-87702000D02*
G01*
X119724000Y-87702000D01*
X119724000Y-87050000D01*
X121576000Y-87050000D01*
X121576000Y-87702000D01*
X121576000Y-87702000D01*
G37*
G36*
X114176000Y-87702000D02*
G01*
X112324000Y-87702000D01*
X112324000Y-87050000D01*
X114176000Y-87050000D01*
X114176000Y-87702000D01*
X114176000Y-87702000D01*
G37*
G36*
X110585477Y-85621950D02*
G01*
X110626559Y-85634412D01*
X110664424Y-85654652D01*
X110697612Y-85681888D01*
X110724848Y-85715076D01*
X110745088Y-85752941D01*
X110757550Y-85794023D01*
X110762000Y-85839204D01*
X110762000Y-86372796D01*
X110757550Y-86417977D01*
X110745088Y-86459059D01*
X110724848Y-86496924D01*
X110697612Y-86530112D01*
X110664424Y-86557348D01*
X110626559Y-86577588D01*
X110585477Y-86590050D01*
X110540296Y-86594500D01*
X109931704Y-86594500D01*
X109886523Y-86590050D01*
X109845441Y-86577588D01*
X109807576Y-86557348D01*
X109774388Y-86530112D01*
X109747152Y-86496924D01*
X109726912Y-86459059D01*
X109714450Y-86417977D01*
X109710000Y-86372796D01*
X109710000Y-85839204D01*
X109714450Y-85794023D01*
X109726912Y-85752941D01*
X109747152Y-85715076D01*
X109774388Y-85681888D01*
X109807576Y-85654652D01*
X109845441Y-85634412D01*
X109886523Y-85621950D01*
X109931704Y-85617500D01*
X110540296Y-85617500D01*
X110585477Y-85621950D01*
X110585477Y-85621950D01*
G37*
G36*
X121576000Y-86432000D02*
G01*
X119724000Y-86432000D01*
X119724000Y-85780000D01*
X121576000Y-85780000D01*
X121576000Y-86432000D01*
X121576000Y-86432000D01*
G37*
G36*
X114176000Y-86432000D02*
G01*
X112324000Y-86432000D01*
X112324000Y-85780000D01*
X114176000Y-85780000D01*
X114176000Y-86432000D01*
X114176000Y-86432000D01*
G37*
G36*
X121576000Y-85162000D02*
G01*
X119724000Y-85162000D01*
X119724000Y-84510000D01*
X121576000Y-84510000D01*
X121576000Y-85162000D01*
X121576000Y-85162000D01*
G37*
G36*
X114176000Y-85162000D02*
G01*
X112324000Y-85162000D01*
X112324000Y-84510000D01*
X114176000Y-84510000D01*
X114176000Y-85162000D01*
X114176000Y-85162000D01*
G37*
G36*
X110585477Y-84046950D02*
G01*
X110626559Y-84059412D01*
X110664424Y-84079652D01*
X110697612Y-84106888D01*
X110724848Y-84140076D01*
X110745088Y-84177941D01*
X110757550Y-84219023D01*
X110762000Y-84264204D01*
X110762000Y-84797796D01*
X110757550Y-84842977D01*
X110745088Y-84884059D01*
X110724848Y-84921924D01*
X110697612Y-84955112D01*
X110664424Y-84982348D01*
X110626559Y-85002588D01*
X110585477Y-85015050D01*
X110540296Y-85019500D01*
X109931704Y-85019500D01*
X109886523Y-85015050D01*
X109845441Y-85002588D01*
X109807576Y-84982348D01*
X109774388Y-84955112D01*
X109747152Y-84921924D01*
X109726912Y-84884059D01*
X109714450Y-84842977D01*
X109710000Y-84797796D01*
X109710000Y-84264204D01*
X109714450Y-84219023D01*
X109726912Y-84177941D01*
X109747152Y-84140076D01*
X109774388Y-84106888D01*
X109807576Y-84079652D01*
X109845441Y-84059412D01*
X109886523Y-84046950D01*
X109931704Y-84042500D01*
X110540296Y-84042500D01*
X110585477Y-84046950D01*
X110585477Y-84046950D01*
G37*
G36*
X118074000Y-80990000D02*
G01*
X116622000Y-80990000D01*
X116622000Y-79538000D01*
X118074000Y-79538000D01*
X118074000Y-80990000D01*
X118074000Y-80990000D01*
G37*
G36*
X115436990Y-79543252D02*
G01*
X115490321Y-79548505D01*
X115521684Y-79558019D01*
X115627174Y-79590019D01*
X115753294Y-79657431D01*
X115863843Y-79748157D01*
X115954569Y-79858706D01*
X116021981Y-79984826D01*
X116063495Y-80121680D01*
X116077512Y-80264000D01*
X116063495Y-80406320D01*
X116021981Y-80543174D01*
X115954569Y-80669294D01*
X115863843Y-80779843D01*
X115753294Y-80870569D01*
X115627174Y-80937981D01*
X115535938Y-80965657D01*
X115490321Y-80979495D01*
X115436990Y-80984748D01*
X115383660Y-80990000D01*
X115312340Y-80990000D01*
X115259010Y-80984748D01*
X115205679Y-80979495D01*
X115160062Y-80965657D01*
X115068826Y-80937981D01*
X114942706Y-80870569D01*
X114832157Y-80779843D01*
X114741431Y-80669294D01*
X114674019Y-80543174D01*
X114632505Y-80406320D01*
X114618488Y-80264000D01*
X114632505Y-80121680D01*
X114674019Y-79984826D01*
X114741431Y-79858706D01*
X114832157Y-79748157D01*
X114942706Y-79657431D01*
X115068826Y-79590019D01*
X115174316Y-79558019D01*
X115205679Y-79548505D01*
X115259010Y-79543252D01*
X115312340Y-79538000D01*
X115383660Y-79538000D01*
X115436990Y-79543252D01*
X115436990Y-79543252D01*
G37*
G36*
X111054990Y-79511253D02*
G01*
X111108321Y-79516505D01*
X111153938Y-79530343D01*
X111245174Y-79558019D01*
X111371294Y-79625431D01*
X111481843Y-79716157D01*
X111572569Y-79826706D01*
X111639981Y-79952826D01*
X111667657Y-80044062D01*
X111681495Y-80089679D01*
X111695512Y-80232000D01*
X111681495Y-80374321D01*
X111671788Y-80406320D01*
X111639981Y-80511174D01*
X111572569Y-80637294D01*
X111481843Y-80747843D01*
X111371294Y-80838569D01*
X111245174Y-80905981D01*
X111153938Y-80933657D01*
X111108321Y-80947495D01*
X111054990Y-80952748D01*
X111001660Y-80958000D01*
X110930340Y-80958000D01*
X110877010Y-80952748D01*
X110823679Y-80947495D01*
X110778062Y-80933657D01*
X110686826Y-80905981D01*
X110560706Y-80838569D01*
X110450157Y-80747843D01*
X110359431Y-80637294D01*
X110292019Y-80511174D01*
X110260212Y-80406320D01*
X110250505Y-80374321D01*
X110236488Y-80232000D01*
X110250505Y-80089679D01*
X110264343Y-80044062D01*
X110292019Y-79952826D01*
X110359431Y-79826706D01*
X110450157Y-79716157D01*
X110560706Y-79625431D01*
X110686826Y-79558019D01*
X110778062Y-79530343D01*
X110823679Y-79516505D01*
X110877010Y-79511253D01*
X110930340Y-79506000D01*
X111001660Y-79506000D01*
X111054990Y-79511253D01*
X111054990Y-79511253D01*
G37*
G36*
X109054990Y-79511253D02*
G01*
X109108321Y-79516505D01*
X109153938Y-79530343D01*
X109245174Y-79558019D01*
X109371294Y-79625431D01*
X109481843Y-79716157D01*
X109572569Y-79826706D01*
X109639981Y-79952826D01*
X109667657Y-80044062D01*
X109681495Y-80089679D01*
X109695512Y-80232000D01*
X109681495Y-80374321D01*
X109671788Y-80406320D01*
X109639981Y-80511174D01*
X109572569Y-80637294D01*
X109481843Y-80747843D01*
X109371294Y-80838569D01*
X109245174Y-80905981D01*
X109153938Y-80933657D01*
X109108321Y-80947495D01*
X109054990Y-80952748D01*
X109001660Y-80958000D01*
X108930340Y-80958000D01*
X108877010Y-80952748D01*
X108823679Y-80947495D01*
X108778062Y-80933657D01*
X108686826Y-80905981D01*
X108560706Y-80838569D01*
X108450157Y-80747843D01*
X108359431Y-80637294D01*
X108292019Y-80511174D01*
X108260212Y-80406320D01*
X108250505Y-80374321D01*
X108236488Y-80232000D01*
X108250505Y-80089679D01*
X108264343Y-80044062D01*
X108292019Y-79952826D01*
X108359431Y-79826706D01*
X108450157Y-79716157D01*
X108560706Y-79625431D01*
X108686826Y-79558019D01*
X108778062Y-79530343D01*
X108823679Y-79516505D01*
X108877010Y-79511253D01*
X108930340Y-79506000D01*
X109001660Y-79506000D01*
X109054990Y-79511253D01*
X109054990Y-79511253D01*
G37*
G36*
X99961000Y-80657000D02*
G01*
X98159000Y-80657000D01*
X98159000Y-78855000D01*
X99961000Y-78855000D01*
X99961000Y-80657000D01*
X99961000Y-80657000D01*
G37*
G36*
X101732504Y-78863691D02*
G01*
X101776627Y-78868037D01*
X101946466Y-78919557D01*
X101998641Y-78947445D01*
X102102989Y-79003220D01*
X102240185Y-79115815D01*
X102352780Y-79253011D01*
X102368809Y-79283000D01*
X102436443Y-79409534D01*
X102487963Y-79579373D01*
X102505359Y-79756000D01*
X102487963Y-79932627D01*
X102436443Y-80102466D01*
X102436442Y-80102467D01*
X102352780Y-80258989D01*
X102240185Y-80396185D01*
X102102989Y-80508780D01*
X101998641Y-80564555D01*
X101946466Y-80592443D01*
X101776627Y-80643963D01*
X101732504Y-80648309D01*
X101644260Y-80657000D01*
X101555740Y-80657000D01*
X101467496Y-80648309D01*
X101423373Y-80643963D01*
X101253534Y-80592443D01*
X101201359Y-80564555D01*
X101097011Y-80508780D01*
X100959815Y-80396185D01*
X100847220Y-80258989D01*
X100763558Y-80102467D01*
X100763557Y-80102466D01*
X100712037Y-79932627D01*
X100694641Y-79756000D01*
X100712037Y-79579373D01*
X100763557Y-79409534D01*
X100831191Y-79283000D01*
X100847220Y-79253011D01*
X100959815Y-79115815D01*
X101097011Y-79003220D01*
X101201359Y-78947445D01*
X101253534Y-78919557D01*
X101423373Y-78868037D01*
X101467496Y-78863691D01*
X101555740Y-78855000D01*
X101644260Y-78855000D01*
X101732504Y-78863691D01*
X101732504Y-78863691D01*
G37*
G36*
X104272504Y-78863691D02*
G01*
X104316627Y-78868037D01*
X104486466Y-78919557D01*
X104538641Y-78947445D01*
X104642989Y-79003220D01*
X104780185Y-79115815D01*
X104892780Y-79253011D01*
X104908809Y-79283000D01*
X104976443Y-79409534D01*
X105027963Y-79579373D01*
X105045359Y-79756000D01*
X105027963Y-79932627D01*
X104976443Y-80102466D01*
X104976442Y-80102467D01*
X104892780Y-80258989D01*
X104780185Y-80396185D01*
X104642989Y-80508780D01*
X104538641Y-80564555D01*
X104486466Y-80592443D01*
X104316627Y-80643963D01*
X104272504Y-80648309D01*
X104184260Y-80657000D01*
X104095740Y-80657000D01*
X104007496Y-80648309D01*
X103963373Y-80643963D01*
X103793534Y-80592443D01*
X103741359Y-80564555D01*
X103637011Y-80508780D01*
X103499815Y-80396185D01*
X103387220Y-80258989D01*
X103303558Y-80102467D01*
X103303557Y-80102466D01*
X103252037Y-79932627D01*
X103234641Y-79756000D01*
X103252037Y-79579373D01*
X103303557Y-79409534D01*
X103371191Y-79283000D01*
X103387220Y-79253011D01*
X103499815Y-79115815D01*
X103637011Y-79003220D01*
X103741359Y-78947445D01*
X103793534Y-78919557D01*
X103963373Y-78868037D01*
X104007496Y-78863691D01*
X104095740Y-78855000D01*
X104184260Y-78855000D01*
X104272504Y-78863691D01*
X104272504Y-78863691D01*
G37*
G36*
X89350720Y-77195520D02*
G01*
X89539881Y-77252901D01*
X89714212Y-77346083D01*
X89867015Y-77471485D01*
X89992417Y-77624288D01*
X90085599Y-77798620D01*
X90142980Y-77987781D01*
X90157500Y-78135207D01*
X90157500Y-78328794D01*
X90142980Y-78476220D01*
X90085599Y-78665381D01*
X89992417Y-78839712D01*
X89867015Y-78992515D01*
X89714212Y-79117917D01*
X89539880Y-79211099D01*
X89350719Y-79268480D01*
X89154000Y-79287855D01*
X88957280Y-79268480D01*
X88768119Y-79211099D01*
X88593788Y-79117917D01*
X88440985Y-78992515D01*
X88315583Y-78839712D01*
X88222401Y-78665380D01*
X88165020Y-78476219D01*
X88150500Y-78328793D01*
X88150500Y-78135206D01*
X88165020Y-77987780D01*
X88222401Y-77798619D01*
X88315583Y-77624288D01*
X88440985Y-77471485D01*
X88593788Y-77346083D01*
X88768120Y-77252901D01*
X88957281Y-77195520D01*
X89154000Y-77176145D01*
X89350720Y-77195520D01*
X89350720Y-77195520D01*
G37*
G36*
X91890720Y-77195520D02*
G01*
X92079881Y-77252901D01*
X92254212Y-77346083D01*
X92407015Y-77471485D01*
X92532417Y-77624288D01*
X92625599Y-77798620D01*
X92682980Y-77987781D01*
X92697500Y-78135207D01*
X92697500Y-78328794D01*
X92682980Y-78476220D01*
X92625599Y-78665381D01*
X92532417Y-78839712D01*
X92407015Y-78992515D01*
X92254212Y-79117917D01*
X92079880Y-79211099D01*
X91890719Y-79268480D01*
X91694000Y-79287855D01*
X91497280Y-79268480D01*
X91308119Y-79211099D01*
X91133788Y-79117917D01*
X90980985Y-78992515D01*
X90855583Y-78839712D01*
X90762401Y-78665380D01*
X90705020Y-78476219D01*
X90690500Y-78328793D01*
X90690500Y-78135206D01*
X90705020Y-77987780D01*
X90762401Y-77798619D01*
X90855583Y-77624288D01*
X90980985Y-77471485D01*
X91133788Y-77346083D01*
X91308120Y-77252901D01*
X91497281Y-77195520D01*
X91694000Y-77176145D01*
X91890720Y-77195520D01*
X91890720Y-77195520D01*
G37*
G36*
X95237500Y-79283000D02*
G01*
X93230500Y-79283000D01*
X93230500Y-77181000D01*
X95237500Y-77181000D01*
X95237500Y-79283000D01*
X95237500Y-79283000D01*
G37*
G36*
X109692000Y-78958000D02*
G01*
X108240000Y-78958000D01*
X108240000Y-77506000D01*
X109692000Y-77506000D01*
X109692000Y-78958000D01*
X109692000Y-78958000D01*
G37*
G36*
X111054990Y-77511252D02*
G01*
X111108321Y-77516505D01*
X111153938Y-77530343D01*
X111245174Y-77558019D01*
X111371294Y-77625431D01*
X111481843Y-77716157D01*
X111572569Y-77826706D01*
X111639981Y-77952826D01*
X111681495Y-78089680D01*
X111695512Y-78232000D01*
X111681495Y-78374320D01*
X111639981Y-78511174D01*
X111572569Y-78637294D01*
X111481843Y-78747843D01*
X111371294Y-78838569D01*
X111245174Y-78905981D01*
X111153938Y-78933657D01*
X111108321Y-78947495D01*
X111054990Y-78952748D01*
X111001660Y-78958000D01*
X110930340Y-78958000D01*
X110877010Y-78952748D01*
X110823679Y-78947495D01*
X110778062Y-78933657D01*
X110686826Y-78905981D01*
X110560706Y-78838569D01*
X110450157Y-78747843D01*
X110359431Y-78637294D01*
X110292019Y-78511174D01*
X110250505Y-78374320D01*
X110236488Y-78232000D01*
X110250505Y-78089680D01*
X110292019Y-77952826D01*
X110359431Y-77826706D01*
X110450157Y-77716157D01*
X110560706Y-77625431D01*
X110686826Y-77558019D01*
X110778062Y-77530343D01*
X110823679Y-77516505D01*
X110877010Y-77511252D01*
X110930340Y-77506000D01*
X111001660Y-77506000D01*
X111054990Y-77511252D01*
X111054990Y-77511252D01*
G37*
M02*
