M48
; DRILL file {KiCad (5.1.2)-2} date 2020/08/22 0:21:26
; FORMAT={-:-/ absolute / inch / decimal}
; #@! TF.CreationDate,2020-08-22T00:21:26+09:00
; #@! TF.GenerationSoftware,Kicad,Pcbnew,(5.1.2)-2
; #@! TF.FileFunction,Plated,1,2,PTH
FMAT,2
INCH
T1C0.0157
T2C0.0315
T3C0.0394
T4C0.0591
%
G90
G05
T1
X4.255Y-3.455
X4.41Y-3.501
X4.77Y-3.5758
X4.89Y-3.21
X5.07Y-3.52
T2
X4.4213Y-2.84
X4.4213Y-2.9187
X4.5Y-2.84
X4.5Y-2.9187
X5.1313Y-2.92
X5.21Y-2.92
X5.1313Y-3.89
X5.21Y-3.89
X3.94Y-2.85
X4.04Y-2.85
X4.14Y-2.85
T3
X4.59Y-3.92
X4.69Y-3.92
X4.79Y-3.92
X3.8849Y-3.9157
X3.9849Y-3.9157
X4.0849Y-3.9157
X4.1849Y-3.9157
X4.2849Y-3.9157
T4
X3.92Y-3.4
X3.92Y-3.7228
X5.4161Y-3.4
T0
M30
